<?xml version="1.0" encoding="UTF-8" standalone="no"?>
<!DOCTYPE svg PUBLIC "-//W3C//DTD SVG 1.1//EN"
 "http://www.w3.org/Graphics/SVG/1.1/DTD/svg11.dtd">
<!-- Generated by graphviz version 2.40.1 (20161225.0304)
 -->
<!-- Title: GG Pages: 1 -->
<svg width="952pt" height="332pt"
 viewBox="0.00 0.00 952.28 332.00" xmlns="http://www.w3.org/2000/svg" xmlns:xlink="http://www.w3.org/1999/xlink">
<g id="graph0" class="graph" transform="scale(1 1) rotate(0) translate(4 328)">
<title>GG</title>
<polygon fill="#ffffff" stroke="transparent" points="-4,4 -4,-328 948.2791,-328 948.2791,4 -4,4"/>
<!-- node1463 -->
<g id="node1" class="node">
<title>node1463</title>
<polygon fill="none" stroke="#000000" points="661.9729,-180 572.9729,-180 572.9729,-144 661.9729,-144 661.9729,-180"/>
<text text-anchor="middle" x="617.4729" y="-158.9" font-family="Times,serif" font-size="12.00" fill="#000000">mbedcrypto</text>
</g>
<!-- node1405 -->
<g id="node2" class="node">
<title>node1405</title>
<polygon fill="none" stroke="#000000" points="645.4729,-108 594.9866,-90 645.4729,-72 695.9592,-90 645.4729,-108"/>
<text text-anchor="middle" x="645.4729" y="-86.9" font-family="Times,serif" font-size="12.00" fill="#000000">oecore</text>
</g>
<!-- node1463&#45;&gt;node1405 -->
<g id="edge1" class="edge">
<title>node1463&#45;&gt;node1405</title>
<path fill="none" stroke="#000000" stroke-dasharray="1,5" d="M624.5385,-143.8314C627.8697,-135.2652 631.9018,-124.8971 635.5345,-115.5559"/>
<polygon fill="#000000" stroke="#000000" points="638.9049,-116.5454 639.2675,-105.9568 632.3809,-114.0083 638.9049,-116.5454"/>
</g>
<!-- node25 -->
<g id="node3" class="node">
<title>node25</title>
<polygon fill="none" stroke="#000000" points="670.4729,-36 584.4729,-36 584.4729,0 670.4729,0 670.4729,-36"/>
<text text-anchor="middle" x="627.4729" y="-14.9" font-family="Times,serif" font-size="12.00" fill="#000000">oe_includes</text>
</g>
<!-- node1405&#45;&gt;node25 -->
<g id="edge2" class="edge">
<title>node1405&#45;&gt;node25</title>
<path fill="none" stroke="#000000" d="M641.2981,-73.3008C639.2758,-65.2118 636.7921,-55.2769 634.4904,-46.0702"/>
<polygon fill="#000000" stroke="#000000" points="637.8243,-44.9747 632.0034,-36.1222 631.0333,-46.6725 637.8243,-44.9747"/>
</g>
<!-- node1524 -->
<g id="node4" class="node">
<title>node1524</title>
<polygon fill="none" stroke="#000000" points="577.4729,-108 501.4729,-108 501.4729,-72 577.4729,-72 577.4729,-108"/>
<text text-anchor="middle" x="539.4729" y="-86.9" font-family="Times,serif" font-size="12.00" fill="#000000">oe_ptrace</text>
</g>
<!-- node1524&#45;&gt;node25 -->
<g id="edge4" class="edge">
<title>node1524&#45;&gt;node25</title>
<path fill="none" stroke="#000000" d="M561.679,-71.8314C572.5178,-62.9632 585.7173,-52.1637 597.4406,-42.5718"/>
<polygon fill="#000000" stroke="#000000" points="599.7506,-45.2041 605.2739,-36.1628 595.3179,-39.7864 599.7506,-45.2041"/>
</g>
<!-- node1568 -->
<g id="node5" class="node">
<title>node1568</title>
<ellipse fill="none" stroke="#000000" cx="539.4729" cy="-18" rx="27" ry="18"/>
<text text-anchor="middle" x="539.4729" y="-14.9" font-family="Times,serif" font-size="12.00" fill="#000000">dl</text>
</g>
<!-- node1524&#45;&gt;node1568 -->
<g id="edge3" class="edge">
<title>node1524&#45;&gt;node1568</title>
<path fill="none" stroke="#000000" d="M539.4729,-71.8314C539.4729,-64.131 539.4729,-54.9743 539.4729,-46.4166"/>
<polygon fill="#000000" stroke="#000000" points="542.973,-46.4132 539.4729,-36.4133 535.973,-46.4133 542.973,-46.4132"/>
</g>
<!-- node1506 -->
<g id="node6" class="node">
<title>node1506</title>
<polygon fill="none" stroke="#000000" points="609.4729,-252 548.5928,-234 609.4729,-216 670.3529,-234 609.4729,-252"/>
<text text-anchor="middle" x="609.4729" y="-230.9" font-family="Times,serif" font-size="12.00" fill="#000000">oecrypto</text>
</g>
<!-- node1506&#45;&gt;node1463 -->
<g id="edge5" class="edge">
<title>node1506&#45;&gt;node1463</title>
<path fill="none" stroke="#000000" d="M611.4094,-216.5708C612.2936,-208.6139 613.3628,-198.9902 614.3558,-190.054"/>
<polygon fill="#000000" stroke="#000000" points="617.8448,-190.346 615.4706,-180.0206 610.8876,-189.5729 617.8448,-190.346"/>
</g>
<!-- node1496 -->
<g id="node7" class="node">
<title>node1496</title>
<polygon fill="none" stroke="#000000" points="609.4729,-324 542.4048,-306 609.4729,-288 676.5409,-306 609.4729,-324"/>
<text text-anchor="middle" x="609.4729" y="-302.9" font-family="Times,serif" font-size="12.00" fill="#000000">oeenclave</text>
</g>
<!-- node1496&#45;&gt;node1506 -->
<g id="edge6" class="edge">
<title>node1496&#45;&gt;node1506</title>
<path fill="none" stroke="#000000" d="M609.4729,-287.8314C609.4729,-280.131 609.4729,-270.9743 609.4729,-262.4166"/>
<polygon fill="#000000" stroke="#000000" points="612.973,-262.4132 609.4729,-252.4133 605.973,-262.4133 612.973,-262.4132"/>
</g>
<!-- node16 -->
<g id="node8" class="node">
<title>node16</title>
<polygon fill="none" stroke="#000000" points="369.4729,-108 320.9676,-90 369.4729,-72 417.9781,-90 369.4729,-108"/>
<text text-anchor="middle" x="369.4729" y="-86.9" font-family="Times,serif" font-size="12.00" fill="#000000">oehost</text>
</g>
<!-- node16&#45;&gt;node25 -->
<g id="edge9" class="edge">
<title>node16&#45;&gt;node25</title>
<path fill="none" stroke="#000000" d="M399.3531,-82.932C437.8028,-73.671 506.8253,-56.487 574.839,-36.0859"/>
<polygon fill="#000000" stroke="#000000" points="575.8675,-39.4315 584.426,-33.1864 573.841,-32.7312 575.8675,-39.4315"/>
</g>
<!-- node16&#45;&gt;node1568 -->
<g id="edge8" class="edge">
<title>node16&#45;&gt;node1568</title>
<path fill="none" stroke="#000000" stroke-dasharray="5,2" d="M393.9283,-80.826C420.9819,-70.5202 465.7416,-53.0021 503.4729,-36 505.2408,-35.2034 507.0484,-34.3679 508.8664,-33.5115"/>
<polygon fill="#000000" stroke="#000000" points="510.43,-36.6432 517.9064,-29.1363 507.3804,-30.3423 510.43,-36.6432"/>
</g>
<!-- node1567 -->
<g id="node9" class="node">
<title>node1567</title>
<ellipse fill="none" stroke="#000000" cx="34.4729" cy="-18" rx="34.4458" ry="18"/>
<text text-anchor="middle" x="34.4729" y="-14.9" font-family="Times,serif" font-size="12.00" fill="#000000">crypto</text>
</g>
<!-- node16&#45;&gt;node1567 -->
<g id="edge7" class="edge">
<title>node16&#45;&gt;node1567</title>
<path fill="none" stroke="#000000" stroke-dasharray="5,2" d="M332.4609,-85.7322C276.4416,-78.6987 167.1455,-62.7256 77.4729,-36 75.0298,-35.2719 72.5369,-34.4504 70.0434,-33.5696"/>
<polygon fill="#000000" stroke="#000000" points="71.1187,-30.234 60.5276,-29.9501 68.63,-36.7767 71.1187,-30.234"/>
</g>
<!-- node1570 -->
<g id="node10" class="node">
<title>node1570</title>
<ellipse fill="none" stroke="#000000" cx="141.4729" cy="-18" rx="54.5753" ry="18"/>
<text text-anchor="middle" x="141.4729" y="-14.9" font-family="Times,serif" font-size="12.00" fill="#000000">sgx_dcap_ql</text>
</g>
<!-- node16&#45;&gt;node1570 -->
<g id="edge10" class="edge">
<title>node16&#45;&gt;node1570</title>
<path fill="none" stroke="#000000" d="M342.8722,-81.5998C305.6947,-69.8595 237.5247,-48.3322 190.8832,-33.6033"/>
<polygon fill="#000000" stroke="#000000" points="191.8659,-30.2433 181.276,-30.5694 189.7579,-36.9183 191.8659,-30.2433"/>
</g>
<!-- node1569 -->
<g id="node11" class="node">
<title>node1569</title>
<ellipse fill="none" stroke="#000000" cx="304.4729" cy="-18" rx="89.7516" ry="18"/>
<text text-anchor="middle" x="304.4729" y="-14.9" font-family="Times,serif" font-size="12.00" fill="#000000">sgx_enclave_common</text>
</g>
<!-- node16&#45;&gt;node1569 -->
<g id="edge11" class="edge">
<title>node16&#45;&gt;node1569</title>
<path fill="none" stroke="#000000" d="M357.2469,-76.4574C348.8207,-67.1238 337.3674,-54.437 327.2837,-43.2674"/>
<polygon fill="#000000" stroke="#000000" points="329.8745,-40.9141 320.5755,-35.8368 324.6786,-45.6048 329.8745,-40.9141"/>
</g>
<!-- node1571 -->
<g id="node12" class="node">
<title>node1571</title>
<ellipse fill="none" stroke="#000000" cx="453.4729" cy="-18" rx="41.4901" ry="18"/>
<text text-anchor="middle" x="453.4729" y="-14.9" font-family="Times,serif" font-size="12.00" fill="#000000">sgx_urts</text>
</g>
<!-- node16&#45;&gt;node1571 -->
<g id="edge12" class="edge">
<title>node16&#45;&gt;node1571</title>
<path fill="none" stroke="#000000" d="M384.4904,-77.1278C396.167,-67.1193 412.6688,-52.9749 426.6049,-41.0297"/>
<polygon fill="#000000" stroke="#000000" points="429.1431,-43.4639 434.4579,-34.2985 424.5875,-38.1491 429.1431,-43.4639"/>
</g>
<!-- node13 -->
<g id="node13" class="node">
<title>node13</title>
<polygon fill="none" stroke="#000000" points="358.9729,-180 279.9729,-180 279.9729,-144 358.9729,-144 358.9729,-180"/>
<text text-anchor="middle" x="319.4729" y="-158.9" font-family="Times,serif" font-size="12.00" fill="#000000">oehostapp</text>
</g>
<!-- node13&#45;&gt;node16 -->
<g id="edge13" class="edge">
<title>node13&#45;&gt;node16</title>
<path fill="none" stroke="#000000" stroke-dasharray="1,5" d="M332.09,-143.8314C338.6236,-134.4229 346.6669,-122.8407 353.6167,-112.8329"/>
<polygon fill="#000000" stroke="#000000" points="356.548,-114.7479 359.3772,-104.5378 350.7984,-110.7551 356.548,-114.7479"/>
</g>
<!-- node1476 -->
<g id="node14" class="node">
<title>node1476</title>
<polygon fill="none" stroke="#000000" points="787.4729,-180 741.1919,-162 787.4729,-144 833.7539,-162 787.4729,-180"/>
<text text-anchor="middle" x="787.4729" y="-158.9" font-family="Times,serif" font-size="12.00" fill="#000000">oelibc</text>
</g>
<!-- node1476&#45;&gt;node1405 -->
<g id="edge14" class="edge">
<title>node1476&#45;&gt;node1405</title>
<path fill="none" stroke="#000000" d="M767.1277,-151.6842C743.255,-139.5797 703.4399,-119.3917 675.8934,-105.4245"/>
<polygon fill="#000000" stroke="#000000" points="677.2096,-102.1677 666.7077,-100.767 674.0439,-108.411 677.2096,-102.1677"/>
</g>
<!-- node1477 -->
<g id="node15" class="node">
<title>node1477</title>
<polygon fill="none" stroke="#000000" points="926.9729,-108 855.9729,-108 855.9729,-72 926.9729,-72 926.9729,-108"/>
<text text-anchor="middle" x="891.4729" y="-86.9" font-family="Times,serif" font-size="12.00" fill="#000000">oelibasm</text>
</g>
<!-- node1476&#45;&gt;node1477 -->
<g id="edge15" class="edge">
<title>node1476&#45;&gt;node1477</title>
<path fill="none" stroke="#000000" stroke-dasharray="5,2" d="M804.1823,-150.432C818.3934,-140.5935 839.2628,-126.1454 857.0325,-113.8433"/>
<polygon fill="#000000" stroke="#000000" points="859.2344,-116.5759 865.4641,-108.0061 855.2499,-110.8206 859.2344,-116.5759"/>
</g>
<!-- node1452 -->
<g id="node16" class="node">
<title>node1452</title>
<polygon fill="none" stroke="#000000" points="837.4729,-108 729.4729,-108 729.4729,-72 837.4729,-72 837.4729,-108"/>
<text text-anchor="middle" x="783.4729" y="-86.9" font-family="Times,serif" font-size="12.00" fill="#000000">oelibc_includes</text>
</g>
<!-- node1476&#45;&gt;node1452 -->
<g id="edge16" class="edge">
<title>node1476&#45;&gt;node1452</title>
<path fill="none" stroke="#000000" d="M786.4841,-144.2022C786.0499,-136.3864 785.5294,-127.0171 785.0442,-118.2836"/>
<polygon fill="#000000" stroke="#000000" points="788.5274,-117.8835 784.478,-108.0931 781.5382,-118.2719 788.5274,-117.8835"/>
</g>
<!-- node1486 -->
<g id="node17" class="node">
<title>node1486</title>
<polygon fill="none" stroke="#000000" points="791.4729,-324 734.0574,-306 791.4729,-288 848.8883,-306 791.4729,-324"/>
<text text-anchor="middle" x="791.4729" y="-302.9" font-family="Times,serif" font-size="12.00" fill="#000000">oelibcxx</text>
</g>
<!-- node1425 -->
<g id="node18" class="node">
<title>node1425</title>
<polygon fill="none" stroke="#000000" points="742.4729,-252 688.4729,-252 688.4729,-216 742.4729,-216 742.4729,-252"/>
<text text-anchor="middle" x="715.4729" y="-230.9" font-family="Times,serif" font-size="12.00" fill="#000000">libcxx</text>
</g>
<!-- node1486&#45;&gt;node1425 -->
<g id="edge17" class="edge">
<title>node1486&#45;&gt;node1425</title>
<path fill="none" stroke="#000000" d="M777.1779,-292.4574C767.3016,-283.1009 753.8684,-270.3747 742.0572,-259.1851"/>
<polygon fill="#000000" stroke="#000000" points="744.2501,-256.4414 734.5834,-252.1047 739.4359,-261.5231 744.2501,-256.4414"/>
</g>
<!-- node1432 -->
<g id="node19" class="node">
<title>node1432</title>
<polygon fill="none" stroke="#000000" points="822.4729,-252 760.4729,-252 760.4729,-216 822.4729,-216 822.4729,-252"/>
<text text-anchor="middle" x="791.4729" y="-230.9" font-family="Times,serif" font-size="12.00" fill="#000000">libcxxrt</text>
</g>
<!-- node1486&#45;&gt;node1432 -->
<g id="edge19" class="edge">
<title>node1486&#45;&gt;node1432</title>
<path fill="none" stroke="#000000" d="M791.4729,-287.8314C791.4729,-280.131 791.4729,-270.9743 791.4729,-262.4166"/>
<polygon fill="#000000" stroke="#000000" points="794.973,-262.4132 791.4729,-252.4133 787.973,-262.4133 794.973,-262.4132"/>
</g>
<!-- node1442 -->
<g id="node20" class="node">
<title>node1442</title>
<polygon fill="none" stroke="#000000" points="916.4729,-252 840.4729,-252 840.4729,-216 916.4729,-216 916.4729,-252"/>
<text text-anchor="middle" x="878.4729" y="-230.9" font-family="Times,serif" font-size="12.00" fill="#000000">libunwind</text>
</g>
<!-- node1486&#45;&gt;node1442 -->
<g id="edge21" class="edge">
<title>node1486&#45;&gt;node1442</title>
<path fill="none" stroke="#000000" d="M807.43,-292.7941C818.994,-283.2239 834.9694,-270.0028 848.8428,-258.5215"/>
<polygon fill="#000000" stroke="#000000" points="851.2465,-261.0753 856.719,-252.0032 846.7835,-255.6825 851.2465,-261.0753"/>
</g>
<!-- node1425&#45;&gt;node1476 -->
<g id="edge18" class="edge">
<title>node1425&#45;&gt;node1476</title>
<path fill="none" stroke="#000000" d="M733.6415,-215.8314C743.8323,-205.6405 756.5736,-192.8993 767.1019,-182.371"/>
<polygon fill="#000000" stroke="#000000" points="769.7126,-184.71 774.3088,-175.164 764.7629,-179.7602 769.7126,-184.71"/>
</g>
<!-- node1432&#45;&gt;node1476 -->
<g id="edge20" class="edge">
<title>node1432&#45;&gt;node1476</title>
<path fill="none" stroke="#000000" d="M790.4635,-215.8314C790.0291,-208.0125 789.5113,-198.6923 789.0297,-190.0221"/>
<polygon fill="#000000" stroke="#000000" points="792.5175,-189.7038 788.4681,-179.9134 785.5282,-190.0922 792.5175,-189.7038"/>
</g>
<!-- node1442&#45;&gt;node1476 -->
<g id="edge22" class="edge">
<title>node1442&#45;&gt;node1476</title>
<path fill="none" stroke="#000000" d="M855.5097,-215.8314C841.9057,-205.0677 824.7056,-191.4589 811.0033,-180.6175"/>
<polygon fill="#000000" stroke="#000000" points="813.001,-177.7351 802.9871,-174.275 808.6576,-183.2246 813.001,-177.7351"/>
</g>
<!-- node1383 -->
<g id="node21" class="node">
<title>node1383</title>
<polygon fill="none" stroke="#000000" points="944.0864,-311.5623 905.4729,-324 866.8594,-311.5623 866.8954,-291.4377 944.0503,-291.4377 944.0864,-311.5623"/>
<text text-anchor="middle" x="905.4729" y="-302.9" font-family="Times,serif" font-size="12.00" fill="#000000">oesgx</text>
</g>
<!-- node1393 -->
<g id="node22" class="node">
<title>node1393</title>
<polygon fill="none" stroke="#000000" points="462.1948,-167.5623 419.4729,-180 376.751,-167.5623 376.7908,-147.4377 462.1549,-147.4377 462.1948,-167.5623"/>
<text text-anchor="middle" x="419.4729" y="-158.9" font-family="Times,serif" font-size="12.00" fill="#000000">oesign</text>
</g>
<!-- node1393&#45;&gt;node16 -->
<g id="edge23" class="edge">
<title>node1393&#45;&gt;node16</title>
<path fill="none" stroke="#000000" d="M409.3546,-147.4297C402.5097,-137.573 393.3246,-124.3465 385.4945,-113.0712"/>
<polygon fill="#000000" stroke="#000000" points="388.1549,-110.7659 379.5761,-104.5486 382.4053,-114.7587 388.1549,-110.7659"/>
</g>
</g>
</svg>
