<?xml version="1.0" encoding="UTF-8" standalone="no"?>
<!DOCTYPE svg PUBLIC "-//W3C//DTD SVG 1.1//EN"
 "http://www.w3.org/Graphics/SVG/1.1/DTD/svg11.dtd">
<!-- Generated by graphviz version 2.40.1 (20161225.0304)
 -->
<!-- Title: GG Pages: 1 -->
<svg width="1642pt" height="764pt"
 viewBox="0.00 0.00 1641.59 764.00" xmlns="http://www.w3.org/2000/svg" xmlns:xlink="http://www.w3.org/1999/xlink">
<g id="graph0" class="graph" transform="scale(1 1) rotate(0) translate(4 760)">
<title>GG</title>
<polygon fill="#ffffff" stroke="transparent" points="-4,4 -4,-760 1637.5899,-760 1637.5899,4 -4,4"/>
<!-- node208 -->
<g id="node1" class="node">
<title>node208</title>
<polygon fill="none" stroke="#000000" points="945.2223,-743.5623 897.8691,-756 850.516,-743.5623 850.5602,-723.4377 945.1781,-723.4377 945.2223,-743.5623"/>
<text text-anchor="middle" x="897.8691" y="-734.9" font-family="Times,serif" font-size="12.00" fill="#000000">enclave</text>
</g>
<!-- node2123 -->
<g id="node2" class="node">
<title>node2123</title>
<polygon fill="none" stroke="#000000" points="956.8691,-684 889.8011,-666 956.8691,-648 1023.9372,-666 956.8691,-684"/>
<text text-anchor="middle" x="956.8691" y="-662.9" font-family="Times,serif" font-size="12.00" fill="#000000">oeenclave</text>
</g>
<!-- node208&#45;&gt;node2123 -->
<g id="edge1" class="edge">
<title>node208&#45;&gt;node2123</title>
<path fill="none" stroke="#000000" d="M909.8087,-723.4297C917.9915,-713.444 929.0084,-699.9995 938.3257,-688.6293"/>
<polygon fill="#000000" stroke="#000000" points="941.1138,-690.7489 944.7449,-680.7957 935.6994,-686.3121 941.1138,-690.7489"/>
</g>
<!-- node2221 -->
<g id="node9" class="node">
<title>node2221</title>
<polygon fill="none" stroke="#000000" points="772.8691,-252 726.5881,-234 772.8691,-216 819.1502,-234 772.8691,-252"/>
<text text-anchor="middle" x="772.8691" y="-230.9" font-family="Times,serif" font-size="12.00" fill="#000000">oelibc</text>
</g>
<!-- node208&#45;&gt;node2221 -->
<g id="edge15" class="edge">
<title>node208&#45;&gt;node2221</title>
<path fill="none" stroke="#000000" d="M889.6824,-723.3821C876.2166,-697.9252 850.8691,-643.4401 850.8691,-594 850.8691,-594 850.8691,-594 850.8691,-378 850.8691,-337.1184 852.1411,-323.5015 831.8691,-288 823.7244,-273.7364 810.5096,-261.125 798.6492,-251.6843"/>
<polygon fill="#000000" stroke="#000000" points="800.4285,-248.6412 790.3442,-245.392 796.2012,-254.2207 800.4285,-248.6412"/>
</g>
<!-- node2145 -->
<g id="node3" class="node">
<title>node2145</title>
<polygon fill="none" stroke="#000000" points="971.8691,-612 882.0311,-594 971.8691,-576 1061.7072,-594 971.8691,-612"/>
<text text-anchor="middle" x="971.8691" y="-590.9" font-family="Times,serif" font-size="12.00" fill="#000000">oecryptombed</text>
</g>
<!-- node2123&#45;&gt;node2145 -->
<g id="edge2" class="edge">
<title>node2123&#45;&gt;node2145</title>
<path fill="none" stroke="#000000" d="M960.4239,-648.937C962.1361,-640.7188 964.2316,-630.66 966.1596,-621.4059"/>
<polygon fill="#000000" stroke="#000000" points="969.6225,-621.9443 968.2357,-611.4407 962.7696,-620.5166 969.6225,-621.9443"/>
</g>
<!-- node2212 -->
<g id="node4" class="node">
<title>node2212</title>
<polygon fill="none" stroke="#000000" points="1017.3691,-540 928.3691,-540 928.3691,-504 1017.3691,-504 1017.3691,-540"/>
<text text-anchor="middle" x="972.8691" y="-518.9" font-family="Times,serif" font-size="12.00" fill="#000000">mbedcrypto</text>
</g>
<!-- node2145&#45;&gt;node2212 -->
<g id="edge3" class="edge">
<title>node2145&#45;&gt;node2212</title>
<path fill="none" stroke="#000000" d="M972.1215,-575.8314C972.2284,-568.131 972.3556,-558.9743 972.4745,-550.4166"/>
<polygon fill="#000000" stroke="#000000" points="975.9741,-550.4609 972.6134,-540.4133 968.9748,-550.3637 975.9741,-550.4609"/>
</g>
<!-- node2211 -->
<g id="node5" class="node">
<title>node2211</title>
<polygon fill="none" stroke="#000000" points="977.8691,-468 921.9352,-450 977.8691,-432 1033.8031,-450 977.8691,-468"/>
<text text-anchor="middle" x="977.8691" y="-446.9" font-family="Times,serif" font-size="12.00" fill="#000000">mbedtls</text>
</g>
<!-- node2212&#45;&gt;node2211 -->
<g id="edge4" class="edge">
<title>node2212&#45;&gt;node2211</title>
<path fill="none" stroke="#000000" stroke-dasharray="1,5" d="M974.1309,-503.8314C974.6738,-496.0125 975.3211,-486.6923 975.9232,-478.0221"/>
<polygon fill="#000000" stroke="#000000" points="979.4239,-478.1319 976.6252,-467.9134 972.4407,-477.6469 979.4239,-478.1319"/>
</g>
<!-- node2208 -->
<g id="node6" class="node">
<title>node2208</title>
<polygon fill="none" stroke="#000000" points="987.8691,-396 919.3181,-378 987.8691,-360 1056.4202,-378 987.8691,-396"/>
<text text-anchor="middle" x="987.8691" y="-374.9" font-family="Times,serif" font-size="12.00" fill="#000000">mbedx509</text>
</g>
<!-- node2211&#45;&gt;node2208 -->
<g id="edge5" class="edge">
<title>node2211&#45;&gt;node2208</title>
<path fill="none" stroke="#000000" d="M980.2899,-432.5708C981.4116,-424.4942 982.7719,-414.7004 984.0287,-405.6514"/>
<polygon fill="#000000" stroke="#000000" points="987.527,-405.9047 985.4361,-395.5182 980.5936,-404.9416 987.527,-405.9047"/>
</g>
<!-- node2210 -->
<g id="node7" class="node">
<title>node2210</title>
<polygon fill="none" stroke="#000000" points="989.8691,-324 878.5028,-306 989.8691,-288 1101.2355,-306 989.8691,-324"/>
<text text-anchor="middle" x="989.8691" y="-302.9" font-family="Times,serif" font-size="12.00" fill="#000000">mbedcrypto_static</text>
</g>
<!-- node2208&#45;&gt;node2210 -->
<g id="edge6" class="edge">
<title>node2208&#45;&gt;node2210</title>
<path fill="none" stroke="#000000" d="M988.3738,-359.8314C988.5877,-352.131 988.8421,-342.9743 989.0798,-334.4166"/>
<polygon fill="#000000" stroke="#000000" points="992.5786,-334.5066 989.3577,-324.4133 985.5813,-334.3122 992.5786,-334.5066"/>
</g>
<!-- node30 -->
<g id="node8" class="node">
<title>node30</title>
<polygon fill="none" stroke="#000000" points="1073.8691,-36 987.8691,-36 987.8691,0 1073.8691,0 1073.8691,-36"/>
<text text-anchor="middle" x="1030.8691" y="-14.9" font-family="Times,serif" font-size="12.00" fill="#000000">oe_includes</text>
</g>
<!-- node2210&#45;&gt;node30 -->
<g id="edge7" class="edge">
<title>node2210&#45;&gt;node30</title>
<path fill="none" stroke="#000000" d="M988.3393,-287.9795C985.5033,-248.177 981.5124,-150.101 1002.8691,-72 1005.3787,-62.8227 1009.5898,-53.4168 1013.9939,-45.0799"/>
<polygon fill="#000000" stroke="#000000" points="1017.1392,-46.6264 1018.968,-36.1906 1011.0305,-43.2082 1017.1392,-46.6264"/>
</g>
<!-- node2210&#45;&gt;node2221 -->
<g id="edge8" class="edge">
<title>node2210&#45;&gt;node2221</title>
<path fill="none" stroke="#000000" d="M953.0581,-293.7862C912.3704,-280.2861 847.3375,-258.7084 807.5318,-245.501"/>
<polygon fill="#000000" stroke="#000000" points="808.5788,-242.1608 797.9854,-242.3335 806.3744,-248.8046 808.5788,-242.1608"/>
</g>
<!-- node2138 -->
<g id="node10" class="node">
<title>node2138</title>
<polygon fill="none" stroke="#000000" points="697.8691,-108 647.3829,-90 697.8691,-72 748.3554,-90 697.8691,-108"/>
<text text-anchor="middle" x="697.8691" y="-86.9" font-family="Times,serif" font-size="12.00" fill="#000000">oecore</text>
</g>
<!-- node2221&#45;&gt;node2138 -->
<g id="edge9" class="edge">
<title>node2221&#45;&gt;node2138</title>
<path fill="none" stroke="#000000" d="M761.9959,-219.8367C754.1453,-209.227 743.6076,-194.1613 735.8691,-180 724.4091,-159.0283 714.0523,-133.8768 707.0561,-115.5002"/>
<polygon fill="#000000" stroke="#000000" points="710.3071,-114.2009 703.5294,-106.0576 703.7495,-116.6502 710.3071,-114.2009"/>
</g>
<!-- node2222 -->
<g id="node11" class="node">
<title>node2222</title>
<polygon fill="none" stroke="#000000" points="942.3691,-180 871.3691,-180 871.3691,-144 942.3691,-144 942.3691,-180"/>
<text text-anchor="middle" x="906.8691" y="-158.9" font-family="Times,serif" font-size="12.00" fill="#000000">oelibasm</text>
</g>
<!-- node2221&#45;&gt;node2222 -->
<g id="edge11" class="edge">
<title>node2221&#45;&gt;node2222</title>
<path fill="none" stroke="#000000" stroke-dasharray="5,2" d="M792.3539,-223.5306C811.1483,-213.4321 840.2198,-197.8116 864.3676,-184.8366"/>
<polygon fill="#000000" stroke="#000000" points="866.1974,-187.8268 873.3497,-180.0104 862.8841,-181.6605 866.1974,-187.8268"/>
</g>
<!-- node2195 -->
<g id="node12" class="node">
<title>node2195</title>
<polygon fill="none" stroke="#000000" points="852.8691,-180 744.8691,-180 744.8691,-144 852.8691,-144 852.8691,-180"/>
<text text-anchor="middle" x="798.8691" y="-158.9" font-family="Times,serif" font-size="12.00" fill="#000000">oelibc_includes</text>
</g>
<!-- node2221&#45;&gt;node2195 -->
<g id="edge12" class="edge">
<title>node2221&#45;&gt;node2195</title>
<path fill="none" stroke="#000000" d="M778.6394,-218.0209C781.6373,-209.7188 785.3875,-199.3339 788.8417,-189.7683"/>
<polygon fill="#000000" stroke="#000000" points="792.1858,-190.8124 792.2904,-180.2181 785.602,-188.4348 792.1858,-190.8124"/>
</g>
<!-- node2240 -->
<g id="node13" class="node">
<title>node2240</title>
<polygon fill="none" stroke="#000000" points="486.8691,-180 425.2474,-162 486.8691,-144 548.4909,-162 486.8691,-180"/>
<text text-anchor="middle" x="486.8691" y="-158.9" font-family="Times,serif" font-size="12.00" fill="#000000">oesyscall</text>
</g>
<!-- node2221&#45;&gt;node2240 -->
<g id="edge13" class="edge">
<title>node2221&#45;&gt;node2240</title>
<path fill="none" stroke="#000000" d="M744.6637,-226.8993C694.4405,-214.2557 589.2326,-187.7698 529.9185,-172.8376"/>
<polygon fill="#000000" stroke="#000000" points="530.6566,-169.4143 520.1046,-170.367 528.9476,-176.2025 530.6566,-169.4143"/>
</g>
<!-- node2138&#45;&gt;node30 -->
<g id="edge10" class="edge">
<title>node2138&#45;&gt;node30</title>
<path fill="none" stroke="#000000" d="M729.4972,-83.1615C786.673,-70.7992 907.7828,-44.6133 977.8203,-29.47"/>
<polygon fill="#000000" stroke="#000000" points="978.735,-32.8532 987.7694,-27.3189 977.2556,-26.0113 978.735,-32.8532"/>
</g>
<!-- node2240&#45;&gt;node2138 -->
<g id="edge14" class="edge">
<title>node2240&#45;&gt;node2138</title>
<path fill="none" stroke="#000000" d="M515.3255,-152.2898C553.3602,-139.3111 620.7699,-116.3088 662.1689,-102.1821"/>
<polygon fill="#000000" stroke="#000000" points="663.5138,-105.4214 671.8477,-98.8794 661.2532,-98.7964 663.5138,-105.4214"/>
</g>
<!-- node103 -->
<g id="node14" class="node">
<title>node103</title>
<polygon fill="none" stroke="#000000" points="1378.2223,-167.5623 1330.8691,-180 1283.516,-167.5623 1283.5602,-147.4377 1378.1781,-147.4377 1378.2223,-167.5623"/>
<text text-anchor="middle" x="1330.8691" y="-158.9" font-family="Times,serif" font-size="12.00" fill="#000000">logging</text>
</g>
<!-- node20 -->
<g id="node15" class="node">
<title>node20</title>
<polygon fill="none" stroke="#000000" points="1330.8691,-108 1282.3639,-90 1330.8691,-72 1379.3744,-90 1330.8691,-108"/>
<text text-anchor="middle" x="1330.8691" y="-86.9" font-family="Times,serif" font-size="12.00" fill="#000000">oehost</text>
</g>
<!-- node103&#45;&gt;node20 -->
<g id="edge16" class="edge">
<title>node103&#45;&gt;node20</title>
<path fill="none" stroke="#000000" d="M1330.8691,-147.4297C1330.8691,-139.1011 1330.8691,-128.3665 1330.8691,-118.436"/>
<polygon fill="#000000" stroke="#000000" points="1334.3692,-118.1279 1330.8691,-108.128 1327.3692,-118.128 1334.3692,-118.1279"/>
</g>
<!-- node20&#45;&gt;node30 -->
<g id="edge17" class="edge">
<title>node20&#45;&gt;node30</title>
<path fill="none" stroke="#000000" d="M1305.349,-81.3927C1295.2989,-78.1842 1283.6114,-74.6754 1272.8691,-72 1192.4833,-51.9797 1167.7017,-57.6544 1083.8226,-36.0532"/>
<polygon fill="#000000" stroke="#000000" points="1084.6955,-32.6638 1074.1342,-33.5061 1082.9157,-39.4337 1084.6955,-32.6638"/>
</g>
<!-- node2341 -->
<g id="node16" class="node">
<title>node2341</title>
<polygon fill="none" stroke="#000000" points="1511.8691,-36 1433.8691,-36 1433.8691,0 1511.8691,0 1511.8691,-36"/>
<text text-anchor="middle" x="1472.8691" y="-14.9" font-family="Times,serif" font-size="12.00" fill="#000000">oedebugrt</text>
</g>
<!-- node20&#45;&gt;node2341 -->
<g id="edge18" class="edge">
<title>node20&#45;&gt;node2341</title>
<path fill="none" stroke="#000000" stroke-dasharray="5,2" d="M1351.5172,-79.5306C1371.5213,-69.3876 1402.5124,-53.6738 1428.1681,-40.6653"/>
<polygon fill="#000000" stroke="#000000" points="1430.0124,-43.6545 1437.3485,-36.0104 1426.8467,-37.4112 1430.0124,-43.6545"/>
</g>
<!-- node2371 -->
<g id="node17" class="node">
<title>node2371</title>
<ellipse fill="none" stroke="#000000" cx="1330.8691" cy="-18" rx="84.902" ry="18"/>
<text text-anchor="middle" x="1330.8691" y="-14.9" font-family="Times,serif" font-size="12.00" fill="#000000">openenclave::crypto</text>
</g>
<!-- node20&#45;&gt;node2371 -->
<g id="edge19" class="edge">
<title>node20&#45;&gt;node2371</title>
<path fill="none" stroke="#000000" stroke-dasharray="5,2" d="M1330.8691,-71.8314C1330.8691,-64.131 1330.8691,-54.9743 1330.8691,-46.4166"/>
<polygon fill="#000000" stroke="#000000" points="1334.3692,-46.4132 1330.8691,-36.4133 1327.3692,-46.4133 1334.3692,-46.4132"/>
</g>
<!-- node2372 -->
<g id="node18" class="node">
<title>node2372</title>
<ellipse fill="none" stroke="#000000" cx="1159.8691" cy="-18" rx="67.9298" ry="18"/>
<text text-anchor="middle" x="1159.8691" y="-14.9" font-family="Times,serif" font-size="12.00" fill="#000000">openenclave::dl</text>
</g>
<!-- node20&#45;&gt;node2372 -->
<g id="edge20" class="edge">
<title>node20&#45;&gt;node2372</title>
<path fill="none" stroke="#000000" stroke-dasharray="5,2" d="M1307.8073,-80.2898C1281.7538,-69.3199 1238.6929,-51.1889 1205.7284,-37.3091"/>
<polygon fill="#000000" stroke="#000000" points="1206.8621,-33.989 1196.2876,-33.3341 1204.1457,-40.4404 1206.8621,-33.989"/>
</g>
<!-- node2309 -->
<g id="node19" class="node">
<title>node2309</title>
<polygon fill="none" stroke="#000000" points="1087.8691,-108 1011.8691,-108 1011.8691,-72 1087.8691,-72 1087.8691,-108"/>
<text text-anchor="middle" x="1049.8691" y="-86.9" font-family="Times,serif" font-size="12.00" fill="#000000">oe_ptrace</text>
</g>
<!-- node2309&#45;&gt;node30 -->
<g id="edge21" class="edge">
<title>node2309&#45;&gt;node30</title>
<path fill="none" stroke="#000000" d="M1045.0746,-71.8314C1043.0203,-64.0463 1040.5731,-54.7729 1038.2936,-46.1347"/>
<polygon fill="#000000" stroke="#000000" points="1041.664,-45.1892 1035.7282,-36.4133 1034.8957,-46.9753 1041.664,-45.1892"/>
</g>
<!-- node2309&#45;&gt;node2372 -->
<g id="edge22" class="edge">
<title>node2309&#45;&gt;node2372</title>
<path fill="none" stroke="#000000" d="M1077.6268,-71.8314C1092.2046,-62.2895 1110.1985,-50.5117 1125.6346,-40.4081"/>
<polygon fill="#000000" stroke="#000000" points="1127.9322,-43.0873 1134.3824,-34.6822 1124.0986,-37.2304 1127.9322,-43.0873"/>
</g>
<!-- node140 -->
<g id="node20" class="node">
<title>node140</title>
<polygon fill="none" stroke="#000000" points="1479.5695,-167.5623 1437.8691,-180 1396.1688,-167.5623 1396.2077,-147.4377 1479.5306,-147.4377 1479.5695,-167.5623"/>
<text text-anchor="middle" x="1437.8691" y="-158.9" font-family="Times,serif" font-size="12.00" fill="#000000">oecert</text>
</g>
<!-- node140&#45;&gt;node20 -->
<g id="edge23" class="edge">
<title>node140&#45;&gt;node20</title>
<path fill="none" stroke="#000000" d="M1416.2161,-147.4297C1399.0032,-135.8472 1374.875,-119.6114 1356.663,-107.3566"/>
<polygon fill="#000000" stroke="#000000" points="1358.5045,-104.3772 1348.2539,-101.6982 1354.5966,-110.1848 1358.5045,-104.3772"/>
</g>
<!-- node171 -->
<g id="node21" class="node">
<title>node171</title>
<polygon fill="none" stroke="#000000" points="1633.8114,-167.5623 1565.8691,-180 1497.9269,-167.5623 1497.9903,-147.4377 1633.748,-147.4377 1633.8114,-167.5623"/>
<text text-anchor="middle" x="1565.8691" y="-158.9" font-family="Times,serif" font-size="12.00" fill="#000000">oecertdump</text>
</g>
<!-- node171&#45;&gt;node20 -->
<g id="edge24" class="edge">
<title>node171&#45;&gt;node20</title>
<path fill="none" stroke="#000000" d="M1518.3134,-147.4297C1473.6798,-133.7548 1407.8756,-113.5935 1367.2797,-101.1556"/>
<polygon fill="#000000" stroke="#000000" points="1368.1167,-97.7515 1357.5301,-98.1685 1366.0661,-104.4444 1368.1167,-97.7515"/>
</g>
<!-- node1378 -->
<g id="node22" class="node">
<title>node1378</title>
<polygon fill="none" stroke="#000000" points="527.8691,-324 479.3639,-306 527.8691,-288 576.3744,-306 527.8691,-324"/>
<text text-anchor="middle" x="527.8691" y="-302.9" font-family="Times,serif" font-size="12.00" fill="#000000">oecpio</text>
</g>
<!-- node1378&#45;&gt;node2221 -->
<g id="edge26" class="edge">
<title>node1378&#45;&gt;node2221</title>
<path fill="none" stroke="#000000" stroke-dasharray="5,2" d="M554.1097,-297.7358C564.0454,-294.6384 575.4663,-291.1159 585.8691,-288 637.7979,-272.446 698.0751,-255.1812 735.8472,-244.4572"/>
<polygon fill="#000000" stroke="#000000" points="737.2126,-247.7082 745.8785,-241.6128 735.3029,-240.9737 737.2126,-247.7082"/>
</g>
<!-- node1378&#45;&gt;node2138 -->
<g id="edge25" class="edge">
<title>node1378&#45;&gt;node2138</title>
<path fill="none" stroke="#000000" stroke-dasharray="5,2" d="M552.7482,-297.2205C588.9243,-284.2477 652.5561,-260.5697 659.8691,-252 692.3282,-213.9631 698.2657,-153.3009 698.7071,-117.999"/>
<polygon fill="#000000" stroke="#000000" points="702.2071,-117.9049 698.691,-107.9105 695.2071,-117.9162 702.2071,-117.9049"/>
</g>
<!-- node18 -->
<g id="node23" class="node">
<title>node18</title>
<polygon fill="none" stroke="#000000" points="1162.3691,-180 1083.3691,-180 1083.3691,-144 1162.3691,-144 1162.3691,-180"/>
<text text-anchor="middle" x="1122.8691" y="-158.9" font-family="Times,serif" font-size="12.00" fill="#000000">oehost</text>
</g>
<!-- node18&#45;&gt;node20 -->
<g id="edge27" class="edge">
<title>node18&#45;&gt;node20</title>
<path fill="none" stroke="#000000" stroke-dasharray="1,5" d="M1162.3836,-147.0633C1165.2513,-146.0158 1168.1024,-144.9854 1170.8691,-144 1213.5432,-128.8021 1262.9919,-112.2779 1295.4908,-101.5652"/>
<polygon fill="#000000" stroke="#000000" points="1296.6008,-104.8846 1305.0063,-98.435 1294.4133,-98.2352 1296.6008,-104.8846"/>
</g>
<!-- node2291 -->
<g id="node24" class="node">
<title>node2291</title>
<polygon fill="none" stroke="#000000" points="74.8691,-252 .1306,-234 74.8691,-216 149.6077,-234 74.8691,-252"/>
<text text-anchor="middle" x="74.8691" y="-230.9" font-family="Times,serif" font-size="12.00" fill="#000000">oehostepoll</text>
</g>
<!-- node2291&#45;&gt;node2240 -->
<g id="edge28" class="edge">
<title>node2291&#45;&gt;node2240</title>
<path fill="none" stroke="#000000" d="M113.6838,-225.2766C127.8716,-222.1954 144.0686,-218.8024 158.8691,-216 256.5597,-197.5026 371.3149,-179.4452 435.9219,-169.6131"/>
<polygon fill="#000000" stroke="#000000" points="436.4882,-173.0673 445.8501,-168.1069 435.4382,-166.1465 436.4882,-173.0673"/>
</g>
<!-- node2261 -->
<g id="node25" class="node">
<title>node2261</title>
<polygon fill="none" stroke="#000000" points="225.8691,-252 167.7121,-234 225.8691,-216 284.0262,-234 225.8691,-252"/>
<text text-anchor="middle" x="225.8691" y="-230.9" font-family="Times,serif" font-size="12.00" fill="#000000">oehostfs</text>
</g>
<!-- node2261&#45;&gt;node2240 -->
<g id="edge29" class="edge">
<title>node2261&#45;&gt;node2240</title>
<path fill="none" stroke="#000000" d="M256.8342,-225.4579C303.7709,-212.5099 393.0016,-187.8945 445.4659,-173.4216"/>
<polygon fill="#000000" stroke="#000000" points="446.4213,-176.7888 455.1304,-170.7555 444.5597,-170.0409 446.4213,-176.7888"/>
</g>
<!-- node2271 -->
<g id="node26" class="node">
<title>node2271</title>
<polygon fill="none" stroke="#000000" points="394.8691,-252 302.8075,-234 394.8691,-216 486.9308,-234 394.8691,-252"/>
<text text-anchor="middle" x="394.8691" y="-230.9" font-family="Times,serif" font-size="12.00" fill="#000000">oehostresolver</text>
</g>
<!-- node2271&#45;&gt;node2240 -->
<g id="edge30" class="edge">
<title>node2271&#45;&gt;node2240</title>
<path fill="none" stroke="#000000" d="M413.4867,-219.4297C427.3973,-208.5432 446.5606,-193.5458 461.8158,-181.607"/>
<polygon fill="#000000" stroke="#000000" points="464.1127,-184.2539 469.8307,-175.3345 459.7985,-178.7413 464.1127,-184.2539"/>
</g>
<!-- node2281 -->
<g id="node27" class="node">
<title>node2281</title>
<polygon fill="none" stroke="#000000" points="577.8691,-252 504.6129,-234 577.8691,-216 651.1254,-234 577.8691,-252"/>
<text text-anchor="middle" x="577.8691" y="-230.9" font-family="Times,serif" font-size="12.00" fill="#000000">oehostsock</text>
</g>
<!-- node2281&#45;&gt;node2240 -->
<g id="edge31" class="edge">
<title>node2281&#45;&gt;node2240</title>
<path fill="none" stroke="#000000" d="M560.3234,-220.1177C546.5529,-209.2223 527.2049,-193.914 511.8227,-181.7435"/>
<polygon fill="#000000" stroke="#000000" points="513.7596,-178.8129 503.7457,-175.3529 509.4162,-184.3025 513.7596,-178.8129"/>
</g>
<!-- node24 -->
<g id="node28" class="node">
<title>node24</title>
<polygon fill="none" stroke="#000000" points="1184.8691,-108 1105.4245,-90 1184.8691,-72 1264.3138,-90 1184.8691,-108"/>
<text text-anchor="middle" x="1184.8691" y="-86.9" font-family="Times,serif" font-size="12.00" fill="#000000">oehostverify</text>
</g>
<!-- node24&#45;&gt;node30 -->
<g id="edge32" class="edge">
<title>node24&#45;&gt;node30</title>
<path fill="none" stroke="#000000" d="M1158.7451,-77.7862C1136.8675,-67.5577 1105.0719,-52.6922 1078.6596,-40.3436"/>
<polygon fill="#000000" stroke="#000000" points="1080.108,-37.1572 1069.5668,-36.0924 1077.1432,-43.4983 1080.108,-37.1572"/>
</g>
<!-- node24&#45;&gt;node2371 -->
<g id="edge33" class="edge">
<title>node24&#45;&gt;node2371</title>
<path fill="none" stroke="#000000" stroke-dasharray="5,2" d="M1209.9674,-77.6228C1231.3883,-67.0591 1262.6614,-51.6367 1288.0346,-39.1239"/>
<polygon fill="#000000" stroke="#000000" points="1289.6658,-42.222 1297.0865,-34.6599 1286.5697,-35.9439 1289.6658,-42.222"/>
</g>
<!-- node24&#45;&gt;node2372 -->
<g id="edge34" class="edge">
<title>node24&#45;&gt;node2372</title>
<path fill="none" stroke="#000000" stroke-dasharray="5,2" d="M1179.0708,-73.3008C1176.2319,-65.1248 1172.7383,-55.0631 1169.5127,-45.7735"/>
<polygon fill="#000000" stroke="#000000" points="1172.7481,-44.4208 1166.1616,-36.1222 1166.1354,-46.717 1172.7481,-44.4208"/>
</g>
<!-- node2231 -->
<g id="node29" class="node">
<title>node2231</title>
<polygon fill="none" stroke="#000000" points="715.8691,-396 658.4537,-378 715.8691,-360 773.2846,-378 715.8691,-396"/>
<text text-anchor="middle" x="715.8691" y="-374.9" font-family="Times,serif" font-size="12.00" fill="#000000">oelibcxx</text>
</g>
<!-- node2168 -->
<g id="node30" class="node">
<title>node2168</title>
<polygon fill="none" stroke="#000000" points="742.8691,-324 688.8691,-324 688.8691,-288 742.8691,-288 742.8691,-324"/>
<text text-anchor="middle" x="715.8691" y="-302.9" font-family="Times,serif" font-size="12.00" fill="#000000">libcxx</text>
</g>
<!-- node2231&#45;&gt;node2168 -->
<g id="edge35" class="edge">
<title>node2231&#45;&gt;node2168</title>
<path fill="none" stroke="#000000" d="M715.8691,-359.8314C715.8691,-352.131 715.8691,-342.9743 715.8691,-334.4166"/>
<polygon fill="#000000" stroke="#000000" points="719.3692,-334.4132 715.8691,-324.4133 712.3692,-334.4133 719.3692,-334.4132"/>
</g>
<!-- node2175 -->
<g id="node31" class="node">
<title>node2175</title>
<polygon fill="none" stroke="#000000" points="822.8691,-324 760.8691,-324 760.8691,-288 822.8691,-288 822.8691,-324"/>
<text text-anchor="middle" x="791.8691" y="-302.9" font-family="Times,serif" font-size="12.00" fill="#000000">libcxxrt</text>
</g>
<!-- node2231&#45;&gt;node2175 -->
<g id="edge37" class="edge">
<title>node2231&#45;&gt;node2175</title>
<path fill="none" stroke="#000000" d="M730.1642,-364.4574C740.0404,-355.1009 753.4736,-342.3747 765.2849,-331.1851"/>
<polygon fill="#000000" stroke="#000000" points="767.9062,-333.5231 772.7586,-324.1047 763.0919,-328.4414 767.9062,-333.5231"/>
</g>
<!-- node2185 -->
<g id="node32" class="node">
<title>node2185</title>
<polygon fill="none" stroke="#000000" points="670.8691,-324 594.8691,-324 594.8691,-288 670.8691,-288 670.8691,-324"/>
<text text-anchor="middle" x="632.8691" y="-302.9" font-family="Times,serif" font-size="12.00" fill="#000000">libunwind</text>
</g>
<!-- node2231&#45;&gt;node2185 -->
<g id="edge39" class="edge">
<title>node2231&#45;&gt;node2185</title>
<path fill="none" stroke="#000000" d="M700.2575,-364.4574C689.3688,-355.0118 674.5213,-342.132 661.5339,-330.8658"/>
<polygon fill="#000000" stroke="#000000" points="663.5873,-328.0137 653.7399,-324.1047 659.0003,-333.3014 663.5873,-328.0137"/>
</g>
<!-- node2168&#45;&gt;node2221 -->
<g id="edge36" class="edge">
<title>node2168&#45;&gt;node2221</title>
<path fill="none" stroke="#000000" d="M730.2527,-287.8314C737.8793,-278.1977 747.3103,-266.2849 755.3599,-256.117"/>
<polygon fill="#000000" stroke="#000000" points="758.2638,-258.0876 761.7267,-248.0747 752.7755,-253.7427 758.2638,-258.0876"/>
</g>
<!-- node2175&#45;&gt;node2221 -->
<g id="edge38" class="edge">
<title>node2175&#45;&gt;node2221</title>
<path fill="none" stroke="#000000" d="M787.0746,-287.8314C784.8701,-279.4774 782.2134,-269.4096 779.7968,-260.252"/>
<polygon fill="#000000" stroke="#000000" points="783.1431,-259.2152 777.2073,-250.4393 776.3748,-261.0014 783.1431,-259.2152"/>
</g>
<!-- node2185&#45;&gt;node2221 -->
<g id="edge40" class="edge">
<title>node2185&#45;&gt;node2221</title>
<path fill="none" stroke="#000000" d="M668.1971,-287.8314C691.4824,-275.856 721.6158,-260.3588 743.5676,-249.0694"/>
<polygon fill="#000000" stroke="#000000" points="745.4346,-252.045 752.7267,-244.359 742.2331,-245.82 745.4346,-252.045"/>
</g>
<!-- node2103 -->
<g id="node33" class="node">
<title>node2103</title>
<polygon fill="none" stroke="#000000" points="1040.4827,-743.5623 1001.8691,-756 963.2556,-743.5623 963.2917,-723.4377 1040.4466,-723.4377 1040.4827,-743.5623"/>
<text text-anchor="middle" x="1001.8691" y="-734.9" font-family="Times,serif" font-size="12.00" fill="#000000">oesgx</text>
</g>
<!-- node2113 -->
<g id="node34" class="node">
<title>node2113</title>
<polygon fill="none" stroke="#000000" points="1265.5911,-167.5623 1222.8691,-180 1180.1472,-167.5623 1180.1871,-147.4377 1265.5512,-147.4377 1265.5911,-167.5623"/>
<text text-anchor="middle" x="1222.8691" y="-158.9" font-family="Times,serif" font-size="12.00" fill="#000000">oesign</text>
</g>
<!-- node2113&#45;&gt;node20 -->
<g id="edge41" class="edge">
<title>node2113&#45;&gt;node20</title>
<path fill="none" stroke="#000000" d="M1244.7246,-147.4297C1262.0984,-135.8472 1286.452,-119.6114 1304.8343,-107.3566"/>
<polygon fill="#000000" stroke="#000000" points="1306.9428,-110.1574 1313.3219,-101.6982 1303.0599,-104.333 1306.9428,-110.1574"/>
</g>
<!-- node187 -->
<g id="node35" class="node">
<title>node187</title>
<polygon fill="none" stroke="#000000" points="1183.3691,-756 1058.3691,-756 1058.3691,-720 1183.3691,-720 1183.3691,-756"/>
<text text-anchor="middle" x="1120.8691" y="-734.9" font-family="Times,serif" font-size="12.00" fill="#000000">oesign&#45;test&#45;engine</text>
</g>
</g>
</svg>
