<?xml version="1.0" encoding="UTF-8" standalone="no"?>
<!DOCTYPE svg PUBLIC "-//W3C//DTD SVG 1.1//EN"
 "http://www.w3.org/Graphics/SVG/1.1/DTD/svg11.dtd">
<!-- Generated by graphviz version 2.38.0 (20140413.2041)
 -->
<!-- Title: GG Pages: 1 -->
<svg width="1112pt" height="404pt"
 viewBox="0.00 0.00 1112.32 404.00" xmlns="http://www.w3.org/2000/svg" xmlns:xlink="http://www.w3.org/1999/xlink">
<g id="graph0" class="graph" transform="scale(1 1) rotate(0) translate(4 400)">
<title>GG</title>
<polygon fill="white" stroke="none" points="-4,4 -4,-400 1108.32,-400 1108.32,4 -4,4"/>
<!-- node101 -->
<g id="node1" class="node"><title>node101</title>
<polygon fill="none" stroke="black" points="855.737,-167.562 817.646,-180 779.555,-167.562 779.59,-147.438 855.701,-147.438 855.737,-167.562"/>
<text text-anchor="middle" x="817.646" y="-158.9" font-family="Times,serif" font-size="12.00">aesm</text>
</g>
<!-- node16 -->
<g id="node2" class="node"><title>node16</title>
<polygon fill="none" stroke="black" points="665.646,-108 614.418,-90 665.646,-72 716.874,-90 665.646,-108"/>
<text text-anchor="middle" x="665.646" y="-86.9" font-family="Times,serif" font-size="12.00">oehost</text>
</g>
<!-- node101&#45;&gt;node16 -->
<g id="edge1" class="edge"><title>node101&#45;&gt;node16</title>
<path fill="none" stroke="black" d="M787.978,-147.337C761.508,-135.147 722.913,-117.373 696.183,-105.063"/>
<polygon fill="black" stroke="black" points="697.463,-101.799 686.916,-100.795 694.535,-108.158 697.463,-101.799"/>
</g>
<!-- node1528 -->
<g id="node3" class="node"><title>node1528</title>
<ellipse fill="none" stroke="black" cx="934.646" cy="-18" rx="35.1771" ry="18"/>
<text text-anchor="middle" x="934.646" y="-14.9" font-family="Times,serif" font-size="12.00">crypto</text>
</g>
<!-- node16&#45;&gt;node1528 -->
<g id="edge2" class="edge"><title>node16&#45;&gt;node1528</title>
<path fill="none" stroke="black" stroke-dasharray="5,2" d="M697.315,-82.9709C741.204,-74.2928 822.786,-56.9928 890.646,-36 893.198,-35.2104 895.815,-34.346 898.437,-33.4386"/>
<polygon fill="black" stroke="black" points="899.652,-36.7213 907.859,-30.0216 897.265,-30.1407 899.652,-36.7213"/>
</g>
<!-- node1529 -->
<g id="node4" class="node"><title>node1529</title>
<ellipse fill="none" stroke="black" cx="412.646" cy="-18" rx="27" ry="18"/>
<text text-anchor="middle" x="412.646" y="-14.9" font-family="Times,serif" font-size="12.00">dl</text>
</g>
<!-- node16&#45;&gt;node1529 -->
<g id="edge3" class="edge"><title>node16&#45;&gt;node1529</title>
<path fill="none" stroke="black" stroke-dasharray="5,2" d="M633.433,-83.2442C590.533,-75.1039 512.619,-58.656 448.646,-36 446.74,-35.3251 444.8,-34.5825 442.858,-33.7964"/>
<polygon fill="black" stroke="black" points="443.85,-30.4108 433.285,-29.6168 441.049,-36.826 443.85,-30.4108"/>
</g>
<!-- node25 -->
<g id="node5" class="node"><title>node25</title>
<polygon fill="none" stroke="black" points="367.146,-36 276.146,-36 276.146,-0 367.146,-0 367.146,-36"/>
<text text-anchor="middle" x="321.646" y="-14.9" font-family="Times,serif" font-size="12.00">oe_includes</text>
</g>
<!-- node16&#45;&gt;node25 -->
<g id="edge4" class="edge"><title>node16&#45;&gt;node25</title>
<path fill="none" stroke="black" d="M631.111,-84.0214C578.38,-76.1263 474.527,-59.4244 376.88,-35.8927"/>
<polygon fill="black" stroke="black" points="377.693,-32.4884 367.148,-33.5193 376.034,-39.289 377.693,-32.4884"/>
</g>
<!-- node1531 -->
<g id="node6" class="node"><title>node1531</title>
<ellipse fill="none" stroke="black" cx="514.646" cy="-18" rx="57.5003" ry="18"/>
<text text-anchor="middle" x="514.646" y="-14.9" font-family="Times,serif" font-size="12.00">sgx_dcap_ql</text>
</g>
<!-- node16&#45;&gt;node1531 -->
<g id="edge5" class="edge"><title>node16&#45;&gt;node1531</title>
<path fill="none" stroke="black" d="M644.65,-79.2668C621.497,-68.5339 583.703,-51.0134 554.817,-37.6224"/>
<polygon fill="black" stroke="black" points="555.941,-34.2857 545.396,-33.2552 552.997,-40.6365 555.941,-34.2857"/>
</g>
<!-- node1530 -->
<g id="node7" class="node"><title>node1530</title>
<ellipse fill="none" stroke="black" cx="682.646" cy="-18" rx="92.9073" ry="18"/>
<text text-anchor="middle" x="682.646" y="-14.9" font-family="Times,serif" font-size="12.00">sgx_enclave_common</text>
</g>
<!-- node16&#45;&gt;node1530 -->
<g id="edge6" class="edge"><title>node16&#45;&gt;node1530</title>
<path fill="none" stroke="black" d="M669.503,-73.1159C671.439,-65.1442 673.839,-55.2639 676.056,-46.1361"/>
<polygon fill="black" stroke="black" points="679.487,-46.8357 678.446,-36.2921 672.685,-45.1837 679.487,-46.8357"/>
</g>
<!-- node1532 -->
<g id="node8" class="node"><title>node1532</title>
<ellipse fill="none" stroke="black" cx="837.646" cy="-18" rx="43.9143" ry="18"/>
<text text-anchor="middle" x="837.646" y="-14.9" font-family="Times,serif" font-size="12.00">sgx_urts</text>
</g>
<!-- node16&#45;&gt;node1532 -->
<g id="edge7" class="edge"><title>node16&#45;&gt;node1532</title>
<path fill="none" stroke="black" d="M688.132,-79.8487C715.979,-68.5155 763.9,-49.0126 797.981,-35.1426"/>
<polygon fill="black" stroke="black" points="799.693,-38.2245 807.636,-31.2131 797.055,-31.7409 799.693,-38.2245"/>
</g>
<!-- node220 -->
<g id="node9" class="node"><title>node220</title>
<polygon fill="none" stroke="black" points="130.391,-383.562 69.6457,-396 8.90027,-383.562 8.95697,-363.438 130.334,-363.438 130.391,-383.562"/>
<text text-anchor="middle" x="69.6457" y="-374.9" font-family="Times,serif" font-size="12.00">cryptoenc</text>
</g>
<!-- node1467 -->
<g id="node10" class="node"><title>node1467</title>
<polygon fill="none" stroke="black" points="69.6457,-324 -0.146026,-306 69.6457,-288 139.437,-306 69.6457,-324"/>
<text text-anchor="middle" x="69.6457" y="-302.9" font-family="Times,serif" font-size="12.00">oeenclave</text>
</g>
<!-- node220&#45;&gt;node1467 -->
<g id="edge8" class="edge"><title>node220&#45;&gt;node1467</title>
<path fill="none" stroke="black" d="M69.6457,-363.17C69.6457,-354.919 69.6457,-344.153 69.6457,-334.256"/>
<polygon fill="black" stroke="black" points="73.1458,-334.019 69.6457,-324.019 66.1458,-334.019 73.1458,-334.019"/>
</g>
<!-- node1434 -->
<g id="node11" class="node"><title>node1434</title>
<polygon fill="none" stroke="black" points="152.646,-252 60.6457,-252 60.6457,-216 152.646,-216 152.646,-252"/>
<text text-anchor="middle" x="106.646" y="-230.9" font-family="Times,serif" font-size="12.00">mbedcrypto</text>
</g>
<!-- node1467&#45;&gt;node1434 -->
<g id="edge9" class="edge"><title>node1467&#45;&gt;node1434</title>
<path fill="none" stroke="black" d="M77.6742,-289.811C82.1196,-281.401 87.7677,-270.715 92.8942,-261.016"/>
<polygon fill="black" stroke="black" points="96.0142,-262.603 97.593,-252.127 89.8256,-259.332 96.0142,-262.603"/>
</g>
<!-- node1447 -->
<g id="node12" class="node"><title>node1447</title>
<polygon fill="none" stroke="black" points="197.646,-180 150.624,-162 197.646,-144 244.667,-162 197.646,-180"/>
<text text-anchor="middle" x="197.646" y="-158.9" font-family="Times,serif" font-size="12.00">oelibc</text>
</g>
<!-- node1467&#45;&gt;node1447 -->
<g id="edge15" class="edge"><title>node1467&#45;&gt;node1447</title>
<path fill="none" stroke="black" d="M60.4429,-290.37C49.8762,-271.506 35.9032,-238.463 51.6457,-216 73.4551,-184.881 115.495,-171.962 148.884,-166.636"/>
<polygon fill="black" stroke="black" points="149.524,-170.08 158.936,-165.215 148.544,-163.149 149.524,-170.08"/>
</g>
<!-- node1434&#45;&gt;node1447 -->
<g id="edge10" class="edge"><title>node1434&#45;&gt;node1447</title>
<path fill="none" stroke="black" stroke-dasharray="1,5" d="M129.14,-215.697C143,-205.035 160.726,-191.4 174.674,-180.671"/>
<polygon fill="black" stroke="black" points="177.01,-183.29 182.802,-174.418 172.742,-177.741 177.01,-183.29"/>
</g>
<!-- node1376 -->
<g id="node13" class="node"><title>node1376</title>
<polygon fill="none" stroke="black" points="303.646,-108 252.418,-90 303.646,-72 354.874,-90 303.646,-108"/>
<text text-anchor="middle" x="303.646" y="-86.9" font-family="Times,serif" font-size="12.00">oecore</text>
</g>
<!-- node1447&#45;&gt;node1376 -->
<g id="edge11" class="edge"><title>node1447&#45;&gt;node1376</title>
<path fill="none" stroke="black" d="M214.208,-150.062C231.275,-138.792 258.113,-121.069 277.941,-107.975"/>
<polygon fill="black" stroke="black" points="280.081,-110.756 286.497,-102.325 276.224,-104.915 280.081,-110.756"/>
</g>
<!-- node1448 -->
<g id="node14" class="node"><title>node1448</title>
<polygon fill="none" stroke="black" points="234.146,-108 161.146,-108 161.146,-72 234.146,-72 234.146,-108"/>
<text text-anchor="middle" x="197.646" y="-86.9" font-family="Times,serif" font-size="12.00">oelibasm</text>
</g>
<!-- node1447&#45;&gt;node1448 -->
<g id="edge13" class="edge"><title>node1447&#45;&gt;node1448</title>
<path fill="none" stroke="black" stroke-dasharray="5,2" d="M197.646,-143.697C197.646,-135.983 197.646,-126.712 197.646,-118.112"/>
<polygon fill="black" stroke="black" points="201.146,-118.104 197.646,-108.104 194.146,-118.104 201.146,-118.104"/>
</g>
<!-- node1423 -->
<g id="node15" class="node"><title>node1423</title>
<polygon fill="none" stroke="black" points="143.146,-108 30.1457,-108 30.1457,-72 143.146,-72 143.146,-108"/>
<text text-anchor="middle" x="86.6457" y="-86.9" font-family="Times,serif" font-size="12.00">oelibc_includes</text>
</g>
<!-- node1447&#45;&gt;node1423 -->
<g id="edge14" class="edge"><title>node1447&#45;&gt;node1423</title>
<path fill="none" stroke="black" d="M180.787,-150.369C165.325,-140.617 141.918,-125.857 122.313,-113.493"/>
<polygon fill="black" stroke="black" points="123.941,-110.382 113.615,-108.008 120.207,-116.303 123.941,-110.382"/>
</g>
<!-- node1376&#45;&gt;node25 -->
<g id="edge12" class="edge"><title>node1376&#45;&gt;node25</title>
<path fill="none" stroke="black" d="M307.73,-73.1159C309.78,-65.1442 312.321,-55.2639 314.668,-46.1361"/>
<polygon fill="black" stroke="black" points="318.098,-46.8487 317.199,-36.2921 311.319,-45.1054 318.098,-46.8487"/>
</g>
<!-- node230 -->
<g id="node16" class="node"><title>node230</title>
<polygon fill="none" stroke="black" points="980.5,-239.562 915.646,-252 850.791,-239.562 850.852,-219.438 980.44,-219.438 980.5,-239.562"/>
<text text-anchor="middle" x="915.646" y="-230.9" font-family="Times,serif" font-size="12.00">cryptohost</text>
</g>
<!-- node13 -->
<g id="node17" class="node"><title>node13</title>
<polygon fill="none" stroke="black" points="957.146,-180 874.146,-180 874.146,-144 957.146,-144 957.146,-180"/>
<text text-anchor="middle" x="915.646" y="-158.9" font-family="Times,serif" font-size="12.00">oehostapp</text>
</g>
<!-- node230&#45;&gt;node13 -->
<g id="edge16" class="edge"><title>node230&#45;&gt;node13</title>
<path fill="none" stroke="black" d="M915.646,-219.17C915.646,-210.919 915.646,-200.153 915.646,-190.256"/>
<polygon fill="black" stroke="black" points="919.146,-190.019 915.646,-180.019 912.146,-190.019 919.146,-190.019"/>
</g>
<!-- node13&#45;&gt;node16 -->
<g id="edge17" class="edge"><title>node13&#45;&gt;node16</title>
<path fill="none" stroke="black" stroke-dasharray="1,5" d="M873.964,-146.874C870.818,-145.879 867.686,-144.911 864.646,-144 809.194,-127.391 744.285,-110.591 704.061,-100.485"/>
<polygon fill="black" stroke="black" points="704.691,-97.0351 694.141,-98.0029 702.992,-103.826 704.691,-97.0351"/>
</g>
<!-- node240 -->
<g id="node18" class="node"><title>node240</title>
<polygon fill="none" stroke="black" points="1104.5,-167.562 1039.65,-180 974.791,-167.562 974.852,-147.438 1104.44,-147.438 1104.5,-167.562"/>
<text text-anchor="middle" x="1039.65" y="-158.9" font-family="Times,serif" font-size="12.00">hostcrypto</text>
</g>
<!-- node240&#45;&gt;node16 -->
<g id="edge18" class="edge"><title>node240&#45;&gt;node16</title>
<path fill="none" stroke="black" d="M982.724,-147.428C977.298,-146.23 971.873,-145.068 966.646,-144 875.427,-125.362 767.847,-107.375 709.187,-97.902"/>
<polygon fill="black" stroke="black" points="709.594,-94.4224 699.165,-96.2895 708.482,-101.334 709.594,-94.4224"/>
</g>
<!-- node43 -->
<g id="node19" class="node"><title>node43</title>
<polygon fill="none" stroke="black" points="351.173,-167.562 315.646,-180 280.119,-167.562 280.152,-147.438 351.139,-147.438 351.173,-167.562"/>
<text text-anchor="middle" x="315.646" y="-158.9" font-family="Times,serif" font-size="12.00">mem</text>
</g>
<!-- node43&#45;&gt;node16 -->
<g id="edge19" class="edge"><title>node43&#45;&gt;node16</title>
<path fill="none" stroke="black" d="M349.822,-147.326C353.445,-146.106 357.101,-144.968 360.646,-144 450.335,-119.503 558.084,-103.912 618.529,-96.3766"/>
<polygon fill="black" stroke="black" points="619.033,-99.8412 628.532,-95.1495 618.18,-92.8932 619.033,-99.8412"/>
</g>
<!-- node1485 -->
<g id="node20" class="node"><title>node1485</title>
<polygon fill="none" stroke="black" points="452.146,-108 373.146,-108 373.146,-72 452.146,-72 452.146,-108"/>
<text text-anchor="middle" x="412.646" y="-86.9" font-family="Times,serif" font-size="12.00">oe_ptrace</text>
</g>
<!-- node1485&#45;&gt;node1529 -->
<g id="edge20" class="edge"><title>node1485&#45;&gt;node1529</title>
<path fill="none" stroke="black" d="M412.646,-71.6966C412.646,-63.9827 412.646,-54.7125 412.646,-46.1124"/>
<polygon fill="black" stroke="black" points="416.146,-46.1043 412.646,-36.1043 409.146,-46.1044 416.146,-46.1043"/>
</g>
<!-- node1485&#45;&gt;node25 -->
<g id="edge21" class="edge"><title>node1485&#45;&gt;node25</title>
<path fill="none" stroke="black" d="M390.151,-71.6966C378.691,-62.8807 364.587,-52.0321 352.162,-42.4742"/>
<polygon fill="black" stroke="black" points="353.942,-39.4273 343.881,-36.1043 349.674,-44.9757 353.942,-39.4273"/>
</g>
<!-- node1457 -->
<g id="node21" class="node"><title>node1457</title>
<polygon fill="none" stroke="black" points="274.646,-324 215.247,-306 274.646,-288 334.044,-306 274.646,-324"/>
<text text-anchor="middle" x="274.646" y="-302.9" font-family="Times,serif" font-size="12.00">oelibcxx</text>
</g>
<!-- node1396 -->
<g id="node22" class="node"><title>node1396</title>
<polygon fill="none" stroke="black" points="224.646,-252 170.646,-252 170.646,-216 224.646,-216 224.646,-252"/>
<text text-anchor="middle" x="197.646" y="-230.9" font-family="Times,serif" font-size="12.00">libcxx</text>
</g>
<!-- node1457&#45;&gt;node1396 -->
<g id="edge22" class="edge"><title>node1457&#45;&gt;node1396</title>
<path fill="none" stroke="black" d="M260.523,-292.161C250.408,-282.966 236.48,-270.304 224.303,-259.234"/>
<polygon fill="black" stroke="black" points="226.365,-256.379 216.612,-252.242 221.657,-261.558 226.365,-256.379"/>
</g>
<!-- node1403 -->
<g id="node23" class="node"><title>node1403</title>
<polygon fill="none" stroke="black" points="306.646,-252 242.646,-252 242.646,-216 306.646,-216 306.646,-252"/>
<text text-anchor="middle" x="274.646" y="-230.9" font-family="Times,serif" font-size="12.00">libcxxrt</text>
</g>
<!-- node1457&#45;&gt;node1403 -->
<g id="edge24" class="edge"><title>node1457&#45;&gt;node1403</title>
<path fill="none" stroke="black" d="M274.646,-287.697C274.646,-279.983 274.646,-270.712 274.646,-262.112"/>
<polygon fill="black" stroke="black" points="278.146,-262.104 274.646,-252.104 271.146,-262.104 278.146,-262.104"/>
</g>
<!-- node1413 -->
<g id="node24" class="node"><title>node1413</title>
<polygon fill="none" stroke="black" points="404.646,-252 324.646,-252 324.646,-216 404.646,-216 404.646,-252"/>
<text text-anchor="middle" x="364.646" y="-230.9" font-family="Times,serif" font-size="12.00">libunwind</text>
</g>
<!-- node1457&#45;&gt;node1413 -->
<g id="edge26" class="edge"><title>node1457&#45;&gt;node1413</title>
<path fill="none" stroke="black" d="M290.736,-292.485C302.824,-283.084 319.738,-269.928 334.336,-258.574"/>
<polygon fill="black" stroke="black" points="336.865,-261.042 342.609,-252.139 332.567,-255.516 336.865,-261.042"/>
</g>
<!-- node1396&#45;&gt;node1447 -->
<g id="edge23" class="edge"><title>node1396&#45;&gt;node1447</title>
<path fill="none" stroke="black" d="M197.646,-215.697C197.646,-207.983 197.646,-198.712 197.646,-190.112"/>
<polygon fill="black" stroke="black" points="201.146,-190.104 197.646,-180.104 194.146,-190.104 201.146,-190.104"/>
</g>
<!-- node1403&#45;&gt;node1447 -->
<g id="edge25" class="edge"><title>node1403&#45;&gt;node1447</title>
<path fill="none" stroke="black" d="M255.612,-215.697C244.322,-205.433 230.002,-192.415 218.42,-181.886"/>
<polygon fill="black" stroke="black" points="220.664,-179.195 210.91,-175.058 215.955,-184.375 220.664,-179.195"/>
</g>
<!-- node1413&#45;&gt;node1447 -->
<g id="edge27" class="edge"><title>node1413&#45;&gt;node1447</title>
<path fill="none" stroke="black" d="M324.645,-216.233C295.081,-203.841 255.424,-187.219 228.339,-175.866"/>
<polygon fill="black" stroke="black" points="229.547,-172.577 218.971,-171.939 226.841,-179.033 229.547,-172.577"/>
</g>
<!-- node1354 -->
<g id="node25" class="node"><title>node1354</title>
<polygon fill="none" stroke="black" points="449.803,-167.562 409.646,-180 369.489,-167.562 369.526,-147.438 449.765,-147.438 449.803,-167.562"/>
<text text-anchor="middle" x="409.646" y="-158.9" font-family="Times,serif" font-size="12.00">oesgx</text>
</g>
<!-- node1354&#45;&gt;node16 -->
<g id="edge28" class="edge"><title>node1354&#45;&gt;node16</title>
<path fill="none" stroke="black" d="M447.797,-147.42C451.451,-146.223 455.111,-145.064 458.646,-144 516.568,-126.57 584.682,-109.842 626.507,-99.9931"/>
<polygon fill="black" stroke="black" points="627.357,-103.389 636.296,-97.7007 625.761,-96.5731 627.357,-103.389"/>
</g>
<!-- node1364 -->
<g id="node26" class="node"><title>node1364</title>
<polygon fill="none" stroke="black" points="557.433,-167.562 512.646,-180 467.858,-167.562 467.9,-147.438 557.391,-147.438 557.433,-167.562"/>
<text text-anchor="middle" x="512.646" y="-158.9" font-family="Times,serif" font-size="12.00">oesign</text>
</g>
<!-- node1364&#45;&gt;node16 -->
<g id="edge29" class="edge"><title>node1364&#45;&gt;node16</title>
<path fill="none" stroke="black" d="M542.509,-147.337C569.153,-135.147 608.001,-117.373 634.908,-105.063"/>
<polygon fill="black" stroke="black" points="636.599,-108.139 644.236,-100.795 633.686,-101.773 636.599,-108.139"/>
</g>
<!-- node81 -->
<g id="node27" class="node"><title>node81</title>
<polygon fill="none" stroke="black" points="689.782,-167.562 632.646,-180 575.51,-167.562 575.563,-147.438 689.729,-147.438 689.782,-167.562"/>
<text text-anchor="middle" x="632.646" y="-158.9" font-family="Times,serif" font-size="12.00">safemath</text>
</g>
<!-- node81&#45;&gt;node16 -->
<g id="edge30" class="edge"><title>node81&#45;&gt;node16</title>
<path fill="none" stroke="black" d="M639.165,-147.17C643.48,-138.019 649.252,-125.774 654.307,-115.053"/>
<polygon fill="black" stroke="black" points="657.585,-116.305 658.684,-105.768 651.254,-113.32 657.585,-116.305"/>
</g>
<!-- node91 -->
<g id="node28" class="node"><title>node91</title>
<polygon fill="none" stroke="black" points="761.646,-167.562 734.646,-180 707.646,-167.562 707.671,-147.438 761.621,-147.438 761.646,-167.562"/>
<text text-anchor="middle" x="734.646" y="-158.9" font-family="Times,serif" font-size="12.00">str</text>
</g>
<!-- node91&#45;&gt;node16 -->
<g id="edge31" class="edge"><title>node91&#45;&gt;node16</title>
<path fill="none" stroke="black" d="M721.014,-147.17C710.833,-136.842 696.769,-122.574 685.363,-111.003"/>
<polygon fill="black" stroke="black" points="687.832,-108.522 678.319,-103.857 682.846,-113.436 687.832,-108.522"/>
</g>
</g>
</svg>
