<?xml version="1.0" encoding="UTF-8" standalone="no"?>
<!DOCTYPE svg PUBLIC "-//W3C//DTD SVG 1.1//EN"
 "http://www.w3.org/Graphics/SVG/1.1/DTD/svg11.dtd">
<!-- Generated by graphviz version 2.40.1 (20161225.0304)
 -->
<!-- Title: GG Pages: 1 -->
<svg width="1344pt" height="692pt"
 viewBox="0.00 0.00 1344.14 692.00" xmlns="http://www.w3.org/2000/svg" xmlns:xlink="http://www.w3.org/1999/xlink">
<g id="graph0" class="graph" transform="scale(1 1) rotate(0) translate(4 688)">
<title>GG</title>
<polygon fill="#ffffff" stroke="transparent" points="-4,4 -4,-688 1340.1387,-688 1340.1387,4 -4,4"/>
<!-- node102 -->
<g id="node1" class="node">
<title>node102</title>
<polygon fill="none" stroke="#000000" points="80.485,-167.5623 40.3281,-180 .1712,-167.5623 .2087,-147.4377 80.4475,-147.4377 80.485,-167.5623"/>
<text text-anchor="middle" x="40.3281" y="-158.9" font-family="Times,serif" font-size="12.00" fill="#000000">logging</text>
</g>
<!-- node21 -->
<g id="node2" class="node">
<title>node21</title>
<polygon fill="none" stroke="#000000" points="175.3281,-108 134.4942,-90 175.3281,-72 216.162,-90 175.3281,-108"/>
<text text-anchor="middle" x="175.3281" y="-86.9" font-family="Times,serif" font-size="12.00" fill="#000000">oehost</text>
</g>
<!-- node102&#45;&gt;node21 -->
<g id="edge1" class="edge">
<title>node102&#45;&gt;node21</title>
<path fill="none" stroke="#000000" d="M67.6474,-147.4297C90.9416,-135.0061 124.2738,-117.2289 147.6659,-104.7532"/>
<polygon fill="#000000" stroke="#000000" points="149.5399,-107.7204 156.7163,-99.9263 146.2457,-101.544 149.5399,-107.7204"/>
</g>
<!-- node2166 -->
<g id="node3" class="node">
<title>node2166</title>
<ellipse fill="none" stroke="#000000" cx="240.3281" cy="-18" rx="28.8653" ry="18"/>
<text text-anchor="middle" x="240.3281" y="-14.9" font-family="Times,serif" font-size="12.00" fill="#000000">crypto</text>
</g>
<!-- node21&#45;&gt;node2166 -->
<g id="edge2" class="edge">
<title>node21&#45;&gt;node2166</title>
<path fill="none" stroke="#000000" stroke-dasharray="5,2" d="M187.2501,-76.7941C196.124,-66.9645 208.4751,-53.2833 219.0301,-41.5917"/>
<polygon fill="#000000" stroke="#000000" points="221.8825,-43.6551 225.9856,-33.8871 216.6866,-38.9644 221.8825,-43.6551"/>
</g>
<!-- node2167 -->
<g id="node4" class="node">
<title>node2167</title>
<ellipse fill="none" stroke="#000000" cx="314.3281" cy="-18" rx="27" ry="18"/>
<text text-anchor="middle" x="314.3281" y="-14.9" font-family="Times,serif" font-size="12.00" fill="#000000">dl</text>
</g>
<!-- node21&#45;&gt;node2167 -->
<g id="edge3" class="edge">
<title>node21&#45;&gt;node2167</title>
<path fill="none" stroke="#000000" stroke-dasharray="5,2" d="M194.364,-80.1397C217.3768,-68.2194 256.4051,-48.0033 283.6765,-33.8771"/>
<polygon fill="#000000" stroke="#000000" points="285.5172,-36.8654 292.7868,-29.1581 282.2975,-30.6497 285.5172,-36.8654"/>
</g>
<!-- node29 -->
<g id="node5" class="node">
<title>node29</title>
<polygon fill="none" stroke="#000000" points="449.8281,-36 376.8281,-36 376.8281,0 449.8281,0 449.8281,-36"/>
<text text-anchor="middle" x="413.3281" y="-14.9" font-family="Times,serif" font-size="12.00" fill="#000000">oe_includes</text>
</g>
<!-- node21&#45;&gt;node29 -->
<g id="edge4" class="edge">
<title>node21&#45;&gt;node29</title>
<path fill="none" stroke="#000000" d="M197.621,-81.6195C206.2344,-78.4751 216.1982,-74.951 225.3281,-72 228.7978,-70.8785 312.2858,-46.9406 366.8257,-31.3165"/>
<polygon fill="#000000" stroke="#000000" points="367.9972,-34.6218 376.6468,-28.5033 366.0696,-27.8924 367.9972,-34.6218"/>
</g>
<!-- node2136 -->
<g id="node6" class="node">
<title>node2136</title>
<polygon fill="none" stroke="#000000" points="193.3281,-36 129.3281,-36 129.3281,0 193.3281,0 193.3281,-36"/>
<text text-anchor="middle" x="161.3281" y="-14.9" font-family="Times,serif" font-size="12.00" fill="#000000">oedebugrt</text>
</g>
<!-- node21&#45;&gt;node2136 -->
<g id="edge5" class="edge">
<title>node21&#45;&gt;node2136</title>
<path fill="none" stroke="#000000" stroke-dasharray="5,2" d="M172.081,-73.3008C170.5082,-65.2118 168.5764,-55.2769 166.7862,-46.0702"/>
<polygon fill="#000000" stroke="#000000" points="170.1963,-45.2702 164.8518,-36.1222 163.325,-46.6064 170.1963,-45.2702"/>
</g>
<!-- node2007 -->
<g id="node7" class="node">
<title>node2007</title>
<polygon fill="none" stroke="#000000" points="502.8281,-540 429.8281,-540 429.8281,-504 502.8281,-504 502.8281,-540"/>
<text text-anchor="middle" x="466.3281" y="-518.9" font-family="Times,serif" font-size="12.00" fill="#000000">mbedcrypto</text>
</g>
<!-- node2006 -->
<g id="node8" class="node">
<title>node2006</title>
<polygon fill="none" stroke="#000000" points="466.3281,-468 420.0471,-450 466.3281,-432 512.6091,-450 466.3281,-468"/>
<text text-anchor="middle" x="466.3281" y="-446.9" font-family="Times,serif" font-size="12.00" fill="#000000">mbedtls</text>
</g>
<!-- node2007&#45;&gt;node2006 -->
<g id="edge6" class="edge">
<title>node2007&#45;&gt;node2006</title>
<path fill="none" stroke="#000000" stroke-dasharray="1,5" d="M466.3281,-503.8314C466.3281,-496.131 466.3281,-486.9743 466.3281,-478.4166"/>
<polygon fill="#000000" stroke="#000000" points="469.8282,-478.4132 466.3281,-468.4133 462.8282,-478.4133 469.8282,-478.4132"/>
</g>
<!-- node2003 -->
<g id="node9" class="node">
<title>node2003</title>
<polygon fill="none" stroke="#000000" points="466.3281,-396 408.171,-378 466.3281,-360 524.4852,-378 466.3281,-396"/>
<text text-anchor="middle" x="466.3281" y="-374.9" font-family="Times,serif" font-size="12.00" fill="#000000">mbedx509</text>
</g>
<!-- node2006&#45;&gt;node2003 -->
<g id="edge7" class="edge">
<title>node2006&#45;&gt;node2003</title>
<path fill="none" stroke="#000000" d="M466.3281,-431.8314C466.3281,-424.131 466.3281,-414.9743 466.3281,-406.4166"/>
<polygon fill="#000000" stroke="#000000" points="469.8282,-406.4132 466.3281,-396.4133 462.8282,-406.4133 469.8282,-406.4132"/>
</g>
<!-- node2005 -->
<g id="node10" class="node">
<title>node2005</title>
<polygon fill="none" stroke="#000000" points="466.3281,-324 376.49,-306 466.3281,-288 556.1661,-306 466.3281,-324"/>
<text text-anchor="middle" x="466.3281" y="-302.9" font-family="Times,serif" font-size="12.00" fill="#000000">mbedcrypto_static</text>
</g>
<!-- node2003&#45;&gt;node2005 -->
<g id="edge8" class="edge">
<title>node2003&#45;&gt;node2005</title>
<path fill="none" stroke="#000000" d="M466.3281,-359.8314C466.3281,-352.131 466.3281,-342.9743 466.3281,-334.4166"/>
<polygon fill="#000000" stroke="#000000" points="469.8282,-334.4132 466.3281,-324.4133 462.8282,-334.4133 469.8282,-334.4132"/>
</g>
<!-- node2005&#45;&gt;node29 -->
<g id="edge9" class="edge">
<title>node2005&#45;&gt;node29</title>
<path fill="none" stroke="#000000" d="M468.7015,-288.2944C473.3541,-248.3078 480.9656,-148.5383 453.3281,-72 449.7619,-62.124 443.7594,-52.5178 437.4743,-44.2124"/>
<polygon fill="#000000" stroke="#000000" points="440.169,-41.9783 431.1748,-36.3788 434.714,-46.365 440.169,-41.9783"/>
</g>
<!-- node2016 -->
<g id="node11" class="node">
<title>node2016</title>
<polygon fill="none" stroke="#000000" points="673.3281,-252 633.9759,-234 673.3281,-216 712.6803,-234 673.3281,-252"/>
<text text-anchor="middle" x="673.3281" y="-230.9" font-family="Times,serif" font-size="12.00" fill="#000000">oelibc</text>
</g>
<!-- node2005&#45;&gt;node2016 -->
<g id="edge10" class="edge">
<title>node2005&#45;&gt;node2016</title>
<path fill="none" stroke="#000000" d="M499.5862,-294.432C538.508,-280.894 602.5227,-258.628 641.0273,-245.2351"/>
<polygon fill="#000000" stroke="#000000" points="642.4074,-248.4608 650.7026,-241.8697 640.1078,-241.8493 642.4074,-248.4608"/>
</g>
<!-- node1933 -->
<g id="node12" class="node">
<title>node1933</title>
<polygon fill="none" stroke="#000000" points="706.3281,-108 664.7522,-90 706.3281,-72 747.904,-90 706.3281,-108"/>
<text text-anchor="middle" x="706.3281" y="-86.9" font-family="Times,serif" font-size="12.00" fill="#000000">oecore</text>
</g>
<!-- node2016&#45;&gt;node1933 -->
<g id="edge11" class="edge">
<title>node2016&#45;&gt;node1933</title>
<path fill="none" stroke="#000000" d="M669.0015,-217.6333C664.9175,-199.256 660.4875,-168.766 668.3281,-144 672.1427,-131.9508 679.7196,-120.2645 687.1107,-110.8632"/>
<polygon fill="#000000" stroke="#000000" points="690.0135,-112.8474 693.733,-102.927 684.6388,-108.3626 690.0135,-112.8474"/>
</g>
<!-- node2017 -->
<g id="node13" class="node">
<title>node2017</title>
<polygon fill="none" stroke="#000000" points="735.8281,-180 676.8281,-180 676.8281,-144 735.8281,-144 735.8281,-180"/>
<text text-anchor="middle" x="706.3281" y="-158.9" font-family="Times,serif" font-size="12.00" fill="#000000">oelibasm</text>
</g>
<!-- node2016&#45;&gt;node2017 -->
<g id="edge13" class="edge">
<title>node2016&#45;&gt;node2017</title>
<path fill="none" stroke="#000000" stroke-dasharray="5,2" d="M680.1657,-219.0816C684.0857,-210.5289 689.1291,-199.5251 693.74,-189.4649"/>
<polygon fill="#000000" stroke="#000000" points="696.9926,-190.7685 697.9775,-180.2195 690.6291,-187.8519 696.9926,-190.7685"/>
</g>
<!-- node1990 -->
<g id="node14" class="node">
<title>node1990</title>
<polygon fill="none" stroke="#000000" points="620.3281,-180 530.3281,-180 530.3281,-144 620.3281,-144 620.3281,-180"/>
<text text-anchor="middle" x="575.3281" y="-158.9" font-family="Times,serif" font-size="12.00" fill="#000000">oelibc_includes</text>
</g>
<!-- node2016&#45;&gt;node1990 -->
<g id="edge14" class="edge">
<title>node2016&#45;&gt;node1990</title>
<path fill="none" stroke="#000000" d="M658.0156,-222.75C644.813,-213.0502 625.2864,-198.7041 608.5235,-186.3885"/>
<polygon fill="#000000" stroke="#000000" points="610.1887,-183.2689 600.0576,-180.1686 606.0442,-188.91 610.1887,-183.2689"/>
</g>
<!-- node2035 -->
<g id="node15" class="node">
<title>node2035</title>
<polygon fill="none" stroke="#000000" points="913.3281,-180 862.1003,-162 913.3281,-144 964.5559,-162 913.3281,-180"/>
<text text-anchor="middle" x="913.3281" y="-158.9" font-family="Times,serif" font-size="12.00" fill="#000000">oesyscall</text>
</g>
<!-- node2016&#45;&gt;node2035 -->
<g id="edge15" class="edge">
<title>node2016&#45;&gt;node2035</title>
<path fill="none" stroke="#000000" d="M697.2176,-226.8331C739.0356,-214.2878 825.7926,-188.2606 875.7301,-173.2794"/>
<polygon fill="#000000" stroke="#000000" points="876.9276,-176.5743 885.5002,-170.3484 874.9162,-169.8695 876.9276,-176.5743"/>
</g>
<!-- node1933&#45;&gt;node29 -->
<g id="edge12" class="edge">
<title>node1933&#45;&gt;node29</title>
<path fill="none" stroke="#000000" d="M679.5496,-83.4196C629.6345,-71.1538 521.828,-44.6621 459.8029,-29.4204"/>
<polygon fill="#000000" stroke="#000000" points="460.4339,-25.9714 449.8876,-26.9839 458.7634,-32.7692 460.4339,-25.9714"/>
</g>
<!-- node2035&#45;&gt;node1933 -->
<g id="edge16" class="edge">
<title>node2035&#45;&gt;node1933</title>
<path fill="none" stroke="#000000" d="M887.5299,-153.0267C849.9836,-139.9671 780.2876,-115.725 739.1388,-101.4124"/>
<polygon fill="#000000" stroke="#000000" points="740.1714,-98.066 729.5766,-98.0864 737.8717,-104.6774 740.1714,-98.066"/>
</g>
<!-- node2104 -->
<g id="node16" class="node">
<title>node2104</title>
<polygon fill="none" stroke="#000000" points="444.3281,-108 382.3281,-108 382.3281,-72 444.3281,-72 444.3281,-108"/>
<text text-anchor="middle" x="413.3281" y="-86.9" font-family="Times,serif" font-size="12.00" fill="#000000">oe_ptrace</text>
</g>
<!-- node2104&#45;&gt;node2167 -->
<g id="edge17" class="edge">
<title>node2104&#45;&gt;node2167</title>
<path fill="none" stroke="#000000" d="M388.3462,-71.8314C373.8854,-61.3144 355.6897,-48.0812 340.958,-37.3672"/>
<polygon fill="#000000" stroke="#000000" points="342.8849,-34.4409 332.7389,-31.3897 338.7677,-40.102 342.8849,-34.4409"/>
</g>
<!-- node2104&#45;&gt;node29 -->
<g id="edge18" class="edge">
<title>node2104&#45;&gt;node29</title>
<path fill="none" stroke="#000000" d="M413.3281,-71.8314C413.3281,-64.131 413.3281,-54.9743 413.3281,-46.4166"/>
<polygon fill="#000000" stroke="#000000" points="416.8282,-46.4132 413.3281,-36.4133 409.8282,-46.4133 416.8282,-46.4132"/>
</g>
<!-- node139 -->
<g id="node17" class="node">
<title>node139</title>
<polygon fill="none" stroke="#000000" points="167.8115,-167.5623 133.3281,-180 98.8447,-167.5623 98.8769,-147.4377 167.7793,-147.4377 167.8115,-167.5623"/>
<text text-anchor="middle" x="133.3281" y="-158.9" font-family="Times,serif" font-size="12.00" fill="#000000">oecert</text>
</g>
<!-- node139&#45;&gt;node21 -->
<g id="edge19" class="edge">
<title>node139&#45;&gt;node21</title>
<path fill="none" stroke="#000000" d="M141.8274,-147.4297C147.5202,-137.6706 155.1401,-124.608 161.6742,-113.4067"/>
<polygon fill="#000000" stroke="#000000" points="164.8259,-114.95 166.8414,-104.5486 158.7794,-111.4228 164.8259,-114.95"/>
</g>
<!-- node1102 -->
<g id="node18" class="node">
<title>node1102</title>
<polygon fill="none" stroke="#000000" points="843.3281,-324 801.7522,-306 843.3281,-288 884.904,-306 843.3281,-324"/>
<text text-anchor="middle" x="843.3281" y="-302.9" font-family="Times,serif" font-size="12.00" fill="#000000">oecpio</text>
</g>
<!-- node1102&#45;&gt;node2016 -->
<g id="edge21" class="edge">
<title>node1102&#45;&gt;node2016</title>
<path fill="none" stroke="#000000" stroke-dasharray="5,2" d="M822.1412,-297.0267C792.2485,-284.3663 737.5418,-261.1964 703.4368,-246.7519"/>
<polygon fill="#000000" stroke="#000000" points="704.5561,-243.4251 693.9829,-242.7479 701.8261,-249.8708 704.5561,-243.4251"/>
</g>
<!-- node1102&#45;&gt;node1933 -->
<g id="edge20" class="edge">
<title>node1102&#45;&gt;node1933</title>
<path fill="none" stroke="#000000" stroke-dasharray="5,2" d="M826.9852,-294.8878C813.586,-285.0225 794.9912,-269.489 783.3281,-252 755.0961,-209.6657 768.9114,-189.0895 745.3281,-144 739.419,-132.7023 731.3662,-121.1202 724.1121,-111.594"/>
<polygon fill="#000000" stroke="#000000" points="726.6834,-109.2009 717.7591,-103.4906 721.1745,-113.5198 726.6834,-109.2009"/>
</g>
<!-- node1940 -->
<g id="node19" class="node">
<title>node1940</title>
<polygon fill="none" stroke="#000000" points="466.3281,-612 393.0719,-594 466.3281,-576 539.5843,-594 466.3281,-612"/>
<text text-anchor="middle" x="466.3281" y="-590.9" font-family="Times,serif" font-size="12.00" fill="#000000">oecryptombed</text>
</g>
<!-- node1940&#45;&gt;node2007 -->
<g id="edge22" class="edge">
<title>node1940&#45;&gt;node2007</title>
<path fill="none" stroke="#000000" d="M466.3281,-575.8314C466.3281,-568.131 466.3281,-558.9743 466.3281,-550.4166"/>
<polygon fill="#000000" stroke="#000000" points="469.8282,-550.4132 466.3281,-540.4133 462.8282,-550.4133 469.8282,-550.4132"/>
</g>
<!-- node1919 -->
<g id="node20" class="node">
<title>node1919</title>
<polygon fill="none" stroke="#000000" points="466.3281,-684 410.3941,-666 466.3281,-648 522.2621,-666 466.3281,-684"/>
<text text-anchor="middle" x="466.3281" y="-662.9" font-family="Times,serif" font-size="12.00" fill="#000000">oeenclave</text>
</g>
<!-- node1919&#45;&gt;node1940 -->
<g id="edge23" class="edge">
<title>node1919&#45;&gt;node1940</title>
<path fill="none" stroke="#000000" d="M466.3281,-647.8314C466.3281,-640.131 466.3281,-630.9743 466.3281,-622.4166"/>
<polygon fill="#000000" stroke="#000000" points="469.8282,-622.4132 466.3281,-612.4133 462.8282,-622.4133 469.8282,-622.4132"/>
</g>
<!-- node23 -->
<g id="node21" class="node">
<title>node23</title>
<polygon fill="none" stroke="#000000" points="250.8281,-180 185.8281,-180 185.8281,-144 250.8281,-144 250.8281,-180"/>
<text text-anchor="middle" x="218.3281" y="-158.9" font-family="Times,serif" font-size="12.00" fill="#000000">oehostapp</text>
</g>
<!-- node23&#45;&gt;node21 -->
<g id="edge24" class="edge">
<title>node23&#45;&gt;node21</title>
<path fill="none" stroke="#000000" stroke-dasharray="1,5" d="M207.4774,-143.8314C201.9152,-134.518 195.0809,-123.0744 189.1458,-113.1367"/>
<polygon fill="#000000" stroke="#000000" points="192.1427,-111.3286 184.0104,-104.5378 186.1329,-114.9178 192.1427,-111.3286"/>
</g>
<!-- node2086 -->
<g id="node22" class="node">
<title>node2086</title>
<polygon fill="none" stroke="#000000" points="1274.3281,-252 1212.7064,-234 1274.3281,-216 1335.9498,-234 1274.3281,-252"/>
<text text-anchor="middle" x="1274.3281" y="-230.9" font-family="Times,serif" font-size="12.00" fill="#000000">oehostepoll</text>
</g>
<!-- node2086&#45;&gt;node2035 -->
<g id="edge25" class="edge">
<title>node2086&#45;&gt;node2035</title>
<path fill="none" stroke="#000000" d="M1241.914,-225.3162C1229.8416,-222.2051 1215.9968,-218.7824 1203.3281,-216 1117.1542,-197.0739 1015.63,-179.1656 958.4416,-169.4764"/>
<polygon fill="#000000" stroke="#000000" points="958.7358,-165.9766 948.2929,-167.7644 957.5714,-172.8791 958.7358,-165.9766"/>
</g>
<!-- node2056 -->
<g id="node23" class="node">
<title>node2056</title>
<polygon fill="none" stroke="#000000" points="841.3281,-252 792.8228,-234 841.3281,-216 889.8334,-234 841.3281,-252"/>
<text text-anchor="middle" x="841.3281" y="-230.9" font-family="Times,serif" font-size="12.00" fill="#000000">oehostfs</text>
</g>
<!-- node2056&#45;&gt;node2035 -->
<g id="edge26" class="edge">
<title>node2056&#45;&gt;node2035</title>
<path fill="none" stroke="#000000" d="M854.534,-220.7941C865.1578,-210.1703 880.2807,-195.0474 892.5283,-182.7998"/>
<polygon fill="#000000" stroke="#000000" points="895.1205,-185.1574 899.7167,-175.6114 890.1707,-180.2076 895.1205,-185.1574"/>
</g>
<!-- node2066 -->
<g id="node24" class="node">
<title>node2066</title>
<polygon fill="none" stroke="#000000" points="982.3281,-252 908.3309,-234 982.3281,-216 1056.3252,-234 982.3281,-252"/>
<text text-anchor="middle" x="982.3281" y="-230.9" font-family="Times,serif" font-size="12.00" fill="#000000">oehostresolver</text>
</g>
<!-- node2066&#45;&gt;node2035 -->
<g id="edge27" class="edge">
<title>node2066&#45;&gt;node2035</title>
<path fill="none" stroke="#000000" d="M968.0312,-219.0816C958.153,-208.7738 944.8627,-194.9057 933.8558,-183.4202"/>
<polygon fill="#000000" stroke="#000000" points="936.1164,-180.7205 926.6703,-175.9223 931.0624,-185.5639 936.1164,-180.7205"/>
</g>
<!-- node2076 -->
<g id="node25" class="node">
<title>node2076</title>
<polygon fill="none" stroke="#000000" points="1134.3281,-252 1074.1891,-234 1134.3281,-216 1194.467,-234 1134.3281,-252"/>
<text text-anchor="middle" x="1134.3281" y="-230.9" font-family="Times,serif" font-size="12.00" fill="#000000">oehostsock</text>
</g>
<!-- node2076&#45;&gt;node2035 -->
<g id="edge28" class="edge">
<title>node2076&#45;&gt;node2035</title>
<path fill="none" stroke="#000000" d="M1105.4362,-224.5873C1065.4912,-211.5735 993.3997,-188.0867 949.7938,-173.8802"/>
<polygon fill="#000000" stroke="#000000" points="950.7433,-170.5086 940.151,-170.7387 948.5749,-177.1643 950.7433,-170.5086"/>
</g>
<!-- node22 -->
<g id="node26" class="node">
<title>node22</title>
<polygon fill="none" stroke="#000000" points="299.3281,-108 234.2417,-90 299.3281,-72 364.4145,-90 299.3281,-108"/>
<text text-anchor="middle" x="299.3281" y="-86.9" font-family="Times,serif" font-size="12.00" fill="#000000">oehostverify</text>
</g>
<!-- node22&#45;&gt;node2166 -->
<g id="edge29" class="edge">
<title>node22&#45;&gt;node2166</title>
<path fill="none" stroke="#000000" stroke-dasharray="5,2" d="M287.1033,-75.0816C279.3032,-65.5628 269.0152,-53.008 260.0742,-42.097"/>
<polygon fill="#000000" stroke="#000000" points="262.6085,-39.6676 253.5631,-34.1512 257.1942,-44.1044 262.6085,-39.6676"/>
</g>
<!-- node22&#45;&gt;node2167 -->
<g id="edge30" class="edge">
<title>node22&#45;&gt;node2167</title>
<path fill="none" stroke="#000000" stroke-dasharray="5,2" d="M302.8829,-72.937C304.5698,-64.8397 306.629,-54.9555 308.5334,-45.8147"/>
<polygon fill="#000000" stroke="#000000" points="311.9763,-46.4489 310.5895,-35.9453 305.1234,-45.0212 311.9763,-46.4489"/>
</g>
<!-- node22&#45;&gt;node29 -->
<g id="edge31" class="edge">
<title>node22&#45;&gt;node29</title>
<path fill="none" stroke="#000000" d="M319.1854,-77.4586C334.8255,-67.5806 357.0738,-53.529 376.0154,-41.5659"/>
<polygon fill="#000000" stroke="#000000" points="378.1407,-44.3633 384.7266,-36.0641 374.4027,-38.4449 378.1407,-44.3633"/>
</g>
<!-- node2026 -->
<g id="node27" class="node">
<title>node2026</title>
<polygon fill="none" stroke="#000000" points="673.3281,-396 623.5826,-378 673.3281,-360 723.0735,-378 673.3281,-396"/>
<text text-anchor="middle" x="673.3281" y="-374.9" font-family="Times,serif" font-size="12.00" fill="#000000">oelibcxx</text>
</g>
<!-- node1963 -->
<g id="node28" class="node">
<title>node1963</title>
<polygon fill="none" stroke="#000000" points="628.3281,-324 574.3281,-324 574.3281,-288 628.3281,-288 628.3281,-324"/>
<text text-anchor="middle" x="601.3281" y="-302.9" font-family="Times,serif" font-size="12.00" fill="#000000">libcxx</text>
</g>
<!-- node2026&#45;&gt;node1963 -->
<g id="edge32" class="edge">
<title>node2026&#45;&gt;node1963</title>
<path fill="none" stroke="#000000" d="M659.7854,-364.4574C650.429,-355.1009 637.7028,-342.3747 626.5132,-331.1851"/>
<polygon fill="#000000" stroke="#000000" points="628.9788,-328.7009 619.4328,-324.1047 624.029,-333.6507 628.9788,-328.7009"/>
</g>
<!-- node1970 -->
<g id="node29" class="node">
<title>node1970</title>
<polygon fill="none" stroke="#000000" points="700.3281,-324 646.3281,-324 646.3281,-288 700.3281,-288 700.3281,-324"/>
<text text-anchor="middle" x="673.3281" y="-302.9" font-family="Times,serif" font-size="12.00" fill="#000000">libcxxrt</text>
</g>
<!-- node2026&#45;&gt;node1970 -->
<g id="edge34" class="edge">
<title>node2026&#45;&gt;node1970</title>
<path fill="none" stroke="#000000" d="M673.3281,-359.8314C673.3281,-352.131 673.3281,-342.9743 673.3281,-334.4166"/>
<polygon fill="#000000" stroke="#000000" points="676.8282,-334.4132 673.3281,-324.4133 669.8282,-334.4133 676.8282,-334.4132"/>
</g>
<!-- node1980 -->
<g id="node30" class="node">
<title>node1980</title>
<polygon fill="none" stroke="#000000" points="783.8281,-324 718.8281,-324 718.8281,-288 783.8281,-288 783.8281,-324"/>
<text text-anchor="middle" x="751.3281" y="-302.9" font-family="Times,serif" font-size="12.00" fill="#000000">libunwind</text>
</g>
<!-- node2026&#45;&gt;node1980 -->
<g id="edge36" class="edge">
<title>node2026&#45;&gt;node1980</title>
<path fill="none" stroke="#000000" d="M687.6345,-364.7941C697.9053,-355.3134 712.0576,-342.2496 724.4139,-330.8438"/>
<polygon fill="#000000" stroke="#000000" points="726.8506,-333.3579 731.8246,-324.0032 722.1026,-328.2142 726.8506,-333.3579"/>
</g>
<!-- node1963&#45;&gt;node2016 -->
<g id="edge33" class="edge">
<title>node1963&#45;&gt;node2016</title>
<path fill="none" stroke="#000000" d="M619.4967,-287.8314C629.8217,-277.5064 642.7646,-264.5635 653.3715,-253.9566"/>
<polygon fill="#000000" stroke="#000000" points="656.0151,-256.2627 660.6113,-246.7168 651.0654,-251.313 656.0151,-256.2627"/>
</g>
<!-- node1970&#45;&gt;node2016 -->
<g id="edge35" class="edge">
<title>node1970&#45;&gt;node2016</title>
<path fill="none" stroke="#000000" d="M673.3281,-287.8314C673.3281,-280.131 673.3281,-270.9743 673.3281,-262.4166"/>
<polygon fill="#000000" stroke="#000000" points="676.8282,-262.4132 673.3281,-252.4133 669.8282,-262.4133 676.8282,-262.4132"/>
</g>
<!-- node1980&#45;&gt;node2016 -->
<g id="edge37" class="edge">
<title>node1980&#45;&gt;node2016</title>
<path fill="none" stroke="#000000" d="M731.6454,-287.8314C720.2048,-277.2708 705.7971,-263.9714 694.165,-253.2341"/>
<polygon fill="#000000" stroke="#000000" points="696.3481,-250.486 686.626,-246.275 691.6001,-255.6297 696.3481,-250.486"/>
</g>
<!-- node1899 -->
<g id="node31" class="node">
<title>node1899</title>
<polygon fill="none" stroke="#000000" points="606.788,-671.5623 573.3281,-684 539.8682,-671.5623 539.8995,-651.4377 606.7567,-651.4377 606.788,-671.5623"/>
<text text-anchor="middle" x="573.3281" y="-662.9" font-family="Times,serif" font-size="12.00" fill="#000000">oesgx</text>
</g>
<!-- node1909 -->
<g id="node32" class="node">
<title>node1909</title>
<polygon fill="none" stroke="#000000" points="339.855,-167.5623 304.3281,-180 268.8012,-167.5623 268.8344,-147.4377 339.8218,-147.4377 339.855,-167.5623"/>
<text text-anchor="middle" x="304.3281" y="-158.9" font-family="Times,serif" font-size="12.00" fill="#000000">oesign</text>
</g>
<!-- node1909&#45;&gt;node21 -->
<g id="edge38" class="edge">
<title>node1909&#45;&gt;node21</title>
<path fill="none" stroke="#000000" d="M278.223,-147.4297C256.1918,-135.1332 224.7641,-117.5922 202.45,-105.1378"/>
<polygon fill="#000000" stroke="#000000" points="203.9365,-101.9592 193.4987,-100.1417 200.5249,-108.0716 203.9365,-101.9592"/>
</g>
</g>
</svg>
