<?xml version="1.0" encoding="UTF-8" standalone="no"?>
<!DOCTYPE svg PUBLIC "-//W3C//DTD SVG 1.1//EN"
 "http://www.w3.org/Graphics/SVG/1.1/DTD/svg11.dtd">
<!-- Generated by graphviz version 2.40.1 (20161225.0304)
 -->
<!-- Title: GG Pages: 1 -->
<svg width="871pt" height="620pt"
 viewBox="0.00 0.00 871.40 620.00" xmlns="http://www.w3.org/2000/svg" xmlns:xlink="http://www.w3.org/1999/xlink">
<g id="graph0" class="graph" transform="scale(1 1) rotate(0) translate(4 616)">
<title>GG</title>
<polygon fill="#ffffff" stroke="transparent" points="-4,4 -4,-616 867.4002,-616 867.4002,4 -4,4"/>
<!-- node1538 -->
<g id="node1" class="node">
<title>node1538</title>
<polygon fill="none" stroke="#000000" points="353.5,-468 280.5,-468 280.5,-432 353.5,-432 353.5,-468"/>
<text text-anchor="middle" x="317" y="-446.9" font-family="Times,serif" font-size="12.00" fill="#000000">mbedcrypto</text>
</g>
<!-- node1537 -->
<g id="node2" class="node">
<title>node1537</title>
<polygon fill="none" stroke="#000000" points="317,-396 270.719,-378 317,-360 363.281,-378 317,-396"/>
<text text-anchor="middle" x="317" y="-374.9" font-family="Times,serif" font-size="12.00" fill="#000000">mbedtls</text>
</g>
<!-- node1538&#45;&gt;node1537 -->
<g id="edge1" class="edge">
<title>node1538&#45;&gt;node1537</title>
<path fill="none" stroke="#000000" stroke-dasharray="1,5" d="M317,-431.8314C317,-424.131 317,-414.9743 317,-406.4166"/>
<polygon fill="#000000" stroke="#000000" points="320.5001,-406.4132 317,-396.4133 313.5001,-406.4133 320.5001,-406.4132"/>
</g>
<!-- node1534 -->
<g id="node3" class="node">
<title>node1534</title>
<polygon fill="none" stroke="#000000" points="317,-324 258.8429,-306 317,-288 375.1571,-306 317,-324"/>
<text text-anchor="middle" x="317" y="-302.9" font-family="Times,serif" font-size="12.00" fill="#000000">mbedx509</text>
</g>
<!-- node1537&#45;&gt;node1534 -->
<g id="edge2" class="edge">
<title>node1537&#45;&gt;node1534</title>
<path fill="none" stroke="#000000" d="M317,-359.8314C317,-352.131 317,-342.9743 317,-334.4166"/>
<polygon fill="#000000" stroke="#000000" points="320.5001,-334.4132 317,-324.4133 313.5001,-334.4133 320.5001,-334.4132"/>
</g>
<!-- node1536 -->
<g id="node4" class="node">
<title>node1536</title>
<polygon fill="none" stroke="#000000" points="317,-252 227.162,-234 317,-216 406.838,-234 317,-252"/>
<text text-anchor="middle" x="317" y="-230.9" font-family="Times,serif" font-size="12.00" fill="#000000">mbedcrypto_static</text>
</g>
<!-- node1534&#45;&gt;node1536 -->
<g id="edge3" class="edge">
<title>node1534&#45;&gt;node1536</title>
<path fill="none" stroke="#000000" d="M317,-287.8314C317,-280.131 317,-270.9743 317,-262.4166"/>
<polygon fill="#000000" stroke="#000000" points="320.5001,-262.4132 317,-252.4133 313.5001,-262.4133 320.5001,-262.4132"/>
</g>
<!-- node26 -->
<g id="node5" class="node">
<title>node26</title>
<polygon fill="none" stroke="#000000" points="347.5,-36 274.5,-36 274.5,0 347.5,0 347.5,-36"/>
<text text-anchor="middle" x="311" y="-14.9" font-family="Times,serif" font-size="12.00" fill="#000000">oe_includes</text>
</g>
<!-- node1536&#45;&gt;node26 -->
<g id="edge4" class="edge">
<title>node1536&#45;&gt;node26</title>
<path fill="none" stroke="#000000" d="M316.4988,-215.9555C315.4554,-178.3938 313.0432,-91.5541 311.7892,-46.4103"/>
<polygon fill="#000000" stroke="#000000" points="315.2804,-46.044 311.504,-36.1451 308.2831,-46.2384 315.2804,-46.044"/>
</g>
<!-- node1547 -->
<g id="node6" class="node">
<title>node1547</title>
<polygon fill="none" stroke="#000000" points="158,-180 118.6478,-162 158,-144 197.3522,-162 158,-180"/>
<text text-anchor="middle" x="158" y="-158.9" font-family="Times,serif" font-size="12.00" fill="#000000">oelibc</text>
</g>
<!-- node1536&#45;&gt;node1547 -->
<g id="edge5" class="edge">
<title>node1536&#45;&gt;node1547</title>
<path fill="none" stroke="#000000" d="M289.3043,-221.4586C260.6867,-208.4997 216.2065,-188.3577 187.0873,-175.1716"/>
<polygon fill="#000000" stroke="#000000" points="188.3994,-171.9237 177.846,-170.9869 185.5118,-178.3004 188.3994,-171.9237"/>
</g>
<!-- node1464 -->
<g id="node7" class="node">
<title>node1464</title>
<polygon fill="none" stroke="#000000" points="62,-108 20.4241,-90 62,-72 103.5759,-90 62,-108"/>
<text text-anchor="middle" x="62" y="-86.9" font-family="Times,serif" font-size="12.00" fill="#000000">oecore</text>
</g>
<!-- node1547&#45;&gt;node1464 -->
<g id="edge6" class="edge">
<title>node1547&#45;&gt;node1464</title>
<path fill="none" stroke="#000000" d="M143,-150.75C127.6823,-139.2617 103.6746,-121.2559 85.7669,-107.8252"/>
<polygon fill="#000000" stroke="#000000" points="87.6308,-104.8481 77.5308,-101.6481 83.4308,-110.4481 87.6308,-104.8481"/>
</g>
<!-- node1548 -->
<g id="node8" class="node">
<title>node1548</title>
<polygon fill="none" stroke="#000000" points="180.5,-108 121.5,-108 121.5,-72 180.5,-72 180.5,-108"/>
<text text-anchor="middle" x="151" y="-86.9" font-family="Times,serif" font-size="12.00" fill="#000000">oelibasm</text>
</g>
<!-- node1547&#45;&gt;node1548 -->
<g id="edge8" class="edge">
<title>node1547&#45;&gt;node1548</title>
<path fill="none" stroke="#000000" stroke-dasharray="5,2" d="M156.3055,-144.5708C155.5319,-136.6139 154.5963,-126.9902 153.7275,-118.054"/>
<polygon fill="#000000" stroke="#000000" points="157.2033,-117.635 152.752,-108.0206 150.2362,-118.3124 157.2033,-117.635"/>
</g>
<!-- node1521 -->
<g id="node9" class="node">
<title>node1521</title>
<polygon fill="none" stroke="#000000" points="289,-108 199,-108 199,-72 289,-72 289,-108"/>
<text text-anchor="middle" x="244" y="-86.9" font-family="Times,serif" font-size="12.00" fill="#000000">oelibc_includes</text>
</g>
<!-- node1547&#45;&gt;node1521 -->
<g id="edge9" class="edge">
<title>node1547&#45;&gt;node1521</title>
<path fill="none" stroke="#000000" d="M172.2012,-150.1107C183.7136,-140.4723 200.3233,-126.5665 214.668,-114.557"/>
<polygon fill="#000000" stroke="#000000" points="216.9368,-117.2223 222.3576,-108.1193 212.4432,-111.855 216.9368,-117.2223"/>
</g>
<!-- node1464&#45;&gt;node26 -->
<g id="edge7" class="edge">
<title>node1464&#45;&gt;node26</title>
<path fill="none" stroke="#000000" d="M84.2702,-81.5483C92.8808,-78.3951 102.8486,-74.8837 112,-72 163.7773,-55.6842 224.0424,-39.7494 264.5701,-29.4697"/>
<polygon fill="#000000" stroke="#000000" points="265.5917,-32.8217 274.4314,-26.9812 263.8789,-26.0344 265.5917,-32.8217"/>
</g>
<!-- node1586 -->
<g id="node10" class="node">
<title>node1586</title>
<polygon fill="none" stroke="#000000" points="418,-108 356,-108 356,-72 418,-72 418,-108"/>
<text text-anchor="middle" x="387" y="-86.9" font-family="Times,serif" font-size="12.00" fill="#000000">oe_ptrace</text>
</g>
<!-- node1586&#45;&gt;node26 -->
<g id="edge11" class="edge">
<title>node1586&#45;&gt;node26</title>
<path fill="none" stroke="#000000" d="M367.822,-71.8314C358.6412,-63.1337 347.4994,-52.5783 337.5224,-43.1265"/>
<polygon fill="#000000" stroke="#000000" points="339.8385,-40.4995 330.1719,-36.1628 335.0243,-45.5811 339.8385,-40.4995"/>
</g>
<!-- node1630 -->
<g id="node11" class="node">
<title>node1630</title>
<ellipse fill="none" stroke="#000000" cx="393" cy="-18" rx="27" ry="18"/>
<text text-anchor="middle" x="393" y="-14.9" font-family="Times,serif" font-size="12.00" fill="#000000">dl</text>
</g>
<!-- node1586&#45;&gt;node1630 -->
<g id="edge10" class="edge">
<title>node1586&#45;&gt;node1630</title>
<path fill="none" stroke="#000000" d="M388.5141,-71.8314C389.1558,-64.131 389.9188,-54.9743 390.6319,-46.4166"/>
<polygon fill="#000000" stroke="#000000" points="394.1229,-46.6694 391.4656,-36.4133 387.1471,-46.088 394.1229,-46.6694"/>
</g>
<!-- node1471 -->
<g id="node12" class="node">
<title>node1471</title>
<polygon fill="none" stroke="#000000" points="317,-540 243.7438,-522 317,-504 390.2562,-522 317,-540"/>
<text text-anchor="middle" x="317" y="-518.9" font-family="Times,serif" font-size="12.00" fill="#000000">oecryptombed</text>
</g>
<!-- node1471&#45;&gt;node1538 -->
<g id="edge12" class="edge">
<title>node1471&#45;&gt;node1538</title>
<path fill="none" stroke="#000000" d="M317,-503.8314C317,-496.131 317,-486.9743 317,-478.4166"/>
<polygon fill="#000000" stroke="#000000" points="320.5001,-478.4132 317,-468.4133 313.5001,-478.4133 320.5001,-478.4132"/>
</g>
<!-- node1452 -->
<g id="node13" class="node">
<title>node1452</title>
<polygon fill="none" stroke="#000000" points="317,-612 261.066,-594 317,-576 372.934,-594 317,-612"/>
<text text-anchor="middle" x="317" y="-590.9" font-family="Times,serif" font-size="12.00" fill="#000000">oeenclave</text>
</g>
<!-- node1452&#45;&gt;node1471 -->
<g id="edge13" class="edge">
<title>node1452&#45;&gt;node1471</title>
<path fill="none" stroke="#000000" d="M317,-575.8314C317,-568.131 317,-558.9743 317,-550.4166"/>
<polygon fill="#000000" stroke="#000000" points="320.5001,-550.4132 317,-540.4133 313.5001,-550.4133 320.5001,-550.4132"/>
</g>
<!-- node13 -->
<g id="node14" class="node">
<title>node13</title>
<polygon fill="none" stroke="#000000" points="577,-108 536.1661,-90 577,-72 617.8339,-90 577,-108"/>
<text text-anchor="middle" x="577" y="-86.9" font-family="Times,serif" font-size="12.00" fill="#000000">oehost</text>
</g>
<!-- node13&#45;&gt;node26 -->
<g id="edge16" class="edge">
<title>node13&#45;&gt;node26</title>
<path fill="none" stroke="#000000" d="M548.8891,-84.3475C506.7377,-75.5925 424.8592,-57.5011 357,-36 356.9029,-35.9692 356.8057,-35.9384 356.7085,-35.9074"/>
<polygon fill="#000000" stroke="#000000" points="358.0963,-32.6823 347.502,-32.7866 355.849,-39.3118 358.0963,-32.6823"/>
</g>
<!-- node13&#45;&gt;node1630 -->
<g id="edge15" class="edge">
<title>node13&#45;&gt;node1630</title>
<path fill="none" stroke="#000000" stroke-dasharray="5,2" d="M553.3514,-82.2995C523.8615,-72.4861 472.0804,-54.5579 429,-36 427.2191,-35.2328 425.4013,-34.4205 423.5755,-33.5818"/>
<polygon fill="#000000" stroke="#000000" points="425.0462,-30.4055 414.5139,-29.2555 422.0302,-36.7225 425.0462,-30.4055"/>
</g>
<!-- node1629 -->
<g id="node15" class="node">
<title>node1629</title>
<ellipse fill="none" stroke="#000000" cx="722" cy="-18" rx="28.8653" ry="18"/>
<text text-anchor="middle" x="722" y="-14.9" font-family="Times,serif" font-size="12.00" fill="#000000">crypto</text>
</g>
<!-- node13&#45;&gt;node1629 -->
<g id="edge14" class="edge">
<title>node13&#45;&gt;node1629</title>
<path fill="none" stroke="#000000" stroke-dasharray="5,2" d="M596.2549,-80.439C620.2025,-68.5477 661.4238,-48.0792 690.1157,-33.8322"/>
<polygon fill="#000000" stroke="#000000" points="691.9226,-36.8428 699.3226,-29.2605 688.8094,-30.5732 691.9226,-36.8428"/>
</g>
<!-- node1632 -->
<g id="node16" class="node">
<title>node1632</title>
<ellipse fill="none" stroke="#000000" cx="816" cy="-18" rx="47.3006" ry="18"/>
<text text-anchor="middle" x="816" y="-14.9" font-family="Times,serif" font-size="12.00" fill="#000000">sgx_dcap_ql</text>
</g>
<!-- node13&#45;&gt;node1632 -->
<g id="edge17" class="edge">
<title>node13&#45;&gt;node1632</title>
<path fill="none" stroke="#000000" d="M601.9207,-82.8523C637.1903,-72.6896 703.6528,-53.3666 760,-36 763.3211,-34.9764 766.7489,-33.9069 770.1963,-32.8217"/>
<polygon fill="#000000" stroke="#000000" points="771.4171,-36.1064 779.8912,-29.7471 769.301,-29.4339 771.4171,-36.1064"/>
</g>
<!-- node1631 -->
<g id="node17" class="node">
<title>node1631</title>
<ellipse fill="none" stroke="#000000" cx="513" cy="-18" rx="75.2034" ry="18"/>
<text text-anchor="middle" x="513" y="-14.9" font-family="Times,serif" font-size="12.00" fill="#000000">sgx_enclave_common</text>
</g>
<!-- node13&#45;&gt;node1631 -->
<g id="edge18" class="edge">
<title>node13&#45;&gt;node1631</title>
<path fill="none" stroke="#000000" d="M565.2614,-76.7941C556.9345,-67.4263 545.498,-54.5603 535.4463,-43.252"/>
<polygon fill="#000000" stroke="#000000" points="538.0234,-40.8831 528.7638,-35.7342 532.7915,-45.5336 538.0234,-40.8831"/>
</g>
<!-- node1633 -->
<g id="node18" class="node">
<title>node1633</title>
<ellipse fill="none" stroke="#000000" cx="641" cy="-18" rx="34.4458" ry="18"/>
<text text-anchor="middle" x="641" y="-14.9" font-family="Times,serif" font-size="12.00" fill="#000000">sgx_urts</text>
</g>
<!-- node13&#45;&gt;node1633 -->
<g id="edge19" class="edge">
<title>node13&#45;&gt;node1633</title>
<path fill="none" stroke="#000000" d="M588.7386,-76.7941C597.3587,-67.0964 609.3112,-53.6499 619.6102,-42.0635"/>
<polygon fill="#000000" stroke="#000000" points="622.3871,-44.2077 626.4149,-34.4083 617.1552,-39.5571 622.3871,-44.2077"/>
</g>
<!-- node18 -->
<g id="node19" class="node">
<title>node18</title>
<polygon fill="none" stroke="#000000" points="652.5,-180 587.5,-180 587.5,-144 652.5,-144 652.5,-180"/>
<text text-anchor="middle" x="620" y="-158.9" font-family="Times,serif" font-size="12.00" fill="#000000">oehostapp</text>
</g>
<!-- node18&#45;&gt;node13 -->
<g id="edge20" class="edge">
<title>node18&#45;&gt;node13</title>
<path fill="none" stroke="#000000" stroke-dasharray="1,5" d="M609.1493,-143.8314C603.5871,-134.518 596.7528,-123.0744 590.8177,-113.1367"/>
<polygon fill="#000000" stroke="#000000" points="593.8146,-111.3286 585.6823,-104.5378 587.8048,-114.9178 593.8146,-111.3286"/>
</g>
<!-- node1557 -->
<g id="node20" class="node">
<title>node1557</title>
<polygon fill="none" stroke="#000000" points="99,-324 49.2545,-306 99,-288 148.7455,-306 99,-324"/>
<text text-anchor="middle" x="99" y="-302.9" font-family="Times,serif" font-size="12.00" fill="#000000">oelibcxx</text>
</g>
<!-- node1494 -->
<g id="node21" class="node">
<title>node1494</title>
<polygon fill="none" stroke="#000000" points="54,-252 0,-252 0,-216 54,-216 54,-252"/>
<text text-anchor="middle" x="27" y="-230.9" font-family="Times,serif" font-size="12.00" fill="#000000">libcxx</text>
</g>
<!-- node1557&#45;&gt;node1494 -->
<g id="edge21" class="edge">
<title>node1557&#45;&gt;node1494</title>
<path fill="none" stroke="#000000" d="M85.4574,-292.4574C76.1009,-283.1009 63.3747,-270.3747 52.1851,-259.1851"/>
<polygon fill="#000000" stroke="#000000" points="54.6507,-256.7009 45.1047,-252.1047 49.7009,-261.6507 54.6507,-256.7009"/>
</g>
<!-- node1501 -->
<g id="node22" class="node">
<title>node1501</title>
<polygon fill="none" stroke="#000000" points="126,-252 72,-252 72,-216 126,-216 126,-252"/>
<text text-anchor="middle" x="99" y="-230.9" font-family="Times,serif" font-size="12.00" fill="#000000">libcxxrt</text>
</g>
<!-- node1557&#45;&gt;node1501 -->
<g id="edge23" class="edge">
<title>node1557&#45;&gt;node1501</title>
<path fill="none" stroke="#000000" d="M99,-287.8314C99,-280.131 99,-270.9743 99,-262.4166"/>
<polygon fill="#000000" stroke="#000000" points="102.5001,-262.4132 99,-252.4133 95.5001,-262.4133 102.5001,-262.4132"/>
</g>
<!-- node1511 -->
<g id="node23" class="node">
<title>node1511</title>
<polygon fill="none" stroke="#000000" points="209.5,-252 144.5,-252 144.5,-216 209.5,-216 209.5,-252"/>
<text text-anchor="middle" x="177" y="-230.9" font-family="Times,serif" font-size="12.00" fill="#000000">libunwind</text>
</g>
<!-- node1557&#45;&gt;node1511 -->
<g id="edge25" class="edge">
<title>node1557&#45;&gt;node1511</title>
<path fill="none" stroke="#000000" d="M113.3064,-292.7941C123.5772,-283.3134 137.7296,-270.2496 150.0859,-258.8438"/>
<polygon fill="#000000" stroke="#000000" points="152.5225,-261.3579 157.4965,-252.0032 147.7745,-256.2142 152.5225,-261.3579"/>
</g>
<!-- node1494&#45;&gt;node1547 -->
<g id="edge22" class="edge">
<title>node1494&#45;&gt;node1547</title>
<path fill="none" stroke="#000000" d="M54.1433,-219.0816C76.7011,-206.6834 108.6303,-189.1345 131.1159,-176.776"/>
<polygon fill="#000000" stroke="#000000" points="133.0418,-179.7113 140.1196,-171.8274 129.6701,-173.5768 133.0418,-179.7113"/>
</g>
<!-- node1501&#45;&gt;node1547 -->
<g id="edge24" class="edge">
<title>node1501&#45;&gt;node1547</title>
<path fill="none" stroke="#000000" d="M113.8882,-215.8314C122.0769,-205.8384 132.2751,-193.3931 140.8025,-182.9868"/>
<polygon fill="#000000" stroke="#000000" points="143.5817,-185.1172 147.2128,-175.164 138.1674,-180.6804 143.5817,-185.1172"/>
</g>
<!-- node1511&#45;&gt;node1547 -->
<g id="edge26" class="edge">
<title>node1511&#45;&gt;node1547</title>
<path fill="none" stroke="#000000" d="M172.2055,-215.8314C170.001,-207.4774 167.3442,-197.4096 164.9276,-188.252"/>
<polygon fill="#000000" stroke="#000000" points="168.2739,-187.2152 162.3381,-178.4393 161.5056,-189.0014 168.2739,-187.2152"/>
</g>
<!-- node1566 -->
<g id="node24" class="node">
<title>node1566</title>
<polygon fill="none" stroke="#000000" points="55,-180 8.719,-162 55,-144 101.281,-162 55,-180"/>
<text text-anchor="middle" x="55" y="-158.9" font-family="Times,serif" font-size="12.00" fill="#000000">oeposix</text>
</g>
<!-- node1566&#45;&gt;node1464 -->
<g id="edge27" class="edge">
<title>node1566&#45;&gt;node1464</title>
<path fill="none" stroke="#000000" d="M56.6945,-144.5708C57.4797,-136.4942 58.4319,-126.7004 59.3117,-117.6514"/>
<polygon fill="#000000" stroke="#000000" points="62.8127,-117.81 60.2968,-107.5182 55.8455,-117.1326 62.8127,-117.81"/>
</g>
<!-- node1432 -->
<g id="node25" class="node">
<title>node1432</title>
<polygon fill="none" stroke="#000000" points="457.4599,-599.5623 424,-612 390.5401,-599.5623 390.5714,-579.4377 457.4286,-579.4377 457.4599,-599.5623"/>
<text text-anchor="middle" x="424" y="-590.9" font-family="Times,serif" font-size="12.00" fill="#000000">oesgx</text>
</g>
<!-- node1442 -->
<g id="node26" class="node">
<title>node1442</title>
<polygon fill="none" stroke="#000000" points="569.5269,-167.5623 534,-180 498.4731,-167.5623 498.5063,-147.4377 569.4937,-147.4377 569.5269,-167.5623"/>
<text text-anchor="middle" x="534" y="-158.9" font-family="Times,serif" font-size="12.00" fill="#000000">oesign</text>
</g>
<!-- node1442&#45;&gt;node13 -->
<g id="edge28" class="edge">
<title>node1442&#45;&gt;node13</title>
<path fill="none" stroke="#000000" d="M542.7017,-147.4297C548.5301,-137.6706 556.3313,-124.608 563.021,-113.4067"/>
<polygon fill="#000000" stroke="#000000" points="566.1887,-114.9287 568.3112,-104.5486 560.1789,-111.3394 566.1887,-114.9287"/>
</g>
</g>
</svg>
