<?xml version="1.0" encoding="UTF-8" standalone="no"?>
<!DOCTYPE svg PUBLIC "-//W3C//DTD SVG 1.1//EN"
 "http://www.w3.org/Graphics/SVG/1.1/DTD/svg11.dtd">
<!-- Generated by graphviz version 2.40.1 (20161225.0304)
 -->
<!-- Title: GG Pages: 1 -->
<svg width="1132pt" height="404pt"
 viewBox="0.00 0.00 1132.25 404.00" xmlns="http://www.w3.org/2000/svg" xmlns:xlink="http://www.w3.org/1999/xlink">
<g id="graph0" class="graph" transform="scale(1 1) rotate(0) translate(4 400)">
<title>GG</title>
<polygon fill="#ffffff" stroke="transparent" points="-4,4 -4,-400 1128.2531,-400 1128.2531,4 -4,4"/>
<!-- node603 -->
<g id="node1" class="node">
<title>node603</title>
<polygon fill="none" stroke="#000000" points="701.598,-396 624.1363,-378 701.598,-360 779.0597,-378 701.598,-396"/>
<text text-anchor="middle" x="701.598" y="-374.9" font-family="Times,serif" font-size="12.00" fill="#000000">libctest&#45;support</text>
</g>
<!-- node1640 -->
<g id="node2" class="node">
<title>node1640</title>
<polygon fill="none" stroke="#000000" points="586.598,-108 545.0221,-90 586.598,-72 628.1739,-90 586.598,-108"/>
<text text-anchor="middle" x="586.598" y="-86.9" font-family="Times,serif" font-size="12.00" fill="#000000">oecore</text>
</g>
<!-- node603&#45;&gt;node1640 -->
<g id="edge1" class="edge">
<title>node603&#45;&gt;node1640</title>
<path fill="none" stroke="#000000" d="M694.9181,-361.2711C675.5631,-312.7994 619.373,-172.08 596.4797,-114.7473"/>
<polygon fill="#000000" stroke="#000000" points="599.6902,-113.3491 592.7314,-105.3601 593.1893,-115.945 599.6902,-113.3491"/>
</g>
<!-- node1628 -->
<g id="node4" class="node">
<title>node1628</title>
<polygon fill="none" stroke="#000000" points="505.598,-324 449.664,-306 505.598,-288 561.532,-306 505.598,-324"/>
<text text-anchor="middle" x="505.598" y="-302.9" font-family="Times,serif" font-size="12.00" fill="#000000">oeenclave</text>
</g>
<!-- node603&#45;&gt;node1628 -->
<g id="edge3" class="edge">
<title>node603&#45;&gt;node1628</title>
<path fill="none" stroke="#000000" d="M671.4025,-366.9078C636.3105,-354.0168 578.4672,-332.7683 541.2122,-319.0828"/>
<polygon fill="#000000" stroke="#000000" points="542.3424,-315.7693 531.7488,-315.6064 539.9286,-322.34 542.3424,-315.7693"/>
</g>
<!-- node1648 -->
<g id="node6" class="node">
<title>node1648</title>
<polygon fill="none" stroke="#000000" points="556.598,-180 517.2458,-162 556.598,-144 595.9502,-162 556.598,-180"/>
<text text-anchor="middle" x="556.598" y="-158.9" font-family="Times,serif" font-size="12.00" fill="#000000">oelibc</text>
</g>
<!-- node603&#45;&gt;node1648 -->
<g id="edge7" class="edge">
<title>node603&#45;&gt;node1648</title>
<path fill="none" stroke="#000000" d="M690.8592,-362.4396C683.4459,-351.6702 673.3802,-336.9936 664.598,-324 631.0038,-274.2961 592.0809,-215.646 571.3647,-184.344"/>
<polygon fill="#000000" stroke="#000000" points="574.221,-182.318 565.7847,-175.9087 568.3828,-186.18 574.221,-182.318"/>
</g>
<!-- node25 -->
<g id="node3" class="node">
<title>node25</title>
<polygon fill="none" stroke="#000000" points="632.098,-36 559.098,-36 559.098,0 632.098,0 632.098,-36"/>
<text text-anchor="middle" x="595.598" y="-14.9" font-family="Times,serif" font-size="12.00" fill="#000000">oe_includes</text>
</g>
<!-- node1640&#45;&gt;node25 -->
<g id="edge2" class="edge">
<title>node1640&#45;&gt;node25</title>
<path fill="none" stroke="#000000" d="M588.7767,-72.5708C589.7713,-64.6139 590.9742,-54.9902 592.0913,-46.054"/>
<polygon fill="#000000" stroke="#000000" points="595.578,-46.3775 593.3454,-36.0206 588.632,-45.5092 595.578,-46.3775"/>
</g>
<!-- node1578 -->
<g id="node5" class="node">
<title>node1578</title>
<polygon fill="none" stroke="#000000" points="528.098,-252 455.098,-252 455.098,-216 528.098,-216 528.098,-252"/>
<text text-anchor="middle" x="491.598" y="-230.9" font-family="Times,serif" font-size="12.00" fill="#000000">mbedcrypto</text>
</g>
<!-- node1628&#45;&gt;node1578 -->
<g id="edge4" class="edge">
<title>node1628&#45;&gt;node1578</title>
<path fill="none" stroke="#000000" d="M502.2802,-288.937C500.7175,-280.9001 498.8125,-271.1029 497.0462,-262.0195"/>
<polygon fill="#000000" stroke="#000000" points="500.4812,-261.3472 495.1367,-252.1992 493.6099,-262.6834 500.4812,-261.3472"/>
</g>
<!-- node1628&#45;&gt;node1648 -->
<g id="edge5" class="edge">
<title>node1628&#45;&gt;node1648</title>
<path fill="none" stroke="#000000" d="M516.2471,-291.0891C523.2664,-280.6096 532.1387,-266.0126 537.598,-252 545.4971,-231.7249 550.3702,-207.5361 553.2007,-189.3437"/>
<polygon fill="#000000" stroke="#000000" points="556.6713,-189.7982 554.6386,-179.4002 549.7433,-188.7963 556.6713,-189.7982"/>
</g>
<!-- node1648&#45;&gt;node1640 -->
<g id="edge6" class="edge">
<title>node1648&#45;&gt;node1640</title>
<path fill="none" stroke="#000000" d="M562.9602,-146.7307C566.7662,-137.5963 571.6976,-125.7609 576.0708,-115.2654"/>
<polygon fill="#000000" stroke="#000000" points="579.4221,-116.322 580.0376,-105.7451 572.9606,-113.6297 579.4221,-116.322"/>
</g>
<!-- node722 -->
<g id="node7" class="node">
<title>node722</title>
<polygon fill="none" stroke="#000000" points="512.598,-396 419.2955,-378 512.598,-360 605.9006,-378 512.598,-396"/>
<text text-anchor="middle" x="512.598" y="-374.9" font-family="Times,serif" font-size="12.00" fill="#000000">libcxxrttest&#45;support</text>
</g>
<!-- node722&#45;&gt;node1628 -->
<g id="edge8" class="edge">
<title>node722&#45;&gt;node1628</title>
<path fill="none" stroke="#000000" d="M510.8677,-360.2022C510.0878,-352.1807 509.1489,-342.5231 508.2809,-333.5957"/>
<polygon fill="#000000" stroke="#000000" points="511.7598,-333.2074 507.3084,-323.593 504.7926,-333.8848 511.7598,-333.2074"/>
</g>
<!-- node1656 -->
<g id="node8" class="node">
<title>node1656</title>
<polygon fill="none" stroke="#000000" points="349.098,-324 292.098,-324 292.098,-288 349.098,-288 349.098,-324"/>
<text text-anchor="middle" x="320.598" y="-302.9" font-family="Times,serif" font-size="12.00" fill="#000000">oelibcxx</text>
</g>
<!-- node722&#45;&gt;node1656 -->
<g id="edge9" class="edge">
<title>node722&#45;&gt;node1656</title>
<path fill="none" stroke="#000000" d="M480.8931,-366.1107C447.4022,-353.5516 394.5899,-333.747 358.8196,-320.3331"/>
<polygon fill="#000000" stroke="#000000" points="359.805,-316.9647 349.2127,-316.7305 357.3471,-323.519 359.805,-316.9647"/>
</g>
<!-- node1529 -->
<g id="node9" class="node">
<title>node1529</title>
<polygon fill="none" stroke="#000000" points="340.598,-252 270.8063,-234 340.598,-216 410.3898,-234 340.598,-252"/>
<text text-anchor="middle" x="340.598" y="-230.9" font-family="Times,serif" font-size="12.00" fill="#000000">oelibcxx_cxx</text>
</g>
<!-- node1656&#45;&gt;node1529 -->
<g id="edge10" class="edge">
<title>node1656&#45;&gt;node1529</title>
<path fill="none" stroke="#000000" stroke-dasharray="1,5" d="M325.6449,-287.8314C327.9318,-279.5985 330.681,-269.7011 333.195,-260.6507"/>
<polygon fill="#000000" stroke="#000000" points="336.5921,-261.4983 335.8963,-250.9263 329.8474,-259.6247 336.5921,-261.4983"/>
</g>
<!-- node1529&#45;&gt;node1648 -->
<g id="edge11" class="edge">
<title>node1529&#45;&gt;node1648</title>
<path fill="none" stroke="#000000" d="M371.0874,-223.8369C411.4819,-210.372 482.4522,-186.7153 523.9183,-172.8932"/>
<polygon fill="#000000" stroke="#000000" points="525.1598,-176.1688 533.5398,-169.6861 522.9462,-169.528 525.1598,-176.1688"/>
</g>
<!-- node659 -->
<g id="node10" class="node">
<title>node659</title>
<polygon fill="none" stroke="#000000" points="313.598,-396 225.7425,-378 313.598,-360 401.4535,-378 313.598,-396"/>
<text text-anchor="middle" x="313.598" y="-374.9" font-family="Times,serif" font-size="12.00" fill="#000000">libcxxtest&#45;support</text>
</g>
<!-- node659&#45;&gt;node1628 -->
<g id="edge12" class="edge">
<title>node659&#45;&gt;node1628</title>
<path fill="none" stroke="#000000" d="M344.8734,-366.2717C379.1599,-353.4143 434.0643,-332.8252 469.9825,-319.3558"/>
<polygon fill="#000000" stroke="#000000" points="471.4425,-322.5464 479.5769,-315.7579 468.9846,-315.9921 471.4425,-322.5464"/>
</g>
<!-- node659&#45;&gt;node1656 -->
<g id="edge13" class="edge">
<title>node659&#45;&gt;node1656</title>
<path fill="none" stroke="#000000" d="M315.3283,-360.2022C316.0882,-352.3864 316.9991,-343.0171 317.8482,-334.2836"/>
<polygon fill="#000000" stroke="#000000" points="321.3548,-334.3849 318.839,-324.0931 314.3876,-333.7075 321.3548,-334.3849"/>
</g>
<!-- node1251 -->
<g id="node11" class="node">
<title>node1251</title>
<polygon fill="none" stroke="#000000" points="103.598,-396 -.0981,-378 103.598,-360 207.2941,-378 103.598,-396"/>
<text text-anchor="middle" x="103.598" y="-374.9" font-family="Times,serif" font-size="12.00" fill="#000000">libunwindtest&#45;support</text>
</g>
<!-- node1251&#45;&gt;node1628 -->
<g id="edge14" class="edge">
<title>node1251&#45;&gt;node1628</title>
<path fill="none" stroke="#000000" d="M154.9199,-368.808C233.7622,-354.687 383.4879,-327.8705 459.2336,-314.3041"/>
<polygon fill="#000000" stroke="#000000" points="460.1893,-317.6887 469.4156,-312.4804 458.9551,-310.7983 460.1893,-317.6887"/>
</g>
<!-- node1251&#45;&gt;node1648 -->
<g id="edge15" class="edge">
<title>node1251&#45;&gt;node1648</title>
<path fill="none" stroke="#000000" d="M114.1942,-361.6963C136.8365,-328.3183 193.464,-252.2957 261.598,-216 304.7606,-193.0069 443.4291,-174.681 514.194,-166.554"/>
<polygon fill="#000000" stroke="#000000" points="514.9903,-169.9863 524.5332,-165.3838 514.203,-163.0307 514.9903,-169.9863"/>
</g>
<!-- node1251&#45;&gt;node1656 -->
<g id="edge16" class="edge">
<title>node1251&#45;&gt;node1656</title>
<path fill="none" stroke="#000000" d="M139.4311,-366.1107C178.8271,-353.0392 241.8784,-332.119 282.2487,-318.7242"/>
<polygon fill="#000000" stroke="#000000" points="283.6065,-321.9614 291.9954,-315.4903 281.402,-315.3176 283.6065,-321.9614"/>
</g>
<!-- node1598 -->
<g id="node12" class="node">
<title>node1598</title>
<polygon fill="none" stroke="#000000" points="708.598,-108 646.598,-108 646.598,-72 708.598,-72 708.598,-108"/>
<text text-anchor="middle" x="677.598" y="-86.9" font-family="Times,serif" font-size="12.00" fill="#000000">oe_ptrace</text>
</g>
<!-- node1598&#45;&gt;node25 -->
<g id="edge18" class="edge">
<title>node1598&#45;&gt;node25</title>
<path fill="none" stroke="#000000" d="M656.9059,-71.8314C646.9032,-63.0485 634.743,-52.3712 623.8981,-42.8489"/>
<polygon fill="#000000" stroke="#000000" points="626.1072,-40.1308 616.2835,-36.1628 621.4886,-45.3909 626.1072,-40.1308"/>
</g>
<!-- node1683 -->
<g id="node13" class="node">
<title>node1683</title>
<ellipse fill="none" stroke="#000000" cx="757.598" cy="-18" rx="107.9559" ry="18"/>
<text text-anchor="middle" x="757.598" y="-14.9" font-family="Times,serif" font-size="12.00" fill="#000000">/usr/lib/x86_64&#45;linux&#45;gnu/libdl.so</text>
</g>
<!-- node1598&#45;&gt;node1683 -->
<g id="edge17" class="edge">
<title>node1598&#45;&gt;node1683</title>
<path fill="none" stroke="#000000" d="M697.7854,-71.8314C707.6186,-62.9814 719.589,-52.2081 730.2302,-42.631"/>
<polygon fill="#000000" stroke="#000000" points="732.6026,-45.2046 737.6942,-35.9134 727.9199,-40.0016 732.6026,-45.2046"/>
</g>
<!-- node16 -->
<g id="node14" class="node">
<title>node16</title>
<polygon fill="none" stroke="#000000" points="767.598,-108 726.7641,-90 767.598,-72 808.4319,-90 767.598,-108"/>
<text text-anchor="middle" x="767.598" y="-86.9" font-family="Times,serif" font-size="12.00" fill="#000000">oehost</text>
</g>
<!-- node16&#45;&gt;node25 -->
<g id="edge21" class="edge">
<title>node16&#45;&gt;node25</title>
<path fill="none" stroke="#000000" d="M746.5074,-81.1714C720.5147,-70.2907 675.6089,-51.493 641.5221,-37.2241"/>
<polygon fill="#000000" stroke="#000000" points="642.7954,-33.9628 632.2195,-33.3299 640.0924,-40.4199 642.7954,-33.9628"/>
</g>
<!-- node16&#45;&gt;node1683 -->
<g id="edge20" class="edge">
<title>node16&#45;&gt;node1683</title>
<path fill="none" stroke="#000000" d="M765.2281,-72.937C764.1239,-64.9865 762.7804,-55.3134 761.5303,-46.3127"/>
<polygon fill="#000000" stroke="#000000" points="764.9682,-45.6226 760.1257,-36.1992 758.0347,-46.5856 764.9682,-45.6226"/>
</g>
<!-- node1682 -->
<g id="node15" class="node">
<title>node1682</title>
<ellipse fill="none" stroke="#000000" cx="1003.598" cy="-18" rx="120.8103" ry="18"/>
<text text-anchor="middle" x="1003.598" y="-14.9" font-family="Times,serif" font-size="12.00" fill="#000000">/usr/lib/x86_64&#45;linux&#45;gnu/libcrypto.so</text>
</g>
<!-- node16&#45;&gt;node1682 -->
<g id="edge19" class="edge">
<title>node16&#45;&gt;node1682</title>
<path fill="none" stroke="#000000" d="M791.9653,-82.5659C826.6714,-71.9776 891.5376,-52.1879 940.3469,-37.2969"/>
<polygon fill="#000000" stroke="#000000" points="941.6477,-40.5594 950.1911,-34.2936 939.605,-33.8641 941.6477,-40.5594"/>
</g>
<!-- node13 -->
<g id="node16" class="node">
<title>node13</title>
<polygon fill="none" stroke="#000000" points="800.098,-180 735.098,-180 735.098,-144 800.098,-144 800.098,-180"/>
<text text-anchor="middle" x="767.598" y="-158.9" font-family="Times,serif" font-size="12.00" fill="#000000">oehostapp</text>
</g>
<!-- node13&#45;&gt;node16 -->
<g id="edge22" class="edge">
<title>node13&#45;&gt;node16</title>
<path fill="none" stroke="#000000" stroke-dasharray="1,5" d="M767.598,-143.8314C767.598,-136.131 767.598,-126.9743 767.598,-118.4166"/>
<polygon fill="#000000" stroke="#000000" points="771.0981,-118.4132 767.598,-108.4133 764.0981,-118.4133 771.0981,-118.4132"/>
</g>
<!-- node1460 -->
<g id="node17" class="node">
<title>node1460</title>
<polygon fill="none" stroke="#000000" points="823.598,-252 711.598,-252 711.598,-216 823.598,-216 823.598,-252"/>
<text text-anchor="middle" x="767.598" y="-230.9" font-family="Times,serif" font-size="12.00" fill="#000000">pingpong&#45;shared&#45;lib</text>
</g>
<!-- node1460&#45;&gt;node13 -->
<g id="edge23" class="edge">
<title>node1460&#45;&gt;node13</title>
<path fill="none" stroke="#000000" d="M767.598,-215.8314C767.598,-208.131 767.598,-198.9743 767.598,-190.4166"/>
<polygon fill="#000000" stroke="#000000" points="771.0981,-190.4132 767.598,-180.4133 764.0981,-190.4133 771.0981,-190.4132"/>
</g>
</g>
</svg>
