<?xml version="1.0" encoding="UTF-8" standalone="no"?>
<!DOCTYPE svg PUBLIC "-//W3C//DTD SVG 1.1//EN"
 "http://www.w3.org/Graphics/SVG/1.1/DTD/svg11.dtd">
<!-- Generated by graphviz version 2.40.1 (20161225.0304)
 -->
<!-- Title: GG Pages: 1 -->
<svg width="2976pt" height="764pt"
 viewBox="0.00 0.00 2975.54 764.00" xmlns="http://www.w3.org/2000/svg" xmlns:xlink="http://www.w3.org/1999/xlink">
<g id="graph0" class="graph" transform="scale(1 1) rotate(0) translate(4 760)">
<title>GG</title>
<polygon fill="#ffffff" stroke="transparent" points="-4,4 -4,-760 2971.5422,-760 2971.5422,4 -4,4"/>
<!-- node208 -->
<g id="node1" class="node">
<title>node208</title>
<polygon fill="none" stroke="#000000" points="1629.1746,-743.5623 1581.8214,-756 1534.4683,-743.5623 1534.5125,-723.4377 1629.1304,-723.4377 1629.1746,-743.5623"/>
<text text-anchor="middle" x="1581.8214" y="-734.9" font-family="Times,serif" font-size="12.00" fill="#000000">enclave</text>
</g>
<!-- node2129 -->
<g id="node2" class="node">
<title>node2129</title>
<polygon fill="none" stroke="#000000" points="1634.8214,-684 1567.7534,-666 1634.8214,-648 1701.8895,-666 1634.8214,-684"/>
<text text-anchor="middle" x="1634.8214" y="-662.9" font-family="Times,serif" font-size="12.00" fill="#000000">oeenclave</text>
</g>
<!-- node208&#45;&gt;node2129 -->
<g id="edge1" class="edge">
<title>node208&#45;&gt;node2129</title>
<path fill="none" stroke="#000000" d="M1592.5468,-723.4297C1599.7778,-713.6064 1609.4727,-700.436 1617.7541,-689.1858"/>
<polygon fill="#000000" stroke="#000000" points="1620.6377,-691.1725 1623.7472,-681.0442 1615.0003,-687.0228 1620.6377,-691.1725"/>
</g>
<!-- node2239 -->
<g id="node9" class="node">
<title>node2239</title>
<polygon fill="none" stroke="#000000" points="1536.8214,-252 1490.5404,-234 1536.8214,-216 1583.1024,-234 1536.8214,-252"/>
<text text-anchor="middle" x="1536.8214" y="-230.9" font-family="Times,serif" font-size="12.00" fill="#000000">oelibc</text>
</g>
<!-- node208&#45;&gt;node2239 -->
<g id="edge15" class="edge">
<title>node208&#45;&gt;node2239</title>
<path fill="none" stroke="#000000" d="M1572.3461,-723.1126C1557.1014,-697.6901 1528.8214,-643.816 1528.8214,-594 1528.8214,-594 1528.8214,-594 1528.8214,-378 1528.8214,-337.5921 1532.0007,-290.9041 1534.3508,-261.9123"/>
<polygon fill="#000000" stroke="#000000" points="1537.8577,-261.9741 1535.2025,-251.7174 1530.882,-261.3913 1537.8577,-261.9741"/>
</g>
<!-- node2152 -->
<g id="node3" class="node">
<title>node2152</title>
<polygon fill="none" stroke="#000000" points="1716.8214,-612 1626.9834,-594 1716.8214,-576 1806.6595,-594 1716.8214,-612"/>
<text text-anchor="middle" x="1716.8214" y="-590.9" font-family="Times,serif" font-size="12.00" fill="#000000">oecryptombed</text>
</g>
<!-- node2129&#45;&gt;node2152 -->
<g id="edge2" class="edge">
<title>node2129&#45;&gt;node2152</title>
<path fill="none" stroke="#000000" d="M1650.6319,-652.1177C1662.4587,-641.7331 1678.8512,-627.3397 1692.3636,-615.4752"/>
<polygon fill="#000000" stroke="#000000" points="1694.7253,-618.0592 1699.9304,-608.8311 1690.1067,-612.7991 1694.7253,-618.0592"/>
</g>
<!-- node2219 -->
<g id="node4" class="node">
<title>node2219</title>
<polygon fill="none" stroke="#000000" points="1796.3214,-540 1707.3214,-540 1707.3214,-504 1796.3214,-504 1796.3214,-540"/>
<text text-anchor="middle" x="1751.8214" y="-518.9" font-family="Times,serif" font-size="12.00" fill="#000000">mbedcrypto</text>
</g>
<!-- node2152&#45;&gt;node2219 -->
<g id="edge3" class="edge">
<title>node2152&#45;&gt;node2219</title>
<path fill="none" stroke="#000000" d="M1724.9391,-577.3008C1728.9981,-568.9508 1734.0132,-558.6341 1738.6081,-549.1816"/>
<polygon fill="#000000" stroke="#000000" points="1741.7879,-550.646 1743.0121,-540.1222 1735.4923,-547.5856 1741.7879,-550.646"/>
</g>
<!-- node2214 -->
<g id="node5" class="node">
<title>node2214</title>
<polygon fill="none" stroke="#000000" points="1890.8214,-468 1834.8874,-450 1890.8214,-432 1946.7554,-450 1890.8214,-468"/>
<text text-anchor="middle" x="1890.8214" y="-446.9" font-family="Times,serif" font-size="12.00" fill="#000000">mbedtls</text>
</g>
<!-- node2219&#45;&gt;node2214 -->
<g id="edge4" class="edge">
<title>node2219&#45;&gt;node2214</title>
<path fill="none" stroke="#000000" stroke-dasharray="1,5" d="M1786.897,-503.8314C1809.4556,-492.1463 1838.4876,-477.1082 1860.13,-465.8977"/>
<polygon fill="#000000" stroke="#000000" points="1861.9379,-468.903 1869.2076,-461.1957 1858.7183,-462.6873 1861.9379,-468.903"/>
</g>
<!-- node2217 -->
<g id="node6" class="node">
<title>node2217</title>
<polygon fill="none" stroke="#000000" points="1925.8214,-396 1857.2704,-378 1925.8214,-360 1994.3725,-378 1925.8214,-396"/>
<text text-anchor="middle" x="1925.8214" y="-374.9" font-family="Times,serif" font-size="12.00" fill="#000000">mbedx509</text>
</g>
<!-- node2214&#45;&gt;node2217 -->
<g id="edge5" class="edge">
<title>node2214&#45;&gt;node2217</title>
<path fill="none" stroke="#000000" d="M1898.4159,-434.3771C1902.8491,-425.2574 1908.5468,-413.5364 1913.5976,-403.1462"/>
<polygon fill="#000000" stroke="#000000" points="1916.7752,-404.6149 1917.9994,-394.091 1910.4797,-401.5545 1916.7752,-404.6149"/>
</g>
<!-- node2225 -->
<g id="node7" class="node">
<title>node2225</title>
<polygon fill="none" stroke="#000000" points="2029.8214,-324 1918.4551,-306 2029.8214,-288 2141.1878,-306 2029.8214,-324"/>
<text text-anchor="middle" x="2029.8214" y="-302.9" font-family="Times,serif" font-size="12.00" fill="#000000">mbedcrypto_static</text>
</g>
<!-- node2217&#45;&gt;node2225 -->
<g id="edge6" class="edge">
<title>node2217&#45;&gt;node2225</title>
<path fill="none" stroke="#000000" d="M1944.8966,-364.7941C1960.418,-354.0485 1982.5879,-338.7001 2000.3841,-326.3797"/>
<polygon fill="#000000" stroke="#000000" points="2002.491,-329.178 2008.7207,-320.6082 1998.5065,-323.4227 2002.491,-329.178"/>
</g>
<!-- node30 -->
<g id="node8" class="node">
<title>node30</title>
<polygon fill="none" stroke="#000000" points="2360.8214,-36 2274.8214,-36 2274.8214,0 2360.8214,0 2360.8214,-36"/>
<text text-anchor="middle" x="2317.8214" y="-14.9" font-family="Times,serif" font-size="12.00" fill="#000000">oe_includes</text>
</g>
<!-- node2225&#45;&gt;node30 -->
<g id="edge7" class="edge">
<title>node2225&#45;&gt;node30</title>
<path fill="none" stroke="#000000" d="M2101.9846,-299.5881C2167.5462,-292.2108 2257.6066,-277.6731 2281.8214,-252 2335.0472,-195.5689 2329.3609,-95.1662 2322.6967,-46.2942"/>
<polygon fill="#000000" stroke="#000000" points="2326.119,-45.5111 2321.193,-36.1311 2319.1944,-46.5358 2326.119,-45.5111"/>
</g>
<!-- node2225&#45;&gt;node2239 -->
<g id="edge8" class="edge">
<title>node2225&#45;&gt;node2239</title>
<path fill="none" stroke="#000000" d="M1973.4136,-297.1092C1953.3586,-294.062 1930.6034,-290.7341 1909.8214,-288 1768.8005,-269.4473 1730.7977,-282.2772 1591.8214,-252 1584.7641,-250.4625 1577.3332,-248.369 1570.2949,-246.1531"/>
<polygon fill="#000000" stroke="#000000" points="1570.9466,-242.6824 1560.3534,-242.8694 1568.7511,-249.3292 1570.9466,-242.6824"/>
</g>
<!-- node2142 -->
<g id="node10" class="node">
<title>node2142</title>
<polygon fill="none" stroke="#000000" points="2124.8214,-108 2074.3351,-90 2124.8214,-72 2175.3077,-90 2124.8214,-108"/>
<text text-anchor="middle" x="2124.8214" y="-86.9" font-family="Times,serif" font-size="12.00" fill="#000000">oecore</text>
</g>
<!-- node2239&#45;&gt;node2142 -->
<g id="edge9" class="edge">
<title>node2239&#45;&gt;node2142</title>
<path fill="none" stroke="#000000" d="M1561.6663,-225.6233C1571.0836,-222.5129 1581.9208,-219.0109 1591.8214,-216 1704.9001,-181.6112 1732.8326,-171.3304 1847.8214,-144 1929.0999,-124.6818 2024.9924,-107.1415 2079.9735,-97.5809"/>
<polygon fill="#000000" stroke="#000000" points="2080.8219,-100.9863 2090.0793,-95.8335 2079.6291,-94.0886 2080.8219,-100.9863"/>
</g>
<!-- node2238 -->
<g id="node11" class="node">
<title>node2238</title>
<polygon fill="none" stroke="#000000" points="1580.3214,-180 1509.3214,-180 1509.3214,-144 1580.3214,-144 1580.3214,-180"/>
<text text-anchor="middle" x="1544.8214" y="-158.9" font-family="Times,serif" font-size="12.00" fill="#000000">oelibasm</text>
</g>
<!-- node2239&#45;&gt;node2238 -->
<g id="edge11" class="edge">
<title>node2239&#45;&gt;node2238</title>
<path fill="none" stroke="#000000" stroke-dasharray="5,2" d="M1538.758,-216.5708C1539.6421,-208.6139 1540.7114,-198.9902 1541.7043,-190.054"/>
<polygon fill="#000000" stroke="#000000" points="1545.1933,-190.346 1542.8191,-180.0206 1538.2362,-189.5729 1545.1933,-190.346"/>
</g>
<!-- node2206 -->
<g id="node12" class="node">
<title>node2206</title>
<polygon fill="none" stroke="#000000" points="1490.8214,-180 1382.8214,-180 1382.8214,-144 1490.8214,-144 1490.8214,-180"/>
<text text-anchor="middle" x="1436.8214" y="-158.9" font-family="Times,serif" font-size="12.00" fill="#000000">oelibc_includes</text>
</g>
<!-- node2239&#45;&gt;node2206 -->
<g id="edge12" class="edge">
<title>node2239&#45;&gt;node2206</title>
<path fill="none" stroke="#000000" d="M1520.3085,-222.1107C1506.7979,-212.3831 1487.2501,-198.3087 1470.4657,-186.2239"/>
<polygon fill="#000000" stroke="#000000" points="1472.1475,-183.122 1461.9871,-180.1193 1468.0573,-188.8027 1472.1475,-183.122"/>
</g>
<!-- node2259 -->
<g id="node13" class="node">
<title>node2259</title>
<polygon fill="none" stroke="#000000" points="1918.8214,-180 1857.1997,-162 1918.8214,-144 1980.4432,-162 1918.8214,-180"/>
<text text-anchor="middle" x="1918.8214" y="-158.9" font-family="Times,serif" font-size="12.00" fill="#000000">oesyscall</text>
</g>
<!-- node2239&#45;&gt;node2259 -->
<g id="edge13" class="edge">
<title>node2239&#45;&gt;node2259</title>
<path fill="none" stroke="#000000" d="M1560.9585,-225.2173C1570.4806,-221.986 1581.5744,-218.5073 1591.8214,-216 1686.5204,-192.8282 1799.1091,-176.6743 1864.4231,-168.3991"/>
<polygon fill="#000000" stroke="#000000" points="1865.0021,-171.854 1874.4898,-167.1388 1864.1324,-164.9083 1865.0021,-171.854"/>
</g>
<!-- node2142&#45;&gt;node30 -->
<g id="edge10" class="edge">
<title>node2142&#45;&gt;node30</title>
<path fill="none" stroke="#000000" d="M2149.6577,-80.7347C2178.6295,-69.9265 2227.3445,-51.753 2264.9063,-37.7404"/>
<polygon fill="#000000" stroke="#000000" points="2266.5409,-40.8663 2274.6868,-34.0917 2264.0942,-34.3078 2266.5409,-40.8663"/>
</g>
<!-- node2259&#45;&gt;node2142 -->
<g id="edge14" class="edge">
<title>node2259&#45;&gt;node2142</title>
<path fill="none" stroke="#000000" d="M1947.0329,-152.1397C1984.1108,-139.1804 2049.2418,-116.4162 2089.539,-102.3317"/>
<polygon fill="#000000" stroke="#000000" points="2090.9316,-105.5527 2099.2168,-98.9492 2088.622,-98.9447 2090.9316,-105.5527"/>
</g>
<!-- node103 -->
<g id="node14" class="node">
<title>node103</title>
<polygon fill="none" stroke="#000000" points="2712.1746,-167.5623 2664.8214,-180 2617.4683,-167.5623 2617.5125,-147.4377 2712.1304,-147.4377 2712.1746,-167.5623"/>
<text text-anchor="middle" x="2664.8214" y="-158.9" font-family="Times,serif" font-size="12.00" fill="#000000">logging</text>
</g>
<!-- node20 -->
<g id="node15" class="node">
<title>node20</title>
<polygon fill="none" stroke="#000000" points="2664.8214,-108 2616.3162,-90 2664.8214,-72 2713.3267,-90 2664.8214,-108"/>
<text text-anchor="middle" x="2664.8214" y="-86.9" font-family="Times,serif" font-size="12.00" fill="#000000">oehost</text>
</g>
<!-- node103&#45;&gt;node20 -->
<g id="edge16" class="edge">
<title>node103&#45;&gt;node20</title>
<path fill="none" stroke="#000000" d="M2664.8214,-147.4297C2664.8214,-139.1011 2664.8214,-128.3665 2664.8214,-118.436"/>
<polygon fill="#000000" stroke="#000000" points="2668.3215,-118.1279 2664.8214,-108.128 2661.3215,-118.128 2668.3215,-118.1279"/>
</g>
<!-- node20&#45;&gt;node30 -->
<g id="edge17" class="edge">
<title>node20&#45;&gt;node30</title>
<path fill="none" stroke="#000000" d="M2639.3295,-81.2772C2629.283,-78.0536 2617.5906,-74.5647 2606.8214,-72 2512.9978,-49.6562 2487.3252,-55.2655 2392.8214,-36 2385.6952,-34.5473 2378.217,-32.9007 2370.8568,-31.208"/>
<polygon fill="#000000" stroke="#000000" points="2371.4722,-27.7575 2360.9375,-28.8851 2369.876,-34.5731 2371.4722,-27.7575"/>
</g>
<!-- node2364 -->
<g id="node16" class="node">
<title>node2364</title>
<polygon fill="none" stroke="#000000" points="2821.8214,-36 2743.8214,-36 2743.8214,0 2821.8214,0 2821.8214,-36"/>
<text text-anchor="middle" x="2782.8214" y="-14.9" font-family="Times,serif" font-size="12.00" fill="#000000">oedebugrt</text>
</g>
<!-- node20&#45;&gt;node2364 -->
<g id="edge18" class="edge">
<title>node20&#45;&gt;node2364</title>
<path fill="none" stroke="#000000" stroke-dasharray="5,2" d="M2683.2589,-78.75C2699.5205,-68.8277 2723.75,-54.0436 2744.2349,-41.5443"/>
<polygon fill="#000000" stroke="#000000" points="2746.3317,-44.3651 2753.0451,-36.1686 2742.6856,-38.3896 2746.3317,-44.3651"/>
</g>
<!-- node2394 -->
<g id="node17" class="node">
<title>node2394</title>
<ellipse fill="none" stroke="#000000" cx="2640.8214" cy="-18" rx="84.902" ry="18"/>
<text text-anchor="middle" x="2640.8214" y="-14.9" font-family="Times,serif" font-size="12.00" fill="#000000">openenclave::crypto</text>
</g>
<!-- node20&#45;&gt;node2394 -->
<g id="edge19" class="edge">
<title>node20&#45;&gt;node2394</title>
<path fill="none" stroke="#000000" stroke-dasharray="5,2" d="M2659.3755,-73.6621C2656.6332,-65.4353 2653.2323,-55.2325 2650.0941,-45.8179"/>
<polygon fill="#000000" stroke="#000000" points="2653.3183,-44.4224 2646.8356,-36.0423 2646.6775,-46.636 2653.3183,-44.4224"/>
</g>
<!-- node2395 -->
<g id="node18" class="node">
<title>node2395</title>
<ellipse fill="none" stroke="#000000" cx="2469.8214" cy="-18" rx="67.9298" ry="18"/>
<text text-anchor="middle" x="2469.8214" y="-14.9" font-family="Times,serif" font-size="12.00" fill="#000000">openenclave::dl</text>
</g>
<!-- node20&#45;&gt;node2395 -->
<g id="edge20" class="edge">
<title>node20&#45;&gt;node2395</title>
<path fill="none" stroke="#000000" stroke-dasharray="5,2" d="M2640.1246,-80.8812C2609.7973,-69.6834 2557.6366,-50.4241 2519.0115,-36.1625"/>
<polygon fill="#000000" stroke="#000000" points="2520.0981,-32.8328 2509.5048,-32.6523 2517.6734,-39.3995 2520.0981,-32.8328"/>
</g>
<!-- node2221 -->
<g id="node19" class="node">
<title>node2221</title>
<polygon fill="none" stroke="#000000" points="1419.3214,-540 1290.3214,-540 1290.3214,-504 1419.3214,-504 1419.3214,-540"/>
<text text-anchor="middle" x="1354.8214" y="-518.9" font-family="Times,serif" font-size="12.00" fill="#000000">mbedcrypto&#45;lvi&#45;cfg</text>
</g>
<!-- node2215 -->
<g id="node20" class="node">
<title>node2215</title>
<polygon fill="none" stroke="#000000" points="1354.8214,-468 1264.2425,-450 1354.8214,-432 1445.4003,-450 1354.8214,-468"/>
<text text-anchor="middle" x="1354.8214" y="-446.9" font-family="Times,serif" font-size="12.00" fill="#000000">mbedtls&#45;lvi&#45;cfg</text>
</g>
<!-- node2221&#45;&gt;node2215 -->
<g id="edge21" class="edge">
<title>node2221&#45;&gt;node2215</title>
<path fill="none" stroke="#000000" stroke-dasharray="1,5" d="M1354.8214,-503.8314C1354.8214,-496.131 1354.8214,-486.9743 1354.8214,-478.4166"/>
<polygon fill="#000000" stroke="#000000" points="1358.3215,-478.4132 1354.8214,-468.4133 1351.3215,-478.4133 1358.3215,-478.4132"/>
</g>
<!-- node2227 -->
<g id="node21" class="node">
<title>node2227</title>
<polygon fill="none" stroke="#000000" points="1354.8214,-396 1251.1253,-378 1354.8214,-360 1458.5175,-378 1354.8214,-396"/>
<text text-anchor="middle" x="1354.8214" y="-374.9" font-family="Times,serif" font-size="12.00" fill="#000000">mbedx509&#45;lvi&#45;cfg</text>
</g>
<!-- node2215&#45;&gt;node2227 -->
<g id="edge22" class="edge">
<title>node2215&#45;&gt;node2227</title>
<path fill="none" stroke="#000000" d="M1354.8214,-431.8314C1354.8214,-424.131 1354.8214,-414.9743 1354.8214,-406.4166"/>
<polygon fill="#000000" stroke="#000000" points="1358.3215,-406.4132 1354.8214,-396.4133 1351.3215,-406.4133 1358.3215,-406.4132"/>
</g>
<!-- node2216 -->
<g id="node22" class="node">
<title>node2216</title>
<polygon fill="none" stroke="#000000" points="1354.8214,-324 1208.809,-306 1354.8214,-288 1500.8339,-306 1354.8214,-324"/>
<text text-anchor="middle" x="1354.8214" y="-302.9" font-family="Times,serif" font-size="12.00" fill="#000000">mbedcrypto_static&#45;lvi&#45;cfg</text>
</g>
<!-- node2227&#45;&gt;node2216 -->
<g id="edge23" class="edge">
<title>node2227&#45;&gt;node2216</title>
<path fill="none" stroke="#000000" d="M1354.8214,-359.8314C1354.8214,-352.131 1354.8214,-342.9743 1354.8214,-334.4166"/>
<polygon fill="#000000" stroke="#000000" points="1358.3215,-334.4132 1354.8214,-324.4133 1351.3215,-334.4133 1358.3215,-334.4132"/>
</g>
<!-- node2216&#45;&gt;node30 -->
<g id="edge24" class="edge">
<title>node2216&#45;&gt;node30</title>
<path fill="none" stroke="#000000" d="M1350.7419,-288.4728C1344.1536,-255.2486 1335.4849,-182.9525 1373.8214,-144 1436.9202,-79.8873 2074.9126,-33.7241 2264.7873,-21.3237"/>
<polygon fill="#000000" stroke="#000000" points="2265.0538,-24.8139 2274.8062,-20.6736 2264.6005,-17.8286 2265.0538,-24.8139"/>
</g>
<!-- node2237 -->
<g id="node23" class="node">
<title>node2237</title>
<polygon fill="none" stroke="#000000" points="1068.8214,-252 987.8951,-234 1068.8214,-216 1149.7478,-234 1068.8214,-252"/>
<text text-anchor="middle" x="1068.8214" y="-230.9" font-family="Times,serif" font-size="12.00" fill="#000000">oelibc&#45;lvi&#45;cfg</text>
</g>
<!-- node2216&#45;&gt;node2237 -->
<g id="edge25" class="edge">
<title>node2216&#45;&gt;node2237</title>
<path fill="none" stroke="#000000" d="M1306.6288,-293.8676C1253.8355,-280.577 1169.665,-259.3872 1116.9121,-246.1067"/>
<polygon fill="#000000" stroke="#000000" points="1117.6727,-242.6891 1107.1208,-243.6418 1115.9637,-249.4773 1117.6727,-242.6891"/>
</g>
<!-- node2237&#45;&gt;node2206 -->
<g id="edge29" class="edge">
<title>node2237&#45;&gt;node2206</title>
<path fill="none" stroke="#000000" d="M1112.1179,-225.529C1176.4457,-212.9431 1297.686,-189.2221 1372.4388,-174.5966"/>
<polygon fill="#000000" stroke="#000000" points="1373.5255,-177.9504 1382.6674,-172.5954 1372.1814,-171.0807 1373.5255,-177.9504"/>
</g>
<!-- node2147 -->
<g id="node24" class="node">
<title>node2147</title>
<polygon fill="none" stroke="#000000" points="978.8214,-108 893.689,-90 978.8214,-72 1063.9538,-90 978.8214,-108"/>
<text text-anchor="middle" x="978.8214" y="-86.9" font-family="Times,serif" font-size="12.00" fill="#000000">oecore&#45;lvi&#45;cfg</text>
</g>
<!-- node2237&#45;&gt;node2147 -->
<g id="edge26" class="edge">
<title>node2237&#45;&gt;node2147</title>
<path fill="none" stroke="#000000" d="M1051.6795,-219.2682C1040.6332,-209.0931 1026.5664,-194.7764 1016.8214,-180 1003.8216,-160.2883 993.7227,-135.399 987.2142,-116.7932"/>
<polygon fill="#000000" stroke="#000000" points="990.4833,-115.5338 983.9721,-107.1758 983.85,-117.7699 990.4833,-115.5338"/>
</g>
<!-- node2241 -->
<g id="node25" class="node">
<title>node2241</title>
<polygon fill="none" stroke="#000000" points="1137.3214,-180 1026.3214,-180 1026.3214,-144 1137.3214,-144 1137.3214,-180"/>
<text text-anchor="middle" x="1081.8214" y="-158.9" font-family="Times,serif" font-size="12.00" fill="#000000">oelibasm&#45;lvi&#45;cfg</text>
</g>
<!-- node2237&#45;&gt;node2241 -->
<g id="edge28" class="edge">
<title>node2237&#45;&gt;node2241</title>
<path fill="none" stroke="#000000" stroke-dasharray="5,2" d="M1071.9684,-216.5708C1073.405,-208.6139 1075.1426,-198.9902 1076.7561,-190.054"/>
<polygon fill="#000000" stroke="#000000" points="1080.2351,-190.4834 1078.5677,-180.0206 1073.3465,-189.2396 1080.2351,-190.4834"/>
</g>
<!-- node2263 -->
<g id="node26" class="node">
<title>node2263</title>
<polygon fill="none" stroke="#000000" points="685.8214,-180 588.3134,-162 685.8214,-144 783.3295,-162 685.8214,-180"/>
<text text-anchor="middle" x="685.8214" y="-158.9" font-family="Times,serif" font-size="12.00" fill="#000000">oesyscall&#45;lvi&#45;cfg</text>
</g>
<!-- node2237&#45;&gt;node2263 -->
<g id="edge30" class="edge">
<title>node2237&#45;&gt;node2263</title>
<path fill="none" stroke="#000000" d="M1024.8865,-225.7407C955.78,-212.7494 821.62,-187.5287 744.3908,-173.0104"/>
<polygon fill="#000000" stroke="#000000" points="744.8183,-169.5296 734.3438,-171.1217 743.525,-176.4091 744.8183,-169.5296"/>
</g>
<!-- node2147&#45;&gt;node30 -->
<g id="edge27" class="edge">
<title>node2147&#45;&gt;node30</title>
<path fill="none" stroke="#000000" d="M1047.0635,-86.3305C1281.9852,-73.6984 2054.3319,-32.1682 2264.5737,-20.8632"/>
<polygon fill="#000000" stroke="#000000" points="2264.938,-24.3488 2274.7356,-20.3168 2264.5621,-17.3589 2264.938,-24.3488"/>
</g>
<!-- node2263&#45;&gt;node2147 -->
<g id="edge31" class="edge">
<title>node2263&#45;&gt;node2147</title>
<path fill="none" stroke="#000000" d="M727.8012,-151.6842C781.092,-138.5888 872.8838,-116.0324 929.4699,-102.1273"/>
<polygon fill="#000000" stroke="#000000" points="930.3899,-105.5055 939.2657,-99.7202 928.7194,-98.7077 930.3899,-105.5055"/>
</g>
<!-- node2332 -->
<g id="node27" class="node">
<title>node2332</title>
<polygon fill="none" stroke="#000000" points="2421.8214,-108 2345.8214,-108 2345.8214,-72 2421.8214,-72 2421.8214,-108"/>
<text text-anchor="middle" x="2383.8214" y="-86.9" font-family="Times,serif" font-size="12.00" fill="#000000">oe_ptrace</text>
</g>
<!-- node2332&#45;&gt;node30 -->
<g id="edge32" class="edge">
<title>node2332&#45;&gt;node30</title>
<path fill="none" stroke="#000000" d="M2367.1669,-71.8314C2359.41,-63.3694 2350.0413,-53.1489 2341.5604,-43.8971"/>
<polygon fill="#000000" stroke="#000000" points="2344.0376,-41.4198 2334.7003,-36.4133 2338.8775,-46.1499 2344.0376,-41.4198"/>
</g>
<!-- node2332&#45;&gt;node2395 -->
<g id="edge33" class="edge">
<title>node2332&#45;&gt;node2395</title>
<path fill="none" stroke="#000000" d="M2405.5229,-71.8314C2416.4388,-62.6924 2429.8047,-51.5024 2441.5171,-41.6967"/>
<polygon fill="#000000" stroke="#000000" points="2443.8903,-44.2745 2449.3111,-35.1715 2439.3967,-38.9072 2443.8903,-44.2745"/>
</g>
<!-- node140 -->
<g id="node28" class="node">
<title>node140</title>
<polygon fill="none" stroke="#000000" points="2813.5218,-167.5623 2771.8214,-180 2730.1211,-167.5623 2730.16,-147.4377 2813.4829,-147.4377 2813.5218,-167.5623"/>
<text text-anchor="middle" x="2771.8214" y="-158.9" font-family="Times,serif" font-size="12.00" fill="#000000">oecert</text>
</g>
<!-- node140&#45;&gt;node20 -->
<g id="edge34" class="edge">
<title>node140&#45;&gt;node20</title>
<path fill="none" stroke="#000000" d="M2750.1684,-147.4297C2732.9555,-135.8472 2708.8273,-119.6114 2690.6153,-107.3566"/>
<polygon fill="#000000" stroke="#000000" points="2692.4568,-104.3772 2682.2062,-101.6982 2688.5488,-110.1848 2692.4568,-104.3772"/>
</g>
<!-- node171 -->
<g id="node29" class="node">
<title>node171</title>
<polygon fill="none" stroke="#000000" points="2967.7637,-167.5623 2899.8214,-180 2831.8792,-167.5623 2831.9426,-147.4377 2967.7003,-147.4377 2967.7637,-167.5623"/>
<text text-anchor="middle" x="2899.8214" y="-158.9" font-family="Times,serif" font-size="12.00" fill="#000000">oecertdump</text>
</g>
<!-- node171&#45;&gt;node20 -->
<g id="edge35" class="edge">
<title>node171&#45;&gt;node20</title>
<path fill="none" stroke="#000000" d="M2852.2657,-147.4297C2807.6321,-133.7548 2741.8279,-113.5935 2701.232,-101.1556"/>
<polygon fill="#000000" stroke="#000000" points="2702.069,-97.7515 2691.4824,-98.1685 2700.0183,-104.4444 2702.069,-97.7515"/>
</g>
<!-- node1382 -->
<g id="node30" class="node">
<title>node1382</title>
<polygon fill="none" stroke="#000000" points="1851.8214,-324 1803.3162,-306 1851.8214,-288 1900.3267,-306 1851.8214,-324"/>
<text text-anchor="middle" x="1851.8214" y="-302.9" font-family="Times,serif" font-size="12.00" fill="#000000">oecpio</text>
</g>
<!-- node1382&#45;&gt;node2239 -->
<g id="edge37" class="edge">
<title>node1382&#45;&gt;node2239</title>
<path fill="none" stroke="#000000" stroke-dasharray="5,2" d="M1826.3164,-297.3317C1816.2681,-294.1152 1804.5781,-290.6169 1793.8214,-288 1705.2135,-266.4435 1680.2612,-274.2366 1591.8214,-252 1584.9476,-250.2717 1577.6855,-248.129 1570.7711,-245.9316"/>
<polygon fill="#000000" stroke="#000000" points="1571.5682,-242.5095 1560.9753,-242.7148 1569.3842,-249.1601 1571.5682,-242.5095"/>
</g>
<!-- node1382&#45;&gt;node2142 -->
<g id="edge36" class="edge">
<title>node1382&#45;&gt;node2142</title>
<path fill="none" stroke="#000000" stroke-dasharray="5,2" d="M1876.6613,-297.1003C1886.8228,-293.7736 1898.7686,-290.2585 1909.8214,-288 1986.6432,-272.3024 2208.2823,-310.2034 2260.8214,-252 2308.0585,-199.6703 2207.9707,-134.7244 2154.9515,-105.5114"/>
<polygon fill="#000000" stroke="#000000" points="2156.4138,-102.3232 2145.9525,-100.6463 2153.0847,-108.481 2156.4138,-102.3232"/>
</g>
<!-- node1381 -->
<g id="node31" class="node">
<title>node1381</title>
<polygon fill="none" stroke="#000000" points="740.8214,-324 656.4305,-306 740.8214,-288 825.2123,-306 740.8214,-324"/>
<text text-anchor="middle" x="740.8214" y="-302.9" font-family="Times,serif" font-size="12.00" fill="#000000">oecpio&#45;lvi&#45;cfg</text>
</g>
<!-- node1381&#45;&gt;node2237 -->
<g id="edge39" class="edge">
<title>node1381&#45;&gt;node2237</title>
<path fill="none" stroke="#000000" stroke-dasharray="5,2" d="M782.696,-296.808C842.778,-283.6193 953.3104,-259.3561 1017.9955,-245.1569"/>
<polygon fill="#000000" stroke="#000000" points="1018.9517,-248.5304 1027.9687,-242.9677 1017.4508,-241.6932 1018.9517,-248.5304"/>
</g>
<!-- node1381&#45;&gt;node2147 -->
<g id="edge38" class="edge">
<title>node1381&#45;&gt;node2147</title>
<path fill="none" stroke="#000000" stroke-dasharray="5,2" d="M783.5134,-296.9116C838.8997,-284.7535 929.7882,-263.407 940.8214,-252 975.7679,-215.8697 980.764,-154.0141 980.3792,-118.0948"/>
<polygon fill="#000000" stroke="#000000" points="983.8714,-117.7435 980.1142,-107.8373 976.8737,-117.9244 983.8714,-117.7435"/>
</g>
<!-- node2156 -->
<g id="node32" class="node">
<title>node2156</title>
<polygon fill="none" stroke="#000000" points="1354.8214,-612 1230.338,-594 1354.8214,-576 1479.3049,-594 1354.8214,-612"/>
<text text-anchor="middle" x="1354.8214" y="-590.9" font-family="Times,serif" font-size="12.00" fill="#000000">oecryptombed&#45;lvi&#45;cfg</text>
</g>
<!-- node2156&#45;&gt;node2221 -->
<g id="edge40" class="edge">
<title>node2156&#45;&gt;node2221</title>
<path fill="none" stroke="#000000" d="M1354.8214,-575.8314C1354.8214,-568.131 1354.8214,-558.9743 1354.8214,-550.4166"/>
<polygon fill="#000000" stroke="#000000" points="1358.3215,-550.4132 1354.8214,-540.4133 1351.3215,-550.4133 1358.3215,-550.4132"/>
</g>
<!-- node2128 -->
<g id="node33" class="node">
<title>node2128</title>
<polygon fill="none" stroke="#000000" points="1354.8214,-684 1253.1075,-666 1354.8214,-648 1456.5354,-666 1354.8214,-684"/>
<text text-anchor="middle" x="1354.8214" y="-662.9" font-family="Times,serif" font-size="12.00" fill="#000000">oeenclave&#45;lvi&#45;cfg</text>
</g>
<!-- node2128&#45;&gt;node2156 -->
<g id="edge41" class="edge">
<title>node2128&#45;&gt;node2156</title>
<path fill="none" stroke="#000000" d="M1354.8214,-647.8314C1354.8214,-640.131 1354.8214,-630.9743 1354.8214,-622.4166"/>
<polygon fill="#000000" stroke="#000000" points="1358.3215,-622.4132 1354.8214,-612.4133 1351.3215,-622.4133 1358.3215,-622.4132"/>
</g>
<!-- node18 -->
<g id="node34" class="node">
<title>node18</title>
<polygon fill="none" stroke="#000000" points="2496.3214,-180 2417.3214,-180 2417.3214,-144 2496.3214,-144 2496.3214,-180"/>
<text text-anchor="middle" x="2456.8214" y="-158.9" font-family="Times,serif" font-size="12.00" fill="#000000">oehostapp</text>
</g>
<!-- node18&#45;&gt;node20 -->
<g id="edge42" class="edge">
<title>node18&#45;&gt;node20</title>
<path fill="none" stroke="#000000" stroke-dasharray="1,5" d="M2496.3359,-147.0633C2499.2036,-146.0158 2502.0547,-144.9854 2504.8214,-144 2547.4955,-128.8021 2596.9442,-112.2779 2629.4431,-101.5652"/>
<polygon fill="#000000" stroke="#000000" points="2630.5531,-104.8846 2638.9586,-98.435 2628.3656,-98.2352 2630.5531,-104.8846"/>
</g>
<!-- node2313 -->
<g id="node35" class="node">
<title>node2313</title>
<polygon fill="none" stroke="#000000" points="2176.8214,-252 2102.0829,-234 2176.8214,-216 2251.56,-234 2176.8214,-252"/>
<text text-anchor="middle" x="2176.8214" y="-230.9" font-family="Times,serif" font-size="12.00" fill="#000000">oehostepoll</text>
</g>
<!-- node2313&#45;&gt;node2259 -->
<g id="edge43" class="edge">
<title>node2313&#45;&gt;node2259</title>
<path fill="none" stroke="#000000" d="M2142.0264,-224.2898C2094.9297,-211.1465 2010.9976,-187.7236 1960.563,-173.6488"/>
<polygon fill="#000000" stroke="#000000" points="1961.2119,-170.1962 1950.6392,-170.8794 1959.3303,-176.9386 1961.2119,-170.1962"/>
</g>
<!-- node2311 -->
<g id="node36" class="node">
<title>node2311</title>
<polygon fill="none" stroke="#000000" points="345.8214,-252 235.9371,-234 345.8214,-216 455.7058,-234 345.8214,-252"/>
<text text-anchor="middle" x="345.8214" y="-230.9" font-family="Times,serif" font-size="12.00" fill="#000000">oehostepoll&#45;lvi&#45;cfg</text>
</g>
<!-- node2311&#45;&gt;node2263 -->
<g id="edge44" class="edge">
<title>node2311&#45;&gt;node2263</title>
<path fill="none" stroke="#000000" d="M393.814,-223.8369C456.0179,-210.6643 564.284,-187.7373 630.0666,-173.8069"/>
<polygon fill="#000000" stroke="#000000" points="631.1881,-177.1471 640.246,-171.6513 629.7378,-170.299 631.1881,-177.1471"/>
</g>
<!-- node2280 -->
<g id="node37" class="node">
<title>node2280</title>
<polygon fill="none" stroke="#000000" points="1658.8214,-252 1600.6644,-234 1658.8214,-216 1716.9785,-234 1658.8214,-252"/>
<text text-anchor="middle" x="1658.8214" y="-230.9" font-family="Times,serif" font-size="12.00" fill="#000000">oehostfs</text>
</g>
<!-- node2280&#45;&gt;node2259 -->
<g id="edge45" class="edge">
<title>node2280&#45;&gt;node2259</title>
<path fill="none" stroke="#000000" d="M1689.6679,-225.4579C1736.2983,-212.5449 1824.8334,-188.0275 1877.1523,-173.5392"/>
<polygon fill="#000000" stroke="#000000" points="1878.0926,-176.9106 1886.7958,-170.8686 1876.2244,-170.1644 1878.0926,-176.9106"/>
</g>
<!-- node2279 -->
<g id="node38" class="node">
<title>node2279</title>
<polygon fill="none" stroke="#000000" points="566.8214,-252 473.5189,-234 566.8214,-216 660.124,-234 566.8214,-252"/>
<text text-anchor="middle" x="566.8214" y="-230.9" font-family="Times,serif" font-size="12.00" fill="#000000">oehostfs&#45;lvi&#45;cfg</text>
</g>
<!-- node2279&#45;&gt;node2263 -->
<g id="edge46" class="edge">
<title>node2279&#45;&gt;node2263</title>
<path fill="none" stroke="#000000" d="M589.4845,-220.2879C607.8121,-209.1989 633.8274,-193.4586 654.2046,-181.1295"/>
<polygon fill="#000000" stroke="#000000" points="656.0934,-184.0776 662.8374,-175.9063 652.4697,-178.0885 656.0934,-184.0776"/>
</g>
<!-- node2293 -->
<g id="node39" class="node">
<title>node2293</title>
<polygon fill="none" stroke="#000000" points="1827.8214,-252 1735.7598,-234 1827.8214,-216 1919.8831,-234 1827.8214,-252"/>
<text text-anchor="middle" x="1827.8214" y="-230.9" font-family="Times,serif" font-size="12.00" fill="#000000">oehostresolver</text>
</g>
<!-- node2293&#45;&gt;node2259 -->
<g id="edge47" class="edge">
<title>node2293&#45;&gt;node2259</title>
<path fill="none" stroke="#000000" d="M1846.2366,-219.4297C1859.996,-208.5432 1878.951,-193.5458 1894.0404,-181.607"/>
<polygon fill="#000000" stroke="#000000" points="1896.2976,-184.2841 1901.9682,-175.3345 1891.9542,-178.7945 1896.2976,-184.2841"/>
</g>
<!-- node2290 -->
<g id="node40" class="node">
<title>node2290</title>
<polygon fill="none" stroke="#000000" points="804.8214,-252 677.6145,-234 804.8214,-216 932.0284,-234 804.8214,-252"/>
<text text-anchor="middle" x="804.8214" y="-230.9" font-family="Times,serif" font-size="12.00" fill="#000000">oehostresolver&#45;lvi&#45;cfg</text>
</g>
<!-- node2290&#45;&gt;node2263 -->
<g id="edge48" class="edge">
<title>node2290&#45;&gt;node2263</title>
<path fill="none" stroke="#000000" d="M780.4529,-219.256C762.291,-208.2673 737.3253,-193.162 717.597,-181.2256"/>
<polygon fill="#000000" stroke="#000000" points="719.3122,-178.1725 708.9445,-175.9904 715.6885,-184.1616 719.3122,-178.1725"/>
</g>
<!-- node2302 -->
<g id="node41" class="node">
<title>node2302</title>
<polygon fill="none" stroke="#000000" points="2010.8214,-252 1937.5652,-234 2010.8214,-216 2084.0777,-234 2010.8214,-252"/>
<text text-anchor="middle" x="2010.8214" y="-230.9" font-family="Times,serif" font-size="12.00" fill="#000000">oehostsock</text>
</g>
<!-- node2302&#45;&gt;node2259 -->
<g id="edge49" class="edge">
<title>node2302&#45;&gt;node2259</title>
<path fill="none" stroke="#000000" d="M1993.0829,-220.1177C1979.0729,-209.1534 1959.3526,-193.7201 1943.7544,-181.5128"/>
<polygon fill="#000000" stroke="#000000" points="1945.6075,-178.5186 1935.5753,-175.1117 1941.2933,-184.0311 1945.6075,-178.5186"/>
</g>
<!-- node2301 -->
<g id="node42" class="node">
<title>node2301</title>
<polygon fill="none" stroke="#000000" points="108.8214,-252 .1783,-234 108.8214,-216 217.4646,-234 108.8214,-252"/>
<text text-anchor="middle" x="108.8214" y="-230.9" font-family="Times,serif" font-size="12.00" fill="#000000">oehostsock&#45;lvi&#45;cfg</text>
</g>
<!-- node2301&#45;&gt;node2263 -->
<g id="edge50" class="edge">
<title>node2301&#45;&gt;node2263</title>
<path fill="none" stroke="#000000" d="M164.291,-225.1379C184.012,-222.0933 206.3875,-218.7597 226.8214,-216 363.2975,-197.5683 523.0949,-179.5785 613.5955,-169.7232"/>
<polygon fill="#000000" stroke="#000000" points="614.1816,-173.1802 623.745,-168.6204 613.4254,-166.2211 614.1816,-173.1802"/>
</g>
<!-- node24 -->
<g id="node43" class="node">
<title>node24</title>
<polygon fill="none" stroke="#000000" points="2518.8214,-108 2439.3768,-90 2518.8214,-72 2598.2661,-90 2518.8214,-108"/>
<text text-anchor="middle" x="2518.8214" y="-86.9" font-family="Times,serif" font-size="12.00" fill="#000000">oehostverify</text>
</g>
<!-- node24&#45;&gt;node30 -->
<g id="edge51" class="edge">
<title>node24&#45;&gt;node30</title>
<path fill="none" stroke="#000000" d="M2487.8557,-78.9078C2456.7206,-67.7549 2408.1215,-50.3463 2370.8406,-36.9919"/>
<polygon fill="#000000" stroke="#000000" points="2371.7323,-33.5936 2361.1378,-33.5163 2369.3717,-40.1836 2371.7323,-33.5936"/>
</g>
<!-- node24&#45;&gt;node2394 -->
<g id="edge52" class="edge">
<title>node24&#45;&gt;node2394</title>
<path fill="none" stroke="#000000" stroke-dasharray="5,2" d="M2540.9147,-76.9613C2558.261,-66.7242 2582.8111,-52.2356 2603.2338,-40.1829"/>
<polygon fill="#000000" stroke="#000000" points="2605.1593,-43.1106 2611.9925,-35.0138 2601.6015,-37.0822 2605.1593,-43.1106"/>
</g>
<!-- node24&#45;&gt;node2395 -->
<g id="edge53" class="edge">
<title>node24&#45;&gt;node2395</title>
<path fill="none" stroke="#000000" stroke-dasharray="5,2" d="M2508.1892,-74.3771C2502.2242,-65.6122 2494.6239,-54.4445 2487.764,-44.3646"/>
<polygon fill="#000000" stroke="#000000" points="2490.5057,-42.1723 2481.9859,-35.8744 2484.7187,-46.1107 2490.5057,-42.1723"/>
</g>
<!-- node2248 -->
<g id="node44" class="node">
<title>node2248</title>
<polygon fill="none" stroke="#000000" points="1677.8214,-396 1620.406,-378 1677.8214,-360 1735.2369,-378 1677.8214,-396"/>
<text text-anchor="middle" x="1677.8214" y="-374.9" font-family="Times,serif" font-size="12.00" fill="#000000">oelibcxx</text>
</g>
<!-- node2178 -->
<g id="node45" class="node">
<title>node2178</title>
<polygon fill="none" stroke="#000000" points="1704.8214,-324 1650.8214,-324 1650.8214,-288 1704.8214,-288 1704.8214,-324"/>
<text text-anchor="middle" x="1677.8214" y="-302.9" font-family="Times,serif" font-size="12.00" fill="#000000">libcxx</text>
</g>
<!-- node2248&#45;&gt;node2178 -->
<g id="edge54" class="edge">
<title>node2248&#45;&gt;node2178</title>
<path fill="none" stroke="#000000" d="M1677.8214,-359.8314C1677.8214,-352.131 1677.8214,-342.9743 1677.8214,-334.4166"/>
<polygon fill="#000000" stroke="#000000" points="1681.3215,-334.4132 1677.8214,-324.4133 1674.3215,-334.4133 1681.3215,-334.4132"/>
</g>
<!-- node2185 -->
<g id="node46" class="node">
<title>node2185</title>
<polygon fill="none" stroke="#000000" points="1784.8214,-324 1722.8214,-324 1722.8214,-288 1784.8214,-288 1784.8214,-324"/>
<text text-anchor="middle" x="1753.8214" y="-302.9" font-family="Times,serif" font-size="12.00" fill="#000000">libcxxrt</text>
</g>
<!-- node2248&#45;&gt;node2185 -->
<g id="edge56" class="edge">
<title>node2248&#45;&gt;node2185</title>
<path fill="none" stroke="#000000" d="M1692.1165,-364.4574C1701.9927,-355.1009 1715.4259,-342.3747 1727.2371,-331.1851"/>
<polygon fill="#000000" stroke="#000000" points="1729.8585,-333.5231 1734.7109,-324.1047 1725.0442,-328.4414 1729.8585,-333.5231"/>
</g>
<!-- node2196 -->
<g id="node47" class="node">
<title>node2196</title>
<polygon fill="none" stroke="#000000" points="1632.8214,-324 1556.8214,-324 1556.8214,-288 1632.8214,-288 1632.8214,-324"/>
<text text-anchor="middle" x="1594.8214" y="-302.9" font-family="Times,serif" font-size="12.00" fill="#000000">libunwind</text>
</g>
<!-- node2248&#45;&gt;node2196 -->
<g id="edge58" class="edge">
<title>node2248&#45;&gt;node2196</title>
<path fill="none" stroke="#000000" d="M1662.2098,-364.4574C1651.3211,-355.0118 1636.4736,-342.132 1623.4862,-330.8658"/>
<polygon fill="#000000" stroke="#000000" points="1625.5396,-328.0137 1615.6922,-324.1047 1620.9526,-333.3014 1625.5396,-328.0137"/>
</g>
<!-- node2178&#45;&gt;node2239 -->
<g id="edge55" class="edge">
<title>node2178&#45;&gt;node2239</title>
<path fill="none" stroke="#000000" d="M1650.6352,-292.1177C1626.3669,-279.7254 1590.9187,-261.6242 1566.0482,-248.9243"/>
<polygon fill="#000000" stroke="#000000" points="1567.5774,-245.7753 1557.0796,-244.3446 1564.3939,-252.0095 1567.5774,-245.7753"/>
</g>
<!-- node2185&#45;&gt;node2239 -->
<g id="edge57" class="edge">
<title>node2185&#45;&gt;node2239</title>
<path fill="none" stroke="#000000" d="M1722.5462,-291.4417C1719.6179,-290.2257 1716.6777,-289.0585 1713.8214,-288 1660.8109,-268.355 1645.8031,-268.7939 1591.8214,-252 1585.2469,-249.9546 1578.2509,-247.7144 1571.5303,-245.5303"/>
<polygon fill="#000000" stroke="#000000" points="1572.5545,-242.1829 1561.9619,-242.3995 1570.3776,-248.8358 1572.5545,-242.1829"/>
</g>
<!-- node2196&#45;&gt;node2239 -->
<g id="edge59" class="edge">
<title>node2196&#45;&gt;node2239</title>
<path fill="none" stroke="#000000" d="M1580.1856,-287.8314C1572.4252,-278.1977 1562.8287,-266.2849 1554.6379,-256.117"/>
<polygon fill="#000000" stroke="#000000" points="1557.1583,-253.6666 1548.1594,-248.0747 1551.707,-258.0579 1557.1583,-253.6666"/>
</g>
<!-- node2247 -->
<g id="node48" class="node">
<title>node2247</title>
<polygon fill="none" stroke="#000000" points="1004.8214,-396 911.5189,-378 1004.8214,-360 1098.124,-378 1004.8214,-396"/>
<text text-anchor="middle" x="1004.8214" y="-374.9" font-family="Times,serif" font-size="12.00" fill="#000000">oelibcxx&#45;lvi&#45;cfg</text>
</g>
<!-- node2172 -->
<g id="node49" class="node">
<title>node2172</title>
<polygon fill="none" stroke="#000000" points="934.8214,-324 842.8214,-324 842.8214,-288 934.8214,-288 934.8214,-324"/>
<text text-anchor="middle" x="888.8214" y="-302.9" font-family="Times,serif" font-size="12.00" fill="#000000">libcxx&#45;lvi&#45;cfg</text>
</g>
<!-- node2247&#45;&gt;node2172 -->
<g id="edge60" class="edge">
<title>node2247&#45;&gt;node2172</title>
<path fill="none" stroke="#000000" d="M982.4555,-364.1177C966.7267,-354.355 945.2897,-341.0493 926.8961,-329.6325"/>
<polygon fill="#000000" stroke="#000000" points="928.4915,-326.5035 918.1493,-324.2035 924.8,-332.4509 928.4915,-326.5035"/>
</g>
<!-- node2184 -->
<g id="node50" class="node">
<title>node2184</title>
<polygon fill="none" stroke="#000000" points="1056.3214,-324 953.3214,-324 953.3214,-288 1056.3214,-288 1056.3214,-324"/>
<text text-anchor="middle" x="1004.8214" y="-302.9" font-family="Times,serif" font-size="12.00" fill="#000000">libcxxrt&#45;lvi&#45;cfg</text>
</g>
<!-- node2247&#45;&gt;node2184 -->
<g id="edge62" class="edge">
<title>node2247&#45;&gt;node2184</title>
<path fill="none" stroke="#000000" d="M1004.8214,-359.8314C1004.8214,-352.131 1004.8214,-342.9743 1004.8214,-334.4166"/>
<polygon fill="#000000" stroke="#000000" points="1008.3215,-334.4132 1004.8214,-324.4133 1001.3215,-334.4133 1008.3215,-334.4132"/>
</g>
<!-- node2195 -->
<g id="node51" class="node">
<title>node2195</title>
<polygon fill="none" stroke="#000000" points="1190.8214,-324 1074.8214,-324 1074.8214,-288 1190.8214,-288 1190.8214,-324"/>
<text text-anchor="middle" x="1132.8214" y="-302.9" font-family="Times,serif" font-size="12.00" fill="#000000">libunwind&#45;lvi&#45;cfg</text>
</g>
<!-- node2247&#45;&gt;node2195 -->
<g id="edge64" class="edge">
<title>node2247&#45;&gt;node2195</title>
<path fill="none" stroke="#000000" d="M1028.8973,-364.4574C1046.5607,-354.5217 1070.9794,-340.7861 1091.7088,-329.1259"/>
<polygon fill="#000000" stroke="#000000" points="1093.6354,-332.0579 1100.6352,-324.1047 1090.2035,-325.9569 1093.6354,-332.0579"/>
</g>
<!-- node2172&#45;&gt;node2237 -->
<g id="edge61" class="edge">
<title>node2172&#45;&gt;node2237</title>
<path fill="none" stroke="#000000" d="M934.243,-287.8314C963.8689,-275.981 1002.1166,-260.6819 1030.2609,-249.4242"/>
<polygon fill="#000000" stroke="#000000" points="1031.779,-252.5867 1039.7638,-245.623 1029.1792,-246.0873 1031.779,-252.5867"/>
</g>
<!-- node2184&#45;&gt;node2237 -->
<g id="edge63" class="edge">
<title>node2184&#45;&gt;node2237</title>
<path fill="none" stroke="#000000" d="M1020.9713,-287.8314C1029.2696,-278.4958 1039.4703,-267.02 1048.3185,-257.0658"/>
<polygon fill="#000000" stroke="#000000" points="1051.0346,-259.2784 1055.0624,-249.479 1045.8027,-254.6278 1051.0346,-259.2784"/>
</g>
<!-- node2195&#45;&gt;node2237 -->
<g id="edge65" class="edge">
<title>node2195&#45;&gt;node2237</title>
<path fill="none" stroke="#000000" d="M1116.6715,-287.8314C1108.3733,-278.4958 1098.1726,-267.02 1089.3244,-257.0658"/>
<polygon fill="#000000" stroke="#000000" points="1091.8401,-254.6278 1082.5805,-249.479 1086.6082,-259.2784 1091.8401,-254.6278"/>
</g>
<!-- node2108 -->
<g id="node52" class="node">
<title>node2108</title>
<polygon fill="none" stroke="#000000" points="1724.435,-743.5623 1685.8214,-756 1647.2079,-743.5623 1647.244,-723.4377 1724.3989,-723.4377 1724.435,-743.5623"/>
<text text-anchor="middle" x="1685.8214" y="-734.9" font-family="Times,serif" font-size="12.00" fill="#000000">oesgx</text>
</g>
<!-- node2118 -->
<g id="node53" class="node">
<title>node2118</title>
<polygon fill="none" stroke="#000000" points="2599.5434,-167.5623 2556.8214,-180 2514.0995,-167.5623 2514.1394,-147.4377 2599.5035,-147.4377 2599.5434,-167.5623"/>
<text text-anchor="middle" x="2556.8214" y="-158.9" font-family="Times,serif" font-size="12.00" fill="#000000">oesign</text>
</g>
<!-- node2118&#45;&gt;node20 -->
<g id="edge66" class="edge">
<title>node2118&#45;&gt;node20</title>
<path fill="none" stroke="#000000" d="M2578.6768,-147.4297C2596.0507,-135.8472 2620.4043,-119.6114 2638.7866,-107.3566"/>
<polygon fill="#000000" stroke="#000000" points="2640.8951,-110.1574 2647.2742,-101.6982 2637.0122,-104.333 2640.8951,-110.1574"/>
</g>
<!-- node187 -->
<g id="node54" class="node">
<title>node187</title>
<polygon fill="none" stroke="#000000" points="1867.3214,-756 1742.3214,-756 1742.3214,-720 1867.3214,-720 1867.3214,-756"/>
<text text-anchor="middle" x="1804.8214" y="-734.9" font-family="Times,serif" font-size="12.00" fill="#000000">oesign&#45;test&#45;engine</text>
</g>
</g>
</svg>
