<?xml version="1.0" encoding="UTF-8" standalone="no"?>
<!DOCTYPE svg PUBLIC "-//W3C//DTD SVG 1.1//EN"
 "http://www.w3.org/Graphics/SVG/1.1/DTD/svg11.dtd">
<!-- Generated by graphviz version 2.40.1 (20161225.0304)
 -->
<!-- Title: GG Pages: 1 -->
<svg width="1195pt" height="332pt"
 viewBox="0.00 0.00 1195.44 332.00" xmlns="http://www.w3.org/2000/svg" xmlns:xlink="http://www.w3.org/1999/xlink">
<g id="graph0" class="graph" transform="scale(1 1) rotate(0) translate(4 328)">
<title>GG</title>
<polygon fill="#ffffff" stroke="transparent" points="-4,4 -4,-328 1191.4398,-328 1191.4398,4 -4,4"/>
<!-- node101 -->
<g id="node1" class="node">
<title>node101</title>
<polygon fill="none" stroke="#000000" points="606.1806,-167.5623 569.6335,-180 533.0864,-167.5623 533.1205,-147.4377 606.1465,-147.4377 606.1806,-167.5623"/>
<text text-anchor="middle" x="569.6335" y="-158.9" font-family="Times,serif" font-size="12.00" fill="#000000">aesm</text>
</g>
<!-- node16 -->
<g id="node2" class="node">
<title>node16</title>
<polygon fill="none" stroke="#000000" points="445.6335,-108 397.1282,-90 445.6335,-72 494.1388,-90 445.6335,-108"/>
<text text-anchor="middle" x="445.6335" y="-86.9" font-family="Times,serif" font-size="12.00" fill="#000000">oehost</text>
</g>
<!-- node101&#45;&gt;node16 -->
<g id="edge1" class="edge">
<title>node101&#45;&gt;node16</title>
<path fill="none" stroke="#000000" d="M544.5402,-147.4297C523.9507,-135.4745 494.8232,-118.5617 473.5097,-106.1862"/>
<polygon fill="#000000" stroke="#000000" points="475.0195,-103.0156 464.6141,-101.021 471.5045,-109.0692 475.0195,-103.0156"/>
</g>
<!-- node1564 -->
<g id="node3" class="node">
<title>node1564</title>
<ellipse fill="none" stroke="#000000" cx="445.6335" cy="-18" rx="34.4458" ry="18"/>
<text text-anchor="middle" x="445.6335" y="-14.9" font-family="Times,serif" font-size="12.00" fill="#000000">crypto</text>
</g>
<!-- node16&#45;&gt;node1564 -->
<g id="edge2" class="edge">
<title>node16&#45;&gt;node1564</title>
<path fill="none" stroke="#000000" stroke-dasharray="5,2" d="M445.6335,-71.8314C445.6335,-64.131 445.6335,-54.9743 445.6335,-46.4166"/>
<polygon fill="#000000" stroke="#000000" points="449.1336,-46.4132 445.6335,-36.4133 442.1336,-46.4133 449.1336,-46.4132"/>
</g>
<!-- node1565 -->
<g id="node4" class="node">
<title>node1565</title>
<ellipse fill="none" stroke="#000000" cx="652.6335" cy="-18" rx="27" ry="18"/>
<text text-anchor="middle" x="652.6335" y="-14.9" font-family="Times,serif" font-size="12.00" fill="#000000">dl</text>
</g>
<!-- node16&#45;&gt;node1565 -->
<g id="edge3" class="edge">
<title>node16&#45;&gt;node1565</title>
<path fill="none" stroke="#000000" stroke-dasharray="5,2" d="M474.2567,-82.4547C508.6155,-73.0579 567.7219,-55.8066 616.6335,-36 618.4308,-35.2722 620.2615,-34.4906 622.0972,-33.6756"/>
<polygon fill="#000000" stroke="#000000" points="623.6174,-36.8285 631.186,-29.4145 620.6459,-30.4905 623.6174,-36.8285"/>
</g>
<!-- node25 -->
<g id="node5" class="node">
<title>node25</title>
<polygon fill="none" stroke="#000000" points="783.6335,-36 697.6335,-36 697.6335,0 783.6335,0 783.6335,-36"/>
<text text-anchor="middle" x="740.6335" y="-14.9" font-family="Times,serif" font-size="12.00" fill="#000000">oe_includes</text>
</g>
<!-- node16&#45;&gt;node25 -->
<g id="edge4" class="edge">
<title>node16&#45;&gt;node25</title>
<path fill="none" stroke="#000000" d="M478.1597,-84.0034C523.2225,-75.4289 607.3024,-58.4701 687.8246,-36.0717"/>
<polygon fill="#000000" stroke="#000000" points="688.9463,-39.392 697.6239,-33.3134 687.0496,-32.6539 688.9463,-39.392"/>
</g>
<!-- node1567 -->
<g id="node6" class="node">
<title>node1567</title>
<ellipse fill="none" stroke="#000000" cx="552.6335" cy="-18" rx="54.5753" ry="18"/>
<text text-anchor="middle" x="552.6335" y="-14.9" font-family="Times,serif" font-size="12.00" fill="#000000">sgx_dcap_ql</text>
</g>
<!-- node16&#45;&gt;node1567 -->
<g id="edge5" class="edge">
<title>node16&#45;&gt;node1567</title>
<path fill="none" stroke="#000000" d="M463.3024,-78.1107C478.675,-67.7665 501.3523,-52.507 520.0112,-39.9515"/>
<polygon fill="#000000" stroke="#000000" points="522.1863,-42.7065 528.5289,-34.2199 518.2784,-36.8989 522.1863,-42.7065"/>
</g>
<!-- node1566 -->
<g id="node7" class="node">
<title>node1566</title>
<ellipse fill="none" stroke="#000000" cx="202.6335" cy="-18" rx="89.7516" ry="18"/>
<text text-anchor="middle" x="202.6335" y="-14.9" font-family="Times,serif" font-size="12.00" fill="#000000">sgx_enclave_common</text>
</g>
<!-- node16&#45;&gt;node1566 -->
<g id="edge6" class="edge">
<title>node16&#45;&gt;node1566</title>
<path fill="none" stroke="#000000" d="M418.2307,-81.8806C380.7612,-70.7786 312.5282,-50.5614 262.8333,-35.837"/>
<polygon fill="#000000" stroke="#000000" points="263.7385,-32.4548 253.1562,-32.9697 261.7498,-39.1664 263.7385,-32.4548"/>
</g>
<!-- node1568 -->
<g id="node8" class="node">
<title>node1568</title>
<ellipse fill="none" stroke="#000000" cx="351.6335" cy="-18" rx="41.4901" ry="18"/>
<text text-anchor="middle" x="351.6335" y="-14.9" font-family="Times,serif" font-size="12.00" fill="#000000">sgx_urts</text>
</g>
<!-- node16&#45;&gt;node1568 -->
<g id="edge7" class="edge">
<title>node16&#45;&gt;node1568</title>
<path fill="none" stroke="#000000" d="M429.6877,-77.7862C416.217,-67.4682 396.586,-52.4317 380.3819,-40.02"/>
<polygon fill="#000000" stroke="#000000" points="382.3384,-37.1099 372.2713,-33.8077 378.0818,-42.6671 382.3384,-37.1099"/>
</g>
<!-- node553 -->
<g id="node9" class="node">
<title>node553</title>
<polygon fill="none" stroke="#000000" points="913.3134,-311.5623 854.6335,-324 795.9536,-311.5623 796.0084,-291.4377 913.2586,-291.4377 913.3134,-311.5623"/>
<text text-anchor="middle" x="854.6335" y="-302.9" font-family="Times,serif" font-size="12.00" fill="#000000">cryptoenc</text>
</g>
<!-- node1503 -->
<g id="node10" class="node">
<title>node1503</title>
<polygon fill="none" stroke="#000000" points="808.6335,-252 741.5655,-234 808.6335,-216 875.7015,-234 808.6335,-252"/>
<text text-anchor="middle" x="808.6335" y="-230.9" font-family="Times,serif" font-size="12.00" fill="#000000">oeenclave</text>
</g>
<!-- node553&#45;&gt;node1503 -->
<g id="edge8" class="edge">
<title>node553&#45;&gt;node1503</title>
<path fill="none" stroke="#000000" d="M845.3247,-291.4297C839.2538,-281.9274 831.182,-269.2933 824.1551,-258.2947"/>
<polygon fill="#000000" stroke="#000000" points="826.8986,-256.088 818.5653,-249.5454 820.9997,-259.8567 826.8986,-256.088"/>
</g>
<!-- node1483 -->
<g id="node13" class="node">
<title>node1483</title>
<polygon fill="none" stroke="#000000" points="972.6335,-180 926.3525,-162 972.6335,-144 1018.9145,-162 972.6335,-180"/>
<text text-anchor="middle" x="972.6335" y="-158.9" font-family="Times,serif" font-size="12.00" fill="#000000">oelibc</text>
</g>
<!-- node553&#45;&gt;node1483 -->
<g id="edge14" class="edge">
<title>node553&#45;&gt;node1483</title>
<path fill="none" stroke="#000000" d="M865.0356,-291.3152C878.0181,-273.2078 901.137,-241.6774 922.6335,-216 932.082,-204.7138 943.1522,-192.6499 952.471,-182.7938"/>
<polygon fill="#000000" stroke="#000000" points="955.1352,-185.0716 959.5047,-175.4197 950.0699,-180.2401 955.1352,-185.0716"/>
</g>
<!-- node1503&#45;&gt;node25 -->
<g id="edge13" class="edge">
<title>node1503&#45;&gt;node25</title>
<path fill="none" stroke="#000000" d="M789.9803,-220.9407C777.6645,-211.1908 762.4131,-196.7064 754.6335,-180 734.4176,-136.5869 734.8466,-79.573 737.4365,-46.0472"/>
<polygon fill="#000000" stroke="#000000" points="740.9272,-46.306 738.3299,-36.0345 733.9549,-45.6838 740.9272,-46.306"/>
</g>
<!-- node1470 -->
<g id="node11" class="node">
<title>node1470</title>
<polygon fill="none" stroke="#000000" points="853.1335,-180 764.1335,-180 764.1335,-144 853.1335,-144 853.1335,-180"/>
<text text-anchor="middle" x="808.6335" y="-158.9" font-family="Times,serif" font-size="12.00" fill="#000000">mbedcrypto</text>
</g>
<!-- node1503&#45;&gt;node1470 -->
<g id="edge9" class="edge">
<title>node1503&#45;&gt;node1470</title>
<path fill="none" stroke="#000000" d="M808.6335,-215.8314C808.6335,-208.131 808.6335,-198.9743 808.6335,-190.4166"/>
<polygon fill="#000000" stroke="#000000" points="812.1336,-190.4132 808.6335,-180.4133 805.1336,-190.4133 812.1336,-190.4132"/>
</g>
<!-- node1470&#45;&gt;node25 -->
<g id="edge10" class="edge">
<title>node1470&#45;&gt;node25</title>
<path fill="none" stroke="#000000" stroke-dasharray="1,5" d="M800.0213,-143.7623C788.2696,-118.8764 767.1168,-74.0822 753.4857,-45.2165"/>
<polygon fill="#000000" stroke="#000000" points="756.6108,-43.6376 749.1758,-36.0896 750.2811,-46.6267 756.6108,-43.6376"/>
</g>
<!-- node1412 -->
<g id="node12" class="node">
<title>node1412</title>
<polygon fill="none" stroke="#000000" points="850.6335,-108 800.1472,-90 850.6335,-72 901.1198,-90 850.6335,-108"/>
<text text-anchor="middle" x="850.6335" y="-86.9" font-family="Times,serif" font-size="12.00" fill="#000000">oecore</text>
</g>
<!-- node1470&#45;&gt;node1412 -->
<g id="edge11" class="edge">
<title>node1470&#45;&gt;node1412</title>
<path fill="none" stroke="#000000" stroke-dasharray="1,5" d="M819.2319,-143.8314C824.5356,-134.7393 831.0235,-123.6171 836.7224,-113.8476"/>
<polygon fill="#000000" stroke="#000000" points="839.8645,-115.4073 841.88,-105.0059 833.8181,-111.8802 839.8645,-115.4073"/>
</g>
<!-- node1412&#45;&gt;node25 -->
<g id="edge12" class="edge">
<title>node1412&#45;&gt;node25</title>
<path fill="none" stroke="#000000" d="M832.4692,-78.1107C817.4031,-68.2492 795.512,-53.9205 776.8817,-41.7261"/>
<polygon fill="#000000" stroke="#000000" points="778.5995,-38.6674 768.3157,-36.1193 774.7659,-44.5243 778.5995,-38.6674"/>
</g>
<!-- node1483&#45;&gt;node1412 -->
<g id="edge15" class="edge">
<title>node1483&#45;&gt;node1412</title>
<path fill="none" stroke="#000000" d="M954.1043,-151.0647C933.9787,-139.1873 901.6084,-120.0835 878.4329,-106.4062"/>
<polygon fill="#000000" stroke="#000000" points="880.131,-103.3443 869.74,-101.276 876.5732,-109.3728 880.131,-103.3443"/>
</g>
<!-- node1484 -->
<g id="node14" class="node">
<title>node1484</title>
<polygon fill="none" stroke="#000000" points="1116.1335,-108 1045.1335,-108 1045.1335,-72 1116.1335,-72 1116.1335,-108"/>
<text text-anchor="middle" x="1080.6335" y="-86.9" font-family="Times,serif" font-size="12.00" fill="#000000">oelibasm</text>
</g>
<!-- node1483&#45;&gt;node1484 -->
<g id="edge16" class="edge">
<title>node1483&#45;&gt;node1484</title>
<path fill="none" stroke="#000000" stroke-dasharray="5,2" d="M989.9856,-150.432C1004.8104,-140.5488 1026.6125,-126.014 1045.1199,-113.6757"/>
<polygon fill="#000000" stroke="#000000" points="1047.2453,-116.4653 1053.6244,-108.0061 1043.3624,-110.641 1047.2453,-116.4653"/>
</g>
<!-- node1459 -->
<g id="node15" class="node">
<title>node1459</title>
<polygon fill="none" stroke="#000000" points="1026.6335,-108 918.6335,-108 918.6335,-72 1026.6335,-72 1026.6335,-108"/>
<text text-anchor="middle" x="972.6335" y="-86.9" font-family="Times,serif" font-size="12.00" fill="#000000">oelibc_includes</text>
</g>
<!-- node1483&#45;&gt;node1459 -->
<g id="edge17" class="edge">
<title>node1483&#45;&gt;node1459</title>
<path fill="none" stroke="#000000" d="M972.6335,-143.8314C972.6335,-136.131 972.6335,-126.9743 972.6335,-118.4166"/>
<polygon fill="#000000" stroke="#000000" points="976.1336,-118.4132 972.6335,-108.4133 969.1336,-118.4133 976.1336,-118.4132"/>
</g>
<!-- node563 -->
<g id="node16" class="node">
<title>node563</title>
<polygon fill="none" stroke="#000000" points="723.4008,-239.5623 661.6335,-252 599.8662,-239.5623 599.9239,-219.4377 723.3431,-219.4377 723.4008,-239.5623"/>
<text text-anchor="middle" x="661.6335" y="-230.9" font-family="Times,serif" font-size="12.00" fill="#000000">cryptohost</text>
</g>
<!-- node13 -->
<g id="node17" class="node">
<title>node13</title>
<polygon fill="none" stroke="#000000" points="703.1335,-180 624.1335,-180 624.1335,-144 703.1335,-144 703.1335,-180"/>
<text text-anchor="middle" x="663.6335" y="-158.9" font-family="Times,serif" font-size="12.00" fill="#000000">oehostapp</text>
</g>
<!-- node563&#45;&gt;node13 -->
<g id="edge18" class="edge">
<title>node563&#45;&gt;node13</title>
<path fill="none" stroke="#000000" d="M662.0382,-219.4297C662.2696,-211.1011 662.5678,-200.3665 662.8436,-190.436"/>
<polygon fill="#000000" stroke="#000000" points="666.3508,-190.2213 663.1299,-180.128 659.3535,-190.0269 666.3508,-190.2213"/>
</g>
<!-- node13&#45;&gt;node16 -->
<g id="edge19" class="edge">
<title>node13&#45;&gt;node16</title>
<path fill="none" stroke="#000000" stroke-dasharray="1,5" d="M623.8778,-146.9128C621.0934,-145.9112 618.3249,-144.9314 615.6335,-144 569.9544,-128.1919 516.7777,-111.5854 482.2289,-101.0312"/>
<polygon fill="#000000" stroke="#000000" points="483.1532,-97.654 472.5673,-98.0892 481.1141,-104.3505 483.1532,-97.654"/>
</g>
<!-- node573 -->
<g id="node18" class="node">
<title>node573</title>
<polygon fill="none" stroke="#000000" points="123.4008,-167.5623 61.6335,-180 -.1338,-167.5623 -.0761,-147.4377 123.3431,-147.4377 123.4008,-167.5623"/>
<text text-anchor="middle" x="61.6335" y="-158.9" font-family="Times,serif" font-size="12.00" fill="#000000">hostcrypto</text>
</g>
<!-- node573&#45;&gt;node16 -->
<g id="edge20" class="edge">
<title>node573&#45;&gt;node16</title>
<path fill="none" stroke="#000000" d="M117.7358,-147.3499C122.7619,-146.1669 127.7826,-145.0317 132.6335,-144 227.4692,-123.8295 339.6858,-105.8927 400.6706,-96.6364"/>
<polygon fill="#000000" stroke="#000000" points="401.3616,-100.0719 410.7271,-95.1184 400.3167,-93.1503 401.3616,-100.0719"/>
</g>
<!-- node43 -->
<g id="node19" class="node">
<title>node43</title>
<polygon fill="none" stroke="#000000" points="211.637,-167.5623 176.6335,-180 141.63,-167.5623 141.6627,-147.4377 211.6043,-147.4377 211.637,-167.5623"/>
<text text-anchor="middle" x="176.6335" y="-158.9" font-family="Times,serif" font-size="12.00" fill="#000000">mem</text>
</g>
<!-- node43&#45;&gt;node16 -->
<g id="edge21" class="edge">
<title>node43&#45;&gt;node16</title>
<path fill="none" stroke="#000000" d="M211.036,-147.3449C214.2571,-146.1492 217.4915,-145.0132 220.6335,-144 283.3702,-123.77 358.1228,-107.288 403.712,-98.0607"/>
<polygon fill="#000000" stroke="#000000" points="404.4195,-101.4886 413.5376,-96.0931 403.045,-94.6249 404.4195,-101.4886"/>
</g>
<!-- node1521 -->
<g id="node20" class="node">
<title>node1521</title>
<polygon fill="none" stroke="#000000" points="695.6335,-108 619.6335,-108 619.6335,-72 695.6335,-72 695.6335,-108"/>
<text text-anchor="middle" x="657.6335" y="-86.9" font-family="Times,serif" font-size="12.00" fill="#000000">oe_ptrace</text>
</g>
<!-- node1521&#45;&gt;node1565 -->
<g id="edge22" class="edge">
<title>node1521&#45;&gt;node1565</title>
<path fill="none" stroke="#000000" d="M656.3718,-71.8314C655.837,-64.131 655.2012,-54.9743 654.6069,-46.4166"/>
<polygon fill="#000000" stroke="#000000" points="658.0967,-46.1467 653.9122,-36.4133 651.1135,-46.6317 658.0967,-46.1467"/>
</g>
<!-- node1521&#45;&gt;node25 -->
<g id="edge23" class="edge">
<title>node1521&#45;&gt;node25</title>
<path fill="none" stroke="#000000" d="M678.5779,-71.8314C688.7026,-63.0485 701.0112,-52.3712 711.9883,-42.8489"/>
<polygon fill="#000000" stroke="#000000" points="714.4354,-45.3595 719.6958,-36.1628 709.8484,-40.0718 714.4354,-45.3595"/>
</g>
<!-- node1493 -->
<g id="node21" class="node">
<title>node1493</title>
<polygon fill="none" stroke="#000000" points="1034.6335,-324 977.218,-306 1034.6335,-288 1092.049,-306 1034.6335,-324"/>
<text text-anchor="middle" x="1034.6335" y="-302.9" font-family="Times,serif" font-size="12.00" fill="#000000">oelibcxx</text>
</g>
<!-- node1432 -->
<g id="node22" class="node">
<title>node1432</title>
<polygon fill="none" stroke="#000000" points="985.6335,-252 931.6335,-252 931.6335,-216 985.6335,-216 985.6335,-252"/>
<text text-anchor="middle" x="958.6335" y="-230.9" font-family="Times,serif" font-size="12.00" fill="#000000">libcxx</text>
</g>
<!-- node1493&#45;&gt;node1432 -->
<g id="edge24" class="edge">
<title>node1493&#45;&gt;node1432</title>
<path fill="none" stroke="#000000" d="M1020.3385,-292.4574C1010.4622,-283.1009 997.029,-270.3747 985.2178,-259.1851"/>
<polygon fill="#000000" stroke="#000000" points="987.4107,-256.4414 977.744,-252.1047 982.5965,-261.5231 987.4107,-256.4414"/>
</g>
<!-- node1439 -->
<g id="node23" class="node">
<title>node1439</title>
<polygon fill="none" stroke="#000000" points="1065.6335,-252 1003.6335,-252 1003.6335,-216 1065.6335,-216 1065.6335,-252"/>
<text text-anchor="middle" x="1034.6335" y="-230.9" font-family="Times,serif" font-size="12.00" fill="#000000">libcxxrt</text>
</g>
<!-- node1493&#45;&gt;node1439 -->
<g id="edge26" class="edge">
<title>node1493&#45;&gt;node1439</title>
<path fill="none" stroke="#000000" d="M1034.6335,-287.8314C1034.6335,-280.131 1034.6335,-270.9743 1034.6335,-262.4166"/>
<polygon fill="#000000" stroke="#000000" points="1038.1336,-262.4132 1034.6335,-252.4133 1031.1336,-262.4133 1038.1336,-262.4132"/>
</g>
<!-- node1449 -->
<g id="node24" class="node">
<title>node1449</title>
<polygon fill="none" stroke="#000000" points="1159.6335,-252 1083.6335,-252 1083.6335,-216 1159.6335,-216 1159.6335,-252"/>
<text text-anchor="middle" x="1121.6335" y="-230.9" font-family="Times,serif" font-size="12.00" fill="#000000">libunwind</text>
</g>
<!-- node1493&#45;&gt;node1449 -->
<g id="edge28" class="edge">
<title>node1493&#45;&gt;node1449</title>
<path fill="none" stroke="#000000" d="M1050.5906,-292.7941C1062.1546,-283.2239 1078.1301,-270.0028 1092.0034,-258.5215"/>
<polygon fill="#000000" stroke="#000000" points="1094.4072,-261.0753 1099.8796,-252.0032 1089.9442,-255.6825 1094.4072,-261.0753"/>
</g>
<!-- node1432&#45;&gt;node1483 -->
<g id="edge25" class="edge">
<title>node1432&#45;&gt;node1483</title>
<path fill="none" stroke="#000000" d="M962.1663,-215.8314C963.7499,-207.687 965.6503,-197.9137 967.3946,-188.9429"/>
<polygon fill="#000000" stroke="#000000" points="970.8692,-189.4105 969.3423,-178.9263 963.9978,-188.0744 970.8692,-189.4105"/>
</g>
<!-- node1439&#45;&gt;node1483 -->
<g id="edge27" class="edge">
<title>node1439&#45;&gt;node1483</title>
<path fill="none" stroke="#000000" d="M1018.9883,-215.8314C1010.4965,-205.9699 999.9481,-193.7202 991.0601,-183.3986"/>
<polygon fill="#000000" stroke="#000000" points="993.5365,-180.9106 984.359,-175.6167 988.2321,-185.4783 993.5365,-180.9106"/>
</g>
<!-- node1449&#45;&gt;node1483 -->
<g id="edge29" class="edge">
<title>node1449&#45;&gt;node1483</title>
<path fill="none" stroke="#000000" d="M1084.0345,-215.8314C1058.8784,-203.6754 1026.2125,-187.8905 1002.7676,-176.5614"/>
<polygon fill="#000000" stroke="#000000" points="1004.1726,-173.3532 993.6458,-172.1536 1001.1269,-179.6559 1004.1726,-173.3532"/>
</g>
<!-- node1390 -->
<g id="node25" class="node">
<title>node1390</title>
<polygon fill="none" stroke="#000000" points="1187.247,-311.5623 1148.6335,-324 1110.02,-311.5623 1110.056,-291.4377 1187.211,-291.4377 1187.247,-311.5623"/>
<text text-anchor="middle" x="1148.6335" y="-302.9" font-family="Times,serif" font-size="12.00" fill="#000000">oesgx</text>
</g>
<!-- node1400 -->
<g id="node26" class="node">
<title>node1400</title>
<polygon fill="none" stroke="#000000" points="315.3554,-167.5623 272.6335,-180 229.9116,-167.5623 229.9515,-147.4377 315.3155,-147.4377 315.3554,-167.5623"/>
<text text-anchor="middle" x="272.6335" y="-158.9" font-family="Times,serif" font-size="12.00" fill="#000000">oesign</text>
</g>
<!-- node1400&#45;&gt;node16 -->
<g id="edge30" class="edge">
<title>node1400&#45;&gt;node16</title>
<path fill="none" stroke="#000000" d="M307.6426,-147.4297C338.4233,-134.6193 382.8809,-116.1167 412.9473,-103.6035"/>
<polygon fill="#000000" stroke="#000000" points="414.6639,-106.6802 422.5514,-99.6064 411.9742,-100.2175 414.6639,-106.6802"/>
</g>
<!-- node81 -->
<g id="node27" class="node">
<title>node81</title>
<polygon fill="none" stroke="#000000" points="442.205,-167.5623 387.6335,-180 333.062,-167.5623 333.1129,-147.4377 442.1541,-147.4377 442.205,-167.5623"/>
<text text-anchor="middle" x="387.6335" y="-158.9" font-family="Times,serif" font-size="12.00" fill="#000000">safemath</text>
</g>
<!-- node81&#45;&gt;node16 -->
<g id="edge31" class="edge">
<title>node81&#45;&gt;node16</title>
<path fill="none" stroke="#000000" d="M399.3707,-147.4297C407.5746,-137.2456 418.6764,-123.464 427.9482,-111.9541"/>
<polygon fill="#000000" stroke="#000000" points="430.7608,-114.0418 434.3085,-104.0586 425.3095,-109.6505 430.7608,-114.0418"/>
</g>
<!-- node91 -->
<g id="node28" class="node">
<title>node91</title>
<polygon fill="none" stroke="#000000" points="514.6335,-167.5623 487.6335,-180 460.6335,-167.5623 460.6587,-147.4377 514.6083,-147.4377 514.6335,-167.5623"/>
<text text-anchor="middle" x="487.6335" y="-158.9" font-family="Times,serif" font-size="12.00" fill="#000000">str</text>
</g>
<!-- node91&#45;&gt;node16 -->
<g id="edge32" class="edge">
<title>node91&#45;&gt;node16</title>
<path fill="none" stroke="#000000" d="M479.1342,-147.4297C473.5163,-137.799 466.0217,-124.9512 459.5459,-113.8498"/>
<polygon fill="#000000" stroke="#000000" points="462.4713,-111.9185 454.4093,-105.0442 456.4248,-115.4456 462.4713,-111.9185"/>
</g>
</g>
</svg>
