<?xml version="1.0" encoding="UTF-8" standalone="no"?>
<!DOCTYPE svg PUBLIC "-//W3C//DTD SVG 1.1//EN"
 "http://www.w3.org/Graphics/SVG/1.1/DTD/svg11.dtd">
<!-- Generated by graphviz version 2.40.1 (20161225.0304)
 -->
<!-- Title: GG Pages: 1 -->
<svg width="2104pt" height="764pt"
 viewBox="0.00 0.00 2103.97 764.00" xmlns="http://www.w3.org/2000/svg" xmlns:xlink="http://www.w3.org/1999/xlink">
<g id="graph0" class="graph" transform="scale(1 1) rotate(0) translate(4 760)">
<title>GG</title>
<polygon fill="#ffffff" stroke="transparent" points="-4,4 -4,-760 2099.9681,-760 2099.9681,4 -4,4"/>
<!-- node996 -->
<g id="node1" class="node">
<title>node996</title>
<polygon fill="none" stroke="#000000" points="366.427,-743.5623 266.5689,-756 166.7109,-743.5623 166.8041,-723.4377 366.3338,-723.4377 366.427,-743.5623"/>
<text text-anchor="middle" x="266.5689" y="-734.9" font-family="Times,serif" font-size="12.00" fill="#000000">ecall_conflict_enc1</text>
</g>
<!-- node2780 -->
<g id="node2" class="node">
<title>node2780</title>
<polygon fill="none" stroke="#000000" points="529.5689,-684 427.855,-666 529.5689,-648 631.2829,-666 529.5689,-684"/>
<text text-anchor="middle" x="529.5689" y="-662.9" font-family="Times,serif" font-size="12.00" fill="#000000">oecryptombedtls</text>
</g>
<!-- node996&#45;&gt;node2780 -->
<g id="edge1" class="edge">
<title>node996&#45;&gt;node2780</title>
<path fill="none" stroke="#000000" d="M319.7909,-723.4297C366.4961,-710.6435 433.9147,-692.1867 479.6186,-679.6746"/>
<polygon fill="#000000" stroke="#000000" points="480.5908,-683.0373 489.3117,-677.021 478.7424,-676.2858 480.5908,-683.0373"/>
</g>
<!-- node2904 -->
<g id="node8" class="node">
<title>node2904</title>
<polygon fill="none" stroke="#000000" points="987.5689,-324 941.2879,-306 987.5689,-288 1033.8499,-306 987.5689,-324"/>
<text text-anchor="middle" x="987.5689" y="-302.9" font-family="Times,serif" font-size="12.00" fill="#000000">oelibc</text>
</g>
<!-- node996&#45;&gt;node2904 -->
<g id="edge22" class="edge">
<title>node996&#45;&gt;node2904</title>
<path fill="none" stroke="#000000" d="M270.2217,-723.1921C280.7864,-683.0927 314.8902,-570.9241 380.5689,-504 557.4712,-323.7433 671.9912,-373.9215 919.5689,-324 929.8941,-321.918 940.9806,-319.1958 951.1435,-316.501"/>
<polygon fill="#000000" stroke="#000000" points="952.2037,-319.8398 960.936,-313.84 950.3681,-313.0848 952.2037,-319.8398"/>
</g>
<!-- node2764 -->
<g id="node14" class="node">
<title>node2764</title>
<polygon fill="none" stroke="#000000" points="933.5689,-684 839.5255,-666 933.5689,-648 1027.6124,-666 933.5689,-684"/>
<text text-anchor="middle" x="933.5689" y="-662.9" font-family="Times,serif" font-size="12.00" fill="#000000">oedebugmalloc</text>
</g>
<!-- node996&#45;&gt;node2764 -->
<g id="edge18" class="edge">
<title>node996&#45;&gt;node2764</title>
<path fill="none" stroke="#000000" d="M349.9032,-723.4341C358.2234,-722.1832 366.5538,-721.0115 374.5689,-720 559.5672,-696.6543 607.1588,-703.8104 792.5689,-684 817.4752,-681.3389 844.7967,-677.9583 868.703,-674.8472"/>
<polygon fill="#000000" stroke="#000000" points="869.2625,-678.3039 878.7225,-673.5332 868.3523,-671.3633 869.2625,-678.3039"/>
</g>
<!-- node2749 -->
<g id="node15" class="node">
<title>node2749</title>
<polygon fill="none" stroke="#000000" points="716.5689,-684 649.5009,-666 716.5689,-648 783.637,-666 716.5689,-684"/>
<text text-anchor="middle" x="716.5689" y="-662.9" font-family="Times,serif" font-size="12.00" fill="#000000">oeenclave</text>
</g>
<!-- node996&#45;&gt;node2749 -->
<g id="edge20" class="edge">
<title>node996&#45;&gt;node2749</title>
<path fill="none" stroke="#000000" d="M352.5985,-723.4178C360.025,-722.233 367.4266,-721.0783 374.5689,-720 492.5323,-702.1915 523.2727,-705.7735 640.5689,-684 650.975,-682.0683 662.1007,-679.6413 672.5398,-677.2004"/>
<polygon fill="#000000" stroke="#000000" points="673.3786,-680.5986 682.2922,-674.8718 671.7528,-673.79 673.3786,-680.5986"/>
</g>
<!-- node2867 -->
<g id="node3" class="node">
<title>node2867</title>
<polygon fill="none" stroke="#000000" points="559.0689,-612 470.0689,-612 470.0689,-576 559.0689,-576 559.0689,-612"/>
<text text-anchor="middle" x="514.5689" y="-590.9" font-family="Times,serif" font-size="12.00" fill="#000000">mbedcrypto</text>
</g>
<!-- node2780&#45;&gt;node2867 -->
<g id="edge2" class="edge">
<title>node2780&#45;&gt;node2867</title>
<path fill="none" stroke="#000000" d="M525.9378,-648.5708C524.2802,-640.6139 522.2752,-630.9902 520.4135,-622.054"/>
<polygon fill="#000000" stroke="#000000" points="523.7893,-621.0965 518.3232,-612.0206 516.9364,-622.5243 523.7893,-621.0965"/>
</g>
<!-- node2866 -->
<g id="node4" class="node">
<title>node2866</title>
<polygon fill="none" stroke="#000000" points="445.5689,-540 389.6349,-522 445.5689,-504 501.5029,-522 445.5689,-540"/>
<text text-anchor="middle" x="445.5689" y="-518.9" font-family="Times,serif" font-size="12.00" fill="#000000">mbedtls</text>
</g>
<!-- node2867&#45;&gt;node2866 -->
<g id="edge3" class="edge">
<title>node2867&#45;&gt;node2866</title>
<path fill="none" stroke="#000000" stroke-dasharray="1,5" d="M497.1573,-575.8314C487.7404,-566.005 476.0511,-553.8075 466.1818,-543.509"/>
<polygon fill="#000000" stroke="#000000" points="468.5032,-540.8729 459.0571,-536.0747 463.4493,-545.7163 468.5032,-540.8729"/>
</g>
<!-- node2863 -->
<g id="node5" class="node">
<title>node2863</title>
<polygon fill="none" stroke="#000000" points="329.5689,-468 261.0179,-450 329.5689,-432 398.12,-450 329.5689,-468"/>
<text text-anchor="middle" x="329.5689" y="-446.9" font-family="Times,serif" font-size="12.00" fill="#000000">mbedx509</text>
</g>
<!-- node2866&#45;&gt;node2863 -->
<g id="edge4" class="edge">
<title>node2866&#45;&gt;node2863</title>
<path fill="none" stroke="#000000" d="M426.4139,-510.1107C408.058,-498.7174 380.0954,-481.3612 358.9279,-468.2228"/>
<polygon fill="#000000" stroke="#000000" points="360.6621,-465.1799 350.3199,-462.8799 356.9706,-471.1274 360.6621,-465.1799"/>
</g>
<!-- node2865 -->
<g id="node6" class="node">
<title>node2865</title>
<polygon fill="none" stroke="#000000" points="171.5689,-396 60.2026,-378 171.5689,-360 282.9353,-378 171.5689,-396"/>
<text text-anchor="middle" x="171.5689" y="-374.9" font-family="Times,serif" font-size="12.00" fill="#000000">mbedcrypto_static</text>
</g>
<!-- node2863&#45;&gt;node2865 -->
<g id="edge5" class="edge">
<title>node2863&#45;&gt;node2865</title>
<path fill="none" stroke="#000000" d="M304.1835,-438.432C278.759,-426.8461 239.3069,-408.868 210.0365,-395.5295"/>
<polygon fill="#000000" stroke="#000000" points="211.4726,-392.3377 200.9216,-391.3759 208.5699,-398.7076 211.4726,-392.3377"/>
</g>
<!-- node14 -->
<g id="node7" class="node">
<title>node14</title>
<polygon fill="none" stroke="#000000" points="1444.5689,-36 1358.5689,-36 1358.5689,0 1444.5689,0 1444.5689,-36"/>
<text text-anchor="middle" x="1401.5689" y="-14.9" font-family="Times,serif" font-size="12.00" fill="#000000">oe_includes</text>
</g>
<!-- node2865&#45;&gt;node14 -->
<g id="edge6" class="edge">
<title>node2865&#45;&gt;node14</title>
<path fill="none" stroke="#000000" d="M227.4493,-368.9437C249.0009,-365.7163 273.8842,-362.3121 296.5689,-360 362.7906,-353.2505 844.151,-367.4615 894.5689,-324 925.5338,-297.3075 913.5689,-274.8816 913.5689,-234 913.5689,-234 913.5689,-234 913.5689,-162 913.5689,-72.2153 1221.2857,-34.2219 1348.0142,-22.3819"/>
<polygon fill="#000000" stroke="#000000" points="1348.6225,-25.841 1358.2622,-21.4448 1347.985,-18.87 1348.6225,-25.841"/>
</g>
<!-- node2865&#45;&gt;node2904 -->
<g id="edge7" class="edge">
<title>node2865&#45;&gt;node2904</title>
<path fill="none" stroke="#000000" d="M227.1349,-368.9527C248.7573,-365.7068 273.7715,-362.2875 296.5689,-360 576.066,-331.9557 650.9209,-372.6923 927.5689,-324 936.191,-322.4824 945.3235,-320.1394 953.7928,-317.6402"/>
<polygon fill="#000000" stroke="#000000" points="954.8447,-320.9785 963.36,-314.6745 952.7721,-314.2923 954.8447,-320.9785"/>
</g>
<!-- node2763 -->
<g id="node9" class="node">
<title>node2763</title>
<polygon fill="none" stroke="#000000" points="1136.5689,-180 1086.0826,-162 1136.5689,-144 1187.0552,-162 1136.5689,-180"/>
<text text-anchor="middle" x="1136.5689" y="-158.9" font-family="Times,serif" font-size="12.00" fill="#000000">oecore</text>
</g>
<!-- node2904&#45;&gt;node2763 -->
<g id="edge8" class="edge">
<title>node2904&#45;&gt;node2763</title>
<path fill="none" stroke="#000000" d="M1009.41,-296.3734C1028.8761,-287.0351 1057.3351,-271.4432 1077.5689,-252 1097.4816,-232.8654 1114.069,-205.8228 1124.5325,-186.3833"/>
<polygon fill="#000000" stroke="#000000" points="1127.6352,-188.0029 1129.165,-177.519 1121.4313,-184.7607 1127.6352,-188.0029"/>
</g>
<!-- node2850 -->
<g id="node11" class="node">
<title>node2850</title>
<polygon fill="none" stroke="#000000" points="1023.5689,-36 915.5689,-36 915.5689,0 1023.5689,0 1023.5689,-36"/>
<text text-anchor="middle" x="969.5689" y="-14.9" font-family="Times,serif" font-size="12.00" fill="#000000">oelibc_includes</text>
</g>
<!-- node2904&#45;&gt;node2850 -->
<g id="edge14" class="edge">
<title>node2904&#45;&gt;node2850</title>
<path fill="none" stroke="#000000" d="M986.47,-288.4178C983.452,-240.13 975.0161,-105.1545 971.33,-46.1772"/>
<polygon fill="#000000" stroke="#000000" points="974.8164,-45.8494 970.6994,-36.0873 967.8301,-46.2861 974.8164,-45.8494"/>
</g>
<!-- node2905 -->
<g id="node12" class="node">
<title>node2905</title>
<polygon fill="none" stroke="#000000" points="1069.0689,-252 998.0689,-252 998.0689,-216 1069.0689,-216 1069.0689,-252"/>
<text text-anchor="middle" x="1033.5689" y="-230.9" font-family="Times,serif" font-size="12.00" fill="#000000">oelibasm</text>
</g>
<!-- node2904&#45;&gt;node2905 -->
<g id="edge13" class="edge">
<title>node2904&#45;&gt;node2905</title>
<path fill="none" stroke="#000000" stroke-dasharray="5,2" d="M996.8777,-291.4297C1002.4818,-282.6581 1009.791,-271.2177 1016.4092,-260.8587"/>
<polygon fill="#000000" stroke="#000000" points="1019.5527,-262.4393 1021.9872,-252.128 1013.6538,-258.6706 1019.5527,-262.4393"/>
</g>
<!-- node2923 -->
<g id="node13" class="node">
<title>node2923</title>
<polygon fill="none" stroke="#000000" points="793.5689,-252 731.9472,-234 793.5689,-216 855.1907,-234 793.5689,-252"/>
<text text-anchor="middle" x="793.5689" y="-230.9" font-family="Times,serif" font-size="12.00" fill="#000000">oesyscall</text>
</g>
<!-- node2904&#45;&gt;node2923 -->
<g id="edge15" class="edge">
<title>node2904&#45;&gt;node2923</title>
<path fill="none" stroke="#000000" d="M963.7807,-297.1714C930.4818,-284.813 869.6631,-262.2411 830.4621,-247.6923"/>
<polygon fill="#000000" stroke="#000000" points="831.5844,-244.3756 820.9914,-244.1774 829.1487,-250.9382 831.5844,-244.3756"/>
</g>
<!-- node2763&#45;&gt;node14 -->
<g id="edge9" class="edge">
<title>node2763&#45;&gt;node14</title>
<path fill="none" stroke="#000000" d="M1156.923,-150.9397C1200.0641,-127.497 1301.4672,-72.3949 1359.2695,-40.9853"/>
<polygon fill="#000000" stroke="#000000" points="1361.041,-44.0061 1368.1565,-36.1562 1357.6988,-37.8555 1361.041,-44.0061"/>
</g>
<!-- node2810 -->
<g id="node10" class="node">
<title>node2810</title>
<polygon fill="none" stroke="#000000" points="1190.0689,-108 1083.0689,-108 1083.0689,-72 1190.0689,-72 1190.0689,-108"/>
<text text-anchor="middle" x="1136.5689" y="-86.9" font-family="Times,serif" font-size="12.00" fill="#000000">oedlmalloc_obj</text>
</g>
<!-- node2763&#45;&gt;node2810 -->
<g id="edge10" class="edge">
<title>node2763&#45;&gt;node2810</title>
<path fill="none" stroke="#000000" d="M1136.5689,-143.8314C1136.5689,-136.131 1136.5689,-126.9743 1136.5689,-118.4166"/>
<polygon fill="#000000" stroke="#000000" points="1140.069,-118.4132 1136.5689,-108.4133 1133.069,-118.4133 1140.069,-118.4132"/>
</g>
<!-- node2810&#45;&gt;node14 -->
<g id="edge11" class="edge">
<title>node2810&#45;&gt;node14</title>
<path fill="none" stroke="#000000" stroke-dasharray="5,2" d="M1190.1956,-75.4297C1236.4106,-62.8732 1302.7534,-44.848 1348.736,-32.3546"/>
<polygon fill="#000000" stroke="#000000" points="1349.7807,-35.6977 1358.5131,-29.6982 1347.9453,-28.9426 1349.7807,-35.6977"/>
</g>
<!-- node2810&#45;&gt;node2850 -->
<g id="edge12" class="edge">
<title>node2810&#45;&gt;node2850</title>
<path fill="none" stroke="#000000" stroke-dasharray="5,2" d="M1094.4278,-71.8314C1072.0925,-62.2018 1044.4753,-50.295 1020.8979,-40.1299"/>
<polygon fill="#000000" stroke="#000000" points="1021.9756,-36.7831 1011.407,-36.038 1019.2042,-43.2112 1021.9756,-36.7831"/>
</g>
<!-- node2923&#45;&gt;node2763 -->
<g id="edge16" class="edge">
<title>node2923&#45;&gt;node2763</title>
<path fill="none" stroke="#000000" d="M829.6276,-226.4308C893.5958,-213.0031 1026.5854,-185.0869 1094.5727,-170.8155"/>
<polygon fill="#000000" stroke="#000000" points="1095.4433,-174.2091 1104.511,-168.7294 1094.0052,-167.3584 1095.4433,-174.2091"/>
</g>
<!-- node2923&#45;&gt;node2850 -->
<g id="edge17" class="edge">
<title>node2923&#45;&gt;node2850</title>
<path fill="none" stroke="#000000" stroke-dasharray="5,2" d="M801.6641,-218.0467C817.6386,-187.5123 855.5153,-119.6153 899.5689,-72 909.6342,-61.121 922.0657,-50.766 933.6464,-42.0876"/>
<polygon fill="#000000" stroke="#000000" points="935.8651,-44.8014 941.8825,-36.0812 931.7405,-39.1457 935.8651,-44.8014"/>
</g>
<!-- node2764&#45;&gt;node2763 -->
<g id="edge19" class="edge">
<title>node2764&#45;&gt;node2763</title>
<path fill="none" stroke="#000000" d="M978.0267,-656.4011C1076.62,-632.4395 1312.3865,-559.7591 1407.5689,-396 1471.2583,-286.4239 1261.5908,-202.9572 1173.5979,-173.5184"/>
<polygon fill="#000000" stroke="#000000" points="1174.582,-170.1576 1163.989,-170.357 1172.3943,-176.807 1174.582,-170.1576"/>
</g>
<!-- node2749&#45;&gt;node2904 -->
<g id="edge21" class="edge">
<title>node2749&#45;&gt;node2904</title>
<path fill="none" stroke="#000000" d="M717.9855,-648.2785C720.0309,-621.118 723.5689,-567.5537 723.5689,-522 723.5689,-522 723.5689,-522 723.5689,-450 723.5689,-406.5807 728.149,-387.719 761.5689,-360 819.6759,-311.8052 854.4701,-342.8606 927.5689,-324 935.6543,-321.9138 944.287,-319.4599 952.4114,-317.0464"/>
<polygon fill="#000000" stroke="#000000" points="953.4379,-320.3926 961.9983,-314.1499 951.4134,-313.6917 953.4379,-320.3926"/>
</g>
<!-- node1006 -->
<g id="node16" class="node">
<title>node1006</title>
<polygon fill="none" stroke="#000000" points="583.427,-743.5623 483.5689,-756 383.7109,-743.5623 383.8041,-723.4377 583.3338,-723.4377 583.427,-743.5623"/>
<text text-anchor="middle" x="483.5689" y="-734.9" font-family="Times,serif" font-size="12.00" fill="#000000">ecall_conflict_enc2</text>
</g>
<!-- node1006&#45;&gt;node2780 -->
<g id="edge23" class="edge">
<title>node1006&#45;&gt;node2780</title>
<path fill="none" stroke="#000000" d="M492.8777,-723.4297C498.8256,-714.12 506.694,-701.8042 513.6187,-690.9655"/>
<polygon fill="#000000" stroke="#000000" points="516.7161,-692.6183 519.1506,-682.307 510.8172,-688.8496 516.7161,-692.6183"/>
</g>
<!-- node1006&#45;&gt;node2904 -->
<g id="edge26" class="edge">
<title>node1006&#45;&gt;node2904</title>
<path fill="none" stroke="#000000" d="M456.3828,-723.3132C442.2911,-714.0771 426.4223,-700.7342 418.5689,-684 411.7715,-669.5157 414.3932,-663.4455 418.5689,-648 428.2373,-612.2374 435.6595,-603.4219 460.5689,-576 478.9808,-555.731 488.9072,-556.751 510.5689,-540 609.6941,-463.3467 614.1401,-413.2488 727.5689,-360 806.1601,-323.1056 834.8803,-343.1212 919.5689,-324 929.7539,-321.7004 940.7208,-318.929 950.8111,-316.2576"/>
<polygon fill="#000000" stroke="#000000" points="951.7991,-319.6163 960.5479,-313.6405 949.9821,-312.8562 951.7991,-319.6163"/>
</g>
<!-- node1006&#45;&gt;node2764 -->
<g id="edge24" class="edge">
<title>node1006&#45;&gt;node2764</title>
<path fill="none" stroke="#000000" d="M570.7967,-723.3963C577.8235,-722.24 584.8142,-721.0961 591.5689,-720 689.2053,-704.1558 802.6281,-686.3691 871.2022,-675.6836"/>
<polygon fill="#000000" stroke="#000000" points="872.0579,-679.0926 881.4001,-674.0953 870.9806,-672.176 872.0579,-679.0926"/>
</g>
<!-- node1006&#45;&gt;node2749 -->
<g id="edge25" class="edge">
<title>node1006&#45;&gt;node2749</title>
<path fill="none" stroke="#000000" d="M530.72,-723.4297C573.2247,-710.2952 635.0936,-691.1769 675.5818,-678.6655"/>
<polygon fill="#000000" stroke="#000000" points="676.6171,-682.009 685.1379,-675.7126 674.5503,-675.321 676.6171,-682.009"/>
</g>
<!-- node1607 -->
<g id="node17" class="node">
<title>node1607</title>
<polygon fill="none" stroke="#000000" points="1581.3981,-743.5623 1552.5689,-756 1523.7397,-743.5623 1523.7666,-723.4377 1581.3712,-723.4377 1581.3981,-743.5623"/>
<text text-anchor="middle" x="1552.5689" y="-734.9" font-family="Times,serif" font-size="12.00" fill="#000000">enc</text>
</g>
<!-- node1607&#45;&gt;node2780 -->
<g id="edge27" class="edge">
<title>node1607&#45;&gt;node2780</title>
<path fill="none" stroke="#000000" d="M1524.8134,-723.3226C1521.4332,-721.9961 1517.971,-720.8389 1514.5689,-720 1325.8356,-673.4595 833.9659,-703.5929 640.5689,-684 623.7603,-682.2971 605.6315,-679.6886 588.9957,-676.9814"/>
<polygon fill="#000000" stroke="#000000" points="589.2953,-673.4831 578.8557,-675.2902 588.1436,-680.3877 589.2953,-673.4831"/>
</g>
<!-- node1607&#45;&gt;node2904 -->
<g id="edge30" class="edge">
<title>node1607&#45;&gt;node2904</title>
<path fill="none" stroke="#000000" d="M1529.6791,-723.3215C1459.565,-677.981 1242.5748,-534.828 1078.5689,-396 1064.322,-383.9402 1029.581,-348.9463 1007.3818,-326.3148"/>
<polygon fill="#000000" stroke="#000000" points="1009.8786,-323.862 1000.3819,-319.1648 1004.8765,-328.759 1009.8786,-323.862"/>
</g>
<!-- node1607&#45;&gt;node2764 -->
<g id="edge28" class="edge">
<title>node1607&#45;&gt;node2764</title>
<path fill="none" stroke="#000000" d="M1524.3485,-723.3193C1521.1107,-722.0315 1517.8084,-720.884 1514.5689,-720 1343.6503,-673.358 1293.9556,-700.6248 1117.5689,-684 1080.7904,-680.5336 1039.8907,-676.5457 1006.0094,-673.206"/>
<polygon fill="#000000" stroke="#000000" points="1006.0276,-669.6909 995.7322,-672.1917 1005.34,-676.6571 1006.0276,-669.6909"/>
</g>
<!-- node1607&#45;&gt;node2749 -->
<g id="edge29" class="edge">
<title>node1607&#45;&gt;node2749</title>
<path fill="none" stroke="#000000" d="M1524.8038,-723.361C1521.4253,-722.0276 1517.9661,-720.8583 1514.5689,-720 1219.4229,-645.429 1133.3261,-715.7821 830.5689,-684 809.5269,-681.7911 786.448,-678.342 766.5925,-675.0516"/>
<polygon fill="#000000" stroke="#000000" points="766.9743,-671.5666 756.5311,-673.3528 765.8088,-678.4689 766.9743,-671.5666"/>
</g>
<!-- node1608 -->
<g id="node18" class="node">
<title>node1608</title>
<polygon fill="none" stroke="#000000" points="149.2068,-743.5623 74.5689,-756 -.069,-743.5623 .0007,-723.4377 149.1372,-723.4377 149.2068,-743.5623"/>
<text text-anchor="middle" x="74.5689" y="-734.9" font-family="Times,serif" font-size="12.00" fill="#000000">enc_unsigned</text>
</g>
<!-- node1608&#45;&gt;node2780 -->
<g id="edge31" class="edge">
<title>node1608&#45;&gt;node2780</title>
<path fill="none" stroke="#000000" d="M139.7277,-723.422C145.7487,-722.2101 151.7651,-721.0493 157.5689,-720 262.144,-701.0939 384.1977,-684.3906 459.1807,-674.7375"/>
<polygon fill="#000000" stroke="#000000" points="459.968,-678.1653 469.442,-673.4227 459.0782,-671.2221 459.968,-678.1653"/>
</g>
<!-- node1608&#45;&gt;node2904 -->
<g id="edge34" class="edge">
<title>node1608&#45;&gt;node2904</title>
<path fill="none" stroke="#000000" d="M112.0127,-723.3808C158.7355,-702.3919 232.5689,-658.9492 232.5689,-594 232.5689,-594 232.5689,-594 232.5689,-522 232.5689,-481.1184 223.3901,-461.6186 251.5689,-432 355.2173,-323.0561 771.4891,-350.1558 919.5689,-324 930.1217,-322.136 941.4297,-319.435 951.7352,-316.6898"/>
<polygon fill="#000000" stroke="#000000" points="952.931,-319.9908 961.6414,-313.9592 951.0709,-313.2424 952.931,-319.9908"/>
</g>
<!-- node1608&#45;&gt;node2764 -->
<g id="edge32" class="edge">
<title>node1608&#45;&gt;node2764</title>
<path fill="none" stroke="#000000" d="M136.9249,-723.3788C143.8628,-722.0799 150.8482,-720.9135 157.5689,-720 437.6687,-681.9276 511.0838,-709.9139 792.5689,-684 817.834,-681.6741 845.5477,-678.3131 869.6682,-675.1237"/>
<polygon fill="#000000" stroke="#000000" points="870.3212,-678.5676 879.768,-673.7708 869.3918,-671.6295 870.3212,-678.5676"/>
</g>
<!-- node1608&#45;&gt;node2749 -->
<g id="edge33" class="edge">
<title>node1608&#45;&gt;node2749</title>
<path fill="none" stroke="#000000" d="M137.3942,-723.4132C144.1799,-722.1255 151.0025,-720.952 157.5689,-720 370.6037,-689.1138 427.8371,-716.9082 640.5689,-684 651.2314,-682.3506 662.608,-679.9875 673.2247,-677.5138"/>
<polygon fill="#000000" stroke="#000000" points="674.2212,-680.8739 683.1226,-675.1279 672.5808,-674.0689 674.2212,-680.8739"/>
</g>
<!-- node109 -->
<g id="node19" class="node">
<title>node109</title>
<polygon fill="none" stroke="#000000" points="1911.9221,-167.5623 1864.5689,-180 1817.2157,-167.5623 1817.2599,-147.4377 1911.8779,-147.4377 1911.9221,-167.5623"/>
<text text-anchor="middle" x="1864.5689" y="-158.9" font-family="Times,serif" font-size="12.00" fill="#000000">logging</text>
</g>
<!-- node39 -->
<g id="node20" class="node">
<title>node39</title>
<polygon fill="none" stroke="#000000" points="1820.5689,-108 1772.0637,-90 1820.5689,-72 1869.0742,-90 1820.5689,-108"/>
<text text-anchor="middle" x="1820.5689" y="-86.9" font-family="Times,serif" font-size="12.00" fill="#000000">oehost</text>
</g>
<!-- node109&#45;&gt;node39 -->
<g id="edge35" class="edge">
<title>node109&#45;&gt;node39</title>
<path fill="none" stroke="#000000" d="M1855.6649,-147.4297C1849.7402,-137.7348 1841.8232,-124.7798 1835.0082,-113.628"/>
<polygon fill="#000000" stroke="#000000" points="1837.8118,-111.5035 1829.6108,-104.7957 1831.8388,-115.1537 1837.8118,-111.5035"/>
</g>
<!-- node39&#45;&gt;node14 -->
<g id="edge36" class="edge">
<title>node39&#45;&gt;node14</title>
<path fill="none" stroke="#000000" d="M1795.3936,-81.2398C1785.2874,-77.9729 1773.4698,-74.4634 1762.5689,-72 1653.5019,-47.3525 1624.106,-52.872 1513.5689,-36 1494.3499,-33.0665 1473.2986,-29.7187 1454.6861,-26.7125"/>
<polygon fill="#000000" stroke="#000000" points="1455.055,-23.2267 1444.6239,-25.0823 1453.9354,-30.1366 1455.055,-23.2267"/>
</g>
<!-- node3015 -->
<g id="node21" class="node">
<title>node3015</title>
<polygon fill="none" stroke="#000000" points="1942.5689,-36 1864.5689,-36 1864.5689,0 1942.5689,0 1942.5689,-36"/>
<text text-anchor="middle" x="1903.5689" y="-14.9" font-family="Times,serif" font-size="12.00" fill="#000000">oedebugrt</text>
</g>
<!-- node39&#45;&gt;node3015 -->
<g id="edge37" class="edge">
<title>node39&#45;&gt;node3015</title>
<path fill="none" stroke="#000000" stroke-dasharray="5,2" d="M1835.4077,-77.1278C1846.3996,-67.5927 1861.7189,-54.3036 1875.0507,-42.7387"/>
<polygon fill="#000000" stroke="#000000" points="1877.3624,-45.3668 1882.6228,-36.1701 1872.7755,-40.079 1877.3624,-45.3668"/>
</g>
<!-- node3036 -->
<g id="node22" class="node">
<title>node3036</title>
<ellipse fill="none" stroke="#000000" cx="1607.5689" cy="-18" rx="84.902" ry="18"/>
<text text-anchor="middle" x="1607.5689" y="-14.9" font-family="Times,serif" font-size="12.00" fill="#000000">openenclave::crypto</text>
</g>
<!-- node39&#45;&gt;node3036 -->
<g id="edge38" class="edge">
<title>node39&#45;&gt;node3036</title>
<path fill="none" stroke="#000000" stroke-dasharray="5,2" d="M1794.8761,-81.3151C1762.233,-70.2808 1705.0191,-50.9409 1662.3884,-36.5305"/>
<polygon fill="#000000" stroke="#000000" points="1663.3045,-33.1457 1652.7102,-33.259 1661.0628,-39.7771 1663.3045,-33.1457"/>
</g>
<!-- node3037 -->
<g id="node23" class="node">
<title>node3037</title>
<ellipse fill="none" stroke="#000000" cx="1778.5689" cy="-18" rx="67.9298" ry="18"/>
<text text-anchor="middle" x="1778.5689" y="-14.9" font-family="Times,serif" font-size="12.00" fill="#000000">openenclave::dl</text>
</g>
<!-- node39&#45;&gt;node3037 -->
<g id="edge39" class="edge">
<title>node39&#45;&gt;node3037</title>
<path fill="none" stroke="#000000" stroke-dasharray="5,2" d="M1811.8665,-75.0816C1806.7374,-66.2888 1800.0971,-54.9054 1794.0973,-44.6201"/>
<polygon fill="#000000" stroke="#000000" points="1797.1057,-42.8311 1789.0437,-35.9568 1791.0593,-46.3582 1797.1057,-42.8311"/>
</g>
<!-- node146 -->
<g id="node24" class="node">
<title>node146</title>
<polygon fill="none" stroke="#000000" points="1799.2693,-167.5623 1757.5689,-180 1715.8686,-167.5623 1715.9075,-147.4377 1799.2304,-147.4377 1799.2693,-167.5623"/>
<text text-anchor="middle" x="1757.5689" y="-158.9" font-family="Times,serif" font-size="12.00" fill="#000000">oecert</text>
</g>
<!-- node146&#45;&gt;node39 -->
<g id="edge40" class="edge">
<title>node146&#45;&gt;node39</title>
<path fill="none" stroke="#000000" d="M1770.3179,-147.4297C1779.3156,-137.1467 1791.5224,-123.196 1801.6518,-111.6195"/>
<polygon fill="#000000" stroke="#000000" points="1804.3166,-113.8892 1808.2677,-104.0586 1799.0485,-109.2796 1804.3166,-113.8892"/>
</g>
<!-- node177 -->
<g id="node25" class="node">
<title>node177</title>
<polygon fill="none" stroke="#000000" points="2065.5112,-167.5623 1997.5689,-180 1929.6267,-167.5623 1929.6901,-147.4377 2065.4477,-147.4377 2065.5112,-167.5623"/>
<text text-anchor="middle" x="1997.5689" y="-158.9" font-family="Times,serif" font-size="12.00" fill="#000000">oecertdump</text>
</g>
<!-- node177&#45;&gt;node39 -->
<g id="edge42" class="edge">
<title>node177&#45;&gt;node39</title>
<path fill="none" stroke="#000000" d="M1961.7503,-147.4297C1930.0299,-134.5265 1884.1129,-115.8484 1853.3449,-103.3326"/>
<polygon fill="#000000" stroke="#000000" points="1854.5066,-100.0267 1843.9248,-99.5007 1851.8689,-106.5108 1854.5066,-100.0267"/>
</g>
<!-- node3038 -->
<g id="node26" class="node">
<title>node3038</title>
<ellipse fill="none" stroke="#000000" cx="1997.5689" cy="-90" rx="64.7736" ry="18"/>
<text text-anchor="middle" x="1997.5689" y="-86.9" font-family="Times,serif" font-size="12.00" fill="#000000">OpenSSL::SSL</text>
</g>
<!-- node177&#45;&gt;node3038 -->
<g id="edge41" class="edge">
<title>node177&#45;&gt;node3038</title>
<path fill="none" stroke="#000000" d="M1997.5689,-147.4297C1997.5689,-139.1011 1997.5689,-128.3665 1997.5689,-118.436"/>
<polygon fill="#000000" stroke="#000000" points="2001.069,-118.1279 1997.5689,-108.128 1994.069,-118.128 2001.069,-118.1279"/>
</g>
<!-- node1682 -->
<g id="node27" class="node">
<title>node1682</title>
<polygon fill="none" stroke="#000000" points="1136.5689,-396 1088.0637,-378 1136.5689,-360 1185.0742,-378 1136.5689,-396"/>
<text text-anchor="middle" x="1136.5689" y="-374.9" font-family="Times,serif" font-size="12.00" fill="#000000">oecpio</text>
</g>
<!-- node1682&#45;&gt;node2904 -->
<g id="edge44" class="edge">
<title>node1682&#45;&gt;node2904</title>
<path fill="none" stroke="#000000" stroke-dasharray="5,2" d="M1115.2209,-367.6842C1089.6281,-355.3172 1046.5739,-334.5124 1017.6272,-320.5248"/>
<polygon fill="#000000" stroke="#000000" points="1018.9237,-317.2641 1008.397,-316.0646 1015.8781,-323.5669 1018.9237,-317.2641"/>
</g>
<!-- node1682&#45;&gt;node2763 -->
<g id="edge43" class="edge">
<title>node1682&#45;&gt;node2763</title>
<path fill="none" stroke="#000000" stroke-dasharray="5,2" d="M1136.5689,-359.9555C1136.5689,-322.3938 1136.5689,-235.5541 1136.5689,-190.4103"/>
<polygon fill="#000000" stroke="#000000" points="1140.069,-190.145 1136.5689,-180.1451 1133.069,-190.1451 1140.069,-190.145"/>
</g>
<!-- node2792 -->
<g id="node28" class="node">
<title>node2792</title>
<polygon fill="none" stroke="#000000" points="1515.5689,-612 1415.3373,-594 1515.5689,-576 1615.8005,-594 1515.5689,-612"/>
<text text-anchor="middle" x="1515.5689" y="-590.9" font-family="Times,serif" font-size="12.00" fill="#000000">oecryptoopenssl</text>
</g>
<!-- node2893 -->
<g id="node29" class="node">
<title>node2893</title>
<polygon fill="none" stroke="#000000" points="1546.5689,-540 1484.5689,-540 1484.5689,-504 1546.5689,-504 1546.5689,-540"/>
<text text-anchor="middle" x="1515.5689" y="-518.9" font-family="Times,serif" font-size="12.00" fill="#000000">openssl</text>
</g>
<!-- node2792&#45;&gt;node2893 -->
<g id="edge45" class="edge">
<title>node2792&#45;&gt;node2893</title>
<path fill="none" stroke="#000000" d="M1515.5689,-575.8314C1515.5689,-568.131 1515.5689,-558.9743 1515.5689,-550.4166"/>
<polygon fill="#000000" stroke="#000000" points="1519.069,-550.4132 1515.5689,-540.4133 1512.069,-550.4133 1519.069,-550.4132"/>
</g>
<!-- node2887 -->
<g id="node30" class="node">
<title>node2887</title>
<polygon fill="none" stroke="#000000" points="1542.5689,-396 1454.7134,-378 1542.5689,-360 1630.4244,-378 1542.5689,-396"/>
<text text-anchor="middle" x="1542.5689" y="-374.9" font-family="Times,serif" font-size="12.00" fill="#000000">opensslcrypto</text>
</g>
<!-- node2893&#45;&gt;node2887 -->
<g id="edge46" class="edge">
<title>node2893&#45;&gt;node2887</title>
<path fill="none" stroke="#000000" stroke-dasharray="1,5" d="M1508.9886,-503.9987C1503.2425,-485.5295 1496.9197,-456.1615 1504.5689,-432 1508.0824,-420.902 1514.7876,-410.1118 1521.5997,-401.1314"/>
<polygon fill="#000000" stroke="#000000" points="1524.5049,-403.1045 1528.0628,-393.1249 1519.0581,-398.7076 1524.5049,-403.1045"/>
</g>
<!-- node2882 -->
<g id="node31" class="node">
<title>node2882</title>
<polygon fill="none" stroke="#000000" points="1580.5689,-468 1513.5009,-450 1580.5689,-432 1647.637,-450 1580.5689,-468"/>
<text text-anchor="middle" x="1580.5689" y="-446.9" font-family="Times,serif" font-size="12.00" fill="#000000">opensslssl</text>
</g>
<!-- node2893&#45;&gt;node2882 -->
<g id="edge49" class="edge">
<title>node2893&#45;&gt;node2882</title>
<path fill="none" stroke="#000000" stroke-dasharray="1,5" d="M1531.9712,-503.8314C1540.6365,-494.2329 1551.3444,-482.3718 1560.5017,-472.2284"/>
<polygon fill="#000000" stroke="#000000" points="1563.3414,-474.3059 1567.4445,-464.5378 1558.1455,-469.6151 1563.3414,-474.3059"/>
</g>
<!-- node2887&#45;&gt;node14 -->
<g id="edge47" class="edge">
<title>node2887&#45;&gt;node14</title>
<path fill="none" stroke="#000000" d="M1519.3345,-364.7231C1483.9373,-342.5644 1420.5689,-294.4534 1420.5689,-234 1420.5689,-234 1420.5689,-234 1420.5689,-162 1420.5689,-121.5282 1413.101,-75.2037 1407.5289,-46.2725"/>
<polygon fill="#000000" stroke="#000000" points="1410.8866,-45.2111 1405.5057,-36.0844 1404.0206,-46.5746 1410.8866,-45.2111"/>
</g>
<!-- node2887&#45;&gt;node2904 -->
<g id="edge48" class="edge">
<title>node2887&#45;&gt;node2904</title>
<path fill="none" stroke="#000000" d="M1489.3582,-370.8468C1464.5113,-367.5216 1434.5304,-363.5306 1407.5689,-360 1271.2878,-342.1538 1110.0573,-321.5735 1033.002,-311.7706"/>
<polygon fill="#000000" stroke="#000000" points="1033.0609,-308.25 1022.6992,-310.4603 1032.1777,-315.1941 1033.0609,-308.25"/>
</g>
<!-- node2882&#45;&gt;node2887 -->
<g id="edge50" class="edge">
<title>node2882&#45;&gt;node2887</title>
<path fill="none" stroke="#000000" d="M1572.1355,-434.0209C1567.3811,-425.0126 1561.3325,-413.552 1555.9463,-403.3466"/>
<polygon fill="#000000" stroke="#000000" points="1559.0052,-401.6438 1551.2422,-394.4336 1552.8145,-404.9112 1559.0052,-401.6438"/>
</g>
<!-- node2974 -->
<g id="node32" class="node">
<title>node2974</title>
<polygon fill="none" stroke="#000000" points="473.5689,-324 398.8304,-306 473.5689,-288 548.3075,-306 473.5689,-324"/>
<text text-anchor="middle" x="473.5689" y="-302.9" font-family="Times,serif" font-size="12.00" fill="#000000">oehostepoll</text>
</g>
<!-- node2974&#45;&gt;node2923 -->
<g id="edge51" class="edge">
<title>node2974&#45;&gt;node2923</title>
<path fill="none" stroke="#000000" stroke-dasharray="5,2" d="M512.4873,-297.2434C571.9703,-283.8597 685.222,-258.378 748.2966,-244.1863"/>
<polygon fill="#000000" stroke="#000000" points="749.3584,-247.5349 758.3462,-241.9251 747.8218,-240.7057 749.3584,-247.5349"/>
</g>
<!-- node2944 -->
<g id="node33" class="node">
<title>node2944</title>
<polygon fill="none" stroke="#000000" points="624.5689,-324 566.4118,-306 624.5689,-288 682.726,-306 624.5689,-324"/>
<text text-anchor="middle" x="624.5689" y="-302.9" font-family="Times,serif" font-size="12.00" fill="#000000">oehostfs</text>
</g>
<!-- node2944&#45;&gt;node2923 -->
<g id="edge52" class="edge">
<title>node2944&#45;&gt;node2923</title>
<path fill="none" stroke="#000000" stroke-dasharray="5,2" d="M649.143,-295.5306C678.0144,-283.2303 726.1155,-262.7375 758.8024,-248.8118"/>
<polygon fill="#000000" stroke="#000000" points="760.5853,-251.8566 768.4134,-244.7172 757.8417,-245.4167 760.5853,-251.8566"/>
</g>
<!-- node30 -->
<g id="node34" class="node">
<title>node30</title>
<polygon fill="none" stroke="#000000" points="1512.5689,-108 1448.2242,-90 1512.5689,-72 1576.9136,-90 1512.5689,-108"/>
<text text-anchor="middle" x="1512.5689" y="-86.9" font-family="Times,serif" font-size="12.00" fill="#000000">oehostmr</text>
</g>
<!-- node30&#45;&gt;node14 -->
<g id="edge53" class="edge">
<title>node30&#45;&gt;node14</title>
<path fill="none" stroke="#000000" d="M1492.9799,-77.2936C1477.8969,-67.51 1456.6126,-53.704 1438.3768,-41.8754"/>
<polygon fill="#000000" stroke="#000000" points="1440.0044,-38.7593 1429.7101,-36.2537 1436.195,-44.632 1440.0044,-38.7593"/>
</g>
<!-- node30&#45;&gt;node3036 -->
<g id="edge54" class="edge">
<title>node30&#45;&gt;node3036</title>
<path fill="none" stroke="#000000" stroke-dasharray="5,2" d="M1529.9934,-76.7941C1542.9195,-66.9975 1560.8934,-53.3751 1576.2857,-41.7094"/>
<polygon fill="#000000" stroke="#000000" points="1578.6672,-44.2961 1584.5228,-35.4665 1574.439,-38.7173 1578.6672,-44.2961"/>
</g>
<!-- node2954 -->
<g id="node35" class="node">
<title>node2954</title>
<polygon fill="none" stroke="#000000" points="793.5689,-324 701.5072,-306 793.5689,-288 885.6306,-306 793.5689,-324"/>
<text text-anchor="middle" x="793.5689" y="-302.9" font-family="Times,serif" font-size="12.00" fill="#000000">oehostresolver</text>
</g>
<!-- node2954&#45;&gt;node2923 -->
<g id="edge55" class="edge">
<title>node2954&#45;&gt;node2923</title>
<path fill="none" stroke="#000000" stroke-dasharray="5,2" d="M793.5689,-287.8314C793.5689,-280.131 793.5689,-270.9743 793.5689,-262.4166"/>
<polygon fill="#000000" stroke="#000000" points="797.069,-262.4132 793.5689,-252.4133 790.069,-262.4133 797.069,-262.4132"/>
</g>
<!-- node2964 -->
<g id="node36" class="node">
<title>node2964</title>
<polygon fill="none" stroke="#000000" points="307.5689,-324 234.3127,-306 307.5689,-288 380.8252,-306 307.5689,-324"/>
<text text-anchor="middle" x="307.5689" y="-302.9" font-family="Times,serif" font-size="12.00" fill="#000000">oehostsock</text>
</g>
<!-- node2964&#45;&gt;node2923 -->
<g id="edge56" class="edge">
<title>node2964&#45;&gt;node2923</title>
<path fill="none" stroke="#000000" stroke-dasharray="5,2" d="M344.9947,-297.0973C358.9365,-293.9625 374.9281,-290.5808 389.5689,-288 513.4527,-266.1627 660.0947,-248.6144 738.1507,-239.9285"/>
<polygon fill="#000000" stroke="#000000" points="738.6867,-243.3907 748.2413,-238.8126 737.9172,-236.4331 738.6867,-243.3907"/>
</g>
<!-- node40 -->
<g id="node37" class="node">
<title>node40</title>
<polygon fill="none" stroke="#000000" points="1674.5689,-108 1595.1243,-90 1674.5689,-72 1754.0136,-90 1674.5689,-108"/>
<text text-anchor="middle" x="1674.5689" y="-86.9" font-family="Times,serif" font-size="12.00" fill="#000000">oehostverify</text>
</g>
<!-- node40&#45;&gt;node14 -->
<g id="edge57" class="edge">
<title>node40&#45;&gt;node14</title>
<path fill="none" stroke="#000000" d="M1637.7509,-80.2898C1590.6182,-67.8591 1508.6208,-46.2335 1454.7192,-32.0177"/>
<polygon fill="#000000" stroke="#000000" points="1455.5582,-28.6193 1444.9963,-29.4534 1453.7731,-35.3879 1455.5582,-28.6193"/>
</g>
<!-- node40&#45;&gt;node3036 -->
<g id="edge58" class="edge">
<title>node40&#45;&gt;node3036</title>
<path fill="none" stroke="#000000" stroke-dasharray="5,2" d="M1660.6865,-75.0816C1652.112,-65.8672 1640.8902,-53.8079 1630.9712,-43.1487"/>
<polygon fill="#000000" stroke="#000000" points="1633.41,-40.6317 1624.0354,-35.6953 1628.2855,-45.4003 1633.41,-40.6317"/>
</g>
<!-- node40&#45;&gt;node3037 -->
<g id="edge59" class="edge">
<title>node40&#45;&gt;node3037</title>
<path fill="none" stroke="#000000" stroke-dasharray="5,2" d="M1694.6212,-76.1177C1709.0972,-66.0958 1728.9665,-52.3401 1745.7408,-40.7272"/>
<polygon fill="#000000" stroke="#000000" points="1747.9559,-43.4506 1754.1855,-34.8808 1743.9714,-37.6953 1747.9559,-43.4506"/>
</g>
<!-- node2914 -->
<g id="node38" class="node">
<title>node2914</title>
<polygon fill="none" stroke="#000000" points="1004.5689,-468 947.1535,-450 1004.5689,-432 1061.9844,-450 1004.5689,-468"/>
<text text-anchor="middle" x="1004.5689" y="-446.9" font-family="Times,serif" font-size="12.00" fill="#000000">oelibcxx</text>
</g>
<!-- node2823 -->
<g id="node39" class="node">
<title>node2823</title>
<polygon fill="none" stroke="#000000" points="1031.5689,-396 977.5689,-396 977.5689,-360 1031.5689,-360 1031.5689,-396"/>
<text text-anchor="middle" x="1004.5689" y="-374.9" font-family="Times,serif" font-size="12.00" fill="#000000">libcxx</text>
</g>
<!-- node2914&#45;&gt;node2823 -->
<g id="edge60" class="edge">
<title>node2914&#45;&gt;node2823</title>
<path fill="none" stroke="#000000" d="M1004.5689,-431.8314C1004.5689,-424.131 1004.5689,-414.9743 1004.5689,-406.4166"/>
<polygon fill="#000000" stroke="#000000" points="1008.069,-406.4132 1004.5689,-396.4133 1001.069,-406.4133 1008.069,-406.4132"/>
</g>
<!-- node2830 -->
<g id="node40" class="node">
<title>node2830</title>
<polygon fill="none" stroke="#000000" points="865.5689,-396 803.5689,-396 803.5689,-360 865.5689,-360 865.5689,-396"/>
<text text-anchor="middle" x="834.5689" y="-374.9" font-family="Times,serif" font-size="12.00" fill="#000000">libcxxrt</text>
</g>
<!-- node2914&#45;&gt;node2830 -->
<g id="edge62" class="edge">
<title>node2914&#45;&gt;node2830</title>
<path fill="none" stroke="#000000" d="M979.0681,-439.6639C954.6372,-429.7057 916.525,-414.0263 875.361,-396.2932"/>
<polygon fill="#000000" stroke="#000000" points="876.5415,-392.9905 865.9735,-392.2361 873.7644,-399.4161 876.5415,-392.9905"/>
</g>
<!-- node2840 -->
<g id="node41" class="node">
<title>node2840</title>
<polygon fill="none" stroke="#000000" points="959.5689,-396 883.5689,-396 883.5689,-360 959.5689,-360 959.5689,-396"/>
<text text-anchor="middle" x="921.5689" y="-374.9" font-family="Times,serif" font-size="12.00" fill="#000000">libunwind</text>
</g>
<!-- node2914&#45;&gt;node2840 -->
<g id="edge64" class="edge">
<title>node2914&#45;&gt;node2840</title>
<path fill="none" stroke="#000000" d="M988.9573,-436.4574C978.0686,-427.0118 963.2211,-414.132 950.2337,-402.8658"/>
<polygon fill="#000000" stroke="#000000" points="952.287,-400.0137 942.4397,-396.1047 947.7001,-405.3014 952.287,-400.0137"/>
</g>
<!-- node2823&#45;&gt;node2904 -->
<g id="edge61" class="edge">
<title>node2823&#45;&gt;node2904</title>
<path fill="none" stroke="#000000" d="M1000.2791,-359.8314C998.3561,-351.687 996.0486,-341.9137 993.9305,-332.9429"/>
<polygon fill="#000000" stroke="#000000" points="997.2698,-331.8544 991.5654,-322.9263 990.4571,-333.463 997.2698,-331.8544"/>
</g>
<!-- node2830&#45;&gt;node2904 -->
<g id="edge63" class="edge">
<title>node2830&#45;&gt;node2904</title>
<path fill="none" stroke="#000000" d="M865.9,-363.256C892.6851,-350.6512 930.9803,-332.6299 957.4196,-320.1879"/>
<polygon fill="#000000" stroke="#000000" points="959.0228,-323.3017 966.5807,-315.8768 956.0422,-316.968 959.0228,-323.3017"/>
</g>
<!-- node2840&#45;&gt;node2904 -->
<g id="edge65" class="edge">
<title>node2840&#45;&gt;node2904</title>
<path fill="none" stroke="#000000" d="M938.2235,-359.8314C947.3527,-349.8723 958.7147,-337.4774 968.2341,-327.0926"/>
<polygon fill="#000000" stroke="#000000" points="970.9097,-329.3533 975.0869,-319.6167 965.7496,-324.6232 970.9097,-329.3533"/>
</g>
<!-- node2719 -->
<g id="node42" class="node">
<title>node2719</title>
<polygon fill="none" stroke="#000000" points="1677.1824,-743.5623 1638.5689,-756 1599.9554,-743.5623 1599.9914,-723.4377 1677.1464,-723.4377 1677.1824,-743.5623"/>
<text text-anchor="middle" x="1638.5689" y="-734.9" font-family="Times,serif" font-size="12.00" fill="#000000">oesgx</text>
</g>
<!-- node2729 -->
<g id="node43" class="node">
<title>node2729</title>
<polygon fill="none" stroke="#000000" points="1555.2908,-167.5623 1512.5689,-180 1469.847,-167.5623 1469.8869,-147.4377 1555.251,-147.4377 1555.2908,-167.5623"/>
<text text-anchor="middle" x="1512.5689" y="-158.9" font-family="Times,serif" font-size="12.00" fill="#000000">oesign</text>
</g>
<!-- node2729&#45;&gt;node30 -->
<g id="edge66" class="edge">
<title>node2729&#45;&gt;node30</title>
<path fill="none" stroke="#000000" d="M1512.5689,-147.4297C1512.5689,-139.1011 1512.5689,-128.3665 1512.5689,-118.436"/>
<polygon fill="#000000" stroke="#000000" points="1516.069,-118.1279 1512.5689,-108.128 1509.069,-118.128 1516.069,-118.1279"/>
</g>
<!-- node252 -->
<g id="node44" class="node">
<title>node252</title>
<polygon fill="none" stroke="#000000" points="1824.0689,-756 1695.0689,-756 1695.0689,-720 1824.0689,-720 1824.0689,-756"/>
<text text-anchor="middle" x="1759.5689" y="-734.9" font-family="Times,serif" font-size="12.00" fill="#000000">oesign_test_engine</text>
</g>
<!-- node2877 -->
<g id="node45" class="node">
<title>node2877</title>
<polygon fill="none" stroke="#000000" points="1915.5689,-756 1841.5718,-738 1915.5689,-720 1989.5661,-738 1915.5689,-756"/>
<text text-anchor="middle" x="1915.5689" y="-734.9" font-family="Times,serif" font-size="12.00" fill="#000000">oesnmalloc</text>
</g>
<!-- node2875 -->
<g id="node46" class="node">
<title>node2875</title>
<polygon fill="none" stroke="#000000" points="1970.5689,-684 1860.5689,-684 1860.5689,-648 1970.5689,-648 1970.5689,-684"/>
<text text-anchor="middle" x="1915.5689" y="-662.9" font-family="Times,serif" font-size="12.00" fill="#000000">oesnmalloc_obj</text>
</g>
<!-- node2877&#45;&gt;node2875 -->
<g id="edge67" class="edge">
<title>node2877&#45;&gt;node2875</title>
<path fill="none" stroke="#000000" d="M1915.5689,-719.8314C1915.5689,-712.131 1915.5689,-702.9743 1915.5689,-694.4166"/>
<polygon fill="#000000" stroke="#000000" points="1919.069,-694.4132 1915.5689,-684.4133 1912.069,-694.4133 1919.069,-694.4132"/>
</g>
<!-- node2739 -->
<g id="node47" class="node">
<title>node2739</title>
<polygon fill="none" stroke="#000000" points="1697.9869,-167.5623 1648.5689,-180 1599.1509,-167.5623 1599.1971,-147.4377 1697.9408,-147.4377 1697.9869,-167.5623"/>
<text text-anchor="middle" x="1648.5689" y="-158.9" font-family="Times,serif" font-size="12.00" fill="#000000">oeverify</text>
</g>
<!-- node2739&#45;&gt;node40 -->
<g id="edge68" class="edge">
<title>node2739&#45;&gt;node40</title>
<path fill="none" stroke="#000000" d="M1653.8304,-147.4297C1657.0464,-138.5239 1661.2558,-126.867 1665.0414,-116.384"/>
<polygon fill="#000000" stroke="#000000" points="1668.3901,-117.4155 1668.4946,-106.8212 1661.8062,-115.0379 1668.3901,-117.4155"/>
</g>
<!-- node2263 -->
<g id="node48" class="node">
<title>node2263</title>
<polygon fill="none" stroke="#000000" points="1300.5689,-396 1203.0609,-378 1300.5689,-360 1398.0769,-378 1300.5689,-396"/>
<text text-anchor="middle" x="1300.5689" y="-374.9" font-family="Times,serif" font-size="12.00" fill="#000000">openssl&#45;support</text>
</g>
<!-- node2263&#45;&gt;node14 -->
<g id="edge69" class="edge">
<title>node2263&#45;&gt;node14</title>
<path fill="none" stroke="#000000" stroke-dasharray="5,2" d="M1316.3793,-362.7972C1340.2076,-338.1667 1382.5689,-286.9353 1382.5689,-234 1382.5689,-234 1382.5689,-234 1382.5689,-162 1382.5689,-121.5282 1390.0369,-75.2037 1395.6089,-46.2725"/>
<polygon fill="#000000" stroke="#000000" points="1399.1172,-46.5746 1397.6321,-36.0844 1392.2513,-45.2111 1399.1172,-46.5746"/>
</g>
<!-- node2263&#45;&gt;node2904 -->
<g id="edge70" class="edge">
<title>node2263&#45;&gt;node2904</title>
<path fill="none" stroke="#000000" stroke-dasharray="5,2" d="M1257.0476,-367.9887C1195.8813,-353.9185 1085.413,-328.5073 1026.7089,-315.0035"/>
<polygon fill="#000000" stroke="#000000" points="1027.2467,-311.5358 1016.7166,-312.7049 1025.6774,-318.3577 1027.2467,-311.5358"/>
</g>
<!-- node1746 -->
<g id="node49" class="node">
<title>node1746</title>
<polygon fill="none" stroke="#000000" points="2051.5689,-756 2007.2704,-738 2051.5689,-720 2095.8674,-738 2051.5689,-756"/>
<text text-anchor="middle" x="2051.5689" y="-734.9" font-family="Times,serif" font-size="12.00" fill="#000000">rmdir</text>
</g>
<!-- node468 -->
<g id="node50" class="node">
<title>node468</title>
<polygon fill="none" stroke="#000000" points="850.1469,-743.5623 725.5689,-756 600.9909,-743.5623 601.1072,-723.4377 850.0306,-723.4377 850.1469,-743.5623"/>
<text text-anchor="middle" x="725.5689" y="-734.9" font-family="Times,serif" font-size="12.00" fill="#000000">snmalloc_enc_link_error</text>
</g>
<!-- node468&#45;&gt;node2780 -->
<g id="edge71" class="edge">
<title>node468&#45;&gt;node2780</title>
<path fill="none" stroke="#000000" d="M685.9054,-723.4297C652.9192,-711.3124 606.0692,-694.1021 572.2678,-681.6853"/>
<polygon fill="#000000" stroke="#000000" points="573.2588,-678.3207 562.6652,-678.1578 570.845,-684.8914 573.2588,-678.3207"/>
</g>
<!-- node468&#45;&gt;node2904 -->
<g id="edge74" class="edge">
<title>node468&#45;&gt;node2904</title>
<path fill="none" stroke="#000000" d="M753.8747,-723.2651C768.2938,-714.09 784.4579,-700.8211 792.5689,-684 855.1143,-554.2893 707.1826,-474.4571 794.5689,-360 796.9852,-356.8352 894.6799,-330.5723 950.1215,-315.8721"/>
<polygon fill="#000000" stroke="#000000" points="951.1784,-319.213 959.9495,-313.27 949.3867,-312.4461 951.1784,-319.213"/>
</g>
<!-- node468&#45;&gt;node2764 -->
<g id="edge72" class="edge">
<title>node468&#45;&gt;node2764</title>
<path fill="none" stroke="#000000" d="M767.6608,-723.4297C803.2508,-711.1101 854.0487,-693.5262 890.0403,-681.0676"/>
<polygon fill="#000000" stroke="#000000" points="891.4692,-684.2768 899.7742,-677.6982 889.1794,-677.6619 891.4692,-684.2768"/>
</g>
<!-- node468&#45;&gt;node2749 -->
<g id="edge73" class="edge">
<title>node468&#45;&gt;node2749</title>
<path fill="none" stroke="#000000" d="M723.7476,-723.4297C722.6802,-714.8905 721.2967,-703.8221 720.0295,-693.6843"/>
<polygon fill="#000000" stroke="#000000" points="723.4825,-693.0903 718.7691,-683.6017 716.5366,-693.9586 723.4825,-693.0903"/>
</g>
<!-- node2075 -->
<g id="node51" class="node">
<title>node2075</title>
<polygon fill="none" stroke="#000000" points="1222.652,-743.5623 1045.5689,-756 868.4858,-743.5623 868.6511,-723.4377 1222.4867,-723.4377 1222.652,-743.5623"/>
<text text-anchor="middle" x="1045.5689" y="-734.9" font-family="Times,serif" font-size="12.00" fill="#000000">thread_local_enc_exported_stripped</text>
</g>
<!-- node2075&#45;&gt;node2780 -->
<g id="edge75" class="edge">
<title>node2075&#45;&gt;node2780</title>
<path fill="none" stroke="#000000" d="M929.3541,-723.3882C848.3289,-712.9847 737.7589,-698.3567 640.5689,-684 624.8054,-681.6715 607.8102,-678.998 591.971,-676.4362"/>
<polygon fill="#000000" stroke="#000000" points="592.1863,-672.9253 581.7539,-674.7736 591.0619,-679.8344 592.1863,-672.9253"/>
</g>
<!-- node2075&#45;&gt;node2764 -->
<g id="edge76" class="edge">
<title>node2075&#45;&gt;node2764</title>
<path fill="none" stroke="#000000" d="M1022.9041,-723.4297C1005.9085,-712.504 982.4723,-697.4379 963.8684,-685.4782"/>
<polygon fill="#000000" stroke="#000000" points="965.7423,-682.5221 955.4379,-680.0586 961.957,-688.4104 965.7423,-682.5221"/>
</g>
<!-- node2075&#45;&gt;node2749 -->
<g id="edge77" class="edge">
<title>node2075&#45;&gt;node2749</title>
<path fill="none" stroke="#000000" d="M978.9909,-723.4297C915.18,-709.465 820.4611,-688.7363 763.9795,-676.3756"/>
<polygon fill="#000000" stroke="#000000" points="764.4113,-672.8873 753.8942,-674.1685 762.9147,-679.7255 764.4113,-672.8873"/>
</g>
<!-- node2075&#45;&gt;node2914 -->
<g id="edge78" class="edge">
<title>node2075&#45;&gt;node2914</title>
<path fill="none" stroke="#000000" d="M1044.3755,-723.3153C1042.8619,-705.4726 1040.0282,-674.4699 1036.5689,-648 1028.5811,-586.8777 1016.3388,-515.6086 1009.5456,-477.4533"/>
<polygon fill="#000000" stroke="#000000" points="1012.9109,-476.3899 1007.7025,-467.1637 1006.0205,-477.6242 1012.9109,-476.3899"/>
</g>
<!-- node2073 -->
<g id="node52" class="node">
<title>node2073</title>
<polygon fill="none" stroke="#000000" points="1505.8648,-743.5623 1373.5689,-756 1241.2731,-743.5623 1241.3966,-723.4377 1505.7413,-723.4377 1505.8648,-743.5623"/>
<text text-anchor="middle" x="1373.5689" y="-734.9" font-family="Times,serif" font-size="12.00" fill="#000000">thread_local_enc_stripped</text>
</g>
<!-- node2073&#45;&gt;node2780 -->
<g id="edge79" class="edge">
<title>node2073&#45;&gt;node2780</title>
<path fill="none" stroke="#000000" d="M1264.3371,-723.424C1253.279,-722.1673 1242.2078,-720.9973 1231.5689,-720 969.5639,-695.4406 902.1088,-713.098 640.5689,-684 624.0189,-682.1587 606.1747,-679.5461 589.7361,-676.8806"/>
<polygon fill="#000000" stroke="#000000" points="590.1438,-673.4006 579.7065,-675.2206 589.0007,-680.3066 590.1438,-673.4006"/>
</g>
<!-- node2073&#45;&gt;node2764 -->
<g id="edge80" class="edge">
<title>node2073&#45;&gt;node2764</title>
<path fill="none" stroke="#000000" d="M1284.5284,-723.4297C1198.3089,-709.3211 1069.897,-688.3082 994.6558,-675.996"/>
<polygon fill="#000000" stroke="#000000" points="994.8357,-672.479 984.4017,-674.3181 993.7052,-679.3871 994.8357,-672.479"/>
</g>
<!-- node2073&#45;&gt;node2749 -->
<g id="edge81" class="edge">
<title>node2073&#45;&gt;node2749</title>
<path fill="none" stroke="#000000" d="M1261.6065,-723.4196C1251.4557,-722.215 1241.3277,-721.0562 1231.5689,-720 1053.6689,-700.7456 1008.1545,-705.9662 830.5689,-684 809.8253,-681.4341 787.058,-677.9706 767.3607,-674.767"/>
<polygon fill="#000000" stroke="#000000" points="767.8029,-671.2927 757.3671,-673.1215 766.6656,-678.1997 767.8029,-671.2927"/>
</g>
<!-- node2073&#45;&gt;node2914 -->
<g id="edge82" class="edge">
<title>node2073&#45;&gt;node2914</title>
<path fill="none" stroke="#000000" d="M1255.8519,-723.403C1199.481,-714.4106 1139.5256,-701.2701 1117.5689,-684 1047.8808,-629.1867 1070.507,-583.654 1031.5689,-504 1026.8542,-494.3553 1021.5902,-483.7843 1016.9711,-474.572"/>
<polygon fill="#000000" stroke="#000000" points="1020.0593,-472.9225 1012.4411,-465.5595 1013.805,-476.0662 1020.0593,-472.9225"/>
</g>
</g>
</svg>
