<?xml version="1.0" encoding="UTF-8" standalone="no"?>
<!DOCTYPE svg PUBLIC "-//W3C//DTD SVG 1.1//EN"
 "http://www.w3.org/Graphics/SVG/1.1/DTD/svg11.dtd">
<!-- Generated by graphviz version 2.40.1 (20161225.0304)
 -->
<!-- Title: GG Pages: 1 -->
<svg width="4370pt" height="764pt"
 viewBox="0.00 0.00 4370.08 764.00" xmlns="http://www.w3.org/2000/svg" xmlns:xlink="http://www.w3.org/1999/xlink">
<g id="graph0" class="graph" transform="scale(1 1) rotate(0) translate(4 760)">
<title>GG</title>
<polygon fill="#ffffff" stroke="transparent" points="-4,4 -4,-760 4366.078,-760 4366.078,4 -4,4"/>
<!-- node1000 -->
<g id="node1" class="node">
<title>node1000</title>
<polygon fill="none" stroke="#000000" points="199.5369,-743.5623 99.6789,-756 -.1792,-743.5623 -.086,-723.4377 199.4437,-723.4377 199.5369,-743.5623"/>
<text text-anchor="middle" x="99.6789" y="-734.9" font-family="Times,serif" font-size="12.00" fill="#000000">ecall_conflict_enc1</text>
</g>
<!-- node2800 -->
<g id="node2" class="node">
<title>node2800</title>
<polygon fill="none" stroke="#000000" points="433.6789,-684 331.9649,-666 433.6789,-648 535.3928,-666 433.6789,-684"/>
<text text-anchor="middle" x="433.6789" y="-662.9" font-family="Times,serif" font-size="12.00" fill="#000000">oecryptombedtls</text>
</g>
<!-- node1000&#45;&gt;node2800 -->
<g id="edge1" class="edge">
<title>node1000&#45;&gt;node2800</title>
<path fill="none" stroke="#000000" d="M167.2688,-723.4297C229.1269,-710.095 319.5954,-690.5928 377.5566,-678.0982"/>
<polygon fill="#000000" stroke="#000000" points="378.5942,-681.455 387.632,-675.9263 377.119,-674.6122 378.5942,-681.455"/>
</g>
<!-- node2939 -->
<g id="node8" class="node">
<title>node2939</title>
<polygon fill="none" stroke="#000000" points="863.6789,-324 817.3979,-306 863.6789,-288 909.9599,-306 863.6789,-324"/>
<text text-anchor="middle" x="863.6789" y="-302.9" font-family="Times,serif" font-size="12.00" fill="#000000">oelibc</text>
</g>
<!-- node1000&#45;&gt;node2939 -->
<g id="edge22" class="edge">
<title>node1000&#45;&gt;node2939</title>
<path fill="none" stroke="#000000" d="M110.0481,-723.2399C126.731,-698.0048 157.6789,-644.3997 157.6789,-594 157.6789,-594 157.6789,-594 157.6789,-450 157.6789,-381.1814 219.1883,-384.0202 283.6789,-360 379.4292,-324.3368 685.389,-311.3293 810.0506,-307.4316"/>
<polygon fill="#000000" stroke="#000000" points="810.2371,-310.9277 820.1257,-307.1242 810.0236,-303.9309 810.2371,-310.9277"/>
</g>
<!-- node2779 -->
<g id="node14" class="node">
<title>node2779</title>
<polygon fill="none" stroke="#000000" points="647.6789,-684 553.6354,-666 647.6789,-648 741.7223,-666 647.6789,-684"/>
<text text-anchor="middle" x="647.6789" y="-662.9" font-family="Times,serif" font-size="12.00" fill="#000000">oedebugmalloc</text>
</g>
<!-- node1000&#45;&gt;node2779 -->
<g id="edge18" class="edge">
<title>node1000&#45;&gt;node2779</title>
<path fill="none" stroke="#000000" d="M184.2097,-723.4244C192.134,-722.205 200.0512,-721.0421 207.6789,-720 356.9223,-699.6095 395.5167,-704.977 544.6789,-684 559.5035,-681.9152 575.4658,-679.3056 590.2943,-676.7257"/>
<polygon fill="#000000" stroke="#000000" points="591.1115,-680.1357 600.3512,-674.9512 589.8951,-673.2422 591.1115,-680.1357"/>
</g>
<!-- node2764 -->
<g id="node15" class="node">
<title>node2764</title>
<polygon fill="none" stroke="#000000" points="826.6789,-684 759.6108,-666 826.6789,-648 893.7469,-666 826.6789,-684"/>
<text text-anchor="middle" x="826.6789" y="-662.9" font-family="Times,serif" font-size="12.00" fill="#000000">oeenclave</text>
</g>
<!-- node1000&#45;&gt;node2764 -->
<g id="edge20" class="edge">
<title>node1000&#45;&gt;node2764</title>
<path fill="none" stroke="#000000" d="M182.1118,-723.3985C190.7285,-722.1306 199.371,-720.9653 207.6789,-720 447.9257,-692.0848 511.5092,-719.9951 750.6789,-684 761.348,-682.3943 772.7271,-680.0478 783.3441,-677.5761"/>
<polygon fill="#000000" stroke="#000000" points="784.3416,-680.936 793.2417,-675.1881 782.6997,-674.1312 784.3416,-680.936"/>
</g>
<!-- node2886 -->
<g id="node3" class="node">
<title>node2886</title>
<polygon fill="none" stroke="#000000" points="523.1789,-612 434.1789,-612 434.1789,-576 523.1789,-576 523.1789,-612"/>
<text text-anchor="middle" x="478.6789" y="-590.9" font-family="Times,serif" font-size="12.00" fill="#000000">mbedcrypto</text>
</g>
<!-- node2800&#45;&gt;node2886 -->
<g id="edge2" class="edge">
<title>node2800&#45;&gt;node2886</title>
<path fill="none" stroke="#000000" d="M443.8901,-649.6621C449.2506,-641.0853 455.9535,-630.3606 462.041,-620.6206"/>
<polygon fill="#000000" stroke="#000000" points="465.0704,-622.3774 467.4024,-612.0423 459.1344,-618.6673 465.0704,-622.3774"/>
</g>
<!-- node2881 -->
<g id="node4" class="node">
<title>node2881</title>
<polygon fill="none" stroke="#000000" points="503.6789,-540 447.7449,-522 503.6789,-504 559.6129,-522 503.6789,-540"/>
<text text-anchor="middle" x="503.6789" y="-518.9" font-family="Times,serif" font-size="12.00" fill="#000000">mbedtls</text>
</g>
<!-- node2886&#45;&gt;node2881 -->
<g id="edge3" class="edge">
<title>node2886&#45;&gt;node2881</title>
<path fill="none" stroke="#000000" stroke-dasharray="1,5" d="M484.9874,-575.8314C487.9193,-567.3876 491.4591,-557.1929 494.6661,-547.9569"/>
<polygon fill="#000000" stroke="#000000" points="497.997,-549.0341 497.9708,-538.4393 491.3842,-546.738 497.997,-549.0341"/>
</g>
<!-- node2884 -->
<g id="node5" class="node">
<title>node2884</title>
<polygon fill="none" stroke="#000000" points="601.6789,-468 533.1278,-450 601.6789,-432 670.2299,-450 601.6789,-468"/>
<text text-anchor="middle" x="601.6789" y="-446.9" font-family="Times,serif" font-size="12.00" fill="#000000">mbedx509</text>
</g>
<!-- node2881&#45;&gt;node2884 -->
<g id="edge4" class="edge">
<title>node2881&#45;&gt;node2884</title>
<path fill="none" stroke="#000000" d="M520.7492,-509.4586C535.8299,-498.3788 558.0578,-482.0481 575.4046,-469.3036"/>
<polygon fill="#000000" stroke="#000000" points="577.4889,-472.1153 583.4755,-463.3739 573.3444,-466.4741 577.4889,-472.1153"/>
</g>
<!-- node2892 -->
<g id="node6" class="node">
<title>node2892</title>
<polygon fill="none" stroke="#000000" points="650.6789,-396 539.3125,-378 650.6789,-360 762.0452,-378 650.6789,-396"/>
<text text-anchor="middle" x="650.6789" y="-374.9" font-family="Times,serif" font-size="12.00" fill="#000000">mbedcrypto_static</text>
</g>
<!-- node2884&#45;&gt;node2892 -->
<g id="edge5" class="edge">
<title>node2884&#45;&gt;node2892</title>
<path fill="none" stroke="#000000" d="M612.3111,-434.3771C618.6002,-425.1359 626.7072,-413.2237 633.8476,-402.7316"/>
<polygon fill="#000000" stroke="#000000" points="636.8244,-404.5785 639.5571,-394.3421 631.0374,-400.6401 636.8244,-404.5785"/>
</g>
<!-- node14 -->
<g id="node7" class="node">
<title>node14</title>
<polygon fill="none" stroke="#000000" points="2723.6789,-36 2637.6789,-36 2637.6789,0 2723.6789,0 2723.6789,-36"/>
<text text-anchor="middle" x="2680.6789" y="-14.9" font-family="Times,serif" font-size="12.00" fill="#000000">oe_includes</text>
</g>
<!-- node2892&#45;&gt;node14 -->
<g id="edge6" class="edge">
<title>node2892&#45;&gt;node14</title>
<path fill="none" stroke="#000000" d="M660.7548,-361.3899C675.6178,-335.2641 701.6789,-282.5346 701.6789,-234 701.6789,-234 701.6789,-234 701.6789,-162 701.6789,-62.5827 2311.3227,-25.3634 2627.2444,-19.0159"/>
<polygon fill="#000000" stroke="#000000" points="2627.5759,-22.51 2637.5042,-18.8115 2627.4364,-15.5114 2627.5759,-22.51"/>
</g>
<!-- node2892&#45;&gt;node2939 -->
<g id="edge7" class="edge">
<title>node2892&#45;&gt;node2939</title>
<path fill="none" stroke="#000000" d="M686.8114,-365.7862C726.5553,-352.3516 789.9643,-330.9176 829.0846,-317.6938"/>
<polygon fill="#000000" stroke="#000000" points="830.3644,-320.9559 838.717,-314.4378 828.1228,-314.3245 830.3644,-320.9559"/>
</g>
<!-- node2777 -->
<g id="node9" class="node">
<title>node2777</title>
<polygon fill="none" stroke="#000000" points="1404.6789,-180 1354.1926,-162 1404.6789,-144 1455.1652,-162 1404.6789,-180"/>
<text text-anchor="middle" x="1404.6789" y="-158.9" font-family="Times,serif" font-size="12.00" fill="#000000">oecore</text>
</g>
<!-- node2939&#45;&gt;node2777 -->
<g id="edge8" class="edge">
<title>node2939&#45;&gt;node2777</title>
<path fill="none" stroke="#000000" d="M868.9441,-289.8239C876.6749,-268.9136 893.2334,-233.1561 920.6789,-216 956.6068,-193.5416 1233.0125,-173.1459 1351.2762,-165.352"/>
<polygon fill="#000000" stroke="#000000" points="1351.7907,-168.8259 1361.5411,-164.681 1351.3341,-161.8408 1351.7907,-168.8259"/>
</g>
<!-- node2873 -->
<g id="node11" class="node">
<title>node2873</title>
<polygon fill="none" stroke="#000000" points="1857.6789,-36 1749.6789,-36 1749.6789,0 1857.6789,0 1857.6789,-36"/>
<text text-anchor="middle" x="1803.6789" y="-14.9" font-family="Times,serif" font-size="12.00" fill="#000000">oelibc_includes</text>
</g>
<!-- node2939&#45;&gt;node2873 -->
<g id="edge14" class="edge">
<title>node2939&#45;&gt;node2873</title>
<path fill="none" stroke="#000000" d="M862.5463,-288.2874C862.2702,-268.1033 865.0673,-235.4088 883.6789,-216 1055.594,-36.7204 1180.2869,-121.5614 1423.6789,-72 1533.5917,-49.6187 1663.2592,-33.323 1739.179,-24.7867"/>
<polygon fill="#000000" stroke="#000000" points="1739.9763,-28.2197 1749.5273,-23.6339 1739.2012,-21.2627 1739.9763,-28.2197"/>
</g>
<!-- node2938 -->
<g id="node12" class="node">
<title>node2938</title>
<polygon fill="none" stroke="#000000" points="1001.1789,-252 930.1789,-252 930.1789,-216 1001.1789,-216 1001.1789,-252"/>
<text text-anchor="middle" x="965.6789" y="-230.9" font-family="Times,serif" font-size="12.00" fill="#000000">oelibasm</text>
</g>
<!-- node2939&#45;&gt;node2938 -->
<g id="edge13" class="edge">
<title>node2939&#45;&gt;node2938</title>
<path fill="none" stroke="#000000" stroke-dasharray="5,2" d="M880.5221,-294.1107C894.4293,-284.2938 914.608,-270.0501 931.8322,-257.8918"/>
<polygon fill="#000000" stroke="#000000" points="933.8586,-260.7455 940.0099,-252.1193 929.8218,-255.0267 933.8586,-260.7455"/>
</g>
<!-- node2959 -->
<g id="node13" class="node">
<title>node2959</title>
<polygon fill="none" stroke="#000000" points="1322.6789,-252 1261.0571,-234 1322.6789,-216 1384.3006,-234 1322.6789,-252"/>
<text text-anchor="middle" x="1322.6789" y="-230.9" font-family="Times,serif" font-size="12.00" fill="#000000">oesyscall</text>
</g>
<!-- node2939&#45;&gt;node2959 -->
<g id="edge15" class="edge">
<title>node2939&#45;&gt;node2959</title>
<path fill="none" stroke="#000000" d="M887.5054,-297.1453C897.0824,-293.8654 908.2965,-290.3717 918.6789,-288 1039.333,-260.4384 1183.6952,-245.332 1263.0553,-238.5266"/>
<polygon fill="#000000" stroke="#000000" points="1263.6727,-241.987 1273.3436,-237.6597 1263.085,-235.0117 1263.6727,-241.987"/>
</g>
<!-- node2777&#45;&gt;node14 -->
<g id="edge9" class="edge">
<title>node2777&#45;&gt;node14</title>
<path fill="none" stroke="#000000" d="M1430.0739,-152.9548C1458.9714,-142.5518 1507.4981,-124.7463 1548.6789,-108 1585.5489,-93.0066 1591.9482,-81.1722 1630.6789,-72 1823.089,-26.4334 2441.8674,-19.3167 2627.5287,-18.2055"/>
<polygon fill="#000000" stroke="#000000" points="2627.6085,-21.7052 2637.5885,-18.1487 2627.5689,-14.7054 2627.6085,-21.7052"/>
</g>
<!-- node2829 -->
<g id="node10" class="node">
<title>node2829</title>
<polygon fill="none" stroke="#000000" points="1540.1789,-108 1433.1789,-108 1433.1789,-72 1540.1789,-72 1540.1789,-108"/>
<text text-anchor="middle" x="1486.6789" y="-86.9" font-family="Times,serif" font-size="12.00" fill="#000000">oedlmalloc_obj</text>
</g>
<!-- node2777&#45;&gt;node2829 -->
<g id="edge10" class="edge">
<title>node2777&#45;&gt;node2829</title>
<path fill="none" stroke="#000000" d="M1419.3388,-149.1278C1430.0968,-139.6818 1445.0506,-126.5517 1458.1344,-115.0634"/>
<polygon fill="#000000" stroke="#000000" points="1460.78,-117.3982 1465.9852,-108.1701 1456.1614,-112.1381 1460.78,-117.3982"/>
</g>
<!-- node2829&#45;&gt;node14 -->
<g id="edge11" class="edge">
<title>node2829&#45;&gt;node14</title>
<path fill="none" stroke="#000000" stroke-dasharray="5,2" d="M1540.2792,-74.6941C1545.1211,-73.6511 1549.972,-72.7275 1554.6789,-72 1765.3713,-39.4356 2432.977,-23.1878 2627.1936,-19.0699"/>
<polygon fill="#000000" stroke="#000000" points="2627.5029,-22.5643 2637.4271,-18.8549 2627.3558,-15.5658 2627.5029,-22.5643"/>
</g>
<!-- node2829&#45;&gt;node2873 -->
<g id="edge12" class="edge">
<title>node2829&#45;&gt;node2873</title>
<path fill="none" stroke="#000000" stroke-dasharray="5,2" d="M1540.4437,-75.5281C1545.2505,-74.307 1550.0483,-73.1144 1554.6789,-72 1617.2433,-56.9435 1689.1107,-41.561 1739.5039,-31.0852"/>
<polygon fill="#000000" stroke="#000000" points="1740.5219,-34.4487 1749.6033,-28.9917 1739.101,-27.5944 1740.5219,-34.4487"/>
</g>
<!-- node2959&#45;&gt;node2777 -->
<g id="edge16" class="edge">
<title>node2959&#45;&gt;node2777</title>
<path fill="none" stroke="#000000" d="M1338.1024,-220.4574C1350.5127,-209.5606 1368.1282,-194.0932 1382.1224,-181.8057"/>
<polygon fill="#000000" stroke="#000000" points="1384.6717,-184.2251 1389.8768,-174.997 1380.053,-178.965 1384.6717,-184.2251"/>
</g>
<!-- node2959&#45;&gt;node2873 -->
<g id="edge17" class="edge">
<title>node2959&#45;&gt;node2873</title>
<path fill="none" stroke="#000000" stroke-dasharray="5,2" d="M1352.3373,-224.6543C1381.4112,-215.0301 1426.6345,-198.8127 1463.6789,-180 1542.4893,-139.9767 1550.6435,-109.5136 1630.6789,-72 1665.4051,-55.7234 1706.2825,-42.7044 1739.5809,-33.531"/>
<polygon fill="#000000" stroke="#000000" points="1740.9157,-36.7959 1749.6563,-30.8082 1739.0895,-30.0383 1740.9157,-36.7959"/>
</g>
<!-- node2779&#45;&gt;node2777 -->
<g id="edge19" class="edge">
<title>node2779&#45;&gt;node2777</title>
<path fill="none" stroke="#000000" d="M675.7335,-653.2241C717.1166,-632.2283 789.6789,-586.2525 789.6789,-522 789.6789,-522 789.6789,-522 789.6789,-306 789.6789,-248.1607 831.1889,-240.2938 883.6789,-216 964.7881,-178.4604 1228.5106,-166.7324 1346.59,-163.3101"/>
<polygon fill="#000000" stroke="#000000" points="1346.976,-166.8008 1356.8742,-163.0225 1346.7803,-159.8035 1346.976,-166.8008"/>
</g>
<!-- node2764&#45;&gt;node2939 -->
<g id="edge21" class="edge">
<title>node2764&#45;&gt;node2939</title>
<path fill="none" stroke="#000000" d="M828.2978,-648.2826C830.6354,-621.1275 834.6789,-567.5702 834.6789,-522 834.6789,-522 834.6789,-522 834.6789,-450 834.6789,-407.9816 846.6919,-360.3999 855.2543,-331.8219"/>
<polygon fill="#000000" stroke="#000000" points="858.6197,-332.7859 858.2242,-322.1984 851.9309,-330.7217 858.6197,-332.7859"/>
</g>
<!-- node999 -->
<g id="node16" class="node">
<title>node999</title>
<polygon fill="none" stroke="#000000" points="1860.9093,-743.5623 1730.6789,-756 1600.4484,-743.5623 1600.57,-723.4377 1860.7877,-723.4377 1860.9093,-743.5623"/>
<text text-anchor="middle" x="1730.6789" y="-734.9" font-family="Times,serif" font-size="12.00" fill="#000000">ecall_conflict_enc1&#45;lvi&#45;cfg</text>
</g>
<!-- node2797 -->
<g id="node17" class="node">
<title>node2797</title>
<polygon fill="none" stroke="#000000" points="2119.6789,-684 1982.0783,-666 2119.6789,-648 2257.2795,-666 2119.6789,-684"/>
<text text-anchor="middle" x="2119.6789" y="-662.9" font-family="Times,serif" font-size="12.00" fill="#000000">oecryptombedtls&#45;lvi&#45;cfg</text>
</g>
<!-- node999&#45;&gt;node2797 -->
<g id="edge23" class="edge">
<title>node999&#45;&gt;node2797</title>
<path fill="none" stroke="#000000" d="M1809.3988,-723.4297C1880.7728,-710.2191 1984.8513,-690.9552 2052.4208,-678.4488"/>
<polygon fill="#000000" stroke="#000000" points="2053.3328,-681.8395 2062.5288,-676.5779 2052.0587,-674.9564 2053.3328,-681.8395"/>
</g>
<!-- node2937 -->
<g id="node22" class="node">
<title>node2937</title>
<polygon fill="none" stroke="#000000" points="2819.6789,-324 2738.7526,-306 2819.6789,-288 2900.6052,-306 2819.6789,-324"/>
<text text-anchor="middle" x="2819.6789" y="-302.9" font-family="Times,serif" font-size="12.00" fill="#000000">oelibc&#45;lvi&#45;cfg</text>
</g>
<!-- node999&#45;&gt;node2937 -->
<g id="edge44" class="edge">
<title>node999&#45;&gt;node2937</title>
<path fill="none" stroke="#000000" d="M1753.5461,-723.3575C1786.565,-700.2191 1843.6789,-651.8367 1843.6789,-594 1843.6789,-594 1843.6789,-594 1843.6789,-450 1843.6789,-276.2874 2194.7654,-359.6987 2651.6789,-324 2686.6437,-321.2682 2725.5933,-317.1619 2757.179,-313.5609"/>
<polygon fill="#000000" stroke="#000000" points="2757.6268,-317.0325 2767.1609,-312.4118 2756.8263,-310.0784 2757.6268,-317.0325"/>
</g>
<!-- node2781 -->
<g id="node27" class="node">
<title>node2781</title>
<polygon fill="none" stroke="#000000" points="2404.6789,-684 2274.7482,-666 2404.6789,-648 2534.6095,-666 2404.6789,-684"/>
<text text-anchor="middle" x="2404.6789" y="-662.9" font-family="Times,serif" font-size="12.00" fill="#000000">oedebugmalloc&#45;lvi&#45;cfg</text>
</g>
<!-- node999&#45;&gt;node2781 -->
<g id="edge40" class="edge">
<title>node999&#45;&gt;node2781</title>
<path fill="none" stroke="#000000" d="M1840.2728,-723.4093C1850.2099,-722.2069 1860.1248,-721.0514 1869.6789,-720 2045.7841,-700.6201 2090.5826,-703.4612 2266.6789,-684 2287.0176,-681.7523 2309.0026,-679.0217 2329.3188,-676.3739"/>
<polygon fill="#000000" stroke="#000000" points="2329.9984,-679.8147 2339.4571,-675.0416 2329.0863,-672.8744 2329.9984,-679.8147"/>
</g>
<!-- node2763 -->
<g id="node28" class="node">
<title>node2763</title>
<polygon fill="none" stroke="#000000" points="2654.6789,-684 2552.9649,-666 2654.6789,-648 2756.3928,-666 2654.6789,-684"/>
<text text-anchor="middle" x="2654.6789" y="-662.9" font-family="Times,serif" font-size="12.00" fill="#000000">oeenclave&#45;lvi&#45;cfg</text>
</g>
<!-- node999&#45;&gt;node2763 -->
<g id="edge42" class="edge">
<title>node999&#45;&gt;node2763</title>
<path fill="none" stroke="#000000" d="M1836.8354,-723.4157C1847.9132,-722.1445 1859.0165,-720.9737 1869.6789,-720 2168.4183,-692.7181 2245.4139,-716.0555 2543.6789,-684 2560.316,-682.212 2578.2554,-679.6035 2594.76,-676.9244"/>
<polygon fill="#000000" stroke="#000000" points="2595.5345,-680.3438 2604.8266,-675.2538 2594.3885,-673.4382 2595.5345,-680.3438"/>
</g>
<!-- node2888 -->
<g id="node18" class="node">
<title>node2888</title>
<polygon fill="none" stroke="#000000" points="2288.1789,-612 2159.1789,-612 2159.1789,-576 2288.1789,-576 2288.1789,-612"/>
<text text-anchor="middle" x="2223.6789" y="-590.9" font-family="Times,serif" font-size="12.00" fill="#000000">mbedcrypto&#45;lvi&#45;cfg</text>
</g>
<!-- node2797&#45;&gt;node2888 -->
<g id="edge24" class="edge">
<title>node2797&#45;&gt;node2888</title>
<path fill="none" stroke="#000000" d="M2141.7346,-650.7307C2155.5193,-641.1874 2173.5627,-628.6958 2189.2083,-617.8642"/>
<polygon fill="#000000" stroke="#000000" points="2191.3817,-620.6165 2197.6114,-612.0467 2187.3972,-614.8612 2191.3817,-620.6165"/>
</g>
<!-- node2882 -->
<g id="node19" class="node">
<title>node2882</title>
<polygon fill="none" stroke="#000000" points="2275.6789,-540 2185.1,-522 2275.6789,-504 2366.2578,-522 2275.6789,-540"/>
<text text-anchor="middle" x="2275.6789" y="-518.9" font-family="Times,serif" font-size="12.00" fill="#000000">mbedtls&#45;lvi&#45;cfg</text>
</g>
<!-- node2888&#45;&gt;node2882 -->
<g id="edge25" class="edge">
<title>node2888&#45;&gt;node2882</title>
<path fill="none" stroke="#000000" stroke-dasharray="1,5" d="M2236.8007,-575.8314C2243.3164,-566.8096 2251.2757,-555.789 2258.2917,-546.0745"/>
<polygon fill="#000000" stroke="#000000" points="2261.137,-548.1128 2264.1545,-537.9568 2255.4622,-544.0144 2261.137,-548.1128"/>
</g>
<!-- node2894 -->
<g id="node20" class="node">
<title>node2894</title>
<polygon fill="none" stroke="#000000" points="2482.6789,-468 2378.9828,-450 2482.6789,-432 2586.375,-450 2482.6789,-468"/>
<text text-anchor="middle" x="2482.6789" y="-446.9" font-family="Times,serif" font-size="12.00" fill="#000000">mbedx509&#45;lvi&#45;cfg</text>
</g>
<!-- node2882&#45;&gt;node2894 -->
<g id="edge26" class="edge">
<title>node2882&#45;&gt;node2894</title>
<path fill="none" stroke="#000000" d="M2308.937,-510.432C2344.1262,-498.1922 2399.8263,-478.8183 2438.6411,-465.3175"/>
<polygon fill="#000000" stroke="#000000" points="2439.8277,-468.6105 2448.1228,-462.0195 2437.528,-461.999 2439.8277,-468.6105"/>
</g>
<!-- node2883 -->
<g id="node21" class="node">
<title>node2883</title>
<polygon fill="none" stroke="#000000" points="2534.6789,-396 2388.6664,-378 2534.6789,-360 2680.6913,-378 2534.6789,-396"/>
<text text-anchor="middle" x="2534.6789" y="-374.9" font-family="Times,serif" font-size="12.00" fill="#000000">mbedcrypto_static&#45;lvi&#45;cfg</text>
</g>
<!-- node2894&#45;&gt;node2883 -->
<g id="edge27" class="edge">
<title>node2894&#45;&gt;node2883</title>
<path fill="none" stroke="#000000" d="M2494.4785,-433.6621C2501.0334,-424.5861 2509.3253,-413.1049 2516.6735,-402.9306"/>
<polygon fill="#000000" stroke="#000000" points="2519.5475,-404.929 2522.5651,-394.7729 2513.8728,-400.8305 2519.5475,-404.929"/>
</g>
<!-- node2883&#45;&gt;node14 -->
<g id="edge28" class="edge">
<title>node2883&#45;&gt;node14</title>
<path fill="none" stroke="#000000" d="M2589.4413,-366.6232C2612.7945,-358.7691 2637.813,-345.671 2651.6789,-324 2713.412,-227.5167 2543.0662,-172.6849 2597.6789,-72 2604.7381,-58.9855 2616.4416,-48.616 2628.8656,-40.5848"/>
<polygon fill="#000000" stroke="#000000" points="2630.7522,-43.5346 2637.5337,-35.3945 2627.156,-37.529 2630.7522,-43.5346"/>
</g>
<!-- node2883&#45;&gt;node2937 -->
<g id="edge29" class="edge">
<title>node2883&#45;&gt;node2937</title>
<path fill="none" stroke="#000000" d="M2582.703,-365.8676C2635.3117,-352.577 2719.1879,-331.3872 2771.7563,-318.1067"/>
<polygon fill="#000000" stroke="#000000" points="2772.6753,-321.4846 2781.5134,-315.6418 2770.9607,-314.6978 2772.6753,-321.4846"/>
</g>
<!-- node2937&#45;&gt;node2873 -->
<g id="edge36" class="edge">
<title>node2937&#45;&gt;node2873</title>
<path fill="none" stroke="#000000" d="M2822.3494,-288.3636C2828.1883,-242.2769 2836.269,-118.5979 2763.6789,-72 2726.0128,-47.8209 2077.4659,-26.2488 1868.2036,-19.8906"/>
<polygon fill="#000000" stroke="#000000" points="1868.0873,-16.3856 1857.9861,-19.5817 1867.8757,-23.3824 1868.0873,-16.3856"/>
</g>
<!-- node2783 -->
<g id="node23" class="node">
<title>node2783</title>
<polygon fill="none" stroke="#000000" points="2707.6789,-180 2622.5465,-162 2707.6789,-144 2792.8113,-162 2707.6789,-180"/>
<text text-anchor="middle" x="2707.6789" y="-158.9" font-family="Times,serif" font-size="12.00" fill="#000000">oecore&#45;lvi&#45;cfg</text>
</g>
<!-- node2937&#45;&gt;node2783 -->
<g id="edge30" class="edge">
<title>node2937&#45;&gt;node2783</title>
<path fill="none" stroke="#000000" d="M2807.6929,-290.5895C2788.1755,-265.4957 2749.3891,-215.6274 2726.2723,-185.9058"/>
<polygon fill="#000000" stroke="#000000" points="2728.8204,-183.481 2719.9182,-177.7363 2723.2949,-187.7786 2728.8204,-183.481"/>
</g>
<!-- node2941 -->
<g id="node25" class="node">
<title>node2941</title>
<polygon fill="none" stroke="#000000" points="2959.1789,-252 2848.1789,-252 2848.1789,-216 2959.1789,-216 2959.1789,-252"/>
<text text-anchor="middle" x="2903.6789" y="-230.9" font-family="Times,serif" font-size="12.00" fill="#000000">oelibasm&#45;lvi&#45;cfg</text>
</g>
<!-- node2937&#45;&gt;node2941 -->
<g id="edge35" class="edge">
<title>node2937&#45;&gt;node2941</title>
<path fill="none" stroke="#000000" stroke-dasharray="5,2" d="M2836.6775,-291.4297C2847.6347,-282.0379 2862.1613,-269.5865 2874.8869,-258.6789"/>
<polygon fill="#000000" stroke="#000000" points="2877.2148,-261.2933 2882.5296,-252.128 2872.6592,-255.9785 2877.2148,-261.2933"/>
</g>
<!-- node2963 -->
<g id="node26" class="node">
<title>node2963</title>
<polygon fill="none" stroke="#000000" points="2279.6789,-252 2182.1709,-234 2279.6789,-216 2377.1869,-234 2279.6789,-252"/>
<text text-anchor="middle" x="2279.6789" y="-230.9" font-family="Times,serif" font-size="12.00" fill="#000000">oesyscall&#45;lvi&#45;cfg</text>
</g>
<!-- node2937&#45;&gt;node2963 -->
<g id="edge37" class="edge">
<title>node2937&#45;&gt;node2963</title>
<path fill="none" stroke="#000000" d="M2768.877,-299.2264C2670.8554,-286.1569 2455.6716,-257.4657 2346.3121,-242.8844"/>
<polygon fill="#000000" stroke="#000000" points="2346.761,-239.4134 2336.3861,-241.561 2345.8358,-246.352 2346.761,-239.4134"/>
</g>
<!-- node2783&#45;&gt;node14 -->
<g id="edge31" class="edge">
<title>node2783&#45;&gt;node14</title>
<path fill="none" stroke="#000000" d="M2728.8894,-148.2459C2741.5898,-138.6713 2756.6013,-124.6568 2763.6789,-108 2769.9359,-93.2742 2771.3075,-86.0643 2763.6789,-72 2756.6196,-58.9855 2744.9161,-48.616 2732.4921,-40.5848"/>
<polygon fill="#000000" stroke="#000000" points="2734.2017,-37.529 2723.8241,-35.3945 2730.6056,-43.5346 2734.2017,-37.529"/>
</g>
<!-- node2827 -->
<g id="node24" class="node">
<title>node2827</title>
<polygon fill="none" stroke="#000000" points="2754.6789,-108 2606.6789,-108 2606.6789,-72 2754.6789,-72 2754.6789,-108"/>
<text text-anchor="middle" x="2680.6789" y="-86.9" font-family="Times,serif" font-size="12.00" fill="#000000">oedlmalloc_obj&#45;lvi&#45;cfg</text>
</g>
<!-- node2783&#45;&gt;node2827 -->
<g id="edge32" class="edge">
<title>node2783&#45;&gt;node2827</title>
<path fill="none" stroke="#000000" d="M2701.4167,-145.3008C2698.3507,-137.1248 2694.5775,-127.0631 2691.0939,-117.7735"/>
<polygon fill="#000000" stroke="#000000" points="2694.2631,-116.2565 2687.4747,-108.1222 2687.7088,-118.7144 2694.2631,-116.2565"/>
</g>
<!-- node2827&#45;&gt;node14 -->
<g id="edge33" class="edge">
<title>node2827&#45;&gt;node14</title>
<path fill="none" stroke="#000000" stroke-dasharray="5,2" d="M2680.6789,-71.8314C2680.6789,-64.131 2680.6789,-54.9743 2680.6789,-46.4166"/>
<polygon fill="#000000" stroke="#000000" points="2684.179,-46.4132 2680.6789,-36.4133 2677.179,-46.4133 2684.179,-46.4132"/>
</g>
<!-- node2827&#45;&gt;node2873 -->
<g id="edge34" class="edge">
<title>node2827&#45;&gt;node2873</title>
<path fill="none" stroke="#000000" stroke-dasharray="5,2" d="M2606.6622,-83.9234C2437.8565,-70.0648 2026.7549,-36.3141 1867.8507,-23.2684"/>
<polygon fill="#000000" stroke="#000000" points="1868.0068,-19.7695 1857.7539,-22.4395 1867.434,-26.746 1868.0068,-19.7695"/>
</g>
<!-- node2963&#45;&gt;node2873 -->
<g id="edge39" class="edge">
<title>node2963&#45;&gt;node2873</title>
<path fill="none" stroke="#000000" stroke-dasharray="5,2" d="M2251.3284,-221.1351C2172.8029,-185.5017 1951.7607,-85.1968 1852.7328,-40.2598"/>
<polygon fill="#000000" stroke="#000000" points="1854.0918,-37.033 1843.5392,-36.0879 1851.1992,-43.4074 1854.0918,-37.033"/>
</g>
<!-- node2963&#45;&gt;node2783 -->
<g id="edge38" class="edge">
<title>node2963&#45;&gt;node2783</title>
<path fill="none" stroke="#000000" d="M2330.8805,-225.3866C2411.1569,-211.8822 2566.1259,-185.8126 2650.1442,-171.6787"/>
<polygon fill="#000000" stroke="#000000" points="2650.748,-175.1264 2660.0288,-170.0159 2649.5867,-168.2234 2650.748,-175.1264"/>
</g>
<!-- node2781&#45;&gt;node2783 -->
<g id="edge41" class="edge">
<title>node2781&#45;&gt;node2783</title>
<path fill="none" stroke="#000000" d="M2450.8499,-654.3685C2535.893,-631.5834 2708.6789,-578.3555 2708.6789,-522 2708.6789,-522 2708.6789,-522 2708.6789,-306 2708.6789,-265.875 2708.2858,-219.4624 2707.9926,-190.4173"/>
<polygon fill="#000000" stroke="#000000" points="2711.49,-190.1481 2707.8861,-180.1851 2704.4904,-190.221 2711.49,-190.1481"/>
</g>
<!-- node2763&#45;&gt;node2937 -->
<g id="edge43" class="edge">
<title>node2763&#45;&gt;node2937</title>
<path fill="none" stroke="#000000" d="M2679.0765,-652.1951C2693.7641,-642.6899 2711.6888,-628.7697 2722.6789,-612 2745.3703,-577.3752 2746.6789,-563.3978 2746.6789,-522 2746.6789,-522 2746.6789,-522 2746.6789,-450 2746.6789,-408.6022 2750.8772,-396.3548 2770.6789,-360 2777.1126,-348.188 2786.6465,-336.8789 2795.5988,-327.6901"/>
<polygon fill="#000000" stroke="#000000" points="2798.2275,-330.0139 2802.9012,-320.5056 2793.3181,-325.024 2798.2275,-330.0139"/>
</g>
<!-- node1013 -->
<g id="node29" class="node">
<title>node1013</title>
<polygon fill="none" stroke="#000000" points="416.5369,-743.5623 316.6789,-756 216.8208,-743.5623 216.914,-723.4377 416.4437,-723.4377 416.5369,-743.5623"/>
<text text-anchor="middle" x="316.6789" y="-734.9" font-family="Times,serif" font-size="12.00" fill="#000000">ecall_conflict_enc2</text>
</g>
<!-- node1013&#45;&gt;node2800 -->
<g id="edge45" class="edge">
<title>node1013&#45;&gt;node2800</title>
<path fill="none" stroke="#000000" d="M340.3556,-723.4297C358.1902,-712.4546 382.8141,-697.3014 402.2902,-685.3161"/>
<polygon fill="#000000" stroke="#000000" points="404.1514,-688.2804 410.8336,-680.0586 400.4827,-682.3188 404.1514,-688.2804"/>
</g>
<!-- node1013&#45;&gt;node2939 -->
<g id="edge48" class="edge">
<title>node1013&#45;&gt;node2939</title>
<path fill="none" stroke="#000000" d="M307.5611,-723.0646C292.8917,-697.5712 265.6789,-643.5954 265.6789,-594 265.6789,-594 265.6789,-594 265.6789,-450 265.6789,-395.8872 299.3865,-384.414 347.6789,-360 427.3662,-319.7144 693.1259,-309.4394 808.9428,-306.8538"/>
<polygon fill="#000000" stroke="#000000" points="809.0868,-310.3516 819.0102,-306.6401 808.9382,-303.3532 809.0868,-310.3516"/>
</g>
<!-- node1013&#45;&gt;node2779 -->
<g id="edge46" class="edge">
<title>node1013&#45;&gt;node2779</title>
<path fill="none" stroke="#000000" d="M383.6617,-723.4297C445.4988,-709.9788 536.186,-690.2522 593.5561,-677.7729"/>
<polygon fill="#000000" stroke="#000000" points="594.4885,-681.152 603.5161,-675.6064 593.0006,-674.312 594.4885,-681.152"/>
</g>
<!-- node1013&#45;&gt;node2764 -->
<g id="edge47" class="edge">
<title>node1013&#45;&gt;node2764</title>
<path fill="none" stroke="#000000" d="M402.2952,-723.4186C410.1926,-722.2074 418.0788,-721.0477 425.6789,-720 569.6453,-700.1537 607.4814,-708.7929 750.6789,-684 761.2088,-682.1769 772.4583,-679.7703 782.9865,-677.3123"/>
<polygon fill="#000000" stroke="#000000" points="783.9035,-680.6917 792.8123,-674.9572 782.2719,-673.8844 783.9035,-680.6917"/>
</g>
<!-- node1010 -->
<g id="node30" class="node">
<title>node1010</title>
<polygon fill="none" stroke="#000000" points="2138.9093,-743.5623 2008.6789,-756 1878.4484,-743.5623 1878.57,-723.4377 2138.7877,-723.4377 2138.9093,-743.5623"/>
<text text-anchor="middle" x="2008.6789" y="-734.9" font-family="Times,serif" font-size="12.00" fill="#000000">ecall_conflict_enc2&#45;lvi&#45;cfg</text>
</g>
<!-- node1010&#45;&gt;node2797 -->
<g id="edge49" class="edge">
<title>node1010&#45;&gt;node2797</title>
<path fill="none" stroke="#000000" d="M2031.1414,-723.4297C2047.4735,-712.8359 2069.8067,-698.3495 2087.9565,-686.5767"/>
<polygon fill="#000000" stroke="#000000" points="2090.0007,-689.4226 2096.4857,-681.0442 2086.1914,-683.5498 2090.0007,-689.4226"/>
</g>
<!-- node1010&#45;&gt;node2937 -->
<g id="edge52" class="edge">
<title>node1010&#45;&gt;node2937</title>
<path fill="none" stroke="#000000" d="M1988.3617,-723.3929C1975.7905,-713.4781 1960.1144,-699.4049 1949.6789,-684 1925.6975,-648.5989 1915.6789,-636.7592 1915.6789,-594 1915.6789,-594 1915.6789,-594 1915.6789,-450 1915.6789,-405.4756 1922.5344,-384.5502 1959.6789,-360 2023.9101,-317.5471 2574.9283,-330.1034 2651.6789,-324 2686.6399,-321.2198 2725.5892,-317.1103 2757.1757,-313.5196"/>
<polygon fill="#000000" stroke="#000000" points="2757.6221,-316.9915 2767.158,-312.3744 2756.8242,-310.0371 2757.6221,-316.9915"/>
</g>
<!-- node1010&#45;&gt;node2781 -->
<g id="edge50" class="edge">
<title>node1010&#45;&gt;node2781</title>
<path fill="none" stroke="#000000" d="M2088.8154,-723.4297C2162.2691,-710.0745 2269.7489,-690.5327 2338.4561,-678.0405"/>
<polygon fill="#000000" stroke="#000000" points="2339.0906,-681.4826 2348.3032,-676.2501 2337.8384,-674.5955 2339.0906,-681.4826"/>
</g>
<!-- node1010&#45;&gt;node2763 -->
<g id="edge51" class="edge">
<title>node1010&#45;&gt;node2763</title>
<path fill="none" stroke="#000000" d="M2118.2731,-723.4116C2128.2101,-722.2087 2138.125,-721.0525 2147.6789,-720 2323.342,-700.6486 2368.3477,-706.158 2543.6789,-684 2559.959,-681.9426 2577.5148,-679.2957 2593.7536,-676.6682"/>
<polygon fill="#000000" stroke="#000000" points="2594.3701,-680.114 2603.6711,-675.0402 2593.2362,-673.2064 2594.3701,-680.114"/>
</g>
<!-- node1620 -->
<g id="node31" class="node">
<title>node1620</title>
<polygon fill="none" stroke="#000000" points="492.5081,-743.5623 463.6789,-756 434.8497,-743.5623 434.8766,-723.4377 492.4812,-723.4377 492.5081,-743.5623"/>
<text text-anchor="middle" x="463.6789" y="-734.9" font-family="Times,serif" font-size="12.00" fill="#000000">enc</text>
</g>
<!-- node1620&#45;&gt;node2800 -->
<g id="edge53" class="edge">
<title>node1620&#45;&gt;node2800</title>
<path fill="none" stroke="#000000" d="M457.6079,-723.4297C453.8589,-714.4321 448.9399,-702.6264 444.5373,-692.0602"/>
<polygon fill="#000000" stroke="#000000" points="447.7647,-690.7058 440.6877,-682.8212 441.3031,-693.3981 447.7647,-690.7058"/>
</g>
<!-- node1620&#45;&gt;node2939 -->
<g id="edge56" class="edge">
<title>node1620&#45;&gt;node2939</title>
<path fill="none" stroke="#000000" d="M434.7744,-723.9206C431.7232,-722.5509 428.6505,-721.2191 425.6789,-720 380.8142,-701.5944 354.7022,-720.4158 322.6789,-684 295.6821,-653.3002 303.6789,-634.8816 303.6789,-594 303.6789,-594 303.6789,-594 303.6789,-450 303.6789,-345.7 672.6551,-315.8448 811.5982,-308.2998"/>
<polygon fill="#000000" stroke="#000000" points="811.7855,-311.7949 821.5879,-307.7745 811.4178,-304.8046 811.7855,-311.7949"/>
</g>
<!-- node1620&#45;&gt;node2779 -->
<g id="edge54" class="edge">
<title>node1620&#45;&gt;node2779</title>
<path fill="none" stroke="#000000" d="M492.6361,-723.571C495.3389,-722.3279 498.0498,-721.1191 500.6789,-720 534.842,-705.4589 574.3879,-691.065 603.852,-680.7992"/>
<polygon fill="#000000" stroke="#000000" points="605.1305,-684.0605 613.4353,-677.4818 602.8406,-677.4456 605.1305,-684.0605"/>
</g>
<!-- node1620&#45;&gt;node2764 -->
<g id="edge55" class="edge">
<title>node1620&#45;&gt;node2764</title>
<path fill="none" stroke="#000000" d="M491.5938,-723.3104C494.6094,-722.0597 497.6742,-720.9225 500.6789,-720 607.9918,-687.0513 640.3952,-704.9568 750.6789,-684 761.0766,-682.0242 772.1991,-679.5798 782.6378,-677.1364"/>
<polygon fill="#000000" stroke="#000000" points="783.4759,-680.5347 792.3904,-674.8093 781.8512,-673.7259 783.4759,-680.5347"/>
</g>
<!-- node1617 -->
<g id="node32" class="node">
<title>node1617</title>
<polygon fill="none" stroke="#000000" points="2274.8808,-743.5623 2215.6789,-756 2156.4769,-743.5623 2156.5322,-723.4377 2274.8255,-723.4377 2274.8808,-743.5623"/>
<text text-anchor="middle" x="2215.6789" y="-734.9" font-family="Times,serif" font-size="12.00" fill="#000000">enc&#45;lvi&#45;cfg</text>
</g>
<!-- node1617&#45;&gt;node2797 -->
<g id="edge57" class="edge">
<title>node1617&#45;&gt;node2797</title>
<path fill="none" stroke="#000000" d="M2196.2518,-723.4297C2182.5685,-713.1672 2164.0145,-699.2517 2148.5975,-687.6889"/>
<polygon fill="#000000" stroke="#000000" points="2150.506,-684.7454 2140.406,-681.5454 2146.306,-690.3454 2150.506,-684.7454"/>
</g>
<!-- node1617&#45;&gt;node2937 -->
<g id="edge60" class="edge">
<title>node1617&#45;&gt;node2937</title>
<path fill="none" stroke="#000000" d="M2161.5567,-723.3818C2156.8711,-722.2048 2152.1964,-721.0617 2147.6789,-720 2070.3785,-701.8331 2028.9727,-740.0034 1972.6789,-684 1943.6965,-655.1672 1953.6789,-634.8816 1953.6789,-594 1953.6789,-594 1953.6789,-594 1953.6789,-450 1953.6789,-256.4874 2188.7997,-391.8157 2379.6789,-360 2450.4839,-348.1982 2651.722,-324.9241 2755.7149,-313.1628"/>
<polygon fill="#000000" stroke="#000000" points="2756.2278,-316.6272 2765.7718,-312.027 2755.4421,-309.6714 2756.2278,-316.6272"/>
</g>
<!-- node1617&#45;&gt;node2781 -->
<g id="edge58" class="edge">
<title>node1617&#45;&gt;node2781</title>
<path fill="none" stroke="#000000" d="M2253.9258,-723.4297C2284.7176,-711.6995 2328.0375,-695.1967 2360.3431,-682.8898"/>
<polygon fill="#000000" stroke="#000000" points="2361.8904,-686.0458 2369.9893,-679.2151 2359.3984,-679.5044 2361.8904,-686.0458"/>
</g>
<!-- node1617&#45;&gt;node2763 -->
<g id="edge59" class="edge">
<title>node1617&#45;&gt;node2763</title>
<path fill="none" stroke="#000000" d="M2268.2464,-723.4115C2273.4412,-722.1728 2278.6502,-721.0098 2283.6789,-720 2398.0535,-697.0319 2428.3165,-701.338 2543.6789,-684 2559.3572,-681.6437 2576.2588,-678.9709 2592.0297,-676.4196"/>
<polygon fill="#000000" stroke="#000000" points="2592.8972,-679.8246 2602.2059,-674.7651 2591.7738,-672.9153 2592.8972,-679.8246"/>
</g>
<!-- node1618 -->
<g id="node33" class="node">
<title>node1618</title>
<polygon fill="none" stroke="#000000" points="659.3168,-743.5623 584.6789,-756 510.041,-743.5623 510.1106,-723.4377 659.2471,-723.4377 659.3168,-743.5623"/>
<text text-anchor="middle" x="584.6789" y="-734.9" font-family="Times,serif" font-size="12.00" fill="#000000">enc_unsigned</text>
</g>
<!-- node1618&#45;&gt;node2800 -->
<g id="edge61" class="edge">
<title>node1618&#45;&gt;node2800</title>
<path fill="none" stroke="#000000" d="M554.1218,-723.4297C530.0218,-711.9384 496.3161,-695.8668 470.6879,-683.6467"/>
<polygon fill="#000000" stroke="#000000" points="472.177,-680.4793 461.6442,-679.3345 469.1642,-686.7977 472.177,-680.4793"/>
</g>
<!-- node1618&#45;&gt;node2939 -->
<g id="edge64" class="edge">
<title>node1618&#45;&gt;node2939</title>
<path fill="none" stroke="#000000" d="M650.2979,-723.3791C656.1662,-722.1898 662.0242,-721.0452 667.6789,-720 719.6302,-710.3969 864.2893,-720.2961 902.6789,-684 932.3852,-655.9136 921.6789,-634.8816 921.6789,-594 921.6789,-594 921.6789,-594 921.6789,-450 921.6789,-404.4769 896.4301,-356.3387 879.2504,-328.8534"/>
<polygon fill="#000000" stroke="#000000" points="882.1373,-326.8719 873.7817,-320.3577 876.2513,-330.6607 882.1373,-326.8719"/>
</g>
<!-- node1618&#45;&gt;node2779 -->
<g id="edge62" class="edge">
<title>node1618&#45;&gt;node2779</title>
<path fill="none" stroke="#000000" d="M597.4279,-723.4297C605.9918,-713.6424 617.463,-700.5324 627.2831,-689.3094"/>
<polygon fill="#000000" stroke="#000000" points="630.1256,-691.3759 634.0767,-681.5454 624.8576,-686.7664 630.1256,-691.3759"/>
</g>
<!-- node1618&#45;&gt;node2764 -->
<g id="edge63" class="edge">
<title>node1618&#45;&gt;node2764</title>
<path fill="none" stroke="#000000" d="M633.6512,-723.4297C678.1468,-710.1913 743.0739,-690.8742 785.1018,-678.37"/>
<polygon fill="#000000" stroke="#000000" points="786.1593,-681.7071 794.746,-675.5007 784.1631,-674.9978 786.1593,-681.7071"/>
</g>
<!-- node1619 -->
<g id="node34" class="node">
<title>node1619</title>
<polygon fill="none" stroke="#000000" points="2502.6893,-743.5623 2397.6789,-756 2292.6684,-743.5623 2292.7664,-723.4377 2502.5913,-723.4377 2502.6893,-743.5623"/>
<text text-anchor="middle" x="2397.6789" y="-734.9" font-family="Times,serif" font-size="12.00" fill="#000000">enc_unsigned&#45;lvi&#45;cfg</text>
</g>
<!-- node1619&#45;&gt;node2797 -->
<g id="edge65" class="edge">
<title>node1619&#45;&gt;node2797</title>
<path fill="none" stroke="#000000" d="M2341.4214,-723.4297C2293.282,-710.962 2224.3248,-693.1026 2176.1298,-680.6204"/>
<polygon fill="#000000" stroke="#000000" points="2176.7337,-677.1614 2166.1756,-678.0423 2174.9786,-683.9378 2176.7337,-677.1614"/>
</g>
<!-- node1619&#45;&gt;node2937 -->
<g id="edge68" class="edge">
<title>node1619&#45;&gt;node2937</title>
<path fill="none" stroke="#000000" d="M2489.1262,-723.4307C2496.7532,-722.2552 2504.347,-721.0983 2511.6789,-720 2568.0583,-711.5541 2724.0351,-722.9329 2765.6789,-684 2795.5422,-656.0807 2784.6789,-634.8816 2784.6789,-594 2784.6789,-594 2784.6789,-594 2784.6789,-450 2784.6789,-407.8385 2799.021,-360.6476 2809.3434,-332.1431"/>
<polygon fill="#000000" stroke="#000000" points="2812.7133,-333.1234 2812.9305,-322.5308 2806.1551,-330.676 2812.7133,-333.1234"/>
</g>
<!-- node1619&#45;&gt;node2781 -->
<g id="edge66" class="edge">
<title>node1619&#45;&gt;node2781</title>
<path fill="none" stroke="#000000" d="M2399.0954,-723.4297C2399.9197,-714.9515 2400.9864,-703.9801 2401.9662,-693.9017"/>
<polygon fill="#000000" stroke="#000000" points="2405.4579,-694.156 2402.9421,-683.8642 2398.4907,-693.4786 2405.4579,-694.156"/>
</g>
<!-- node1619&#45;&gt;node2763 -->
<g id="edge67" class="edge">
<title>node1619&#45;&gt;node2763</title>
<path fill="none" stroke="#000000" d="M2449.6867,-723.4297C2495.0943,-710.7085 2560.5375,-692.3742 2605.1853,-679.8659"/>
<polygon fill="#000000" stroke="#000000" points="2606.2559,-683.2008 2614.9409,-677.1328 2604.3674,-676.4603 2606.2559,-683.2008"/>
</g>
<!-- node109 -->
<g id="node35" class="node">
<title>node109</title>
<polygon fill="none" stroke="#000000" points="3454.032,-167.5623 3406.6789,-180 3359.3257,-167.5623 3359.3699,-147.4377 3453.9878,-147.4377 3454.032,-167.5623"/>
<text text-anchor="middle" x="3406.6789" y="-158.9" font-family="Times,serif" font-size="12.00" fill="#000000">logging</text>
</g>
<!-- node39 -->
<g id="node36" class="node">
<title>node39</title>
<polygon fill="none" stroke="#000000" points="3463.6789,-108 3415.1736,-90 3463.6789,-72 3512.1841,-90 3463.6789,-108"/>
<text text-anchor="middle" x="3463.6789" y="-86.9" font-family="Times,serif" font-size="12.00" fill="#000000">oehost</text>
</g>
<!-- node109&#45;&gt;node39 -->
<g id="edge69" class="edge">
<title>node109&#45;&gt;node39</title>
<path fill="none" stroke="#000000" d="M3418.2137,-147.4297C3426.2761,-137.2456 3437.1866,-123.464 3446.2985,-111.9541"/>
<polygon fill="#000000" stroke="#000000" points="3449.0862,-114.0716 3452.5491,-104.0586 3443.5979,-109.7266 3449.0862,-114.0716"/>
</g>
<!-- node39&#45;&gt;node14 -->
<g id="edge70" class="edge">
<title>node39&#45;&gt;node14</title>
<path fill="none" stroke="#000000" d="M3439.1542,-81.0375C3428.9364,-77.6595 3416.8657,-74.124 3405.6789,-72 3276.8415,-47.5381 2879.4709,-27.2087 2734.4028,-20.4205"/>
<polygon fill="#000000" stroke="#000000" points="2734.1458,-16.9049 2723.9939,-19.9365 2733.8205,-23.8973 2734.1458,-16.9049"/>
</g>
<!-- node3055 -->
<g id="node37" class="node">
<title>node3055</title>
<polygon fill="none" stroke="#000000" points="3564.6789,-36 3486.6789,-36 3486.6789,0 3564.6789,0 3564.6789,-36"/>
<text text-anchor="middle" x="3525.6789" y="-14.9" font-family="Times,serif" font-size="12.00" fill="#000000">oedebugrt</text>
</g>
<!-- node39&#45;&gt;node3055 -->
<g id="edge71" class="edge">
<title>node39&#45;&gt;node3055</title>
<path fill="none" stroke="#000000" stroke-dasharray="5,2" d="M3475.6331,-76.1177C3483.5049,-66.9763 3494.0517,-54.7284 3503.4332,-43.8337"/>
<polygon fill="#000000" stroke="#000000" points="3506.1305,-46.0651 3510.0036,-36.2035 3500.8261,-41.4974 3506.1305,-46.0651"/>
</g>
<!-- node3076 -->
<g id="node38" class="node">
<title>node3076</title>
<ellipse fill="none" stroke="#000000" cx="3229.6789" cy="-18" rx="84.902" ry="18"/>
<text text-anchor="middle" x="3229.6789" y="-14.9" font-family="Times,serif" font-size="12.00" fill="#000000">openenclave::crypto</text>
</g>
<!-- node39&#45;&gt;node3076 -->
<g id="edge72" class="edge">
<title>node39&#45;&gt;node3076</title>
<path fill="none" stroke="#000000" stroke-dasharray="5,2" d="M3437.1204,-81.738C3427.2498,-78.6726 3415.9548,-75.171 3405.6789,-72 3366.4857,-59.9058 3322.3588,-46.367 3288.0939,-35.8713"/>
<polygon fill="#000000" stroke="#000000" points="3288.8359,-32.4381 3278.2493,-32.8563 3286.7861,-39.1313 3288.8359,-32.4381"/>
</g>
<!-- node3077 -->
<g id="node39" class="node">
<title>node3077</title>
<ellipse fill="none" stroke="#000000" cx="3400.6789" cy="-18" rx="67.9298" ry="18"/>
<text text-anchor="middle" x="3400.6789" y="-14.9" font-family="Times,serif" font-size="12.00" fill="#000000">openenclave::dl</text>
</g>
<!-- node39&#45;&gt;node3077 -->
<g id="edge73" class="edge">
<title>node39&#45;&gt;node3077</title>
<path fill="none" stroke="#000000" stroke-dasharray="5,2" d="M3451.5318,-76.1177C3443.418,-66.8447 3432.5072,-54.3753 3422.8726,-43.3642"/>
<polygon fill="#000000" stroke="#000000" points="3425.3599,-40.8918 3416.1408,-35.6708 3420.0919,-45.5014 3425.3599,-40.8918"/>
</g>
<!-- node146 -->
<g id="node40" class="node">
<title>node146</title>
<polygon fill="none" stroke="#000000" points="3555.3792,-167.5623 3513.6789,-180 3471.9785,-167.5623 3472.0174,-147.4377 3555.3403,-147.4377 3555.3792,-167.5623"/>
<text text-anchor="middle" x="3513.6789" y="-158.9" font-family="Times,serif" font-size="12.00" fill="#000000">oecert</text>
</g>
<!-- node146&#45;&gt;node39 -->
<g id="edge74" class="edge">
<title>node146&#45;&gt;node39</title>
<path fill="none" stroke="#000000" d="M3503.5606,-147.4297C3496.7157,-137.573 3487.5306,-124.3465 3479.7005,-113.0712"/>
<polygon fill="#000000" stroke="#000000" points="3482.3609,-110.7659 3473.7821,-104.5486 3476.6113,-114.7587 3482.3609,-110.7659"/>
</g>
<!-- node177 -->
<g id="node41" class="node">
<title>node177</title>
<polygon fill="none" stroke="#000000" points="3709.6211,-167.5623 3641.6789,-180 3573.7366,-167.5623 3573.8,-147.4377 3709.5577,-147.4377 3709.6211,-167.5623"/>
<text text-anchor="middle" x="3641.6789" y="-158.9" font-family="Times,serif" font-size="12.00" fill="#000000">oecertdump</text>
</g>
<!-- node177&#45;&gt;node39 -->
<g id="edge76" class="edge">
<title>node177&#45;&gt;node39</title>
<path fill="none" stroke="#000000" d="M3605.6579,-147.4297C3573.6666,-134.4894 3527.3164,-115.741 3496.3737,-103.2249"/>
<polygon fill="#000000" stroke="#000000" points="3497.4892,-99.9007 3486.9064,-99.3954 3494.8643,-106.3899 3497.4892,-99.9007"/>
</g>
<!-- node3078 -->
<g id="node42" class="node">
<title>node3078</title>
<ellipse fill="none" stroke="#000000" cx="3641.6789" cy="-90" rx="64.7736" ry="18"/>
<text text-anchor="middle" x="3641.6789" y="-86.9" font-family="Times,serif" font-size="12.00" fill="#000000">OpenSSL::SSL</text>
</g>
<!-- node177&#45;&gt;node3078 -->
<g id="edge75" class="edge">
<title>node177&#45;&gt;node3078</title>
<path fill="none" stroke="#000000" d="M3641.6789,-147.4297C3641.6789,-139.1011 3641.6789,-128.3665 3641.6789,-118.436"/>
<polygon fill="#000000" stroke="#000000" points="3645.179,-118.1279 3641.6789,-108.128 3638.179,-118.128 3645.179,-118.1279"/>
</g>
<!-- node1692 -->
<g id="node43" class="node">
<title>node1692</title>
<polygon fill="none" stroke="#000000" points="1299.6789,-396 1251.1736,-378 1299.6789,-360 1348.1841,-378 1299.6789,-396"/>
<text text-anchor="middle" x="1299.6789" y="-374.9" font-family="Times,serif" font-size="12.00" fill="#000000">oecpio</text>
</g>
<!-- node1692&#45;&gt;node2939 -->
<g id="edge78" class="edge">
<title>node1692&#45;&gt;node2939</title>
<path fill="none" stroke="#000000" stroke-dasharray="5,2" d="M1271.3544,-370.3637C1257.3848,-366.8126 1240.2348,-362.7717 1224.6789,-360 1089.8642,-335.9791 1052.4142,-353.4424 918.6789,-324 911.625,-322.4471 904.1955,-320.3468 897.1576,-318.1291"/>
<polygon fill="#000000" stroke="#000000" points="897.8091,-314.6584 887.216,-314.846 895.614,-321.3053 897.8091,-314.6584"/>
</g>
<!-- node1692&#45;&gt;node2777 -->
<g id="edge77" class="edge">
<title>node1692&#45;&gt;node2777</title>
<path fill="none" stroke="#000000" stroke-dasharray="5,2" d="M1327.4054,-370.1429C1339.9464,-366.7506 1354.994,-362.9033 1368.6789,-360 1416.9249,-349.7644 1555.758,-361.5966 1587.6789,-324 1641.2069,-260.9544 1507.1384,-200.0004 1440.1086,-174.5008"/>
<polygon fill="#000000" stroke="#000000" points="1441.3282,-171.2203 1430.7357,-170.9998 1438.8788,-177.7777 1441.3282,-171.2203"/>
</g>
<!-- node1691 -->
<g id="node44" class="node">
<title>node1691</title>
<polygon fill="none" stroke="#000000" points="3300.6789,-396 3216.288,-378 3300.6789,-360 3385.0698,-378 3300.6789,-396"/>
<text text-anchor="middle" x="3300.6789" y="-374.9" font-family="Times,serif" font-size="12.00" fill="#000000">oecpio&#45;lvi&#45;cfg</text>
</g>
<!-- node1691&#45;&gt;node2937 -->
<g id="edge80" class="edge">
<title>node1691&#45;&gt;node2937</title>
<path fill="none" stroke="#000000" stroke-dasharray="5,2" d="M3257.2375,-369.2064C3241.3601,-366.1181 3223.236,-362.7386 3206.6789,-360 3092.3439,-341.0886 2958.272,-323.3706 2881.7172,-313.6744"/>
<polygon fill="#000000" stroke="#000000" points="2882.1202,-310.1976 2871.7605,-312.4175 2881.2434,-317.1424 2882.1202,-310.1976"/>
</g>
<!-- node1691&#45;&gt;node2783 -->
<g id="edge79" class="edge">
<title>node1691&#45;&gt;node2783</title>
<path fill="none" stroke="#000000" stroke-dasharray="5,2" d="M3256.2208,-369.424C3240.5658,-366.4208 3222.8453,-363.0401 3206.6789,-360 3120.0658,-343.7124 3080.0274,-379.6381 3011.6789,-324 2971.4826,-291.2788 3007.5092,-249.1658 2967.6789,-216 2939.0775,-192.1843 2843.1281,-176.9293 2776.1621,-168.9101"/>
<polygon fill="#000000" stroke="#000000" points="2776.4301,-165.4177 2766.0912,-167.7321 2775.6168,-172.3703 2776.4301,-165.4177"/>
</g>
<!-- node2812 -->
<g id="node45" class="node">
<title>node2812</title>
<polygon fill="none" stroke="#000000" points="1464.6789,-612 1364.4473,-594 1464.6789,-576 1564.9104,-594 1464.6789,-612"/>
<text text-anchor="middle" x="1464.6789" y="-590.9" font-family="Times,serif" font-size="12.00" fill="#000000">oecryptoopenssl</text>
</g>
<!-- node2925 -->
<g id="node46" class="node">
<title>node2925</title>
<polygon fill="none" stroke="#000000" points="1495.6789,-540 1433.6789,-540 1433.6789,-504 1495.6789,-504 1495.6789,-540"/>
<text text-anchor="middle" x="1464.6789" y="-518.9" font-family="Times,serif" font-size="12.00" fill="#000000">openssl</text>
</g>
<!-- node2812&#45;&gt;node2925 -->
<g id="edge81" class="edge">
<title>node2812&#45;&gt;node2925</title>
<path fill="none" stroke="#000000" d="M1464.6789,-575.8314C1464.6789,-568.131 1464.6789,-558.9743 1464.6789,-550.4166"/>
<polygon fill="#000000" stroke="#000000" points="1468.179,-550.4132 1464.6789,-540.4133 1461.179,-550.4133 1468.179,-550.4132"/>
</g>
<!-- node2915 -->
<g id="node47" class="node">
<title>node2915</title>
<polygon fill="none" stroke="#000000" points="1465.6789,-396 1377.8234,-378 1465.6789,-360 1553.5344,-378 1465.6789,-396"/>
<text text-anchor="middle" x="1465.6789" y="-374.9" font-family="Times,serif" font-size="12.00" fill="#000000">opensslcrypto</text>
</g>
<!-- node2925&#45;&gt;node2915 -->
<g id="edge82" class="edge">
<title>node2925&#45;&gt;node2915</title>
<path fill="none" stroke="#000000" stroke-dasharray="1,5" d="M1452.4972,-503.882C1446.4473,-493.7891 1439.7811,-480.7221 1436.6789,-468 1432.8884,-452.4555 1432.776,-447.5167 1436.6789,-432 1439.2219,-421.8897 1444.0657,-411.6092 1449.0768,-402.7695"/>
<polygon fill="#000000" stroke="#000000" points="1452.109,-404.5187 1454.27,-394.1466 1446.1125,-400.9072 1452.109,-404.5187"/>
</g>
<!-- node2919 -->
<g id="node48" class="node">
<title>node2919</title>
<polygon fill="none" stroke="#000000" points="1512.6789,-468 1445.6108,-450 1512.6789,-432 1579.7469,-450 1512.6789,-468"/>
<text text-anchor="middle" x="1512.6789" y="-446.9" font-family="Times,serif" font-size="12.00" fill="#000000">opensslssl</text>
</g>
<!-- node2925&#45;&gt;node2919 -->
<g id="edge85" class="edge">
<title>node2925&#45;&gt;node2919</title>
<path fill="none" stroke="#000000" stroke-dasharray="1,5" d="M1476.7913,-503.8314C1482.8301,-494.7731 1490.2123,-483.6999 1496.7077,-473.9568"/>
<polygon fill="#000000" stroke="#000000" points="1499.7247,-475.741 1502.3596,-465.479 1493.9003,-471.858 1499.7247,-475.741"/>
</g>
<!-- node2915&#45;&gt;node14 -->
<g id="edge83" class="edge">
<title>node2915&#45;&gt;node14</title>
<path fill="none" stroke="#000000" d="M1514.5169,-369.9437C1545.017,-362.629 1583.196,-348.9923 1608.6789,-324 1639.4366,-293.8344 1644.6789,-277.0813 1644.6789,-234 1644.6789,-234 1644.6789,-234 1644.6789,-162 1644.6789,-139.04 1586.6633,-135.1544 1782.6789,-72 1862.9299,-46.1439 2446.7025,-25.4869 2627.4704,-19.6542"/>
<polygon fill="#000000" stroke="#000000" points="2627.6531,-23.1502 2637.5357,-19.3313 2627.4286,-16.1538 2627.6531,-23.1502"/>
</g>
<!-- node2915&#45;&gt;node2939 -->
<g id="edge84" class="edge">
<title>node2915&#45;&gt;node2939</title>
<path fill="none" stroke="#000000" d="M1419.5533,-369.4432C1400.4568,-366.1273 1378.0519,-362.5286 1357.6789,-360 1163.4035,-335.8872 1110.5793,-362.7112 918.6789,-324 911.5987,-322.5717 904.1576,-320.5262 897.1168,-318.3226"/>
<polygon fill="#000000" stroke="#000000" points="897.7694,-314.852 887.1762,-315.0346 895.5712,-321.4979 897.7694,-314.852"/>
</g>
<!-- node2919&#45;&gt;node2915 -->
<g id="edge86" class="edge">
<title>node2919&#45;&gt;node2915</title>
<path fill="none" stroke="#000000" d="M1502.4806,-434.3771C1496.406,-425.0713 1488.5633,-413.057 1481.6796,-402.5117"/>
<polygon fill="#000000" stroke="#000000" points="1484.5798,-400.5516 1476.1827,-394.091 1478.7181,-404.378 1484.5798,-400.5516"/>
</g>
<!-- node2808 -->
<g id="node49" class="node">
<title>node2808</title>
<polygon fill="none" stroke="#000000" points="3571.6789,-612 3436.8017,-594 3571.6789,-576 3706.5561,-594 3571.6789,-612"/>
<text text-anchor="middle" x="3571.6789" y="-590.9" font-family="Times,serif" font-size="12.00" fill="#000000">oecryptoopenssl&#45;lvi&#45;cfg</text>
</g>
<!-- node2921 -->
<g id="node50" class="node">
<title>node2921</title>
<polygon fill="none" stroke="#000000" points="3622.6789,-540 3520.6789,-540 3520.6789,-504 3622.6789,-504 3622.6789,-540"/>
<text text-anchor="middle" x="3571.6789" y="-518.9" font-family="Times,serif" font-size="12.00" fill="#000000">openssl&#45;lvi&#45;cfg</text>
</g>
<!-- node2808&#45;&gt;node2921 -->
<g id="edge87" class="edge">
<title>node2808&#45;&gt;node2921</title>
<path fill="none" stroke="#000000" d="M3571.6789,-575.8314C3571.6789,-568.131 3571.6789,-558.9743 3571.6789,-550.4166"/>
<polygon fill="#000000" stroke="#000000" points="3575.179,-550.4132 3571.6789,-540.4133 3568.179,-550.4133 3575.179,-550.4132"/>
</g>
<!-- node2928 -->
<g id="node51" class="node">
<title>node2928</title>
<polygon fill="none" stroke="#000000" points="3525.6789,-396 3403.1772,-378 3525.6789,-360 3648.1805,-378 3525.6789,-396"/>
<text text-anchor="middle" x="3525.6789" y="-374.9" font-family="Times,serif" font-size="12.00" fill="#000000">opensslcrypto&#45;lvi&#45;cfg</text>
</g>
<!-- node2921&#45;&gt;node2928 -->
<g id="edge88" class="edge">
<title>node2921&#45;&gt;node2928</title>
<path fill="none" stroke="#000000" stroke-dasharray="1,5" d="M3520.4538,-506.4877C3502.0665,-498.1706 3483.2724,-485.8453 3472.6789,-468 3464.5114,-454.2416 3466.6251,-446.8105 3472.6789,-432 3477.738,-419.623 3487.1531,-408.5513 3496.6603,-399.7036"/>
<polygon fill="#000000" stroke="#000000" points="3498.9909,-402.3151 3504.2232,-393.1024 3494.3878,-397.0414 3498.9909,-402.3151"/>
</g>
<!-- node2924 -->
<g id="node52" class="node">
<title>node2924</title>
<polygon fill="none" stroke="#000000" points="3584.6789,-468 3481.7235,-450 3584.6789,-432 3687.6342,-450 3584.6789,-468"/>
<text text-anchor="middle" x="3584.6789" y="-446.9" font-family="Times,serif" font-size="12.00" fill="#000000">opensslssl&#45;lvi&#45;cfg</text>
</g>
<!-- node2921&#45;&gt;node2924 -->
<g id="edge91" class="edge">
<title>node2921&#45;&gt;node2924</title>
<path fill="none" stroke="#000000" stroke-dasharray="1,5" d="M3574.9593,-503.8314C3576.3711,-496.0125 3578.0539,-486.6923 3579.6193,-478.0221"/>
<polygon fill="#000000" stroke="#000000" points="3583.1119,-478.3762 3581.4445,-467.9134 3576.2233,-477.1324 3583.1119,-478.3762"/>
</g>
<!-- node2928&#45;&gt;node14 -->
<g id="edge89" class="edge">
<title>node2928&#45;&gt;node14</title>
<path fill="none" stroke="#000000" d="M3463.2836,-369.0841C3441.3032,-366.0513 3416.4119,-362.7388 3393.6789,-360 3317.3688,-350.8063 3108.1064,-373.9397 3049.6789,-324 3018.2098,-297.1025 3025.6789,-275.3978 3025.6789,-234 3025.6789,-234 3025.6789,-234 3025.6789,-162 3025.6789,-99.5496 2830.7265,-49.6179 2733.92,-28.6733"/>
<polygon fill="#000000" stroke="#000000" points="2734.5346,-25.2257 2724.024,-26.5593 2733.0722,-32.0712 2734.5346,-25.2257"/>
</g>
<!-- node2928&#45;&gt;node2937 -->
<g id="edge90" class="edge">
<title>node2928&#45;&gt;node2937</title>
<path fill="none" stroke="#000000" d="M3463.9646,-369.0419C3441.8235,-365.9717 3416.6557,-362.6462 3393.6789,-360 3387.4291,-359.2802 3036.6926,-326.3594 2886.6251,-312.2799"/>
<polygon fill="#000000" stroke="#000000" points="2886.8885,-308.7893 2876.6053,-311.3399 2886.2346,-315.7587 2886.8885,-308.7893"/>
</g>
<!-- node2924&#45;&gt;node2928 -->
<g id="edge92" class="edge">
<title>node2924&#45;&gt;node2928</title>
<path fill="none" stroke="#000000" d="M3571.5849,-434.0209C3563.9235,-424.6714 3554.0975,-412.6804 3545.5035,-402.1928"/>
<polygon fill="#000000" stroke="#000000" points="3547.9857,-399.6999 3538.9403,-394.1834 3542.5714,-404.1366 3547.9857,-399.6999"/>
</g>
<!-- node3013 -->
<g id="node53" class="node">
<title>node3013</title>
<polygon fill="none" stroke="#000000" points="1002.6789,-324 927.9403,-306 1002.6789,-288 1077.4174,-306 1002.6789,-324"/>
<text text-anchor="middle" x="1002.6789" y="-302.9" font-family="Times,serif" font-size="12.00" fill="#000000">oehostepoll</text>
</g>
<!-- node3013&#45;&gt;node2959 -->
<g id="edge93" class="edge">
<title>node3013&#45;&gt;node2959</title>
<path fill="none" stroke="#000000" stroke-dasharray="5,2" d="M1041.5972,-297.2434C1101.0803,-283.8597 1214.332,-258.378 1277.4065,-244.1863"/>
<polygon fill="#000000" stroke="#000000" points="1278.4684,-247.5349 1287.4562,-241.9251 1276.9317,-240.7057 1278.4684,-247.5349"/>
</g>
<!-- node3011 -->
<g id="node54" class="node">
<title>node3011</title>
<polygon fill="none" stroke="#000000" points="1820.6789,-324 1710.7945,-306 1820.6789,-288 1930.5632,-306 1820.6789,-324"/>
<text text-anchor="middle" x="1820.6789" y="-302.9" font-family="Times,serif" font-size="12.00" fill="#000000">oehostepoll&#45;lvi&#45;cfg</text>
</g>
<!-- node3011&#45;&gt;node2963 -->
<g id="edge94" class="edge">
<title>node3011&#45;&gt;node2963</title>
<path fill="none" stroke="#000000" stroke-dasharray="5,2" d="M1876.9613,-297.1714C1963.0544,-283.6666 2126.8993,-257.9654 2216.789,-243.8651"/>
<polygon fill="#000000" stroke="#000000" points="2217.507,-247.2953 2226.8438,-242.2879 2216.4221,-240.3799 2217.507,-247.2953"/>
</g>
<!-- node2980 -->
<g id="node55" class="node">
<title>node2980</title>
<polygon fill="none" stroke="#000000" points="1153.6789,-324 1095.5218,-306 1153.6789,-288 1211.836,-306 1153.6789,-324"/>
<text text-anchor="middle" x="1153.6789" y="-302.9" font-family="Times,serif" font-size="12.00" fill="#000000">oehostfs</text>
</g>
<!-- node2980&#45;&gt;node2959 -->
<g id="edge95" class="edge">
<title>node2980&#45;&gt;node2959</title>
<path fill="none" stroke="#000000" stroke-dasharray="5,2" d="M1178.2529,-295.5306C1207.1244,-283.2303 1255.2255,-262.7375 1287.9123,-248.8118"/>
<polygon fill="#000000" stroke="#000000" points="1289.6953,-251.8566 1297.5233,-244.7172 1286.9516,-245.4167 1289.6953,-251.8566"/>
</g>
<!-- node2979 -->
<g id="node56" class="node">
<title>node2979</title>
<polygon fill="none" stroke="#000000" points="2041.6789,-324 1948.3763,-306 2041.6789,-288 2134.9814,-306 2041.6789,-324"/>
<text text-anchor="middle" x="2041.6789" y="-302.9" font-family="Times,serif" font-size="12.00" fill="#000000">oehostfs&#45;lvi&#45;cfg</text>
</g>
<!-- node2979&#45;&gt;node2963 -->
<g id="edge96" class="edge">
<title>node2979&#45;&gt;node2963</title>
<path fill="none" stroke="#000000" stroke-dasharray="5,2" d="M2078.085,-294.9864C2119.5748,-282.4349 2187.4962,-261.8872 2232.8845,-248.1563"/>
<polygon fill="#000000" stroke="#000000" points="2233.9343,-251.4954 2242.4924,-245.2497 2231.9073,-244.7953 2233.9343,-251.4954"/>
</g>
<!-- node30 -->
<g id="node57" class="node">
<title>node30</title>
<polygon fill="none" stroke="#000000" points="3155.6789,-108 3091.3342,-90 3155.6789,-72 3220.0235,-90 3155.6789,-108"/>
<text text-anchor="middle" x="3155.6789" y="-86.9" font-family="Times,serif" font-size="12.00" fill="#000000">oehostmr</text>
</g>
<!-- node30&#45;&gt;node14 -->
<g id="edge97" class="edge">
<title>node30&#45;&gt;node14</title>
<path fill="none" stroke="#000000" d="M3121.6482,-81.4338C3108.0332,-78.1936 3092.1697,-74.6518 3077.6789,-72 2955.4773,-49.6374 2810.5561,-32.1946 2734.0943,-23.6913"/>
<polygon fill="#000000" stroke="#000000" points="2734.0928,-20.1699 2723.7691,-22.5512 2733.3245,-27.1276 2734.0928,-20.1699"/>
</g>
<!-- node30&#45;&gt;node3076 -->
<g id="edge98" class="edge">
<title>node30&#45;&gt;node3076</title>
<path fill="none" stroke="#000000" stroke-dasharray="5,2" d="M3170.2989,-75.7751C3179.8814,-66.4516 3192.6718,-54.0068 3203.9275,-43.0554"/>
<polygon fill="#000000" stroke="#000000" points="3206.6899,-45.251 3211.4164,-35.7689 3201.8084,-40.2339 3206.6899,-45.251"/>
</g>
<!-- node2993 -->
<g id="node58" class="node">
<title>node2993</title>
<polygon fill="none" stroke="#000000" points="1322.6789,-324 1230.6172,-306 1322.6789,-288 1414.7405,-306 1322.6789,-324"/>
<text text-anchor="middle" x="1322.6789" y="-302.9" font-family="Times,serif" font-size="12.00" fill="#000000">oehostresolver</text>
</g>
<!-- node2993&#45;&gt;node2959 -->
<g id="edge99" class="edge">
<title>node2993&#45;&gt;node2959</title>
<path fill="none" stroke="#000000" stroke-dasharray="5,2" d="M1322.6789,-287.8314C1322.6789,-280.131 1322.6789,-270.9743 1322.6789,-262.4166"/>
<polygon fill="#000000" stroke="#000000" points="1326.179,-262.4132 1322.6789,-252.4133 1319.179,-262.4133 1326.179,-262.4132"/>
</g>
<!-- node2990 -->
<g id="node59" class="node">
<title>node2990</title>
<polygon fill="none" stroke="#000000" points="2279.6789,-324 2152.4719,-306 2279.6789,-288 2406.8858,-306 2279.6789,-324"/>
<text text-anchor="middle" x="2279.6789" y="-302.9" font-family="Times,serif" font-size="12.00" fill="#000000">oehostresolver&#45;lvi&#45;cfg</text>
</g>
<!-- node2990&#45;&gt;node2963 -->
<g id="edge100" class="edge">
<title>node2990&#45;&gt;node2963</title>
<path fill="none" stroke="#000000" stroke-dasharray="5,2" d="M2279.6789,-287.8314C2279.6789,-280.131 2279.6789,-270.9743 2279.6789,-262.4166"/>
<polygon fill="#000000" stroke="#000000" points="2283.179,-262.4132 2279.6789,-252.4133 2276.179,-262.4133 2283.179,-262.4132"/>
</g>
<!-- node3002 -->
<g id="node60" class="node">
<title>node3002</title>
<polygon fill="none" stroke="#000000" points="1505.6789,-324 1432.4226,-306 1505.6789,-288 1578.9351,-306 1505.6789,-324"/>
<text text-anchor="middle" x="1505.6789" y="-302.9" font-family="Times,serif" font-size="12.00" fill="#000000">oehostsock</text>
</g>
<!-- node3002&#45;&gt;node2959 -->
<g id="edge101" class="edge">
<title>node3002&#45;&gt;node2959</title>
<path fill="none" stroke="#000000" stroke-dasharray="5,2" d="M1477.4862,-294.9078C1445.5025,-282.3241 1393.2773,-261.7764 1358.4503,-248.074"/>
<polygon fill="#000000" stroke="#000000" points="1359.707,-244.8073 1349.1199,-244.403 1357.1441,-251.3213 1359.707,-244.8073"/>
</g>
<!-- node3001 -->
<g id="node61" class="node">
<title>node3001</title>
<polygon fill="none" stroke="#000000" points="2533.6789,-324 2425.0357,-306 2533.6789,-288 2642.322,-306 2533.6789,-324"/>
<text text-anchor="middle" x="2533.6789" y="-302.9" font-family="Times,serif" font-size="12.00" fill="#000000">oehostsock&#45;lvi&#45;cfg</text>
</g>
<!-- node3001&#45;&gt;node2963 -->
<g id="edge102" class="edge">
<title>node3001&#45;&gt;node2963</title>
<path fill="none" stroke="#000000" stroke-dasharray="5,2" d="M2493.4318,-294.5914C2448.6375,-281.8938 2376.2615,-261.3778 2328.3271,-247.7901"/>
<polygon fill="#000000" stroke="#000000" points="2329.0636,-244.361 2318.4882,-245.0011 2327.1546,-251.0957 2329.0636,-244.361"/>
</g>
<!-- node40 -->
<g id="node62" class="node">
<title>node40</title>
<polygon fill="none" stroke="#000000" points="3317.6789,-108 3238.2342,-90 3317.6789,-72 3397.1235,-90 3317.6789,-108"/>
<text text-anchor="middle" x="3317.6789" y="-86.9" font-family="Times,serif" font-size="12.00" fill="#000000">oehostverify</text>
</g>
<!-- node40&#45;&gt;node14 -->
<g id="edge103" class="edge">
<title>node40&#45;&gt;node14</title>
<path fill="none" stroke="#000000" d="M3277.5144,-80.9778C3262.28,-77.7929 3244.7364,-74.4086 3228.6789,-72 3048.2947,-44.9425 2832.3906,-28.2213 2734.1123,-21.4589"/>
<polygon fill="#000000" stroke="#000000" points="2734.0601,-17.9473 2723.8453,-20.7593 2733.5842,-24.9311 2734.0601,-17.9473"/>
</g>
<!-- node40&#45;&gt;node3076 -->
<g id="edge104" class="edge">
<title>node40&#45;&gt;node3076</title>
<path fill="none" stroke="#000000" stroke-dasharray="5,2" d="M3300.2929,-75.7751C3288.4851,-66.1142 3272.5812,-53.1019 3258.8561,-41.8723"/>
<polygon fill="#000000" stroke="#000000" points="3261.0302,-39.1289 3251.0742,-35.5053 3256.5975,-44.5466 3261.0302,-39.1289"/>
</g>
<!-- node40&#45;&gt;node3077 -->
<g id="edge105" class="edge">
<title>node40&#45;&gt;node3077</title>
<path fill="none" stroke="#000000" stroke-dasharray="5,2" d="M3334.4752,-75.4297C3345.5373,-65.8337 3360.2813,-53.0437 3373.0471,-41.9697"/>
<polygon fill="#000000" stroke="#000000" points="3375.4289,-44.537 3380.6894,-35.3403 3370.842,-39.2492 3375.4289,-44.537"/>
</g>
<!-- node2948 -->
<g id="node63" class="node">
<title>node2948</title>
<polygon fill="none" stroke="#000000" points="1121.6789,-468 1064.2634,-450 1121.6789,-432 1179.0943,-450 1121.6789,-468"/>
<text text-anchor="middle" x="1121.6789" y="-446.9" font-family="Times,serif" font-size="12.00" fill="#000000">oelibcxx</text>
</g>
<!-- node2845 -->
<g id="node64" class="node">
<title>node2845</title>
<polygon fill="none" stroke="#000000" points="1135.6789,-396 1081.6789,-396 1081.6789,-360 1135.6789,-360 1135.6789,-396"/>
<text text-anchor="middle" x="1108.6789" y="-374.9" font-family="Times,serif" font-size="12.00" fill="#000000">libcxx</text>
</g>
<!-- node2948&#45;&gt;node2845 -->
<g id="edge106" class="edge">
<title>node2948&#45;&gt;node2845</title>
<path fill="none" stroke="#000000" d="M1118.598,-432.937C1117.1625,-424.9865 1115.416,-415.3134 1113.7909,-406.3127"/>
<polygon fill="#000000" stroke="#000000" points="1117.186,-405.4181 1111.9648,-396.1992 1110.2974,-406.662 1117.186,-405.4181"/>
</g>
<!-- node2852 -->
<g id="node65" class="node">
<title>node2852</title>
<polygon fill="none" stroke="#000000" points="1215.6789,-396 1153.6789,-396 1153.6789,-360 1215.6789,-360 1215.6789,-396"/>
<text text-anchor="middle" x="1184.6789" y="-374.9" font-family="Times,serif" font-size="12.00" fill="#000000">libcxxrt</text>
</g>
<!-- node2948&#45;&gt;node2852 -->
<g id="edge108" class="edge">
<title>node2948&#45;&gt;node2852</title>
<path fill="none" stroke="#000000" d="M1134.1256,-435.7751C1142.1476,-426.6072 1152.8102,-414.4214 1162.2746,-403.6049"/>
<polygon fill="#000000" stroke="#000000" points="1164.9484,-405.8642 1168.8994,-396.0336 1159.6803,-401.2547 1164.9484,-405.8642"/>
</g>
<!-- node2863 -->
<g id="node66" class="node">
<title>node2863</title>
<polygon fill="none" stroke="#000000" points="1063.6789,-396 987.6789,-396 987.6789,-360 1063.6789,-360 1063.6789,-396"/>
<text text-anchor="middle" x="1025.6789" y="-374.9" font-family="Times,serif" font-size="12.00" fill="#000000">libunwind</text>
</g>
<!-- node2948&#45;&gt;node2863 -->
<g id="edge110" class="edge">
<title>node2948&#45;&gt;node2863</title>
<path fill="none" stroke="#000000" d="M1104.516,-437.1278C1091.6836,-427.5036 1073.7521,-414.0549 1058.2321,-402.4149"/>
<polygon fill="#000000" stroke="#000000" points="1060.0057,-399.3701 1049.9057,-396.1701 1055.8057,-404.9701 1060.0057,-399.3701"/>
</g>
<!-- node2845&#45;&gt;node2939 -->
<g id="edge107" class="edge">
<title>node2845&#45;&gt;node2939</title>
<path fill="none" stroke="#000000" d="M1081.4531,-363.5615C1078.5317,-362.2618 1075.5706,-361.0446 1072.6789,-360 1006.5702,-336.1195 986.3662,-342.9492 918.6789,-324 911.9185,-322.1074 904.751,-319.907 897.9023,-317.7077"/>
<polygon fill="#000000" stroke="#000000" points="898.7736,-314.3102 888.1809,-314.5224 896.594,-320.9622 898.7736,-314.3102"/>
</g>
<!-- node2852&#45;&gt;node2939 -->
<g id="edge109" class="edge">
<title>node2852&#45;&gt;node2939</title>
<path fill="none" stroke="#000000" d="M1153.5366,-363.0439C1150.5804,-361.9113 1147.5974,-360.8722 1144.6789,-360 1047.227,-330.8757 1017.5435,-347.8928 918.6789,-324 911.7894,-322.335 904.5203,-320.2207 897.604,-318.0312"/>
<polygon fill="#000000" stroke="#000000" points="898.4014,-314.6092 887.8085,-314.8131 896.2165,-321.2595 898.4014,-314.6092"/>
</g>
<!-- node2863&#45;&gt;node2939 -->
<g id="edge111" class="edge">
<title>node2863&#45;&gt;node2939</title>
<path fill="none" stroke="#000000" d="M987.2871,-360.937C958.9543,-348.3446 920.8983,-331.4309 894.5309,-319.712"/>
<polygon fill="#000000" stroke="#000000" points="895.9447,-316.5103 885.385,-315.6472 893.1017,-322.907 895.9447,-316.5103"/>
</g>
<!-- node2947 -->
<g id="node67" class="node">
<title>node2947</title>
<polygon fill="none" stroke="#000000" points="3058.6789,-468 2965.3763,-450 3058.6789,-432 3151.9814,-450 3058.6789,-468"/>
<text text-anchor="middle" x="3058.6789" y="-446.9" font-family="Times,serif" font-size="12.00" fill="#000000">oelibcxx&#45;lvi&#45;cfg</text>
</g>
<!-- node2839 -->
<g id="node68" class="node">
<title>node2839</title>
<polygon fill="none" stroke="#000000" points="3076.6789,-396 2984.6789,-396 2984.6789,-360 3076.6789,-360 3076.6789,-396"/>
<text text-anchor="middle" x="3030.6789" y="-374.9" font-family="Times,serif" font-size="12.00" fill="#000000">libcxx&#45;lvi&#45;cfg</text>
</g>
<!-- node2947&#45;&gt;node2839 -->
<g id="edge112" class="edge">
<title>node2947&#45;&gt;node2839</title>
<path fill="none" stroke="#000000" d="M3052.0433,-432.937C3048.8842,-424.8137 3045.0258,-414.892 3041.4615,-405.7267"/>
<polygon fill="#000000" stroke="#000000" points="3044.6429,-404.2506 3037.7563,-396.1992 3038.1188,-406.7878 3044.6429,-404.2506"/>
</g>
<!-- node2851 -->
<g id="node69" class="node">
<title>node2851</title>
<polygon fill="none" stroke="#000000" points="3198.1789,-396 3095.1789,-396 3095.1789,-360 3198.1789,-360 3198.1789,-396"/>
<text text-anchor="middle" x="3146.6789" y="-374.9" font-family="Times,serif" font-size="12.00" fill="#000000">libcxxrt&#45;lvi&#45;cfg</text>
</g>
<!-- node2947&#45;&gt;node2851 -->
<g id="edge114" class="edge">
<title>node2947&#45;&gt;node2851</title>
<path fill="none" stroke="#000000" d="M3076.487,-435.4297C3087.9659,-426.0379 3103.1843,-413.5865 3116.5158,-402.6789"/>
<polygon fill="#000000" stroke="#000000" points="3118.9992,-405.1692 3124.5225,-396.128 3114.5665,-399.7515 3118.9992,-405.1692"/>
</g>
<!-- node2862 -->
<g id="node70" class="node">
<title>node2862</title>
<polygon fill="none" stroke="#000000" points="2966.6789,-396 2850.6789,-396 2850.6789,-360 2966.6789,-360 2966.6789,-396"/>
<text text-anchor="middle" x="2908.6789" y="-374.9" font-family="Times,serif" font-size="12.00" fill="#000000">libunwind&#45;lvi&#45;cfg</text>
</g>
<!-- node2947&#45;&gt;node2862 -->
<g id="edge116" class="edge">
<title>node2947&#45;&gt;node2862</title>
<path fill="none" stroke="#000000" d="M3031.8619,-437.1278C3010.6223,-426.9329 2980.4424,-412.4465 2955.2715,-400.3645"/>
<polygon fill="#000000" stroke="#000000" points="2956.7803,-397.2064 2946.2505,-396.0344 2953.7511,-403.5171 2956.7803,-397.2064"/>
</g>
<!-- node2839&#45;&gt;node2937 -->
<g id="edge113" class="edge">
<title>node2839&#45;&gt;node2937</title>
<path fill="none" stroke="#000000" d="M2984.6348,-362.2883C2947.9473,-349.7693 2897.0174,-332.3904 2861.4885,-320.2668"/>
<polygon fill="#000000" stroke="#000000" points="2862.4951,-316.9122 2851.9006,-316.9951 2860.2344,-323.5371 2862.4951,-316.9122"/>
</g>
<!-- node2851&#45;&gt;node2937 -->
<g id="edge115" class="edge">
<title>node2851&#45;&gt;node2937</title>
<path fill="none" stroke="#000000" d="M3094.8483,-362.3735C3091.7531,-361.5437 3088.6793,-360.7457 3085.6789,-360 3013.5022,-342.0606 2929.2172,-325.7161 2875.1876,-315.8185"/>
<polygon fill="#000000" stroke="#000000" points="2875.5948,-312.3352 2865.1295,-313.9865 2874.3404,-319.2219 2875.5948,-312.3352"/>
</g>
<!-- node2862&#45;&gt;node2937 -->
<g id="edge117" class="edge">
<title>node2862&#45;&gt;node2937</title>
<path fill="none" stroke="#000000" d="M2886.2204,-359.8314C2873.8012,-349.7844 2858.3178,-337.2585 2845.4124,-326.8182"/>
<polygon fill="#000000" stroke="#000000" points="2847.338,-323.874 2837.3622,-320.3056 2842.9353,-329.3162 2847.338,-323.874"/>
</g>
<!-- node2733 -->
<g id="node71" class="node">
<title>node2733</title>
<polygon fill="none" stroke="#000000" points="3707.2924,-743.5623 3668.6789,-756 3630.0654,-743.5623 3630.1014,-723.4377 3707.2563,-723.4377 3707.2924,-743.5623"/>
<text text-anchor="middle" x="3668.6789" y="-734.9" font-family="Times,serif" font-size="12.00" fill="#000000">oesgx</text>
</g>
<!-- node2743 -->
<g id="node72" class="node">
<title>node2743</title>
<polygon fill="none" stroke="#000000" points="3198.4008,-167.5623 3155.6789,-180 3112.957,-167.5623 3112.9968,-147.4377 3198.3609,-147.4377 3198.4008,-167.5623"/>
<text text-anchor="middle" x="3155.6789" y="-158.9" font-family="Times,serif" font-size="12.00" fill="#000000">oesign</text>
</g>
<!-- node2743&#45;&gt;node30 -->
<g id="edge118" class="edge">
<title>node2743&#45;&gt;node30</title>
<path fill="none" stroke="#000000" d="M3155.6789,-147.4297C3155.6789,-139.1011 3155.6789,-128.3665 3155.6789,-118.436"/>
<polygon fill="#000000" stroke="#000000" points="3159.179,-118.1279 3155.6789,-108.128 3152.179,-118.128 3159.179,-118.1279"/>
</g>
<!-- node252 -->
<g id="node73" class="node">
<title>node252</title>
<polygon fill="none" stroke="#000000" points="3854.1789,-756 3725.1789,-756 3725.1789,-720 3854.1789,-720 3854.1789,-756"/>
<text text-anchor="middle" x="3789.6789" y="-734.9" font-family="Times,serif" font-size="12.00" fill="#000000">oesign_test_engine</text>
</g>
<!-- node2908 -->
<g id="node74" class="node">
<title>node2908</title>
<polygon fill="none" stroke="#000000" points="3945.6789,-756 3871.6817,-738 3945.6789,-720 4019.676,-738 3945.6789,-756"/>
<text text-anchor="middle" x="3945.6789" y="-734.9" font-family="Times,serif" font-size="12.00" fill="#000000">oesnmalloc</text>
</g>
<!-- node2905 -->
<g id="node75" class="node">
<title>node2905</title>
<polygon fill="none" stroke="#000000" points="4000.6789,-684 3890.6789,-684 3890.6789,-648 4000.6789,-648 4000.6789,-684"/>
<text text-anchor="middle" x="3945.6789" y="-662.9" font-family="Times,serif" font-size="12.00" fill="#000000">oesnmalloc_obj</text>
</g>
<!-- node2908&#45;&gt;node2905 -->
<g id="edge119" class="edge">
<title>node2908&#45;&gt;node2905</title>
<path fill="none" stroke="#000000" d="M3945.6789,-719.8314C3945.6789,-712.131 3945.6789,-702.9743 3945.6789,-694.4166"/>
<polygon fill="#000000" stroke="#000000" points="3949.179,-694.4132 3945.6789,-684.4133 3942.179,-694.4133 3949.179,-694.4132"/>
</g>
<!-- node2906 -->
<g id="node76" class="node">
<title>node2906</title>
<polygon fill="none" stroke="#000000" points="4146.6789,-756 4038.0357,-738 4146.6789,-720 4255.322,-738 4146.6789,-756"/>
<text text-anchor="middle" x="4146.6789" y="-734.9" font-family="Times,serif" font-size="12.00" fill="#000000">oesnmalloc&#45;lvi&#45;cfg</text>
</g>
<!-- node2904 -->
<g id="node77" class="node">
<title>node2904</title>
<polygon fill="none" stroke="#000000" points="4221.6789,-684 4071.6789,-684 4071.6789,-648 4221.6789,-648 4221.6789,-684"/>
<text text-anchor="middle" x="4146.6789" y="-662.9" font-family="Times,serif" font-size="12.00" fill="#000000">oesnmalloc_obj&#45;lvi&#45;cfg</text>
</g>
<!-- node2906&#45;&gt;node2904 -->
<g id="edge120" class="edge">
<title>node2906&#45;&gt;node2904</title>
<path fill="none" stroke="#000000" d="M4146.6789,-719.8314C4146.6789,-712.131 4146.6789,-702.9743 4146.6789,-694.4166"/>
<polygon fill="#000000" stroke="#000000" points="4150.179,-694.4132 4146.6789,-684.4133 4143.179,-694.4133 4150.179,-694.4132"/>
</g>
<!-- node2753 -->
<g id="node78" class="node">
<title>node2753</title>
<polygon fill="none" stroke="#000000" points="3341.0969,-167.5623 3291.6789,-180 3242.2609,-167.5623 3242.307,-147.4377 3341.0507,-147.4377 3341.0969,-167.5623"/>
<text text-anchor="middle" x="3291.6789" y="-158.9" font-family="Times,serif" font-size="12.00" fill="#000000">oeverify</text>
</g>
<!-- node2753&#45;&gt;node40 -->
<g id="edge121" class="edge">
<title>node2753&#45;&gt;node40</title>
<path fill="none" stroke="#000000" d="M3296.9404,-147.4297C3300.1564,-138.5239 3304.3658,-126.867 3308.1513,-116.384"/>
<polygon fill="#000000" stroke="#000000" points="3311.5,-117.4155 3311.6046,-106.8212 3304.9161,-115.0379 3311.5,-117.4155"/>
</g>
<!-- node2276 -->
<g id="node79" class="node">
<title>node2276</title>
<polygon fill="none" stroke="#000000" points="1673.6789,-396 1576.1709,-378 1673.6789,-360 1771.1869,-378 1673.6789,-396"/>
<text text-anchor="middle" x="1673.6789" y="-374.9" font-family="Times,serif" font-size="12.00" fill="#000000">openssl&#45;support</text>
</g>
<!-- node2276&#45;&gt;node14 -->
<g id="edge122" class="edge">
<title>node2276&#45;&gt;node14</title>
<path fill="none" stroke="#000000" stroke-dasharray="5,2" d="M1675.5002,-360.2873C1678.13,-333.1382 1682.6789,-279.5888 1682.6789,-234 1682.6789,-234 1682.6789,-234 1682.6789,-162 1682.6789,-65.6487 2420.7884,-28.5196 2627.4688,-20.0116"/>
<polygon fill="#000000" stroke="#000000" points="2627.6261,-23.5082 2637.4757,-19.6051 2627.3419,-16.514 2627.6261,-23.5082"/>
</g>
<!-- node2276&#45;&gt;node2939 -->
<g id="edge123" class="edge">
<title>node2276&#45;&gt;node2939</title>
<path fill="none" stroke="#000000" stroke-dasharray="5,2" d="M1624.9259,-368.9597C1605.6053,-365.6746 1583.1545,-362.2263 1562.6789,-360 1277.6894,-329.0136 1200.4,-377.0317 918.6789,-324 911.3478,-322.62 903.6425,-320.5263 896.3969,-318.249"/>
<polygon fill="#000000" stroke="#000000" points="897.4733,-314.9185 886.8796,-315.0795 895.2615,-321.5599 897.4733,-314.9185"/>
</g>
<!-- node2275 -->
<g id="node80" class="node">
<title>node2275</title>
<polygon fill="none" stroke="#000000" points="3798.6789,-396 3666.5249,-378 3798.6789,-360 3930.8328,-378 3798.6789,-396"/>
<text text-anchor="middle" x="3798.6789" y="-374.9" font-family="Times,serif" font-size="12.00" fill="#000000">openssl&#45;support&#45;lvi&#45;cfg</text>
</g>
<!-- node2275&#45;&gt;node14 -->
<g id="edge124" class="edge">
<title>node2275&#45;&gt;node14</title>
<path fill="none" stroke="#000000" stroke-dasharray="5,2" d="M3734.0967,-368.7499C3554.7431,-342.6305 3063.6789,-268.011 3063.6789,-234 3063.6789,-234 3063.6789,-234 3063.6789,-162 3063.6789,-99.1759 3011.4547,-98.8955 2954.6789,-72 2883.1112,-38.0975 2791.329,-25.4742 2734.2603,-20.7776"/>
<polygon fill="#000000" stroke="#000000" points="2734.2601,-17.2674 2724.021,-19.9896 2733.7229,-24.2467 2734.2601,-17.2674"/>
</g>
<!-- node2275&#45;&gt;node2937 -->
<g id="edge125" class="edge">
<title>node2275&#45;&gt;node2937</title>
<path fill="none" stroke="#000000" stroke-dasharray="5,2" d="M3733.8495,-368.7883C3709.947,-365.639 3682.6185,-362.3275 3657.6789,-360 3388.1546,-334.8462 3319.7373,-342.561 3049.6789,-324 2995.6273,-320.2851 2934.4804,-315.4704 2888.8278,-311.7554"/>
<polygon fill="#000000" stroke="#000000" points="2888.997,-308.2577 2878.7453,-310.9323 2888.4274,-315.2344 2888.997,-308.2577"/>
</g>
<!-- node1757 -->
<g id="node81" class="node">
<title>node1757</title>
<polygon fill="none" stroke="#000000" points="4317.6789,-756 4273.3803,-738 4317.6789,-720 4361.9774,-738 4317.6789,-756"/>
<text text-anchor="middle" x="4317.6789" y="-734.9" font-family="Times,serif" font-size="12.00" fill="#000000">rmdir</text>
</g>
<!-- node471 -->
<g id="node82" class="node">
<title>node471</title>
<polygon fill="none" stroke="#000000" points="926.2568,-743.5623 801.6789,-756 677.1009,-743.5623 677.2172,-723.4377 926.1406,-723.4377 926.2568,-743.5623"/>
<text text-anchor="middle" x="801.6789" y="-734.9" font-family="Times,serif" font-size="12.00" fill="#000000">snmalloc_enc_link_error</text>
</g>
<!-- node471&#45;&gt;node2800 -->
<g id="edge126" class="edge">
<title>node471&#45;&gt;node2800</title>
<path fill="none" stroke="#000000" d="M727.2086,-723.4297C657.8328,-709.8562 555.7948,-689.8922 492.1175,-677.4336"/>
<polygon fill="#000000" stroke="#000000" points="492.7239,-673.986 482.2379,-675.5007 491.3798,-680.8558 492.7239,-673.986"/>
</g>
<!-- node471&#45;&gt;node2939 -->
<g id="edge129" class="edge">
<title>node471&#45;&gt;node2939</title>
<path fill="none" stroke="#000000" d="M871.4535,-723.3325C894.7392,-715.2606 918.9789,-702.8816 935.6789,-684 963.1052,-652.9907 959.6789,-635.3978 959.6789,-594 959.6789,-594 959.6789,-594 959.6789,-450 959.6789,-408.6022 958.8466,-394.3079 935.6789,-360 924.8892,-344.0221 907.7737,-330.9015 892.937,-321.5958"/>
<polygon fill="#000000" stroke="#000000" points="894.4511,-318.4234 884.0705,-316.3032 890.8632,-324.4341 894.4511,-318.4234"/>
</g>
<!-- node471&#45;&gt;node2779 -->
<g id="edge127" class="edge">
<title>node471&#45;&gt;node2779</title>
<path fill="none" stroke="#000000" d="M770.5147,-723.4297C745.6228,-711.792 710.6831,-695.4565 684.4284,-683.1816"/>
<polygon fill="#000000" stroke="#000000" points="685.7244,-679.9239 675.1832,-678.8592 682.7597,-686.2651 685.7244,-679.9239"/>
</g>
<!-- node471&#45;&gt;node2764 -->
<g id="edge128" class="edge">
<title>node471&#45;&gt;node2764</title>
<path fill="none" stroke="#000000" d="M806.738,-723.4297C809.8519,-714.4616 813.9345,-702.7038 817.594,-692.1643"/>
<polygon fill="#000000" stroke="#000000" points="820.9539,-693.1582 820.9277,-682.5634 814.3411,-690.8621 820.9539,-693.1582"/>
</g>
<!-- node472 -->
<g id="node83" class="node">
<title>node472</title>
<polygon fill="none" stroke="#000000" points="2832.6509,-743.5623 2676.6789,-756 2520.7068,-743.5623 2520.8524,-723.4377 2832.5053,-723.4377 2832.6509,-743.5623"/>
<text text-anchor="middle" x="2676.6789" y="-734.9" font-family="Times,serif" font-size="12.00" fill="#000000">snmalloc_enc_link_error&#45;lvi&#45;cfg</text>
</g>
<!-- node472&#45;&gt;node2797 -->
<g id="edge130" class="edge">
<title>node472&#45;&gt;node2797</title>
<path fill="none" stroke="#000000" d="M2563.9616,-723.4297C2455.6933,-709.4345 2294.8685,-688.6457 2199.3198,-676.2947"/>
<polygon fill="#000000" stroke="#000000" points="2199.5072,-672.7899 2189.141,-674.9789 2198.6097,-679.7321 2199.5072,-672.7899"/>
</g>
<!-- node472&#45;&gt;node2937 -->
<g id="edge133" class="edge">
<title>node472&#45;&gt;node2937</title>
<path fill="none" stroke="#000000" d="M2736.8178,-723.3288C2759.0654,-715.1277 2782.7242,-702.662 2798.6789,-684 2825.58,-652.534 2822.6789,-635.3978 2822.6789,-594 2822.6789,-594 2822.6789,-594 2822.6789,-450 2822.6789,-409.8673 2821.4997,-363.4566 2820.6199,-334.414"/>
<polygon fill="#000000" stroke="#000000" points="2824.1109,-334.0687 2820.3005,-324.1828 2817.1143,-334.2872 2824.1109,-334.0687"/>
</g>
<!-- node472&#45;&gt;node2781 -->
<g id="edge131" class="edge">
<title>node472&#45;&gt;node2781</title>
<path fill="none" stroke="#000000" d="M2621.6356,-723.4297C2574.3903,-710.9236 2506.6509,-692.9926 2459.4767,-680.5053"/>
<polygon fill="#000000" stroke="#000000" points="2460.2999,-677.1027 2449.7372,-677.9272 2458.5086,-683.8697 2460.2999,-677.1027"/>
</g>
<!-- node472&#45;&gt;node2763 -->
<g id="edge132" class="edge">
<title>node472&#45;&gt;node2763</title>
<path fill="none" stroke="#000000" d="M2672.2268,-723.4297C2669.5525,-714.6773 2666.0663,-703.2679 2662.9065,-692.9269"/>
<polygon fill="#000000" stroke="#000000" points="2666.1673,-691.6208 2659.8978,-683.0801 2659.4728,-693.6664 2666.1673,-691.6208"/>
</g>
<!-- node2082 -->
<g id="node84" class="node">
<title>node2082</title>
<polygon fill="none" stroke="#000000" points="1298.762,-743.5623 1121.6789,-756 944.5958,-743.5623 944.7611,-723.4377 1298.5967,-723.4377 1298.762,-743.5623"/>
<text text-anchor="middle" x="1121.6789" y="-734.9" font-family="Times,serif" font-size="12.00" fill="#000000">thread_local_enc_exported_stripped</text>
</g>
<!-- node2082&#45;&gt;node2800 -->
<g id="edge134" class="edge">
<title>node2082&#45;&gt;node2800</title>
<path fill="none" stroke="#000000" d="M971.6929,-723.4244C959.5092,-722.2589 947.3872,-721.1055 935.6789,-720 761.9389,-703.5951 717.8019,-705.9803 544.6789,-684 528.3999,-681.9332 510.8445,-679.2831 494.6058,-676.6555"/>
<polygon fill="#000000" stroke="#000000" points="495.1231,-673.1937 484.6882,-675.0278 493.9894,-680.1013 495.1231,-673.1937"/>
</g>
<!-- node2082&#45;&gt;node2779 -->
<g id="edge135" class="edge">
<title>node2082&#45;&gt;node2779</title>
<path fill="none" stroke="#000000" d="M1016.0123,-723.4355C941.713,-712.9952 840.0138,-698.3045 750.6789,-684 736.1879,-681.6797 720.5775,-679.0298 705.9997,-676.4898"/>
<polygon fill="#000000" stroke="#000000" points="706.553,-673.0335 696.0988,-674.7544 705.3444,-679.9284 706.553,-673.0335"/>
</g>
<!-- node2082&#45;&gt;node2764 -->
<g id="edge136" class="edge">
<title>node2082&#45;&gt;node2764</title>
<path fill="none" stroke="#000000" d="M1061.9812,-723.4297C1005.7914,-709.7156 922.8732,-689.4779 871.9487,-677.0489"/>
<polygon fill="#000000" stroke="#000000" points="872.7525,-673.6424 862.2077,-674.6715 871.0927,-680.4428 872.7525,-673.6424"/>
</g>
<!-- node2082&#45;&gt;node2948 -->
<g id="edge137" class="edge">
<title>node2082&#45;&gt;node2948</title>
<path fill="none" stroke="#000000" d="M1121.6789,-723.3221C1121.6789,-677.8919 1121.6789,-539.0184 1121.6789,-478.59"/>
<polygon fill="#000000" stroke="#000000" points="1125.179,-478.2598 1121.6789,-468.2599 1118.179,-478.2599 1125.179,-478.2598"/>
</g>
<!-- node2084 -->
<g id="node85" class="node">
<title>node2084</title>
<polygon fill="none" stroke="#000000" points="3267.1561,-743.5623 3058.6789,-756 2850.2016,-743.5623 2850.3962,-723.4377 3266.9615,-723.4377 3267.1561,-743.5623"/>
<text text-anchor="middle" x="3058.6789" y="-734.9" font-family="Times,serif" font-size="12.00" fill="#000000">thread_local_enc_exported_stripped&#45;lvi&#45;cfg</text>
</g>
<!-- node2084&#45;&gt;node2797 -->
<g id="edge138" class="edge">
<title>node2084&#45;&gt;node2797</title>
<path fill="none" stroke="#000000" d="M2886.9493,-723.4308C2871.6436,-722.2305 2856.3832,-721.0693 2841.6789,-720 2585.8548,-701.3972 2521.0808,-707.7036 2265.6789,-684 2243.4059,-681.9329 2219.2836,-679.1732 2197.1845,-676.4369"/>
<polygon fill="#000000" stroke="#000000" points="2197.5448,-672.9547 2187.1871,-675.1839 2196.6742,-679.9004 2197.5448,-672.9547"/>
</g>
<!-- node2084&#45;&gt;node2781 -->
<g id="edge139" class="edge">
<title>node2084&#45;&gt;node2781</title>
<path fill="none" stroke="#000000" d="M2910.3908,-723.4153C2807.4319,-713.0528 2667.1212,-698.4622 2543.6789,-684 2523.3139,-681.6141 2501.2957,-678.8487 2480.9191,-676.2121"/>
<polygon fill="#000000" stroke="#000000" points="2481.1155,-672.7082 2470.7476,-674.8892 2480.2127,-679.6498 2481.1155,-672.7082"/>
</g>
<!-- node2084&#45;&gt;node2763 -->
<g id="edge140" class="edge">
<title>node2084&#45;&gt;node2763</title>
<path fill="none" stroke="#000000" d="M2976.9234,-723.4297C2899.5684,-709.6437 2785.2243,-689.2655 2715.5821,-676.854"/>
<polygon fill="#000000" stroke="#000000" points="2716.1,-673.3913 2705.6411,-675.0824 2714.8718,-680.2827 2716.1,-673.3913"/>
</g>
<!-- node2084&#45;&gt;node2947 -->
<g id="edge141" class="edge">
<title>node2084&#45;&gt;node2947</title>
<path fill="none" stroke="#000000" d="M3058.6789,-723.3221C3058.6789,-677.8919 3058.6789,-539.0184 3058.6789,-478.59"/>
<polygon fill="#000000" stroke="#000000" points="3062.179,-478.2598 3058.6789,-468.2599 3055.179,-478.2599 3062.179,-478.2598"/>
</g>
<!-- node2079 -->
<g id="node86" class="node">
<title>node2079</title>
<polygon fill="none" stroke="#000000" points="1581.9747,-743.5623 1449.6789,-756 1317.383,-743.5623 1317.5065,-723.4377 1581.8512,-723.4377 1581.9747,-743.5623"/>
<text text-anchor="middle" x="1449.6789" y="-734.9" font-family="Times,serif" font-size="12.00" fill="#000000">thread_local_enc_stripped</text>
</g>
<!-- node2079&#45;&gt;node2800 -->
<g id="edge142" class="edge">
<title>node2079&#45;&gt;node2800</title>
<path fill="none" stroke="#000000" d="M1341.6182,-723.4015C1330.1731,-722.1246 1318.6957,-720.9566 1307.6789,-720 969.4632,-690.6311 882.3345,-719.228 544.6789,-684 527.9558,-682.2553 509.9217,-679.6472 493.3513,-676.9542"/>
<polygon fill="#000000" stroke="#000000" points="493.6868,-673.4619 483.2479,-675.2733 492.538,-680.367 493.6868,-673.4619"/>
</g>
<!-- node2079&#45;&gt;node2779 -->
<g id="edge143" class="edge">
<title>node2079&#45;&gt;node2779</title>
<path fill="none" stroke="#000000" d="M1340.0575,-723.4209C1329.1285,-722.1726 1318.1922,-721.0051 1307.6789,-720 1060.7328,-696.3908 997.0031,-713.3958 750.6789,-684 735.5209,-682.1911 719.2071,-679.6283 704.1325,-677.0021"/>
<polygon fill="#000000" stroke="#000000" points="704.3826,-673.4916 693.9236,-675.1823 703.1542,-680.3829 704.3826,-673.4916"/>
</g>
<!-- node2079&#45;&gt;node2764 -->
<g id="edge144" class="edge">
<title>node2079&#45;&gt;node2764</title>
<path fill="none" stroke="#000000" d="M1335.764,-723.4147C1326.2652,-722.2427 1316.8084,-721.091 1307.6789,-720 1155.2309,-701.7814 975.3794,-682.062 884.8936,-672.2641"/>
<polygon fill="#000000" stroke="#000000" points="885.1551,-668.7721 874.8366,-671.1761 884.4021,-675.7314 885.1551,-668.7721"/>
</g>
<!-- node2079&#45;&gt;node2948 -->
<g id="edge145" class="edge">
<title>node2079&#45;&gt;node2948</title>
<path fill="none" stroke="#000000" d="M1432.9624,-723.3221C1378.6146,-675.6021 1206.8467,-524.7815 1144.5392,-470.0725"/>
<polygon fill="#000000" stroke="#000000" points="1146.653,-467.2708 1136.8293,-463.3028 1142.0344,-472.5309 1146.653,-467.2708"/>
</g>
<!-- node2080 -->
<g id="node87" class="node">
<title>node2080</title>
<polygon fill="none" stroke="#000000" points="3612.3691,-743.5623 3448.6789,-756 3284.9886,-743.5623 3285.1414,-723.4377 3612.2163,-723.4377 3612.3691,-743.5623"/>
<text text-anchor="middle" x="3448.6789" y="-734.9" font-family="Times,serif" font-size="12.00" fill="#000000">thread_local_enc_stripped&#45;lvi&#45;cfg</text>
</g>
<!-- node2080&#45;&gt;node2797 -->
<g id="edge146" class="edge">
<title>node2080&#45;&gt;node2797</title>
<path fill="none" stroke="#000000" d="M3317.4627,-723.4003C3303.37,-722.1151 3289.2345,-720.9457 3275.6789,-720 2827.594,-688.7399 2713.4466,-719.5144 2265.6789,-684 2242.9386,-682.1964 2218.2934,-679.4601 2195.8407,-676.6615"/>
<polygon fill="#000000" stroke="#000000" points="2196.0546,-673.1607 2185.6937,-675.3745 2195.1737,-680.1051 2196.0546,-673.1607"/>
</g>
<!-- node2080&#45;&gt;node2781 -->
<g id="edge147" class="edge">
<title>node2080&#45;&gt;node2781</title>
<path fill="none" stroke="#000000" d="M3315.5702,-723.4114C3302.104,-722.1572 3288.6256,-720.9912 3275.6789,-720 2950.9027,-695.1364 2868.1174,-712.9385 2543.6789,-684 2522.3293,-682.0957 2499.215,-679.3708 2478.0781,-676.6154"/>
<polygon fill="#000000" stroke="#000000" points="2478.2501,-673.1077 2467.877,-675.2638 2477.3306,-680.0471 2478.2501,-673.1077"/>
</g>
<!-- node2080&#45;&gt;node2763 -->
<g id="edge148" class="edge">
<title>node2080&#45;&gt;node2763</title>
<path fill="none" stroke="#000000" d="M3310.3636,-723.3981C3298.6336,-722.2238 3286.9514,-721.0765 3275.6789,-720 3081.5006,-701.457 2852.9049,-682.2559 2734.6196,-672.5159"/>
<polygon fill="#000000" stroke="#000000" points="2734.815,-669.0202 2724.5618,-671.6886 2734.2411,-675.9966 2734.815,-669.0202"/>
</g>
<!-- node2080&#45;&gt;node2947 -->
<g id="edge149" class="edge">
<title>node2080&#45;&gt;node2947</title>
<path fill="none" stroke="#000000" d="M3428.8025,-723.3221C3364.3654,-675.7377 3161.1057,-525.6383 3086.4954,-470.5415"/>
<polygon fill="#000000" stroke="#000000" points="3088.1759,-467.4315 3078.0523,-464.3066 3084.0175,-473.0626 3088.1759,-467.4315"/>
</g>
</g>
</svg>
