<svg width="1280" height="720" xmlns="http://www.w3.org/2000/svg" xmlns:xlink="http://www.w3.org/1999/xlink" overflow="hidden"><defs><clipPath id="clip0"><path d="M0 0 1280 0 1280 720 0 720Z" fill-rule="evenodd" clip-rule="evenodd"/></clipPath></defs><g clip-path="url(#clip0)"><rect x="0" y="0" width="1280" height="720" fill="#FFFFFF"/><rect x="315.5" y="145.5" width="628" height="380" stroke="#000000" stroke-width="1.33333" stroke-miterlimit="8" fill="#F2F2F2"/><text font-family="Calibri,Calibri_MSFontService,sans-serif" font-weight="400" font-size="24" transform="translate(543.597 170)">OpenEnclave<tspan x="132.367" y="0">SDK</tspan></text><path d="M342.5 228.834C342.5 223.127 347.127 218.5 352.834 218.5L670.166 218.5C675.873 218.5 680.5 223.127 680.5 228.834L680.5 270.166C680.5 275.873 675.873 280.5 670.166 280.5L352.834 280.5C347.127 280.5 342.5 275.873 342.5 270.166Z" stroke="#2F528F" stroke-width="1.33333" stroke-miterlimit="8" fill="#DAE3F3" fill-rule="evenodd"/><text font-family="Calibri,Calibri_MSFontService,sans-serif" font-weight="400" font-size="19" transform="translate(473.162 255)">Stable API</text><path d="M680.5 228.834C680.5 223.127 685.127 218.5 690.834 218.5L910.166 218.5C915.874 218.5 920.5 223.127 920.5 228.834L920.5 270.166C920.5 275.874 915.874 280.5 910.166 280.5L690.834 280.5C685.127 280.5 680.5 275.874 680.5 270.166Z" stroke="#2F528F" stroke-width="1.33333" stroke-miterlimit="8" fill="#D6DCE5" fill-rule="evenodd"/><text font-family="Calibri,Calibri_MSFontService,sans-serif" font-weight="400" font-size="19" transform="translate(749.568 255)">Extended API</text><path d="M342.5 295.334C342.5 287.141 349.141 280.5 357.334 280.5L761.667 280.5C769.859 280.5 776.5 287.141 776.5 295.334L776.5 354.667C776.5 362.859 769.859 369.5 761.667 369.5L357.334 369.5C349.141 369.5 342.5 362.859 342.5 354.667Z" stroke="#2F528F" stroke-width="1.33333" stroke-miterlimit="8" fill="#DAE3F3" fill-rule="evenodd"/><text font-family="Calibri,Calibri_MSFontService,sans-serif" font-weight="400" font-size="19" transform="translate(519.741 330)">Core Code</text><path d="M776.5 295.334C776.5 287.141 783.141 280.5 791.334 280.5L905.666 280.5C913.859 280.5 920.5 287.141 920.5 295.334L920.5 354.666C920.5 362.859 913.859 369.5 905.666 369.5L791.334 369.5C783.141 369.5 776.5 362.859 776.5 354.666Z" stroke="#2F528F" stroke-width="1.33333" stroke-miterlimit="8" fill="#D6DCE5" fill-rule="evenodd"/><text font-family="Calibri,Calibri_MSFontService,sans-serif" font-weight="400" font-size="19" transform="translate(807.401 330)">Extensions</text><path d="M342.5 386.667C342.5 377.186 350.186 369.5 359.667 369.5L428.333 369.5C437.814 369.5 445.5 377.186 445.5 386.667L445.5 480.333C445.5 489.814 437.814 497.5 428.333 497.5L359.667 497.5C350.186 497.5 342.5 489.814 342.5 480.333Z" stroke="#2F528F" stroke-width="1.33333" stroke-miterlimit="8" fill="#DAE3F3" fill-rule="evenodd"/><text font-family="Calibri,Calibri_MSFontService,sans-serif" font-weight="400" font-size="19" transform="translate(358.729 439)">Emulator</text><path d="M518.5 382.167C518.5 375.171 524.171 369.5 531.167 369.5L581.833 369.5C588.829 369.5 594.5 375.171 594.5 382.167L594.5 484.833C594.5 491.829 588.829 497.5 581.833 497.5L531.167 497.5C524.171 497.5 518.5 491.829 518.5 484.833Z" stroke="#2F528F" stroke-width="1.33333" stroke-miterlimit="8" fill="#D0CECE" fill-rule="evenodd"/><text font-family="Calibri,Calibri_MSFontService,sans-serif" font-weight="400" font-size="19" transform="translate(542.227 417)">TEE<tspan x="-9.7467" y="23">plugin</tspan><tspan x="8.33331" y="45">A</tspan></text><path d="M608.5 382.334C608.5 375.246 614.246 369.5 621.334 369.5L672.666 369.5C679.754 369.5 685.5 375.246 685.5 382.334L685.5 484.666C685.5 491.754 679.754 497.5 672.666 497.5L621.334 497.5C614.246 497.5 608.5 491.754 608.5 484.666Z" stroke="#2F528F" stroke-width="1.33333" stroke-miterlimit="8" fill="#D0CECE" fill-rule="evenodd"/><text font-family="Calibri,Calibri_MSFontService,sans-serif" font-weight="400" font-size="19" transform="translate(632.94 417)">TEE<tspan x="-9.7467" y="23">plugin</tspan><tspan x="8.66663" y="45">B</tspan></text><path d="M699.5 382.334C699.5 375.246 705.246 369.5 712.334 369.5L763.666 369.5C770.754 369.5 776.5 375.246 776.5 382.334L776.5 484.666C776.5 491.754 770.754 497.5 763.666 497.5L712.334 497.5C705.246 497.5 699.5 491.754 699.5 484.666Z" stroke="#2F528F" stroke-width="1.33333" stroke-miterlimit="8" fill="#D0CECE" fill-rule="evenodd"/><text font-family="Calibri,Calibri_MSFontService,sans-serif" font-weight="400" font-size="19" transform="translate(723.653 417)">TEE<tspan x="-9.7467" y="23">plugin</tspan><tspan x="8.7533" y="45">C</tspan></text><path d="M69.5001 213.5 226.001 213.5 226.001 305 253.5 305 253.5 274.5 314.5 335.5 253.5 396.5 253.5 366 226.001 366 226.001 457.5 69.5001 457.5Z" stroke="#2F528F" stroke-width="1.33333" stroke-miterlimit="8" fill="#DAE3F3" fill-rule="evenodd"/><text font-family="Calibri,Calibri_MSFontService,sans-serif" font-weight="400" font-size="24" transform="translate(90.4302 314)">Community<tspan x="31.58" y="29">CI/CD</tspan><tspan x="-10.3133" y="58">Infrastructure</tspan></text><path d="M944.5 437.5 988.5 393.5 988.5 415.5 1029.26 415.5 1029.26 349.5 1186.5 349.5 1186.5 525.5 1029.26 525.5 1029.26 459.5 988.5 459.5 988.5 481.5Z" stroke="#2F528F" stroke-width="1.33333" stroke-miterlimit="8" fill="#D0CECE" fill-rule="evenodd"/><text font-family="Calibri,Calibri_MSFontService,sans-serif" font-weight="400" font-size="24" transform="translate(1054.14 387)">Third Party <tspan x="25.3334" y="29">CI/CD</tspan><tspan font-style="italic" x="-8.72668" y="87">(operated by </tspan><tspan font-style="italic" x="5.41333" y="116">3</tspan><tspan font-style="italic" font-size="16" x="17.5801" y="109">rd</tspan><tspan font-style="italic" x="36.7467" y="116">party )</tspan></text></g></svg>