<?xml version="1.0" encoding="UTF-8" standalone="no"?>
<!DOCTYPE svg PUBLIC "-//W3C//DTD SVG 1.1//EN" "http://www.w3.org/Graphics/SVG/1.1/DTD/svg11.dtd">
<!-- Generated by Microsoft Visio, SVG Export SGX2-eaccept.svg eacceptcopy -->
<svg xmlns="http://www.w3.org/2000/svg" xmlns:xlink="http://www.w3.org/1999/xlink" xmlns:ev="http://www.w3.org/2001/xml-events"
		width="6.39in" height="7.185in" viewBox="0 0 460.08 517.32" xml:space="preserve" color-interpolation-filters="sRGB"
		class="st15">
	<style type="text/css">
	<![CDATA[
		.st1 {fill:#9ab3d1;stroke:#1f497d;stroke-linecap:round;stroke-linejoin:round;stroke-width:0.72}
		.st2 {stroke:#1f497d;stroke-dasharray:5.04,3.6;stroke-linecap:round;stroke-linejoin:round;stroke-width:0.72}
		.st3 {fill:#000000;font-family:Arial;font-size:0.833336em;font-weight:bold}
		.st4 {font-size:1em}
		.st5 {fill:#000000;font-family:Arial;font-size:1.00001em;font-weight:bold}
		.st6 {marker-end:url(#mrkr4-47);stroke:#1f497d;stroke-linecap:round;stroke-linejoin:round;stroke-width:0.25}
		.st7 {fill:#1f497d;fill-opacity:1;stroke:#1f497d;stroke-opacity:1;stroke-width:0.07163323782235}
		.st8 {fill:#ffffff;stroke:none;stroke-linecap:butt;stroke-width:7.2}
		.st9 {fill:#000000;font-family:Arial;font-size:0.666664em}
		.st10 {marker-end:url(#mrkr3-85);stroke:#1f497d;stroke-dasharray:1.75,1.25;stroke-linecap:round;stroke-linejoin:round;stroke-width:0.25}
		.st11 {marker-end:url(#mrkr3-85);stroke:#1f497d;stroke-linecap:round;stroke-linejoin:round;stroke-width:0.25}
		.st12 {fill:none}
		.st13 {marker-end:url(#mrkr13-137);stroke:#1f497d;stroke-linecap:round;stroke-linejoin:round;stroke-width:0.5}
		.st14 {fill:#1f497d;fill-opacity:1;stroke:#1f497d;stroke-opacity:1;stroke-width:0.16556291390728}
		.st15 {fill:none;fill-rule:evenodd;font-size:12px;overflow:visible;stroke-linecap:square;stroke-miterlimit:3}
	]]>
	</style>

	<defs id="Markers">
		<g id="lend4">
			<path d="M 2 1 L 0 0 L 2 -1 L 2 1 " style="stroke:none"/>
		</g>
		<marker id="mrkr4-47" class="st7" refX="-27.92" orient="auto" markerUnits="strokeWidth" overflow="visible">
			<use xlink:href="#lend4" transform="scale(-13.96,-13.96) "/>
		</marker>
		<g id="lend3">
			<path d="M 2 1 L 0 0 L 2 -1 " style="stroke-linecap:round;stroke-linejoin:round;fill:none"/>
		</g>
		<marker id="mrkr3-85" class="st7" orient="auto" markerUnits="strokeWidth" overflow="visible">
			<use xlink:href="#lend3" transform="scale(-13.96,-13.96) "/>
		</marker>
		<g id="lend13">
			<path d="M 3 1 L 0 0 L 3 -1 L 3 1 " style="stroke:none"/>
		</g>
		<marker id="mrkr13-137" class="st14" refX="-18.12" orient="auto" markerUnits="strokeWidth" overflow="visible">
			<use xlink:href="#lend13" transform="scale(-6.04,-6.04) "/>
		</marker>
	</defs>
	<g>
		<title>eacceptcopy</title>
		<g id="group121-1" transform="translate(18.36,-29.16)">
			<title>Sheet.121</title>
			<g id="group1-2" transform="translate(115.11,-441)">
				<title>Object lifeline</title>
				<desc>Untrusted runtime</desc>
				<g id="shape2-3" transform="translate(11.25,0)">
					<title>Sheet.2</title>
					<rect x="0" y="492.12" width="54" height="25.2" class="st1"/>
				</g>
				<g id="shape3-5" transform="translate(29.25,-28.8)">
					<title>Sheet.3</title>
					<path d="M9 517.32 a0 0 0 1 1 0 0 a0 0 0 1 1 0 0 Z" class="st1"/>
				</g>
				<g id="shape4-7" transform="translate(25.5,447.3)">
					<title>Sheet.4</title>
				</g>
				<g id="shape5-9" transform="translate(555.57,517.32) rotate(90)">
					<title>Sheet.5</title>
					<path d="M0 517.32 L429.3 517.32" class="st2"/>
				</g>
				<g id="shape1-12">
					<rect x="0" y="492.12" width="76.5" height="25.2" class="st1"/>
					<text x="14.64" y="501.72" class="st3">Untrusted <tspan x="19.92" dy="1.2em" class="st4">runtime</tspan></text>				</g>
			</g>
			<g id="group6-16" transform="translate(256.86,-441)">
				<title>Object lifeline.6</title>
				<desc>kernel</desc>
				<g id="shape7-17">
					<title>Sheet.7</title>
					<rect x="0" y="492.12" width="54" height="25.2" class="st1"/>
				</g>
				<g id="shape8-19" transform="translate(18,-28.8)">
					<title>Sheet.8</title>
					<path d="M9 517.32 a0 0 0 1 1 0 0 a0 0 0 1 1 0 0 Z" class="st1"/>
				</g>
				<g id="shape9-21" transform="translate(18,447.3)">
					<title>Sheet.9</title>
				</g>
				<g id="shape10-23" transform="translate(544.32,517.32) rotate(90)">
					<title>Sheet.10</title>
					<path d="M0 517.32 L429.3 517.32" class="st2"/>
				</g>
				<g id="shape6-26">
					<rect x="0" y="492.12" width="54" height="25.2" class="st1"/>
					<text x="9.32" y="508.32" class="st5">kernel</text>				</g>
			</g>
			<g id="group11-29" transform="translate(355.86,-441)">
				<title>Object lifeline.11</title>
				<desc>CPU-sgx</desc>
				<g id="shape12-30" transform="translate(6.75,0)">
					<title>Sheet.12</title>
					<rect x="0" y="492.12" width="54" height="25.2" class="st1"/>
				</g>
				<g id="shape13-32" transform="translate(24.75,-28.8)">
					<title>Sheet.13</title>
					<path d="M9 517.32 a0 0 0 1 1 0 0 a0 0 0 1 1 0 0 Z" class="st1"/>
				</g>
				<g id="shape14-34" transform="translate(22.5,447.3)">
					<title>Sheet.14</title>
				</g>
				<g id="shape15-36" transform="translate(551.07,517.32) rotate(90)">
					<title>Sheet.15</title>
					<path d="M0 517.32 L429.3 517.32" class="st2"/>
				</g>
				<g id="shape11-39">
					<rect x="0" y="492.12" width="67.5" height="25.2" class="st1"/>
					<text x="8.75" y="508.32" class="st5">CPU-sgx</text>				</g>
			</g>
			<g id="shape16-42" transform="translate(153.36,-378)">
				<title>Message.50</title>
				<desc>mmap(addr, len, PROT_READ | PROT_WRITE, MAP_SHARED|MAP_FIXED ...</desc>
				<path d="M0 508.32 L123.52 508.32" class="st6"/>
				<rect x="7.95558" y="468.42" width="110.089" height="38.3997" class="st8"/>
				<text x="33.88" y="475.62" class="st9">mmap(addr, len,  <tspan x="7.96" dy="1.2em" class="st4">PROT</tspan>_READ | PROT_WRITE, <tspan
							x="11.73" dy="1.2em" class="st4">MAP</tspan>_SHARED|MAP_FIXED <tspan x="56.11" dy="1.2em" class="st4">, </tspan>fd)</text>			</g>
			<g id="group24-53" transform="translate(9.36,-441)">
				<title>Object lifeline.24</title>
				<desc>Enclave</desc>
				<g id="shape25-54">
					<title>Sheet.25</title>
					<rect x="0" y="492.12" width="54" height="25.2" class="st1"/>
				</g>
				<g id="shape26-56" transform="translate(18,-28.8)">
					<title>Sheet.26</title>
					<path d="M9 517.32 a0 0 0 1 1 0 0 a0 0 0 1 1 0 0 Z" class="st1"/>
				</g>
				<g id="shape27-58" transform="translate(18,447.3)">
					<title>Sheet.27</title>
				</g>
				<g id="shape28-60" transform="translate(544.32,517.32) rotate(90)">
					<title>Sheet.28</title>
					<path d="M0 517.32 L429.3 517.32" class="st2"/>
				</g>
				<g id="shape24-63">
					<rect x="0" y="492.12" width="54" height="25.2" class="st1"/>
					<text x="4.32" y="508.32" class="st5">Enclave</text>				</g>
			</g>
			<g id="shape29-66" transform="translate(36.36,-414)">
				<title>Message.50.29</title>
				<desc>OCALL_mmap</desc>
				<path d="M0 508.32 L110.02 508.32" class="st6"/>
				<rect x="32.045" y="503.52" width="52.9099" height="9.59985" class="st8"/>
				<text x="32.05" y="510.72" class="st9">OCALL_mmap</text>			</g>
			<g id="shape30-73" transform="translate(283.86,-288)">
				<title>Message.50.30</title>
				<desc>EAUG</desc>
				<path d="M0 508.32 L98.77 508.32" class="st6"/>
				<rect x="41.5391" y="503.52" width="22.6717" height="9.59985" class="st8"/>
				<text x="41.54" y="510.72" class="st9">EAUG</text>			</g>
			<g id="shape32-80" transform="translate(283.86,-342)">
				<title>Return Message.32</title>
				<desc>address</desc>
				<path d="M0 508.32 L-130.5 508.32" class="st10"/>
				<rect x="-79.4805" y="503.52" width="28.4612" height="9.59985" class="st8"/>
				<text x="-79.48" y="510.72" class="st9">address</text>			</g>
			<g id="shape66-88" transform="translate(389.61,-216)">
				<title>Asynchronous Message.55</title>
				<desc>#PF (EPCM.pending)</desc>
				<path d="M0 508.32 L-105.75 508.32" class="st11"/>
				<rect x="-90.8903" y="503.52" width="76.0306" height="9.59985" class="st8"/>
				<text x="-90.89" y="510.72" class="st9">#PF (EPCM.pending)</text>			</g>
			<g id="shape68-95" transform="translate(389.61,-252)">
				<title>Return Message.53</title>
				<path d="M0 508.32 L-353.25 508.32" class="st10"/>
			</g>
			<g id="shape79-100" transform="translate(153.36,-270)">
				<title>Message.50.79</title>
				<desc>ERESUME</desc>
				<path d="M0 508.32 L229.27 508.32" class="st6"/>
				<rect x="98.3439" y="503.52" width="39.562" height="9.59985" class="st8"/>
				<text x="98.34" y="510.72" class="st9">ERESUME</text>			</g>
			<g id="shape80-107" transform="translate(283.14,-281.7)">
				<title>Return Message.53.80</title>
				<desc>return to AEP trampoline</desc>
				<path d="M0 508.32 L-130.5 508.32" class="st10"/>
				<rect x="-109.048" y="503.52" width="87.5965" height="9.59985" class="st8"/>
				<text x="-109.05" y="510.72" class="st9">return to AEP trampoline</text>			</g>
			<g id="shape83-114" transform="translate(153.36,-342)">
				<title>Return Message.83</title>
				<path d="M0 508.32 L-117 508.32" class="st10"/>
			</g>
			<g id="shape93-119" transform="translate(0,10.8)">
				<title>Interaction operand</title>
				<desc>[Kernel to EAUG on #PF, flow is similar for immediate EAUG]</desc>
				<path d="M0 517.32 L404.64 517.32 L404.64 128.78 L0 128.78 L0 517.32 Z" class="st12"/>
				<path d="M404.64 128.78 L0 128.78" class="st2"/>
				<text x="4" y="139.98" class="st9">[Kernel to EAUG on #PF, flow is similar for immediate EAUG]</text>			</g>
			<g id="group95-123" transform="translate(39.015,-205.2)">
				<title>Sheet.95</title>
				<g id="shape33-124" transform="translate(-2.655,61.2)">
					<title>Message.50.33</title>
					<desc>EACCEPTCOPY(code, RX) load code and set EPCM.RX</desc>
					<path d="M0 508.32 L346.27 508.32" class="st6"/>
					<rect x="123.865" y="491.52" width="101.831" height="19.1997" class="st8"/>
					<text x="125.43" y="498.72" class="st9">EACCEPTCOPY(code, RX) <tspan x="123.86" dy="1.2em" class="st4">load code and set EPCM</tspan>.RX</text>				</g>
			</g>
			<g id="shape98-132" transform="translate(36.36,-324)">
				<title>Dynamic connector</title>
				<desc>Execute code not loaded</desc>
				<path d="M0 508.32 L344.19 508.32" class="st13"/>
				<rect x="152.387" y="498.72" width="48.4763" height="19.1997" class="st8"/>
				<text x="152.39" y="505.92" class="st9">Execute code <tspan x="156.83" dy="1.2em" class="st4"> </tspan>not loaded</text>			</g>
			<g id="shape99-141" transform="translate(389.61,-306)">
				<title>Asynchronous Message.55.99</title>
				<desc>#PF on read</desc>
				<path d="M0 508.32 L-105.75 508.32" class="st11"/>
				<rect x="-74.8885" y="503.52" width="44.0269" height="9.59985" class="st8"/>
				<text x="-74.89" y="510.72" class="st9">#PF on read</text>			</g>
			<g id="shape103-148" transform="translate(36.36,-234)">
				<title>Dynamic connector.103</title>
				<desc>Retry: execute code not loaded</desc>
				<path d="M0 508.32 L344.19 508.32" class="st13"/>
				<rect x="141.051" y="498.72" width="71.1483" height="19.1997" class="st8"/>
				<text x="141.05" y="505.92" class="st9">Retry: execute code <tspan x="157.94" dy="1.2em" class="st4">not loaded</tspan></text>			</g>
			<g id="shape105-156" transform="translate(283.86,-198)">
				<title>Message.50.105</title>
				<desc>vDSO callback</desc>
				<path d="M0 508.32 L-123.52 508.32" class="st6"/>
				<rect x="-91.4806" y="503.52" width="52.4611" height="9.59985" class="st8"/>
				<text x="-91.48" y="510.72" class="st9">vDSO callback</text>			</g>
			<g id="shape106-163" transform="translate(153.36,-198)">
				<title>Message.50.106</title>
				<desc>ExceptionHandler</desc>
				<path d="M0 508.32 L-110.02 508.32" class="st6"/>
				<rect x="-90.0742" y="503.52" width="63.1483" height="9.59985" class="st8"/>
				<text x="-90.07" y="510.72" class="st9">ExceptionHandler</text>			</g>
			<g id="shape107-170" transform="translate(36.36,-72)">
				<title>Return Message.53.107</title>
				<desc>return</desc>
				<path d="M0 508.32 L117 508.32" class="st10"/>
				<rect x="48.0507" y="503.52" width="20.8985" height="9.59985" class="st8"/>
				<text x="48.05" y="510.72" class="st9">return</text>			</g>
			<g id="shape108-177" transform="translate(153.36,-72)">
				<title>Message.108</title>
				<desc>ERESUME</desc>
				<path d="M0 508.32 L229.27 508.32" class="st6"/>
				<rect x="98.3439" y="503.52" width="39.562" height="9.59985" class="st8"/>
				<text x="98.34" y="510.72" class="st9">ERESUME</text>			</g>
			<g id="shape109-184" transform="translate(36.36,-36)">
				<title>Dynamic connector.109</title>
				<desc>Retry: execute code success</desc>
				<path d="M0 508.32 L344.19 508.32" class="st13"/>
				<rect x="141.051" y="498.72" width="71.1483" height="19.1997" class="st8"/>
				<text x="141.05" y="505.92" class="st9">Retry: execute code <tspan x="162.18" dy="1.2em" class="st4">success</tspan></text>			</g>
			<g id="shape111-192" transform="translate(36.36,-126)">
				<title>Message.50.111</title>
				<desc>OCall_mprotect(RX)</desc>
				<path d="M0 508.32 L110.02 508.32" class="st6"/>
				<rect x="22.4921" y="503.52" width="72.0157" height="9.59985" class="st8"/>
				<text x="22.49" y="510.72" class="st9">OCall_mprotect(RX)</text>			</g>
			<g id="shape112-199" transform="translate(153.36,-126)">
				<title>Message.112</title>
				<desc>mprotect(RX)</desc>
				<path d="M0 508.32 L123.52 508.32" class="st6"/>
				<rect x="29.4987" y="500.82" width="47.5626" height="9.59985" class="st8"/>
				<text x="29.5" y="508.02" class="st9">mprotect(RX)</text>			</g>
			<g id="shape114-206" transform="translate(274.86,-117)">
				<title>Message.50.114</title>
				<desc>update PTE.RW-&#62;RX</desc>
				<path d="M9 517.32 L27 517.32 L27 535.32 L15.98 535.32" class="st6"/>
				<rect x="19.6554" y="523.38" width="76.2492" height="19.1997" class="st8"/>
				<text x="19.66" y="530.58" class="st9">update PTE.RW-&#62;RX</text>			</g>
			<g id="shape115-213" transform="translate(283.86,-90)">
				<title>Return Message.53.115</title>
				<desc>success</desc>
				<path d="M0 508.32 L-130.5 508.32" class="st10"/>
				<rect x="-79.6994" y="503.52" width="28.899" height="9.59985" class="st8"/>
				<text x="-79.7" y="510.72" class="st9">success</text>			</g>
			<g id="shape116-220" transform="translate(153.36,-90)">
				<title>Return Message.53.116</title>
				<desc>success</desc>
				<path d="M0 508.32 L-117 508.32" class="st10"/>
				<rect x="-72.9494" y="503.52" width="28.899" height="9.59985" class="st8"/>
				<text x="-72.95" y="510.72" class="st9">success</text>			</g>
			<g id="shape119-227" transform="translate(389.61,-54)">
				<title>Return Message.53.119</title>
				<path d="M0 508.32 L-353.25 508.32" class="st10"/>
			</g>
			<g id="shape120-232" transform="translate(27.36,-189)">
				<title>Message.50.120</title>
				<desc>load code page</desc>
				<path d="M9 517.32 L27 517.32 L27 535.32 L15.98 535.32" class="st6"/>
				<rect x="34.9228" y="523.32" width="54.7144" height="9.59985" class="st8"/>
				<text x="34.92" y="530.52" class="st9">load code page</text>			</g>
		</g>
	</g>
</svg>
