<?xml version="1.0" encoding="UTF-8" standalone="no"?>
<!DOCTYPE svg PUBLIC "-//W3C//DTD SVG 1.1//EN" "http://www.w3.org/Graphics/SVG/1.1/DTD/svg11.dtd">
<!-- Generated by Microsoft Visio, SVG Export SGX2-alloc-direct.svg Page-1 -->
<svg xmlns="http://www.w3.org/2000/svg" xmlns:xlink="http://www.w3.org/1999/xlink" xmlns:ev="http://www.w3.org/2001/xml-events"
		width="5.76in" height="4.055in" viewBox="0 0 414.72 291.96" xml:space="preserve" color-interpolation-filters="sRGB"
		class="st13">
	<style type="text/css">
	<![CDATA[
		.st1 {fill:#9ab3d1;stroke:#1f497d;stroke-linecap:round;stroke-linejoin:round;stroke-width:0.72}
		.st2 {stroke:#1f497d;stroke-dasharray:5.04,3.6;stroke-linecap:round;stroke-linejoin:round;stroke-width:0.72}
		.st3 {fill:#000000;font-family:Arial;font-size:0.833336em;font-weight:bold}
		.st4 {font-size:1em}
		.st5 {fill:#000000;font-family:Arial;font-size:1.00001em;font-weight:bold}
		.st6 {marker-end:url(#mrkr4-47);stroke:#1f497d;stroke-linecap:round;stroke-linejoin:round;stroke-width:0.25}
		.st7 {fill:#1f497d;fill-opacity:1;stroke:#1f497d;stroke-opacity:1;stroke-width:0.07163323782235}
		.st8 {fill:#ffffff;stroke:none;stroke-linecap:butt;stroke-width:7.2}
		.st9 {fill:#000000;font-family:Arial;font-size:0.666664em}
		.st10 {marker-end:url(#mrkr3-85);stroke:#1f497d;stroke-dasharray:1.75,1.25;stroke-linecap:round;stroke-linejoin:round;stroke-width:0.25}
		.st11 {fill:#9ab3d1;fill-opacity:0;stroke:#1f497d;stroke-linecap:round;stroke-linejoin:round;stroke-width:0.72}
		.st12 {fill:#000000;font-family:Arial;font-size:0.666664em;font-weight:bold}
		.st13 {fill:none;fill-rule:evenodd;font-size:12px;overflow:visible;stroke-linecap:square;stroke-miterlimit:3}
	]]>
	</style>

	<defs id="Markers">
		<g id="lend4">
			<path d="M 2 1 L 0 0 L 2 -1 L 2 1 " style="stroke:none"/>
		</g>
		<marker id="mrkr4-47" class="st7" refX="-27.92" orient="auto" markerUnits="strokeWidth" overflow="visible">
			<use xlink:href="#lend4" transform="scale(-13.96,-13.96) "/>
		</marker>
		<g id="lend3">
			<path d="M 2 1 L 0 0 L 2 -1 " style="stroke-linecap:round;stroke-linejoin:round;fill:none"/>
		</g>
		<marker id="mrkr3-85" class="st7" orient="auto" markerUnits="strokeWidth" overflow="visible">
			<use xlink:href="#lend3" transform="scale(-13.96,-13.96) "/>
		</marker>
	</defs>
	<g>
		<title>Page-1</title>
		<g id="group69-1" transform="translate(0.36,-28.8)">
			<title>Sheet.69</title>
			<g id="group1-2" transform="translate(105.75,-234)">
				<title>Object lifeline</title>
				<desc>Untrusted runtime</desc>
				<g id="shape2-3" transform="translate(11.25,0)">
					<title>Sheet.2</title>
					<rect x="0" y="266.76" width="54" height="25.2" class="st1"/>
				</g>
				<g id="shape3-5" transform="translate(29.25,-28.8)">
					<title>Sheet.3</title>
					<path d="M9 291.96 a0 0 0 1 1 0 0 a0 0 0 1 1 0 0 Z" class="st1"/>
				</g>
				<g id="shape4-7" transform="translate(25.5,262.8)">
					<title>Sheet.4</title>
				</g>
				<g id="shape5-9" transform="translate(330.21,291.96) rotate(90)">
					<title>Sheet.5</title>
					<path d="M0 291.96 L244.8 291.96" class="st2"/>
				</g>
				<g id="shape1-12">
					<rect x="0" y="266.76" width="76.5" height="25.2" class="st1"/>
					<text x="14.64" y="276.36" class="st3">Untrusted <tspan x="19.92" dy="1.2em" class="st4">runtime</tspan></text>				</g>
			</g>
			<g id="group6-16" transform="translate(247.5,-234)">
				<title>Object lifeline.6</title>
				<desc>kernel</desc>
				<g id="shape7-17">
					<title>Sheet.7</title>
					<rect x="0" y="266.76" width="54" height="25.2" class="st1"/>
				</g>
				<g id="shape8-19" transform="translate(18,-28.8)">
					<title>Sheet.8</title>
					<path d="M9 291.96 a0 0 0 1 1 0 0 a0 0 0 1 1 0 0 Z" class="st1"/>
				</g>
				<g id="shape9-21" transform="translate(18,262.8)">
					<title>Sheet.9</title>
				</g>
				<g id="shape10-23" transform="translate(318.96,291.96) rotate(90)">
					<title>Sheet.10</title>
					<path d="M0 291.96 L244.8 291.96" class="st2"/>
				</g>
				<g id="shape6-26">
					<rect x="0" y="266.76" width="54" height="25.2" class="st1"/>
					<text x="9.32" y="282.96" class="st5">kernel</text>				</g>
			</g>
			<g id="group11-29" transform="translate(346.5,-234)">
				<title>Object lifeline.11</title>
				<desc>CPU-sgx</desc>
				<g id="shape12-30" transform="translate(6.75,0)">
					<title>Sheet.12</title>
					<rect x="0" y="266.76" width="54" height="25.2" class="st1"/>
				</g>
				<g id="shape13-32" transform="translate(24.75,-28.8)">
					<title>Sheet.13</title>
					<path d="M9 291.96 a0 0 0 1 1 0 0 a0 0 0 1 1 0 0 Z" class="st1"/>
				</g>
				<g id="shape14-34" transform="translate(22.5,262.8)">
					<title>Sheet.14</title>
				</g>
				<g id="shape15-36" transform="translate(325.71,291.96) rotate(90)">
					<title>Sheet.15</title>
					<path d="M0 291.96 L244.8 291.96" class="st2"/>
				</g>
				<g id="shape11-39">
					<rect x="0" y="266.76" width="67.5" height="25.2" class="st1"/>
					<text x="8.75" y="282.96" class="st5">CPU-sgx</text>				</g>
			</g>
			<g id="shape16-42" transform="translate(144,-171)">
				<title>Message.50</title>
				<desc>mmap(addr, len, PROT_READ | PROT_WRITE, MAP_SHARED|MAP_POPUPL...</desc>
				<path d="M0 282.96 L123.52 282.96" class="st6"/>
				<rect x="3.99886" y="229.56" width="127.002" height="38.3997" class="st8"/>
				<text x="38.38" y="236.76" class="st9">mmap(addr, len,  <tspan x="12.46" dy="1.2em" class="st4">PROT</tspan>_READ | PROT_WRITE, <tspan
							x="4" dy="1.2em" class="st4">MAP</tspan>_SHARED|MAP_POPUPLATE <tspan x="36.9" dy="1.2em" class="st4">|</tspan>MAP_FIXED, fd)</text>			</g>
			<g id="group24-53" transform="translate(0,-234)">
				<title>Object lifeline.24</title>
				<desc>Enclave</desc>
				<g id="shape25-54">
					<title>Sheet.25</title>
					<rect x="0" y="266.76" width="54" height="25.2" class="st1"/>
				</g>
				<g id="shape26-56" transform="translate(18,-28.8)">
					<title>Sheet.26</title>
					<path d="M9 291.96 a0 0 0 1 1 0 0 a0 0 0 1 1 0 0 Z" class="st1"/>
				</g>
				<g id="shape27-58" transform="translate(18,262.8)">
					<title>Sheet.27</title>
				</g>
				<g id="shape28-60" transform="translate(318.96,291.96) rotate(90)">
					<title>Sheet.28</title>
					<path d="M0 291.96 L244.8 291.96" class="st2"/>
				</g>
				<g id="shape24-63">
					<rect x="0" y="266.76" width="54" height="25.2" class="st1"/>
					<text x="4.32" y="282.96" class="st5">Enclave</text>				</g>
			</g>
			<g id="shape29-66" transform="translate(27,-207)">
				<title>Message.29</title>
				<desc>OCALL_mmap</desc>
				<path d="M0 282.96 L110.02 282.96" class="st6"/>
				<rect x="32.045" y="278.16" width="52.9099" height="9.59985" class="st8"/>
				<text x="32.05" y="285.36" class="st9">OCALL_mmap</text>			</g>
			<g id="shape30-73" transform="translate(274.5,-153)">
				<title>Message.30</title>
				<desc>EAUG</desc>
				<path d="M0 282.96 L98.77 282.96" class="st6"/>
				<rect x="41.5391" y="278.16" width="22.6717" height="9.59985" class="st8"/>
				<text x="41.54" y="285.36" class="st9">EAUG</text>			</g>
			<g id="shape32-80" transform="translate(274.5,-117)">
				<title>Return Message.53</title>
				<desc>address</desc>
				<path d="M0 282.96 L-130.5 282.96" class="st10"/>
				<rect x="-79.4805" y="278.16" width="28.4612" height="9.59985" class="st8"/>
				<text x="-79.48" y="285.36" class="st9">address</text>			</g>
			<g id="shape33-88" transform="translate(27,-63)">
				<title>Message.33</title>
				<desc>EACCEPT</desc>
				<path d="M0 282.96 L346.27 282.96" class="st6"/>
				<rect x="157.733" y="278.16" width="37.7847" height="9.59985" class="st8"/>
				<text x="157.73" y="285.36" class="st9">EACCEPT</text>			</g>
			<g id="group58-95" transform="translate(279,-133.2)">
				<title>Loop fragment</title>
				<g id="shape58-96">
					<rect x="0" y="219.96" width="117" height="72" class="st11"/>
				</g>
				<g id="shape59-98" transform="translate(0,-54.3964)">
					<title>Sheet.59</title>
					<desc>loop</desc>
					<path d="M0 291.96 L56.8 291.96 L64 284.76 L64 274.36 L0 274.36 L0 291.96 Z" class="st1"/>
					<text x="4" y="285.56" class="st12">loop</text>				</g>
				<g id="shape60-101" transform="translate(0,-36.7929)">
					<title>Sheet.60</title>
					<desc>[for each page]</desc>
					<text x="4" y="285.56" class="st9">[for each page]</text>				</g>
			</g>
			<g id="group61-103" transform="translate(9,-56.7)">
				<title>Loop fragment.61</title>
				<g id="shape61-104">
					<rect x="0" y="233.46" width="400.5" height="58.5" class="st11"/>
				</g>
				<g id="shape62-106" transform="translate(0,-40.8964)">
					<title>Sheet.62</title>
					<desc>loop</desc>
					<path d="M0 291.96 L56.8 291.96 L64 284.76 L64 274.36 L0 274.36 L0 291.96 Z" class="st1"/>
					<text x="4" y="285.56" class="st12">loop</text>				</g>
				<g id="shape63-109" transform="translate(0,-23.2929)">
					<title>Sheet.63</title>
					<desc>[for each page]</desc>
					<text x="4" y="285.56" class="st9">[for each page]</text>				</g>
			</g>
			<g id="shape64-111" transform="translate(18,-36)">
				<title>Self Message.52</title>
				<desc>use the new pages</desc>
				<path d="M9 291.96 L27 291.96 L27 327.96 L15.98 327.96" class="st6"/>
				<rect x="-2.07988" y="306.96" width="67.1597" height="9.59985" class="st8"/>
				<text x="-2.08" y="314.16" class="st9">use the new pages</text>			</g>
			<g id="shape68-118" transform="translate(144,-117)">
				<title>Return Message.68</title>
				<path d="M0 282.96 L-117 282.96" class="st10"/>
			</g>
		</g>
	</g>
</svg>
